<?xml version="1.0" encoding="utf-8"?>
<!-- Generator: Adobe Illustrator 15.0.0, SVG Export Plug-In  -->
<!DOCTYPE svg PUBLIC "-//W3C//DTD SVG 1.1//EN" "http://www.w3.org/Graphics/SVG/1.1/DTD/svg11.dtd" [
	<!ENTITY ns_flows "http://ns.adobe.com/Flows/1.0/">
]>
<svg version="1.1"
	 xmlns="http://www.w3.org/2000/svg" xmlns:xlink="http://www.w3.org/1999/xlink" xmlns:a="http://ns.adobe.com/AdobeSVGViewerExtensions/3.0/"
	 x="0px" y="0px" width="500px" height="500px" viewBox="91 115 500 500"
	 overflow="visible" enable-background="new 91 115 500 500" xml:space="preserve">
<defs>
</defs>
<rect display="none" fill="#0777BC" width="674" height="1112"/>
<polygon opacity="0.88" fill="#BDCCD4" points="209,463 346.334,545.333 470,463 470,292 209,292 "/>
<polygon fill="#BDCCD4" points="221,475 346.334,545.333 470,463 470,292 464,292 "/>
<rect x="195" y="320.576" fill="none" width="281" height="101.424"/>
<text transform="matrix(1 0 0 1 236.502 400.5752)" fill="#EC202A" font-family="'NBADetroitPistons'" font-size="100">2017  </text>
<path d="M551,287.294l19.676-41.382h-32.4l-400.132,0.144h-32.391L128,287.435l-22.248,43.951h88.132
	c-3.068,34.975-5.994,75.794-5.994,106.5c0,46.01,52.816,70.199,95.197,89.682c16.351,7.422,50.379,29.973,55.17,33.113v-0.143
	c4.764-3.194,38.742-25.691,55.082-33.184c42.373-19.41,95.197-43.603,95.197-89.631c0-30.757-2.854-71.576-5.994-106.463h88.133
	L551,287.294z M383.209,505.375c-18.555,8.491-34.541,19.73-45.021,28.293l0,0c-10.507-8.582-26.422-19.657-44.958-28.134
	c-36.118-16.573-81.076-37.195-81.076-67.597c0-40.677,5.424-101.325,9.277-139.798l233.568-0.143
	c3.926,38.473,9.277,99.051,9.277,139.727C464.275,468.195,419.316,488.748,383.209,505.375L383.209,505.375z M528.148,288.991
	l-381.131,0.146 M522.148,281.806"/>
<g>
	<defs>
		<rect id="SVGID_2_" x="288.7" y="460.242" width="44.72" height="44.72"/>
	</defs>
	<clipPath id="SVGID_3_">
		<use xlink:href="#SVGID_2_"  overflow="visible"/>
	</clipPath>
	<path clip-path="url(#SVGID_3_)" fill="#333333" d="M311.738,460.986l5.602,13.245l14.326,1.225c0.992,0.088,1.4,1.336,0.639,1.984
		l-10.863,9.418l3.254,14.007c0.232,0.97-0.826,1.742-1.676,1.224l-12.318-7.433l-12.319,7.433c-0.85,0.508-1.908-0.254-1.677-1.224
		l3.254-14.007l-10.875-9.418c-0.749-0.66-0.342-1.896,0.651-1.984l14.327-1.225l5.602-13.245
		C310.051,460.062,311.352,460.062,311.738,460.986L311.738,460.986z M311.738,460.986"/>
	<path clip-path="url(#SVGID_3_)" d="M368.738,460.986l5.602,13.245l14.326,1.225c0.992,0.088,1.4,1.336,0.639,1.984l-10.863,9.418
		l3.254,14.007c0.232,0.97-0.826,1.742-1.676,1.224l-12.318-7.433l-12.318,7.433c-0.85,0.508-1.908-0.254-1.678-1.224l3.254-14.007
		l-10.875-9.418c-0.748-0.66-0.342-1.896,0.652-1.984l14.326-1.225l5.602-13.245C367.051,460.062,368.352,460.062,368.738,460.986
		L368.738,460.986z M368.738,460.986"/>
</g>
<path fill="#333333" d="M365.738,460.986l5.602,13.245l14.326,1.225c0.992,0.088,1.4,1.336,0.639,1.984l-10.863,9.418l3.254,14.007
	c0.232,0.97-0.826,1.742-1.676,1.224l-12.318-7.433l-12.318,7.433c-0.85,0.508-1.908-0.254-1.678-1.224l3.254-14.007l-10.875-9.418
	c-0.748-0.66-0.342-1.896,0.652-1.984l14.326-1.225l5.602-13.245C364.051,460.062,365.352,460.062,365.738,460.986L365.738,460.986z
	 M365.738,460.986"/>
<path fill="#333333" d="M339.238,414.486l5.602,13.245l14.326,1.225c0.992,0.088,1.4,1.336,0.639,1.984l-10.863,9.418l3.254,14.007
	c0.232,0.97-0.826,1.742-1.676,1.224l-12.318-7.433l-12.318,7.433c-0.85,0.508-1.908-0.254-1.678-1.224l3.254-14.007l-10.875-9.418
	c-0.748-0.66-0.342-1.896,0.652-1.984l14.326-1.225l5.602-13.245C337.551,413.562,338.852,413.562,339.238,414.486L339.238,414.486z
	 M339.238,414.486"/>
<g>
	<defs>
		<rect id="SVGID_1_" x="288.7" y="416.242" width="44.72" height="44.72"/>
	</defs>
	<clipPath id="SVGID_4_">
		<use xlink:href="#SVGID_1_"  overflow="visible"/>
	</clipPath>
	<path clip-path="url(#SVGID_4_)" d="M368.738,416.986l5.602,13.245l14.326,1.225c0.992,0.088,1.4,1.336,0.639,1.984l-10.863,9.418
		l3.254,14.007c0.232,0.97-0.826,1.742-1.676,1.224l-12.318-7.433l-12.318,7.433c-0.85,0.508-1.908-0.254-1.678-1.224l3.254-14.007
		l-10.875-9.418c-0.748-0.66-0.342-1.896,0.652-1.984l14.326-1.225l5.602-13.245C367.051,416.062,368.352,416.062,368.738,416.986
		L368.738,416.986z M368.738,416.986"/>
</g>
<path d="M337,294H166v-70.546c0,0,49.7-25.705,171-25.705C337,218.664,337,294,337,294z"/>
<path d="M334,294h171v-70.546c0,0-49.699-25.705-171-25.705C334,218.664,334,294,334,294z"/>
<rect x="257.955" y="217.576" display="none" fill="none" width="160.045" height="67.424"/>
<text transform="matrix(1 0 0 1 275.9868 275.1753)" display="none" fill="#F2F2F2" font-family="'NBADetroitPistons'" font-size="72">RAFA  </text>
<path fill="#333333" d="M295.119,416.68l4.964,11.739l12.697,1.085c0.879,0.078,1.241,1.184,0.566,1.759l-9.627,8.347l2.884,12.414
	c0.206,0.859-0.732,1.544-1.485,1.084l-10.917-6.587l-10.917,6.587c-0.753,0.45-1.691-0.225-1.486-1.084l2.884-12.414l-9.638-8.347
	c-0.664-0.585-0.303-1.681,0.578-1.759l12.697-1.085l4.964-11.739C293.623,415.86,294.776,415.86,295.119,416.68L295.119,416.68z
	 M295.119,416.68"/>
<path fill="#333333" d="M383.835,416.68l4.965,11.739l12.697,1.085c0.879,0.078,1.241,1.184,0.565,1.759l-9.628,8.347l2.884,12.414
	c0.206,0.859-0.731,1.544-1.484,1.084l-10.918-6.587l-10.917,6.587c-0.753,0.45-1.691-0.225-1.487-1.084l2.884-12.414l-9.638-8.347
	c-0.663-0.585-0.303-1.681,0.578-1.759l12.696-1.085l4.965-11.739C382.34,415.86,383.492,415.86,383.835,416.68L383.835,416.68z
	 M383.835,416.68"/>
<path fill="#333333" d="M251.368,416.68l4.965,11.739l12.697,1.085c0.879,0.078,1.241,1.184,0.566,1.759l-9.628,8.347l2.884,12.414
	c0.206,0.859-0.732,1.544-1.485,1.084l-10.917-6.587l-10.917,6.587c-0.753,0.45-1.691-0.225-1.487-1.084l2.884-12.414l-9.638-8.347
	c-0.663-0.585-0.303-1.681,0.578-1.759l12.697-1.085l4.965-11.739C249.872,415.86,251.025,415.86,251.368,416.68L251.368,416.68z
	 M251.368,416.68"/>
<path fill="#333333" d="M427.376,416.907l4.965,11.739l12.696,1.085c0.88,0.078,1.241,1.184,0.566,1.759l-9.628,8.347l2.884,12.414
	c0.206,0.859-0.732,1.544-1.485,1.084l-10.917-6.587l-10.917,6.587c-0.753,0.45-1.691-0.225-1.487-1.084l2.884-12.414l-9.638-8.347
	c-0.663-0.585-0.304-1.681,0.578-1.759l12.696-1.085l4.965-11.739C425.881,416.088,427.033,416.088,427.376,416.907L427.376,416.907
	z M427.376,416.907"/>
<path fill="#333333" d="M406.376,451.407l4.965,11.739l12.696,1.085c0.88,0.078,1.241,1.184,0.566,1.759l-9.628,8.347l2.884,12.414
	c0.206,0.859-0.732,1.544-1.485,1.084l-10.917-6.587l-10.917,6.587c-0.753,0.45-1.691-0.225-1.487-1.084l2.884-12.414l-9.638-8.347
	c-0.663-0.585-0.304-1.681,0.578-1.759l12.696-1.085l4.965-11.739C404.881,450.588,406.033,450.588,406.376,451.407L406.376,451.407
	z M406.376,451.407"/>
<path fill="#333333" d="M273.376,451.407l4.965,11.739l12.696,1.085c0.88,0.078,1.241,1.184,0.566,1.759l-9.628,8.347l2.884,12.414
	c0.206,0.859-0.732,1.544-1.485,1.084l-10.917-6.587l-10.917,6.587c-0.753,0.45-1.691-0.225-1.487-1.084l2.884-12.414l-9.638-8.347
	c-0.663-0.585-0.304-1.681,0.578-1.759l12.696-1.085l4.965-11.739C271.881,450.588,273.033,450.588,273.376,451.407L273.376,451.407
	z M273.376,451.407"/>
</svg>
