<?xml version="1.0" encoding="utf-8"?>
<!-- Generator: Adobe Illustrator 15.0.0, SVG Export Plug-In  -->
<!DOCTYPE svg PUBLIC "-//W3C//DTD SVG 1.1//EN" "http://www.w3.org/Graphics/SVG/1.1/DTD/svg11.dtd" [
	<!ENTITY ns_flows "http://ns.adobe.com/Flows/1.0/">
]>
<svg version="1.1"
	 xmlns="http://www.w3.org/2000/svg" xmlns:xlink="http://www.w3.org/1999/xlink" xmlns:a="http://ns.adobe.com/AdobeSVGViewerExtensions/3.0/"
	 x="0px" y="0px" width="500px" height="500px" viewBox="-14 -23 500 500"
	 overflow="visible" enable-background="new -14 -23 500 500" xml:space="preserve">
<defs>
</defs>
<polygon fill="#A3213B" points="67.615,116.399 0.044,141.919 67.615,141.919 "/>
<polygon fill="#A3213B" points="401.404,116.399 468.976,141.919 401.404,141.919 "/>
<path fill="#E85D63" d="M244.021,14.912c-6.927-6.919-12.456-6.793-20.771,0c0,0-41.529,31.148-72.679,48.455
	c-27.684,10.379-72.679,10.379-86.518,10.379h-3.466c-3.459,0-10.379,0-13.838,3.459c-3.46,3.466-3.46,10.386-3.46,13.845v193.813
	c0,48.453,134.973,173.041,190.347,173.041c51.915,0,190.354-124.588,190.354-173.041V91.051c0-3.459-3.46-10.379-6.926-13.845
	c-3.461-3.459-6.921-3.459-13.84-3.459c0,0-44.994,3.459-86.523-13.84C271.705,39.136,244.021,14.912,244.021,14.912L244.021,14.912
	z"/>
<path fill="#0877BB" d="M244.021,14.912c-6.927-6.919-12.456-6.793-20.771,0c0,0-41.529,31.148-72.679,48.455
	c-27.684,10.379-72.679,10.379-86.518,10.379h-3.466c-3.459,0-10.379,0-13.838,3.459c-3.46,3.466-3.46,10.386-3.46,13.845v193.813
	c0,48.453,134.973,173.041,190.347,173.041c51.915,0,190.354-124.588,190.354-173.041V91.051c0-3.459-3.46-10.379-6.926-13.845
	c-3.461-3.459-6.921-3.459-13.84-3.459c0,0-44.994,3.459-86.523-13.84C271.705,39.136,244.021,14.912,244.021,14.912L244.021,14.912
	z"/>
<rect y="141.81" fill="#C8202F" width="469.8" height="88.74"/>
<rect x="27.84" y="186.18" fill="#EA242C" width="411.51" height="88.74"/>
<polygon fill="#D62534" points="67.498,171.462 27.767,186.251 67.498,186.251 "/>
<polygon fill="#D62534" points="401.521,171.462 441.253,186.251 401.521,186.251 "/>
<path fill="#EAEAE9" stroke="#333333" stroke-width="5" stroke-miterlimit="10" d="M242.775,41.182
	c-6.096-6.086-10.961-5.976-18.277,0c0,0-36.546,27.412-63.959,42.642c-24.36,9.133-63.955,9.133-76.135,9.133h-3.052
	c-3.042,0-9.131,0-12.176,3.045c-3.045,3.048-3.045,9.138-3.045,12.184v170.555c0,42.639,118.777,152.274,167.505,152.274
	c45.685,0,167.514-109.637,167.514-152.274V108.186c0-3.045-3.046-9.135-6.098-12.184c-3.044-3.045-6.089-3.045-12.177-3.045
	c0,0-39.596,3.045-76.143-12.18C267.139,62.5,242.775,41.182,242.775,41.182L242.775,41.182z"/>
<polyline fill="none" points="474,231.28 478.5,0 92.94,102.52 "/>
<path fill="#AAAAAA" d="M241.861,60.448c-5.486-5.478-9.865-5.378-16.449,0c0,0-32.891,24.67-57.563,38.378
	c-21.924,8.219-57.56,8.219-68.522,8.219h-2.747c-2.738,0-8.218,0-10.958,2.741c-2.74,2.743-2.74,8.224-2.74,10.966v153.5
	c0,38.374,106.899,137.047,150.754,137.047c41.116,0,150.762-98.673,150.762-137.047v-153.5c0-2.741-2.741-8.222-5.488-10.966
	c-2.739-2.741-5.479-2.741-10.959-2.741c0,0-35.636,2.741-68.528-10.962C263.789,79.634,241.861,60.448,241.861,60.448
	L241.861,60.448z"/>
<path display="none" fill="#444444" d="M302.319,140.92h8.181v-19.712h-148v19.712h8.181v5.118c0,32.116,10.989,61.573,29.09,79.055
	c-18.101,17.466-29.09,46.922-29.09,79.039v6.453H162.5v19.717h148v-19.717h-8.181v-6.453c0-32.116-10.99-61.572-29.09-79.039
	c18.1-17.482,29.09-46.925,29.09-79.055V140.92z M259.439,219.949l-6.781,5.143l6.781,5.143c16.94,12.844,28.31,38.846,29.81,67.441
	H183.751c1.5-28.582,12.869-54.598,29.81-67.441l6.78-5.143l-6.78-5.143c-16.941-12.855-28.31-38.857-29.81-67.458h105.498
	C287.749,181.092,276.38,207.094,259.439,219.949L259.439,219.949z M197.351,162.752h78.299c-1.135,21.704-9.77,41.456-22.639,51.21
	c0,0-2.205,0.958-5.143,3.909c-6.099,8.697-6.414,40.484-6.427,41.881c4.373,0.469,9.087,2.307,13.776,6.581
	c16.511,15.098,21.301,16.878,21.881,27.831h-77.44c0.577-10.953,9.967-18.796,21.88-27.831c0,0,5.671-4.969,13.612-6.352
	c-0.139-0.24-0.227-0.416-0.227-0.416c0-29.935-9.794-42.779-9.794-42.779l-6.944-3.895
	C205.319,203.124,198.483,184.456,197.351,162.752L197.351,162.752z M197.351,162.752"/>
<path display="none" fill="#444444" d="M291.475,120.5l0.221,4.688c0.127,2.725-0.538,4.784-2.059,6.332
	c-2.027,2.094-5.354,3.14-8.141,3.618c0.127-2.407,0.221-4.818,0.286-7.356h-92.87c0.088,2.538,0.186,4.949,0.282,7.356
	c-2.787-0.479-6.082-1.524-8.109-3.618c-1.521-1.548-2.221-3.639-2.09-6.332l0.221-4.688h-24.58l0.096,4.558
	c1.366,78.59,34.621,97.6,49.824,102.188l-2.497,3.548l7.344,5.164l2.499-3.58c5.012,9.345,9.38,15.3,11.249,20.051h-3.389v7.096
	h4.148c-1.679,11.023-23.913,23.725-23.913,23.725v6.715h-5.448v38.138h81.595v-38.138h-5.448v-6.715
	c0,0-22.203-12.701-23.882-23.725h4.148v-7.096h-3.39c1.838-4.751,6.21-10.706,11.213-20.051l2.503,3.58l7.349-5.164l-2.501-3.548
	c15.234-4.589,48.495-23.598,49.857-102.188l0.062-4.558H291.475z M163.79,129.46h6.561c0.633,3.235,2.083,6.082,4.338,8.37
	c4.491,4.558,10.921,5.951,15.011,6.368c2.407,34.581,8.773,57.677,15.399,73.796C192.077,213.219,166.07,195.445,163.79,129.46
	L163.79,129.46z M265.595,217.994c6.62-16.119,12.987-39.215,15.395-73.796c4.117-0.417,10.548-1.81,15.016-6.368
	c2.248-2.288,3.706-5.135,4.338-8.37h6.558C304.619,195.445,278.645,213.219,265.595,217.994L265.595,217.994z M265.595,217.994"/>
<path display="none" fill="#444444" d="M347.574,227.688c-0.138-0.115-0.34-0.15-0.499-0.1c-0.192,0.06-0.367,0.11-0.534,0.159
	l-0.081,0.024c-0.409,0.121-0.763,0.224-1.114,0.364c-5.541,2.2-9.901,5.972-13.334,11.528c-0.85,1.372-1.505,2.802-2.028,4.223
	c0.857-4.787,1.058-6.65,1.208-12.009c0.008-0.224,0.008-0.452,0.008-0.679c0-0.621,0-1.206,0.135-1.74
	c0.162-0.633,0.488-1.265,0.805-1.874c0.088-0.172,0.178-0.345,0.25-0.499c0.027-0.029,0.107-0.078,0.141-0.083
	c1.586-0.243,2.984-0.914,4.285-2.058c1.308-1.154,2.387-2.57,3.201-4.207c2.923-5.862,4.385-12.343,4.35-19.26
	c-0.006-0.666-0.084-1.315-0.17-2.022c-0.038-0.315-0.078-0.64-0.111-0.974c-0.019-0.187-0.132-0.348-0.297-0.429
	c-0.161-0.078-0.355-0.073-0.52,0.027c-0.1,0.062-0.184,0.11-0.262,0.156c-0.148,0.089-0.262,0.156-0.367,0.234
	c-2.494,1.788-4.695,4.013-6.539,6.614c-3.012,4.251-4.762,9.054-5.234,14.342c-0.046-0.591-0.094-1.179-0.143-1.77l-0.017-0.213
	c-0.183-2.311-0.374-4.7-0.531-7.049c-0.04-0.594-0.153-1.173-0.265-1.733c-0.213-1.076-0.415-2.093-0.092-3.158
	c0.073-0.24,0.135-0.482,0.197-0.726c0.151-0.599,0.887-1.521,2.02-2.529l0.041-0.041c0.418-0.353,2.559-2.311,3.775-6.188
	c1.232-3.938,1.141-8.052,1.07-11.056v-0.078c-0.092-4.133-0.537-7.244-1.448-10.094c-0.116-0.364-0.256-0.723-0.404-1.101
	c-0.078-0.197-0.156-0.401-0.237-0.615c-0.064-0.179-0.224-0.31-0.41-0.34l-0.092-0.009c-0.161,0-0.312,0.071-0.415,0.197
	l-0.882,1.076c-4.238,5.173-6.323,11.234-6.191,18.024c0.021,1.195,0.11,2.422,0.27,3.689c-1.078-3.719-2.34-7.337-3.777-10.819
	c-0.03-0.078-0.049-0.173-0.052-0.25l-0.011-0.478c-0.014-0.688-0.029-1.396,0-2.098c0.002-0.116,0.078-0.324,0.234-0.529
	c0.225-0.294,0.469-0.579,0.723-0.877c0.438-0.506,0.885-1.029,1.24-1.625c1.146-1.918,1.684-4.187,1.693-7.133
	c0.014-3.474-0.52-7.125-1.688-11.499c-0.637-2.384-1.6-5.482-3.39-8.292c-0.122-0.188-0.259-0.366-0.401-0.556
	c-0.065-0.083-0.135-0.172-0.205-0.267c-0.1-0.139-0.24-0.216-0.467-0.216c-0.181,0.014-0.343,0.116-0.432,0.274
	c-2.249,4.059-3.371,8.396-3.422,13.258c-0.046,4.053,0.585,7.539,1.381,10.296c-2.02-3.689-4.264-7.255-6.699-10.637l-0.054-0.077
	c-0.057-0.073-0.078-0.108-0.075-0.084c-0.154-1.092-0.259-1.97-0.332-2.731c0-0.012,0.017-0.076,0.13-0.265
	c0.159-0.275,0.337-0.542,0.522-0.828c0.378-0.568,0.764-1.159,1.012-1.823c0.752-1.995,0.92-4.261,0.516-6.922
	c-0.891-5.887-3.484-11.186-7.932-16.205c-0.458-0.514-0.965-0.97-1.499-1.452l-0.148-0.136c-0.21-0.188-0.423-0.383-0.643-0.587
	c-0.137-0.13-0.333-0.181-0.524-0.125c-0.184,0.057-0.322,0.208-0.365,0.395l-0.1,0.429c-0.064,0.28-0.115,0.504-0.153,0.728
	c-0.599,3.573-0.556,7.402,0.135,11.704c0.683,4.263,2.044,7.943,4.134,11.14c-3.133-3.694-6.184-6.796-9.368-9.544
	c-0.017-0.019-0.034-0.075-0.038-0.091c0.248-2.145-0.279-4.167-1.617-6.179c-1.759-2.646-4.201-4.659-7.262-5.992
	c-1.832-0.792-3.728-1.497-5.586-2.184c-0.89-0.332-1.779-0.661-2.693-1.015c-0.922-0.363-1.316-0.429-1.529-0.231
	c-0.275,0.256-0.211,0.475-0.089,0.871l0.038,0.132c1.124,3.781,2.613,6.771,4.557,9.142c3.568,4.357,7.74,6.571,12.75,6.767
	c0.176,0.011,0.312,0.059,0.369,0.104c0.707,0.529,1.228,0.949,1.686,1.367c1.451,1.326,2.881,2.74,4.277,4.229
	c-2.079-1.292-4.619-1.874-7.483-1.729c-1.566,0.078-3.122,0.308-4.628,0.528l-0.057,0.011c-0.444,0.065-0.887,0.129-1.326,0.191
	c-0.969,0.13-1.941,0.303-2.802,0.453c-0.349,0.062-1.181,0.251-1.372,0.655c-0.068,0.138-0.062,0.289,0.013,0.427
	c0.067,0.118,0.141,0.231,0.219,0.334c2.483,3.223,5.317,5.344,8.661,6.488c4.078,1.402,7.823,1.286,11.189-0.361
	c0.515-0.283,1.137-0.429,1.847-0.429c0.534,0,0.936,0.086,1.067,0.116c0.2,0.032,0.47,0.146,0.526,0.216
	c2.093,2.753,4.08,5.692,5.936,8.779c-1.567-1.522-3.611-2.553-6.397-3.223c-2.439-0.579-4.934-0.706-7.348-0.827l-0.809-0.04
	c-0.756-0.038-1.514-0.087-2.293-0.135l-1.305-0.081c-0.17,0-0.329,0.081-0.429,0.218c-0.108,0.146-0.136,0.335-0.07,0.508
	c0.052,0.14,0.148,0.394,0.196,0.477c2.543,4.256,5.531,7.197,9.135,8.998c3.519,1.759,6.701,2.226,9.906,1.457
	c0.373-0.089,0.802-0.138,1.246-0.138c1.365,0,2.316,0.418,2.517,0.804c1.767,3.641,3.341,7.424,4.7,11.282
	c-1.427-1.962-3.416-3.559-5.941-4.753c-2.504-1.182-5.115-2.263-7.682-3.329c-1.104-0.455-2.212-0.913-3.314-1.38
	c-0.165-0.072-0.359-0.06-0.513,0.043c-0.148,0.1-0.24,0.268-0.24,0.444c0,0.346,3.662,10.51,8.979,14.515
	c2.172,1.634,4.844,3.314,8.212,3.393c1.009,0.021,2.052,0.161,2.84,1.057c0.118,0.143,0.28,0.254,0.453,0.312
	c0.27,0.09,0.343,0.253,0.475,0.814c1.092,4.582,1.888,9.304,2.376,14.102c-0.148-0.488-0.318-0.979-0.516-1.476
	c-1.191-3.021-3.195-5.66-6.305-8.313c-1.604-1.373-3.281-2.702-4.905-3.988l-0.078-0.06c-0.739-0.588-1.478-1.171-2.214-1.761
	c-0.151-0.121-0.299-0.248-0.469-0.396l-0.462-0.392c-0.159-0.137-0.399-0.164-0.588-0.069c-0.191,0.096-0.308,0.298-0.291,0.515
	c0.021,0.324,0.04,0.631,0.057,0.925l0.008,0.138c0.038,0.606,0.073,1.176,0.132,1.741c0.578,5.497,2.212,10.084,4.998,14.026
	c1.725,2.438,4.198,5.417,8.057,6.824c0.939,0.346,1.621,0.869,2.35,1.805c0.688,0.877,0.816,1.678,0.801,2.687
	c-0.064,4.224-0.367,8.416-0.898,12.521c-0.124-1.144-0.385-2.319-0.79-3.541c-0.836-2.529-2.138-4.988-3.983-7.519
	c-1.59-2.189-3.246-4.387-4.848-6.515l-0.108-0.143c-0.634-0.843-1.268-1.686-1.888-2.512c-0.115-0.167-0.283-0.229-0.377-0.262
	c-0.139-0.066-0.303-0.074-0.448-0.013c-0.143,0.062-0.251,0.181-0.3,0.328l-0.018,0.057c-0.027,0.079-0.047,0.146-0.061,0.214
	c-1.103,6.588-0.426,12.488,2.072,18.043c1.221,2.716,2.857,5.793,5.743,8.004c1.315,1.012,2.356,2.428,2.926,3.991
	c0.122,0.335,0.118,0.48,0.103,0.537c-1.219,5.059-2.815,9.937-4.754,14.554c0.498-2.433,0.467-4.989-0.105-7.637
	c-0.809-3.754-2.197-7.392-3.438-10.507l-0.373-0.933c-0.582-1.459-1.168-2.932-1.771-4.455c-0.078-0.197-0.262-0.329-0.51-0.34
	c-0.193,0-0.372,0.11-0.467,0.291l-0.193,0.367c-0.087,0.159-0.165,0.31-0.234,0.464c-2.495,5.631-3.34,11.401-2.503,17.153
	c0.596,4.112,1.606,7.06,3.276,9.552c0.865,1.286,1.686,2.721,1.834,4.487c0.035,0.418,0.019,0.703-0.168,1.032
	c-2.105,3.688-4.468,7.168-7.055,10.404c0.012-0.019,0.021-0.035,0.03-0.054c1.86-3.401,1.917-7.076,1.729-10.227
	c-0.165-2.699-0.475-5.393-0.771-7.999l-0.019-0.149c-0.119-1.044-0.237-2.088-0.348-3.134c-0.062-0.594-0.133-1.185-0.205-1.785
	l-0.095-0.814c-0.021-0.181-0.132-0.337-0.288-0.417c-0.295-0.152-0.771,0.085-1.283,0.69c-3.531,4.176-5.721,8.896-6.51,14.024
	c-0.823,5.32-0.379,9.872,1.358,13.917c0.046,0.105,0.046,0.326,0.046,0.399l-0.094,2.327c-0.014,0.167-0.104,0.355-0.176,0.426
	c-3.525,3.396-7.405,6.346-11.568,8.802c1.971-1.782,3.389-4.106,4.307-7.052c1.019-3.266,1.539-6.663,2.047-9.958l0.043-0.294
	c0.18-1.157,0.366-2.312,0.558-3.492l0.216-1.335c0.032-0.194-0.046-0.39-0.197-0.507c-0.148-0.119-0.363-0.146-0.536-0.073
	l-0.188,0.078c-0.203,0.081-0.375,0.156-0.543,0.24c-7.871,3.932-13.055,13.101-12.32,21.803c0.115,1.364-0.011,2.643-0.383,3.912
	c-0.035,0.113-0.146,0.24-0.191,0.262c-3.738,1.575-7.295,2.727-10.871,3.517c-0.184,0.043-0.328,0.173-0.388,0.351
	c-0.062,0.178-0.024,0.372,0.097,0.518c0.389,0.461,0.729,0.958,1.006,1.476c0.116,0.213,0.386,0.32,0.591,0.267
	c2.915-0.663,5.752-1.523,8.438-2.559c0.218-0.09,0.383-0.13,0.539-0.105c0.596,0.081,1.227,0.202,1.928,0.377
	c0.146,0.035,0.264,0.103,0.268,0.098c1.531,3.05,4.163,4.994,8.047,5.94c0.844,0.202,1.715,0.354,2.588,0.445
	c0.917,0.097,1.937,0.146,3.031,0.146c1.521,0,2.603-0.095,2.615-0.095c3.369-0.377,6.244-1.135,8.789-2.318
	c1.047-0.483,2.235-1.136,3.15-2.301c0.175-0.224,0.147-0.545-0.065-0.733c-2.589-2.281-5.221-3.939-8.055-5.069
	c-4.196-1.667-8.021-2.12-11.766-1.397c-0.562,0.108-1.108,0.245-1.64,0.402c3.506-2.096,6.863-4.558,10.031-7.365
	c0.062-0.054,0.162-0.103,0.24-0.115c0.518-0.087,1.205-0.191,1.912-0.243c0.064,0,0.148,0.029,0.156,0.035
	c1.909,2.136,4.371,3.174,7.521,3.174c0.161,0,0.323-0.003,0.482-0.008c3.428-0.11,6.873-1.052,10.242-2.8
	c2.448-1.277,5.002-2.764,7.07-4.983c0.461-0.493,0.871-1.052,1.232-1.542l0.035-0.049c0.159-0.216,0.32-0.434,0.488-0.652
	c0.089-0.116,0.129-0.265,0.105-0.418c-0.027-0.146-0.111-0.275-0.254-0.369c-0.038-0.02-0.914-0.488-1.715-0.799
	c-5.359-2.07-10.768-2.284-15.927-0.62c-1.69,0.542-3.279,1.359-4.827,2.483c2.861-3.327,5.512-6.976,7.92-10.899
	c0.024-0.043,0.094-0.154,0.116-0.176c0.21-0.135,0.426-0.263,0.642-0.386c0.383-0.227,0.782-0.461,1.156-0.74
	c0.316-0.232,0.405-0.238,0.723-0.033c0.453,0.291,0.979,0.445,1.438,0.563c2.678,0.688,5.377,0.346,8.365-1.057
	c2.727-1.278,4.824-3.301,6.686-5.294c2.707-2.91,4.477-5.533,5.568-8.26c0.229-0.572,0.394-1.162,0.563-1.782
	c0.07-0.259,0.141-0.519,0.219-0.774c0.081-0.272-0.065-0.563-0.335-0.658l-0.224-0.019c-1.103,0-10.95,0.162-16.714,5.751
	c-1.251,1.217-2.375,2.509-3.4,3.925c2.279-4.827,4.209-9.913,5.768-15.19l0.022-0.078c0.019-0.064,0.048-0.162,0.067-0.188
	l1.504-2.068c0.057-0.084,0.065-0.084,0.154-0.084c0.038,0,0.081,0.003,0.129,0.005l0.324,0.02c1.119,0.07,1.779,0.06,2.324-0.024
	c2.145-0.34,4.08-1.419,5.917-3.304c4.298-4.406,7.257-9.904,9.044-16.808c0.191-0.739,0.246-1.486,0.303-2.279
	c0.023-0.358,0.054-0.728,0.094-1.11C347.784,227.977,347.714,227.801,347.574,227.688L347.574,227.688z M347.574,227.688"/>
<path display="none" fill="#444444" d="M201.773,307.936c-3.576-0.788-7.13-1.939-10.871-3.517c-0.042-0.02-0.153-0.146-0.188-0.259
	c-0.375-1.271-0.499-2.552-0.383-3.913c0.731-8.702-4.449-17.871-12.321-21.803c-0.167-0.086-0.343-0.159-0.542-0.242l-0.188-0.076
	c-0.175-0.075-0.391-0.046-0.534,0.07c-0.157,0.119-0.232,0.312-0.202,0.51l0.215,1.332c0.191,1.182,0.38,2.338,0.559,3.495
	l0.045,0.302c0.504,3.287,1.027,6.686,2.047,9.951c0.917,2.944,2.335,5.269,4.307,7.052c-4.167-2.457-8.047-5.407-11.569-8.803
	c-0.075-0.069-0.161-0.259-0.175-0.415l-0.094-2.33c0-0.08-0.003-0.302,0.046-0.409c1.734-4.045,2.178-8.598,1.359-13.915
	c-0.791-5.129-2.98-9.849-6.51-14.022c-0.412-0.488-0.78-0.736-1.084-0.736c-0.076,0-0.143,0.016-0.194,0.043
	c-0.165,0.081-0.272,0.237-0.294,0.418l-0.094,0.812c-0.072,0.604-0.143,1.194-0.208,1.788c-0.107,1.046-0.226,2.087-0.348,3.131
	l-0.016,0.151c-0.299,2.607-0.606,5.302-0.771,8.001c-0.189,3.146-0.135,6.825,1.726,10.226c0.011,0.016,0.019,0.035,0.03,0.051
	c-2.586-3.233-4.948-6.715-7.054-10.4c-0.186-0.329-0.203-0.618-0.167-1.036c0.151-1.764,0.971-3.198,1.836-4.487
	c1.669-2.491,2.681-5.437,3.276-9.549c0.833-5.752-0.008-11.522-2.502-17.153c-0.07-0.156-0.151-0.305-0.234-0.467l-0.197-0.366
	c-0.092-0.181-0.292-0.297-0.501-0.289c-0.21,0.011-0.397,0.144-0.472,0.337c-0.604,1.526-1.189,2.999-1.771,4.458l-0.373,0.933
	c-1.24,3.115-2.631,6.753-3.44,10.504c-0.569,2.651-0.604,5.205-0.102,7.64c-1.942-4.616-3.535-9.495-4.757-14.554
	c-0.014-0.057-0.019-0.202,0.102-0.539c0.572-1.562,1.613-2.98,2.929-3.988c2.885-2.215,4.522-5.29,5.741-8.004
	c2.5-5.556,3.177-11.456,2.071-18.044c-0.011-0.067-0.032-0.138-0.057-0.211l-0.019-0.059c-0.049-0.148-0.159-0.267-0.302-0.331
	c-0.143-0.057-0.321-0.046-0.432,0.008c-0.11,0.039-0.277,0.099-0.385,0.262c-0.626,0.833-1.26,1.676-1.896,2.519l-0.104,0.143
	c-1.602,2.125-3.258,4.323-4.849,6.516c-1.845,2.529-3.147,4.988-3.983,7.518c-0.405,1.222-0.667,2.397-0.79,3.538
	c-0.532-4.104-0.833-8.292-0.898-12.519c-0.017-1.008,0.113-1.809,0.801-2.688c0.728-0.937,1.41-1.456,2.348-1.802
	c3.859-1.41,6.332-4.388,8.058-6.825c2.786-3.942,4.421-8.53,4.995-14.026c0.062-0.565,0.097-1.137,0.132-1.743l0.011-0.138
	c0.016-0.294,0.035-0.599,0.057-0.925c0.016-0.216-0.1-0.418-0.294-0.516c-0.187-0.095-0.423-0.064-0.588,0.072l-0.456,0.392
	c-0.172,0.146-0.321,0.271-0.474,0.396c-0.734,0.591-1.473,1.173-2.211,1.758l-0.079,0.062c-1.623,1.286-3.3,2.615-4.905,3.988
	c-3.112,2.653-5.113,5.294-6.305,8.312c-0.197,0.499-0.367,0.989-0.515,1.478c0.488-4.798,1.283-9.52,2.373-14.101
	c0.136-0.562,0.208-0.726,0.48-0.815c0.173-0.06,0.332-0.169,0.447-0.307c0.791-0.901,1.833-1.044,2.842-1.062
	c3.371-0.081,6.041-1.761,8.211-3.396c5.318-4.004,8.978-14.166,8.978-14.511c0-0.181-0.089-0.348-0.24-0.447
	c-0.151-0.101-0.354-0.113-0.504-0.046c-1.108,0.472-2.217,0.927-3.363,1.402c-2.525,1.046-5.135,2.128-7.64,3.312
	c-2.521,1.191-4.517,2.788-5.94,4.754c1.359-3.858,2.934-7.643,4.694-11.277c0.202-0.394,1.157-0.809,2.522-0.809
	c0.442,0,0.874,0.046,1.246,0.137c3.206,0.769,6.388,0.302,9.907-1.458c3.603-1.799,6.591-4.744,9.134-9.002
	c0.048-0.081,0.145-0.332,0.197-0.472c0.064-0.173,0.037-0.364-0.07-0.507c-0.097-0.139-0.256-0.219-0.461-0.219h-0.003
	l-1.272,0.077c-0.779,0.053-1.535,0.098-2.292,0.139l-0.806,0.04c-2.414,0.122-4.908,0.246-7.348,0.827
	c-2.786,0.67-4.83,1.696-6.397,3.221c1.856-3.088,3.843-6.024,5.936-8.777c0.054-0.073,0.326-0.184,0.548-0.222
	c0.11-0.023,0.512-0.11,1.045-0.11c0.71,0,1.33,0.146,1.856,0.435c3.344,1.634,7.1,1.755,11.177,0.355
	c3.344-1.144,6.178-3.266,8.662-6.485c0.078-0.105,0.151-0.219,0.219-0.337c0.075-0.138,0.081-0.288,0.013-0.426
	c-0.191-0.405-1.022-0.595-1.373-0.655c-0.86-0.151-1.834-0.324-2.799-0.453c-0.443-0.062-0.885-0.127-1.33-0.191l-0.056-0.011
	c-1.504-0.222-3.061-0.45-4.627-0.529c-2.861-0.147-5.404,0.437-7.483,1.731c1.397-1.492,2.826-2.902,4.279-4.23
	c0.459-0.418,0.977-0.839,1.686-1.37c0.054-0.041,0.194-0.089,0.364-0.1c5.013-0.197,9.185-2.412,12.753-6.767
	c1.944-2.373,3.435-5.364,4.557-9.145l0.038-0.129c0.122-0.399,0.187-0.617-0.089-0.874c-0.213-0.196-0.587-0.14-1.559,0.245
	c-0.884,0.34-1.774,0.672-2.686,1.009c-1.833,0.679-3.732,1.384-5.563,2.176c-3.058,1.333-5.501,3.348-7.259,5.993
	c-1.34,2.012-1.869,4.034-1.621,6.17c0,0.023-0.021,0.08-0.024,0.089c-3.196,2.756-6.249,5.859-9.382,9.554
	c2.089-3.196,3.452-6.874,4.137-11.14c0.688-4.301,0.734-8.131,0.134-11.703c-0.04-0.225-0.091-0.445-0.156-0.726l-0.097-0.432
	c-0.046-0.187-0.183-0.335-0.367-0.395c-0.184-0.053-0.389-0.005-0.523,0.125c-0.221,0.207-0.435,0.401-0.644,0.59l-0.146,0.133
	c-0.538,0.482-1.044,0.938-1.5,1.453c-4.45,5.019-7.043,10.32-7.933,16.207c-0.404,2.659-0.235,4.924,0.515,6.922
	c0.248,0.66,0.636,1.252,1.021,1.839c0.175,0.268,0.354,0.537,0.515,0.812c0.119,0.199,0.129,0.25,0.129,0.24
	c-0.076,0.786-0.181,1.664-0.321,2.715c-0.008,0.014-0.027,0.046-0.092,0.13l-0.051,0.07c-2.433,3.382-4.676,6.946-6.695,10.639
	c0.792-2.757,1.426-6.246,1.381-10.299c-0.054-4.862-1.174-9.199-3.422-13.257c-0.089-0.159-0.251-0.262-0.478-0.275
	c-0.165,0-0.321,0.08-0.423,0.219c-0.068,0.095-0.137,0.184-0.202,0.267c-0.146,0.187-0.28,0.364-0.402,0.556
	c-1.794,2.81-2.753,5.906-3.393,8.292c-1.165,4.374-1.702,8.028-1.686,11.496c0.008,2.947,0.547,5.216,1.691,7.133
	c0.358,0.599,0.806,1.119,1.256,1.645c0.24,0.281,0.485,0.566,0.706,0.86c0.157,0.205,0.232,0.413,0.238,0.529
	c0.026,0.698,0.014,1.41-0.003,2.098l-0.01,0.475c0,0.08-0.02,0.175-0.049,0.245c-1.438,3.486-2.702,7.105-3.78,10.827
	c0.159-1.268,0.248-2.494,0.272-3.689c0.13-6.79-1.952-12.855-6.191-18.024l-0.885-1.076c-0.102-0.126-0.253-0.199-0.415-0.199
	l-0.089,0.009c-0.189,0.032-0.348,0.161-0.413,0.339c-0.081,0.217-0.159,0.419-0.237,0.615c-0.145,0.378-0.286,0.739-0.405,1.104
	c-0.908,2.848-1.356,5.961-1.445,10.091l-0.003,0.081c-0.067,3.004-0.162,7.118,1.074,11.056c1.213,3.875,3.354,5.836,3.769,6.187
	l0.046,0.04c1.13,1.009,1.866,1.931,2.017,2.532c0.062,0.24,0.124,0.482,0.197,0.723c0.324,1.065,0.122,2.082-0.097,3.179
	c-0.108,0.557-0.221,1.128-0.259,1.716c-0.156,2.349-0.348,4.738-0.531,7.047l-0.017,0.215c-0.048,0.589-0.096,1.179-0.143,1.767
	c-0.472-5.285-2.222-10.091-5.234-14.341c-1.845-2.6-4.045-4.824-6.539-6.615c-0.108-0.075-0.222-0.145-0.372-0.234
	c-0.073-0.043-0.157-0.094-0.261-0.159c-0.154-0.092-0.356-0.1-0.515-0.021c-0.166,0.078-0.278,0.242-0.297,0.427
	c-0.035,0.333-0.073,0.657-0.116,0.995c-0.081,0.688-0.162,1.335-0.164,2.003c-0.038,6.914,1.426,13.395,4.349,19.26
	c0.814,1.634,1.891,3.05,3.201,4.207c1.297,1.141,2.699,1.812,4.279,2.055c0.035,0.006,0.119,0.057,0.133,0.064
	c0.083,0.173,0.172,0.346,0.262,0.519c0.315,0.609,0.641,1.243,0.806,1.874c0.134,0.536,0.134,1.121,0.134,1.739
	c0,0.227,0,0.456,0.006,0.68c0.153,5.358,0.353,7.224,1.211,12.011c-0.523-1.424-1.181-2.851-2.028-4.223
	c-3.433-5.559-7.796-9.328-13.334-11.528c-0.351-0.144-0.705-0.246-1.115-0.364l-0.083-0.024c-0.164-0.049-0.339-0.103-0.528-0.159
	c-0.17-0.057-0.365-0.016-0.505,0.098c-0.137,0.115-0.21,0.291-0.191,0.472c0.041,0.38,0.07,0.749,0.095,1.11
	c0.057,0.791,0.11,1.537,0.302,2.276c1.788,6.903,4.746,12.4,9.042,16.809c1.839,1.885,3.776,2.964,5.922,3.303
	c0.54,0.084,1.203,0.095,2.322,0.024l0.324-0.019c0.048-0.003,0.092-0.006,0.129-0.006c0.089,0,0.098,0,0.157,0.092l1.502,2.061
	c0.019,0.027,0.045,0.124,0.067,0.191l0.022,0.075c1.556,5.277,3.489,10.363,5.768,15.19c-1.025-1.417-2.149-2.707-3.403-3.923
	c-5.76-5.588-15.608-5.75-16.711-5.75h-0.137l-0.086,0.017c-0.272,0.094-0.418,0.386-0.334,0.658
	c0.079,0.256,0.149,0.515,0.232,0.819c0.156,0.574,0.321,1.165,0.551,1.736c1.089,2.727,2.858,5.351,5.565,8.26
	c1.86,1.993,3.959,4.015,6.688,5.294c2.988,1.402,5.685,1.745,8.368,1.058c0.456-0.119,0.979-0.271,1.432-0.564
	c0.321-0.204,0.407-0.199,0.723,0.035c0.375,0.281,0.774,0.513,1.16,0.739c0.215,0.127,0.429,0.253,0.631,0.38
	c0.032,0.027,0.1,0.138,0.126,0.18c2.406,3.925,5.056,7.573,7.92,10.901c-1.547-1.125-3.139-1.941-4.827-2.483
	c-5.162-1.664-10.571-1.451-15.93,0.62c-0.798,0.31-1.674,0.779-1.733,0.812c-0.122,0.081-0.208,0.213-0.235,0.361
	c-0.021,0.146,0.016,0.297,0.105,0.412c0.167,0.216,0.329,0.438,0.491,0.653l0.035,0.048c0.361,0.491,0.771,1.05,1.23,1.543
	c2.071,2.219,4.622,3.705,7.07,4.983c3.371,1.747,6.814,2.688,10.242,2.799c0.163,0.006,0.321,0.009,0.483,0.009
	c3.152,0,5.611-1.039,7.51-3.164c0.022-0.016,0.105-0.045,0.148-0.048c0.726,0.054,1.416,0.159,1.928,0.242
	c0.083,0.017,0.184,0.065,0.246,0.122c3.169,2.804,6.523,5.266,10.029,7.361c-0.531-0.159-1.079-0.294-1.64-0.404
	c-3.746-0.72-7.569-0.27-11.766,1.399c-2.831,1.13-5.466,2.788-8.052,5.069c-0.213,0.187-0.243,0.51-0.068,0.734
	c0.915,1.162,2.106,1.814,3.15,2.3c2.548,1.184,5.422,1.941,8.793,2.316c0.008,0,1.092,0.095,2.61,0.095
	c1.098,0,2.117-0.049,3.031-0.146c0.874-0.092,1.745-0.24,2.591-0.445c3.883-0.944,6.515-2.888,8.023-5.905
	c0.027-0.027,0.143-0.095,0.289-0.13c0.701-0.175,1.333-0.297,1.931-0.378c0.143-0.021,0.318,0.017,0.54,0.105
	c2.683,1.033,5.52,1.894,8.432,2.56c0.041,0.008,0.081,0.013,0.125,0.013c0.196,0,0.377-0.107,0.472-0.283
	c0.278-0.518,0.615-1.014,1.005-1.475c0.122-0.143,0.157-0.337,0.098-0.515C202.105,308.11,201.959,307.979,201.773,307.936
	L201.773,307.936z M201.773,307.936"/>
<path display="none" fill="#444444" d="M256.332,228.382l16.744-16.32c0.567-0.554,0.773-1.382,0.527-2.137
	c-0.245-0.755-0.898-1.305-1.684-1.419l-23.137-3.359l-10.35-20.966c-0.35-0.712-1.074-1.162-1.868-1.162s-1.518,0.45-1.868,1.162
	l-10.346,20.966l-23.14,3.359c-0.785,0.114-1.438,0.666-1.683,1.419c-0.246,0.755-0.041,1.583,0.527,2.137l16.745,16.32
	l-3.952,23.045c-0.134,0.781,0.187,1.572,0.83,2.038c0.641,0.466,1.49,0.527,2.193,0.159l20.694-10.88l20.696,10.88
	c0.303,0.159,0.637,0.237,0.969,0.237c0.431,0,0.86-0.134,1.225-0.396c0.641-0.466,0.963-1.257,0.828-2.038L256.332,228.382z
	 M256.332,228.382"/>
<path fill="#444444" d="M243.906,201.826l34.454-34.821c0.876-0.878,1.383-2.121,1.383-3.366v-42.342
	c0-2.676-2.166-4.797-4.797-4.797h-83.483c-2.672,0-4.794,2.169-4.794,4.797v42.342c0,1.245,0.506,2.488,1.382,3.366l34.453,34.821
	c-33.946,5.167-60.004,34.547-60.004,69.923c0,39.02,31.732,70.751,70.751,70.751c39.02,0,70.753-31.731,70.753-70.751
	C303.957,236.373,277.852,206.993,243.906,201.826L243.906,201.826z M289.937,249.01l-35.698-5.166l-16.283-33.022
	C261.571,212.618,281.495,227.933,289.937,249.01L289.937,249.01z M257.373,283.047l5.166,30.212l-27.119-14.253
	c-1.43-0.737-3.09-0.737-4.475,0l-27.119,14.253l5.166-30.212c0.276-1.566-0.232-3.135-1.386-4.242l-21.908-21.401l30.349-4.428
	c1.57-0.229,2.908-1.198,3.599-2.628l13.56-27.488l13.56,27.488c0.691,1.43,2.029,2.398,3.597,2.628l30.349,4.428l-21.953,21.401
	C257.65,279.912,257.144,281.48,257.373,283.047L257.373,283.047z M196.261,126.139h73.888v35.515l-36.943,37.313l-36.945-37.313
	V126.139z M228.454,210.821l-16.327,33.022l-35.653,5.166C184.915,227.933,204.841,212.618,228.454,210.821L228.454,210.821z
	 M172.094,271.749c0-4.428,0.461-8.718,1.382-12.869l25.692,24.999l-5.858,34.085C180.303,306.8,172.094,290.198,172.094,271.749
	L172.094,271.749z M202.72,324.697l30.486-16.051l30.486,16.051c-8.992,5.211-19.37,8.164-30.486,8.164
	C222.089,332.861,211.712,329.908,202.72,324.697L202.72,324.697z M273.148,318.009l-5.857-34.086l25.689-25.043
	c0.876,4.151,1.383,8.441,1.383,12.869C294.318,290.198,286.107,306.8,273.148,318.009L273.148,318.009z M273.148,318.009"/>
<polygon fill="#444444" points="273.194,164.352 232.26,201.25 195.362,164.352 195.362,122.266 273.194,122.266 "/>
</svg>
