<?xml version="1.0" encoding="utf-8"?>
<!-- Generator: Adobe Illustrator 15.0.0, SVG Export Plug-In  -->
<!DOCTYPE svg PUBLIC "-//W3C//DTD SVG 1.1//EN" "http://www.w3.org/Graphics/SVG/1.1/DTD/svg11.dtd" [
	<!ENTITY ns_flows "http://ns.adobe.com/Flows/1.0/">
]>
<svg version="1.1"
	 xmlns="http://www.w3.org/2000/svg" xmlns:xlink="http://www.w3.org/1999/xlink" xmlns:a="http://ns.adobe.com/AdobeSVGViewerExtensions/3.0/"
	 x="0px" y="0px" width="500px" height="500px" viewBox="91 115 500 500"
	 overflow="visible" enable-background="new 91 115 500 500" xml:space="preserve">
<defs>
</defs>
<rect display="none" fill="#0777BC" width="674" height="1112"/>
<polygon opacity="0.88" fill="#BDCCD4" points="209,463 346.334,545.333 470,463 470,292 209,292 "/>
<polygon fill="#BDCCD4" points="221,475 346.334,545.333 470,463 470,292 464,292 "/>
<rect x="195" y="320.576" fill="none" width="281" height="101.424"/>
<text transform="matrix(1 0 0 1 236.0518 400.5752)" fill="#EC202A" font-family="'NBADetroitPistons'" font-size="100">2013  </text>
<path d="M551,287.294l19.676-41.382h-32.4l-400.132,0.144h-32.391L128,287.435l-22.248,43.951h88.132
	c-3.068,34.975-5.994,75.794-5.994,106.5c0,46.01,52.816,70.199,95.197,89.682c16.351,7.422,50.379,29.973,55.17,33.113v-0.143
	c4.764-3.194,38.742-25.691,55.082-33.184c42.373-19.41,95.197-43.603,95.197-89.631c0-30.757-2.854-71.576-5.994-106.463h88.133
	L551,287.294z M383.209,505.375c-18.555,8.491-34.541,19.73-45.021,28.293l0,0c-10.507-8.582-26.422-19.657-44.958-28.134
	c-36.118-16.573-81.076-37.195-81.076-67.597c0-40.677,5.424-101.325,9.277-139.798l233.568-0.143
	c3.926,38.473,9.277,99.051,9.277,139.727C464.275,468.195,419.316,488.748,383.209,505.375L383.209,505.375z M528.148,288.991
	l-381.131,0.146 M522.148,281.806"/>
<g>
	<defs>
		<rect id="SVGID_3_" x="288.7" y="460.242" width="44.72" height="44.72"/>
	</defs>
	<clipPath id="SVGID_4_">
		<use xlink:href="#SVGID_3_"  overflow="visible"/>
	</clipPath>
	<path clip-path="url(#SVGID_4_)" fill="#333333" d="M311.738,460.986l5.602,13.245l14.326,1.225c0.992,0.088,1.4,1.336,0.639,1.984
		l-10.863,9.418l3.254,14.007c0.232,0.97-0.826,1.742-1.676,1.224l-12.318-7.433l-12.319,7.433c-0.85,0.508-1.908-0.254-1.677-1.224
		l3.254-14.007l-10.875-9.418c-0.749-0.66-0.342-1.896,0.651-1.984l14.327-1.225l5.602-13.245
		C310.051,460.062,311.352,460.062,311.738,460.986L311.738,460.986z M311.738,460.986"/>
	<path clip-path="url(#SVGID_4_)" d="M368.738,460.986l5.602,13.245l14.326,1.225c0.992,0.088,1.4,1.336,0.639,1.984l-10.863,9.418
		l3.254,14.007c0.232,0.97-0.826,1.742-1.676,1.224l-12.318-7.433l-12.318,7.433c-0.85,0.508-1.908-0.254-1.678-1.224l3.254-14.007
		l-10.875-9.418c-0.748-0.66-0.342-1.896,0.652-1.984l14.326-1.225l5.602-13.245C367.051,460.062,368.352,460.062,368.738,460.986
		L368.738,460.986z M368.738,460.986"/>
</g>
<path fill="#333333" d="M365.738,460.986l5.602,13.245l14.326,1.225c0.992,0.088,1.4,1.336,0.639,1.984l-10.863,9.418l3.254,14.007
	c0.232,0.97-0.826,1.742-1.676,1.224l-12.318-7.433l-12.318,7.433c-0.85,0.508-1.908-0.254-1.678-1.224l3.254-14.007l-10.875-9.418
	c-0.748-0.66-0.342-1.896,0.652-1.984l14.326-1.225l5.602-13.245C364.051,460.062,365.352,460.062,365.738,460.986L365.738,460.986z
	 M365.738,460.986"/>
<g>
	<defs>
		<rect id="SVGID_2_" x="288.7" y="416.242" width="44.72" height="44.72"/>
	</defs>
	<clipPath id="SVGID_5_">
		<use xlink:href="#SVGID_2_"  overflow="visible"/>
	</clipPath>
	<path clip-path="url(#SVGID_5_)" fill="#333333" d="M311.738,416.986l5.602,13.245l14.326,1.225c0.992,0.088,1.4,1.336,0.639,1.984
		l-10.863,9.418l3.254,14.007c0.232,0.97-0.826,1.742-1.676,1.224l-12.318-7.433l-12.319,7.433c-0.85,0.508-1.908-0.254-1.677-1.224
		l3.254-14.007l-10.875-9.418c-0.749-0.66-0.342-1.896,0.651-1.984l14.327-1.225l5.602-13.245
		C310.051,416.062,311.352,416.062,311.738,416.986L311.738,416.986z M311.738,416.986"/>
	<path clip-path="url(#SVGID_5_)" d="M368.738,416.986l5.602,13.245l14.326,1.225c0.992,0.088,1.4,1.336,0.639,1.984l-10.863,9.418
		l3.254,14.007c0.232,0.97-0.826,1.742-1.676,1.224l-12.318-7.433l-12.318,7.433c-0.85,0.508-1.908-0.254-1.678-1.224l3.254-14.007
		l-10.875-9.418c-0.748-0.66-0.342-1.896,0.652-1.984l14.326-1.225l5.602-13.245C367.051,416.062,368.352,416.062,368.738,416.986
		L368.738,416.986z M368.738,416.986"/>
</g>
<path d="M365.738,416.986l5.602,13.245l14.326,1.225c0.992,0.088,1.4,1.336,0.639,1.984l-10.863,9.418l3.254,14.007
	c0.232,0.97-0.826,1.742-1.676,1.224l-12.318-7.433l-12.318,7.433c-0.85,0.508-1.908-0.254-1.678-1.224l3.254-14.007l-10.875-9.418
	c-0.748-0.66-0.342-1.896,0.652-1.984l14.326-1.225l5.602-13.245C364.051,416.062,365.352,416.062,365.738,416.986L365.738,416.986z
	 M365.738,416.986"/>
<g>
	<defs>
		<rect id="SVGID_1_" x="342.699" y="416.242" width="44.721" height="44.72"/>
	</defs>
	<clipPath id="SVGID_6_">
		<use xlink:href="#SVGID_1_"  overflow="visible"/>
	</clipPath>
	<path clip-path="url(#SVGID_6_)" fill="#333333" d="M365.738,416.986l5.602,13.245l14.326,1.225c0.992,0.088,1.4,1.336,0.639,1.984
		l-10.863,9.418l3.254,14.007c0.232,0.97-0.826,1.742-1.676,1.224l-12.318-7.433l-12.318,7.433c-0.85,0.508-1.908-0.254-1.678-1.224
		l3.254-14.007l-10.875-9.418c-0.748-0.66-0.342-1.896,0.652-1.984l14.326-1.225l5.602-13.245
		C364.051,416.062,365.352,416.062,365.738,416.986L365.738,416.986z M365.738,416.986"/>
	<path clip-path="url(#SVGID_6_)" d="M422.738,416.986l5.602,13.245l14.326,1.225c0.992,0.088,1.4,1.336,0.639,1.984l-10.863,9.418
		l3.254,14.007c0.232,0.97-0.826,1.742-1.676,1.224l-12.318-7.433l-12.318,7.433c-0.85,0.508-1.908-0.254-1.678-1.224l3.254-14.007
		l-10.875-9.418c-0.748-0.66-0.342-1.896,0.652-1.984l14.326-1.225l5.602-13.245C421.051,416.062,422.352,416.062,422.738,416.986
		L422.738,416.986z M422.738,416.986"/>
</g>
<path fill="#333333" d="M419.738,416.986l5.602,13.245l14.326,1.225c0.992,0.088,1.4,1.336,0.639,1.984l-10.863,9.418l3.254,14.007
	c0.232,0.97-0.826,1.742-1.676,1.224l-12.318-7.433l-12.318,7.433c-0.85,0.508-1.908-0.254-1.678-1.224l3.254-14.007l-10.875-9.418
	c-0.748-0.66-0.342-1.896,0.652-1.984l14.326-1.225l5.602-13.245C418.051,416.062,419.352,416.062,419.738,416.986L419.738,416.986z
	 M419.738,416.986"/>
<path fill="#333333" d="M258.988,416.986l5.602,13.245l14.326,1.225c0.992,0.088,1.4,1.336,0.639,1.984l-10.863,9.418l3.254,14.007
	c0.232,0.97-0.826,1.742-1.676,1.224l-12.318-7.433l-12.318,7.433c-0.85,0.508-1.908-0.254-1.678-1.224l3.254-14.007l-10.875-9.418
	c-0.748-0.66-0.342-1.896,0.652-1.984l14.326-1.225l5.602-13.245C257.301,416.062,258.602,416.062,258.988,416.986L258.988,416.986z
	 M258.988,416.986"/>
<path d="M337,294H166v-70.546c0,0,49.7-25.705,171-25.705C337,218.664,337,294,337,294z"/>
<path d="M334,294h171v-70.546c0,0-49.699-25.705-171-25.705C334,218.664,334,294,334,294z"/>
<rect x="257.955" y="217.576" fill="none" width="160.045" height="67.424"/>
<text transform="matrix(1 0 0 1 275.9868 275.1753)" fill="#F2F2F2" font-family="'NBADetroitPistons'" font-size="72">RAFA  </text>
</svg>
