<svg xmlns="http://www.w3.org/2000/svg" viewBox="0 0 32 32" width="64" height="64">
    <path style="text-indent:0;text-align:start;line-height:normal;text-transform:none;block-progression:tb;-inkscape-font-specification:Bitstream Vera Sans" d="M 16 3 C 8.8321429 3 3 8.8321429 3 16 C 3 23.167857 8.8321429 29 16 29 C 23.167857 29 29 23.167857 29 16 C 29 8.8321429 23.167857 3 16 3 z M 14.875 5.0625 C 14.916024 5.0583495 14.958843 5.0662007 15 5.0625 L 15 15 L 11.9375 15 C 11.721363 12.186045 10.629136 9.6228407 8.90625 7.59375 C 10.552298 6.2026189 12.606676 5.2919965 14.875 5.0625 z M 17 5.0625 C 19.316873 5.2708268 21.417933 6.1774597 23.09375 7.59375 C 21.370864 9.6228407 20.278637 12.186045 20.0625 15 L 17 15 L 17 5.0625 z M 7.5 9.03125 C 8.8662251 10.68659 9.732284 12.737904 9.9375 15 L 5.0625 15 C 5.2658588 12.738377 6.1405738 10.687056 7.5 9.03125 z M 24.5 9.03125 C 25.859426 10.687056 26.734141 12.738377 26.9375 15 L 22.0625 15 C 22.267716 12.737904 23.133775 10.68659 24.5 9.03125 z M 5.0625 17 L 9.9375 17 C 9.732284 19.262096 8.8662251 21.31341 7.5 22.96875 C 6.1405738 21.312944 5.2658588 19.261623 5.0625 17 z M 11.9375 17 L 15 17 L 15 26.9375 C 12.683127 26.729173 10.582067 25.82254 8.90625 24.40625 C 10.629136 22.377159 11.721363 19.813955 11.9375 17 z M 17 17 L 20.0625 17 C 20.278637 19.813955 21.370864 22.377159 23.09375 24.40625 C 21.417933 25.82254 19.316873 26.729173 17 26.9375 L 17 17 z M 22.0625 17 L 26.9375 17 C 26.734141 19.261623 25.859426 21.312944 24.5 22.96875 C 23.133775 21.31341 22.267716 19.262096 22.0625 17 z" color="#000" overflow="visible" font-family="Bitstream Vera Sans"/>
</svg>