<svg xmlns="http://www.w3.org/2000/svg" viewBox="0 0 32 32" width="64" height="64">
    <path style="text-indent:0;text-align:start;line-height:normal;text-transform:none;block-progression:tb;-inkscape-font-specification:Bitstream Vera Sans" d="M 12 6 C 9.2241182 6 6.8067689 6.4279008 4.96875 7.625 C 3.1307311 8.8220992 2 10.867667 2 13.5 L 2 18.5 L 2 18.5625 L 2 18.625 C 2 18.625 2.1374917 19.436356 2.71875 20.21875 C 3.2486323 20.93199 4.2442913 21.656837 5.71875 22.09375 C 6.5590831 23.754602 8.0950582 25 10 25 C 10.622403 25 11.155086 24.724051 11.6875 24.5 C 12.890011 25.393856 14.354825 26 16 26 C 17.644808 26 19.109661 25.394695 20.3125 24.5 C 20.844914 24.724051 21.377597 25 22 25 C 23.913676 25 25.444342 23.73543 26.28125 22.0625 C 27.855545 21.50037 28.855423 20.793512 29.375 20.09375 C 29.655121 19.716485 29.823692 19.34363 29.90625 19.0625 C 29.988808 18.78137 30 18.5 30 18.5 L 30 13.5 C 30 10.881194 28.700542 8.8496351 26.8125 7.65625 C 24.924458 6.4628649 22.506579 6 20 6 L 19 6 L 19 7 L 19 10 L 19 11 L 20 11 C 22.406092 11 23.562259 11.606736 24.1875 12.3125 C 24.690347 12.880107 24.902061 13.628676 24.96875 14.40625 C 24.605295 14.436634 24.234112 14.467705 23.78125 14.46875 C 23.77215 14.46475 23.75908 14.47265 23.75 14.46875 C 23.20528 14.234176 22.641226 14 22 14 C 21.377597 14 20.844914 14.275949 20.3125 14.5 C 19.109661 13.605305 17.644808 13 16 13 C 14.354825 13 12.890011 13.606144 11.6875 14.5 C 11.155086 14.275949 10.622403 14 10 14 C 9.3587744 14 8.7947203 14.234176 8.25 14.46875 C 8.236117 14.46875 8.232546 14.46878 8.21875 14.46875 C 7.759368 14.467754 7.4003665 14.435737 7.03125 14.40625 C 7.0708062 13.603169 7.1874952 12.882659 7.59375 12.34375 C 8.1219007 11.643142 9.2303298 11 12 11 L 13 11 L 13 10 L 13 7 L 13 6 L 12 6 z M 11 8.09375 L 11 9.15625 C 8.5792718 9.3404064 6.8703134 10.001753 6 11.15625 C 5.3010077 12.083485 5.0945822 13.110747 5.03125 14.03125 C 4.6768742 13.908262 4.3924532 13.794802 4.25 13.6875 C 4.0502042 13.537005 4.0153796 13.441004 4 13.40625 C 4.0215556 11.349521 4.7232443 10.164403 6.03125 9.3125 C 7.1668307 8.5728978 8.9405857 8.203087 11 8.09375 z M 21 8.09375 C 22.838479 8.2149958 24.548651 8.6156566 25.75 9.375 C 27.128096 10.246061 27.948243 11.42073 28 13.3125 C 27.96776 13.37134 27.883023 13.524458 27.65625 13.6875 C 27.506877 13.794894 27.248779 13.885491 26.9375 14 C 26.82219 12.997063 26.499757 11.916865 25.6875 11 C 24.760673 9.9538095 23.138836 9.3398166 21 9.15625 L 21 8.09375 z M 16 15 C 17.368914 15 18.605034 15.494211 19.5 16.28125 L 20.03125 16.75 L 20.65625 16.40625 C 21.086411 16.151712 21.530381 16 22 16 C 22.442373 16 22.871587 16.117357 23.28125 16.34375 L 23.5 16.46875 L 23.75 16.46875 C 25.703613 16.46875 27.055237 16.193095 28 15.78125 L 28 18.5 C 27.97884 18.57206 27.916 18.693515 27.78125 18.875 C 27.511743 19.23797 26.885986 19.832663 25.375 20.3125 L 24.90625 20.46875 L 24.75 20.90625 C 24.267135 22.179905 23.197666 23 22 23 C 21.530381 23 21.086411 22.848288 20.65625 22.59375 L 20.03125 22.25 L 19.5 22.71875 C 18.605034 23.505789 17.368914 24 16 24 C 14.631499 24 13.395331 23.505279 12.5 22.71875 L 11.96875 22.25 L 11.34375 22.59375 C 10.913589 22.848288 10.469619 23 10 23 C 8.8023337 23 7.7328647 22.179905 7.25 20.90625 L 7.0625 20.40625 L 6.5625 20.28125 C 5.2267825 19.967885 4.6234917 19.418606 4.3125 19 C 4.0015083 18.581394 4 18.375 4 18.375 L 4 15.8125 C 4.9386746 16.212306 6.277176 16.46875 8.25 16.46875 L 8.5 16.46875 L 8.71875 16.34375 C 9.128413 16.117357 9.5576266 16 10 16 C 10.469619 16 10.913589 16.151712 11.34375 16.40625 L 11.96875 16.75 L 12.5 16.28125 C 13.395331 15.494721 14.631499 15 16 15 z M 16 17.5 C 14.895431 17.5 14 18.395431 14 19.5 C 14 20.604569 14.895431 21.5 16 21.5 C 17.104569 21.5 18 20.604569 18 19.5 C 18 18.395431 17.104569 17.5 16 17.5 z M 10 18 C 9.4477153 18 9 18.671573 9 19.5 C 9 20.328427 9.4477153 21 10 21 C 10.552285 21 11 20.328427 11 19.5 C 11 18.671573 10.552285 18 10 18 z M 22 18 C 21.447715 18 21 18.671573 21 19.5 C 21 20.328427 21.447715 21 22 21 C 22.552285 21 23 20.328427 23 19.5 C 23 18.671573 22.552285 18 22 18 z" color="#000" overflow="visible" font-family="Bitstream Vera Sans"/>
</svg>