<?xml version="1.0" encoding="utf-8"?>
<!-- Generator: Adobe Illustrator 15.0.0, SVG Export Plug-In . SVG Version: 6.00 Build 0)  -->
<!DOCTYPE svg PUBLIC "-//W3C//DTD SVG 1.1//EN" "http://www.w3.org/Graphics/SVG/1.1/DTD/svg11.dtd">
<svg version="1.1" id="Layer_1" xmlns="http://www.w3.org/2000/svg" xmlns:xlink="http://www.w3.org/1999/xlink" x="0px" y="0px"
	 width="200px" height="200px" viewBox="0 0 200 200" enable-background="new 0 0 200 200" xml:space="preserve">
<g>
	<path fill-rule="evenodd" clip-rule="evenodd" d="M168.984,12.602c0,16.64,0,33.281,0,49.921c3.548,0,7.095,0,10.643,0
		c0,3.161,0,6.321,0,9.481c2.202,0.442,5.217,0.071,7.739,0.193c-0.609,33.271-10.743,58.446-25.734,77.59
		c-15.08,19.258-35.779,33.285-62.111,41.215c-26.162-8.03-47.201-21.785-62.305-41.021c-14.997-19.1-24.893-44.532-25.541-77.785
		c2.386,0,4.772,0,7.159,0c0.451-2.838,0.065-6.514,0.193-9.675c3.418,0,6.837,0,10.255,0c0.451-16.253,0.064-33.345,0.193-49.921
		c23.094-1.67,45.898-3.936,68.69-5.611c5.17-0.38,12.484,0.649,18.382,1.161C133.805,9.65,151.405,11.354,168.984,12.602z
		 M113.065,14.15c-5.118-0.481-10.321-1.675-14.899-1.354c-20.728,1.452-40.875,5.195-62.498,5.805c0,14.641,0,29.282,0,43.923
		c2.386,0,4.772,0,7.159,0c0-12.319,0-24.638,0-36.957C56.94,24.2,71.144,22.63,85.202,21.309c4.799-0.451,9.615-1.389,14.318-1.354
		c4.591,0.034,9.323,0.921,13.932,1.354c14.18,1.333,27.933,2.81,41.794,4.257c0,12.319,0,24.638,0,36.957c2.451,0,4.902,0,7.354,0
		c0-14.641,0-29.282,0-43.923C145.531,17.89,129.259,15.671,113.065,14.15z M35.861,85.355c-0.226,0.032-0.21,0.306-0.193,0.581
		c-1.798,24.787,4.382,42.147,15.286,54.952c10.49,12.319,26.475,22.059,48.374,22.059c21.993,0,37.717-10.046,48.18-22.252
		c11.045-12.885,16.63-30.579,15.093-55.339c-2.451,0-4.902,0-7.354,0c-0.031,4.096,0.045,9.114,0,12.577
		c-9.619-1.733-15.992-6.71-21.478-12.577c-2.386,0-4.772,0-7.159,0c6.132,9.734,15.466,16.268,28.637,18.962
		c-1.218,14.197-6.834,25.028-14.125,32.507c-7.218-14.518-18.945-24.525-38.505-26.702c0-8.255,0-16.511,0-24.767
		c-2.063,0-4.128,0-6.191,0c0,8.32,0,16.641,0,24.961c-20.072,1.985-31.61,12.507-38.699,27.476
		c-7.652-8.473-13.488-18.761-14.706-33.668c12.991-2.618,22.009-9.208,28.057-18.769c-2.451,0-4.902,0-7.353,0
		c-4.986,5.978-12.031,10.93-20.897,12.383c0-4.128,0-8.255,0-12.383C40.505,85.355,38.183,85.355,35.861,85.355z"/>
	<path fill-rule="evenodd" clip-rule="evenodd" fill="#FFFFFF" d="M162.6,18.6c0,14.641,0,29.282,0,43.923c-2.451,0-4.902,0-7.354,0
		c0-12.319,0-24.638,0-36.957c-13.861-1.447-27.614-2.924-41.794-4.257c-4.608-0.433-9.341-1.32-13.932-1.354
		c-4.703-0.035-9.52,0.904-14.318,1.354C71.144,22.63,56.94,24.2,42.827,25.566c0,12.319,0,24.638,0,36.957
		c-2.387,0-4.773,0-7.159,0c0-14.641,0-29.282,0-43.923c21.623-0.609,41.771-4.353,62.498-5.805
		c4.578-0.321,9.781,0.874,14.899,1.354C129.259,15.671,145.531,17.89,162.6,18.6z"/>
	<path fill-rule="evenodd" clip-rule="evenodd" d="M60.435,74.133c-0.452,0-0.903,0-1.354,0"/>
	<path fill-rule="evenodd" clip-rule="evenodd" fill="#FFFFFF" d="M42.827,85.355c0,4.128,0,8.255,0,12.383
		c8.866-1.454,15.911-6.405,20.897-12.383c2.451,0,4.902,0,7.353,0c-6.047,9.561-15.066,16.15-28.057,18.769
		c1.217,14.907,7.054,25.195,14.706,33.668c7.089-14.969,18.627-25.49,38.699-27.476c0-8.32,0-16.641,0-24.961
		c2.063,0,4.128,0,6.191,0c0,8.255,0,16.512,0,24.767c19.56,2.177,31.287,12.185,38.505,26.702
		c7.291-7.479,12.907-18.31,14.125-32.507c-13.171-2.694-22.505-9.228-28.637-18.962c2.387,0,4.773,0,7.159,0
		c5.485,5.867,11.858,10.844,21.478,12.577c0.045-3.463-0.031-8.481,0-12.577c2.451,0,4.902,0,7.354,0
		c1.537,24.76-4.048,42.454-15.093,55.339c-10.463,12.206-26.187,22.252-48.18,22.252c-21.899,0-37.884-9.739-48.374-22.059
		C40.05,128.083,33.87,110.723,35.668,85.936c-0.017-0.275-0.032-0.548,0.193-0.581C38.183,85.355,40.505,85.355,42.827,85.355z
		 M102.616,117.669c0,12.706,0,25.412,0,38.118c11.172-0.638,20.253-4.259,27.282-8.901c2.37-1.564,4.961-3.142,6.386-5.417
		c-6.1-13.121-16.062-22.379-33.475-24.188C102.749,116.971,102.534,117.297,102.616,117.669z M62.563,142.436
		c8.508,7.294,19.117,12.487,33.861,13.545c0-12.899,0-25.799,0-38.699C78.642,119.171,68.517,128.718,62.563,142.436z"/>
	<path fill-rule="evenodd" clip-rule="evenodd" d="M102.81,117.281c17.413,1.809,27.375,11.066,33.475,24.188
		c-1.425,2.275-4.016,3.853-6.386,5.417c-7.029,4.643-16.11,8.264-27.282,8.901c0-12.706,0-25.412,0-38.118
		C102.534,117.297,102.749,116.971,102.81,117.281z"/>
	<path fill-rule="evenodd" clip-rule="evenodd" d="M96.425,117.281c0,12.9,0,25.8,0,38.699
		c-14.744-1.058-25.354-6.251-33.861-13.545C68.517,128.718,78.642,119.171,96.425,117.281z"/>
</g>
</svg>
