<?xml version="1.0" encoding="utf-8"?>
<!-- Generator: Adobe Illustrator 15.0.0, SVG Export Plug-In . SVG Version: 6.00 Build 0)  -->
<!DOCTYPE svg PUBLIC "-//W3C//DTD SVG 1.1//EN" "http://www.w3.org/Graphics/SVG/1.1/DTD/svg11.dtd">
<svg version="1.1" id="Layer_1" xmlns="http://www.w3.org/2000/svg" xmlns:xlink="http://www.w3.org/1999/xlink" x="0px" y="0px"
	 width="50px" height="50px" viewBox="0 0 50 50" enable-background="new 0 0 50 50" xml:space="preserve">
<path fill="#99773D" d="M4.594,0c-0.13,0.008-0.251,0.032-0.375,0.094C3.724,0.34,3.535,0.942,3.781,1.438l8.594,17.312
	c0.502-0.466,1.011-0.903,1.562-1.312L5.562,0.562C5.379,0.192,4.983-0.023,4.594,0z M7.844,0l8.125,16.125
	c1.889-1.052,3.97-1.785,6.188-2.125c0.403-0.062,0.838-0.121,1.25-0.156l6.188-12.406c0.247-0.494,0.024-1.098-0.469-1.344
	s-1.065-0.025-1.312,0.469l-2.781,5.531l-2.844-5.562c-0.253-0.492-0.854-0.658-1.344-0.406c-0.491,0.252-0.69,0.853-0.438,1.344
	l3.438,6.656c0.03,0.058,0.055,0.106,0.094,0.156L22.562,11L16.875,0H7.844z M33,0l-7.031,13.812c2.886,0.151,5.605,0.957,8,2.281
	L42.156,0H33z M45.406,0c-0.389-0.023-0.784,0.191-0.969,0.562l-8.375,16.875c0.552,0.409,1.092,0.846,1.594,1.312l8.562-17.312
	c0.246-0.495,0.058-1.098-0.438-1.344C45.658,0.033,45.535,0.008,45.406,0z M25,15.781c-9.176,0-16.625,7.418-16.625,16.594
	C8.375,41.552,15.824,49,25,49s16.625-7.449,16.625-16.625C41.625,23.198,34.176,15.781,25,15.781z"/>
</svg>
