<svg xmlns="http://www.w3.org/2000/svg" width="52" height="52" viewBox="0 0 26 26">
    <path d="M 13 0.15625 C 9.824 0.15625 7.09375 2.29825 7.09375 6.40625 C 7.09375 9.08825 8.353 11.818 10 13.5 C 10.267 14.199 10.2195 14.72275 10.0625 15.09375 C 10.3025 15.41675 11.304 16.4375 13 16.4375 C 14.63 16.4375 15.61825 15.498 15.90625 15.125 C 15.79625 14.761 15.78125 14.259 16.03125 13.5 C 17.66825 11.814 18.90625 9.07725 18.90625 6.40625 C 18.90625 2.29925 16.174 0.15625 13 0.15625 z M 9 16 C 5.732 17.22 2.03125 19.35875 2.03125 21.46875 L 2.03125 22.28125 C 2.03125 25.22825 7.74325 25.875 13.03125 25.875 C 18.32725 25.875 23.96875 25.22825 23.96875 22.28125 L 23.96875 21.46875 C 23.96875 19.32775 20.34475 17.21525 16.96875 16.03125 C 16.96875 16.03125 15.968741 20.699583 14.65625 23.34375 C 14.193083 21.324216 13.34375 19.46875 13.34375 19.46875 C 13.34375 19.46875 14.4375 19.003 14.4375 18.25 C 14.4375 17.322 13 16.875 13 16.875 C 13 16.875 11.5625 17.187 11.5625 18.25 C 11.5625 18.971 12.65625 19.46875 12.65625 19.46875 C 12.65625 19.46875 11.80875 21.317091 11.34375 23.3125 C 10.025143 20.655228 9 16 9 16 z"/>
</svg>