<?xml version="1.0" encoding="utf-8"?>
<!-- Generator: Adobe Illustrator 15.0.0, SVG Export Plug-In . SVG Version: 6.00 Build 0)  -->
<!DOCTYPE svg PUBLIC "-//W3C//DTD SVG 1.1//EN" "http://www.w3.org/Graphics/SVG/1.1/DTD/svg11.dtd">
<svg version="1.1" id="Layer_1" xmlns="http://www.w3.org/2000/svg" xmlns:xlink="http://www.w3.org/1999/xlink" x="0px" y="0px"
	 width="200px" height="200px" viewBox="0 0 200 200" enable-background="new 0 0 200 200" xml:space="preserve">
<g>
	<g>
		<defs>
			<rect id="SVGID_1_" x="87" y="88" width="25.92" height="26"/>
		</defs>
		<clipPath id="SVGID_2_">
			<use xlink:href="#SVGID_1_"  overflow="visible"/>
		</clipPath>
		<path clip-path="url(#SVGID_2_)" d="M112.129,100.68c-0.625-0.324-0.691-0.953-0.148-1.398c0.547-0.449,0.434-0.969-0.246-1.152
			s-0.875-0.789-0.434-1.34s0.227-1.031-0.48-1.074c-0.703-0.039-1.02-0.586-0.703-1.219c0.316-0.629,0.008-1.059-0.691-0.949
			c-0.699,0.102-1.121-0.367-0.941-1.047c0.18-0.684-0.215-1.039-0.875-0.789s-1.172-0.121-1.141-0.828
			c0.035-0.703-0.422-0.969-1.016-0.586c-0.594,0.379-1.172,0.121-1.289-0.574c-0.113-0.695-0.613-0.859-1.117-0.363
			c-0.5,0.496-1.121,0.367-1.375-0.293c-0.258-0.656-0.781-0.711-1.168-0.121c-0.391,0.59-1.024,0.59-1.41,0
			c-0.387-0.59-0.914-0.535-1.172,0.121c-0.254,0.66-0.875,0.789-1.375,0.293s-1.004-0.332-1.117,0.363
			c-0.114,0.695-0.692,0.953-1.285,0.574c-0.594-0.383-1.055-0.117-1.02,0.586c0.031,0.707-0.48,1.078-1.141,0.828
			c-0.66-0.25-1.05,0.105-0.875,0.789c0.184,0.68-0.242,1.152-0.937,1.047c-0.699-0.109-1.012,0.32-0.692,0.949
			c0.317,0.633,0,1.18-0.703,1.219c-0.707,0.043-0.922,0.523-0.48,1.074c0.441,0.551,0.246,1.152-0.434,1.34
			c-0.683,0.184-0.793,0.703-0.246,1.148c0.547,0.449,0.481,1.078-0.144,1.402c-0.629,0.324-0.629,0.852,0,1.176
			c0.625,0.324,0.691,0.953,0.144,1.398c-0.547,0.449-0.437,0.969,0.246,1.152c0.68,0.188,0.875,0.789,0.434,1.34
			c-0.442,0.551-0.227,1.031,0.48,1.074c0.703,0.039,1.02,0.586,0.703,1.219c-0.32,0.629-0.007,1.059,0.692,0.949
			c0.695-0.105,1.121,0.363,0.941,1.047c-0.179,0.684,0.215,1.039,0.875,0.789c0.66-0.25,1.172,0.121,1.137,0.828
			c-0.031,0.703,0.426,0.969,1.02,0.586c0.593-0.379,1.171-0.125,1.289,0.574c0.113,0.695,0.613,0.859,1.117,0.363
			c0.5-0.496,1.121-0.363,1.375,0.293c0.258,0.656,0.785,0.711,1.168,0.125c0.39-0.594,1.023-0.594,1.41,0
			c0.387,0.586,0.914,0.531,1.168-0.125c0.258-0.656,0.875-0.789,1.379-0.293c0.5,0.496,1.004,0.332,1.117-0.363
			c0.113-0.699,0.691-0.953,1.285-0.574c0.594,0.383,1.055,0.117,1.02-0.586c-0.035-0.707,0.48-1.078,1.141-0.828
			s1.055-0.105,0.871-0.785c-0.176-0.688,0.246-1.156,0.945-1.047c0.699,0.105,1.008-0.32,0.691-0.953
			c-0.32-0.633-0.004-1.18,0.703-1.219c0.703-0.043,0.918-0.523,0.477-1.074s-0.246-1.152,0.438-1.34
			c0.68-0.184,0.789-0.703,0.242-1.148c-0.543-0.449-0.477-1.078,0.148-1.402C112.758,101.531,112.758,101.004,112.129,100.68
			L112.129,100.68z M99.844,90.766c5.707,0,10.355,4.617,10.355,10.289s-4.648,10.289-10.355,10.289
			c-5.504,0-10.008-4.297-10.324-9.691c1.168,0.012,3.21,0.031,3.636,0.031c0.312,0,0.614-0.023,0.899-0.043
			c0.023,0,0.062,0.012,0.101,0.027c0.059,0.016,0.129,0.039,0.211,0.043c0.289,0.062,0.512,0.121,0.723,0.289
			c0.43,0.379,0.805,0.855,1.172,1.316l0.258,0.328c0.476,0.574,1.062,1.34,1.351,2.16c0.156,0.41,0.219,0.844,0.195,1.371
			c-0.004,0.098-0.007,0.195-0.015,0.289c-0.02,0.383-0.039,0.742,0.082,1.113c0.179,0.551,0.613,0.867,1.195,0.867
			c0.387,0,0.801-0.145,1.113-0.395c0.781-0.543,1.281-1.578,1.344-2.762c0.031-0.664-0.168-1.238-0.367-1.789
			c-0.168-0.48-0.332-0.934-0.328-1.426c0-0.746,0.645-0.949,1.555-1.164c0.098-0.02,0.199-0.043,0.273-0.066
			c0.105-0.016,0.211-0.035,0.316-0.055c0.684-0.113,1.457-0.242,2.02-0.773c0.422-0.422,0.625-1.113,0.512-1.77
			c-0.082-0.469-0.312-0.855-0.648-1.086c0.211-0.801-0.18-1.734-0.941-2.234c0.07-0.359,0.004-0.77-0.199-1.152
			c-0.227-0.43-0.582-0.762-0.984-0.922c0-0.734-0.5-1.375-1.289-1.598c-0.219-0.043-0.457-0.062-0.727-0.062
			c-0.398,0-0.797,0.043-1.184,0.086c-0.129,0.016-0.258,0.031-0.406,0.047c-0.231,0.047-0.465,0.078-0.707,0.109
			c-0.492,0.062-1,0.129-1.461,0.324c-0.375,0.168-0.703,0.406-1.02,0.641c-0.105,0.074-0.207,0.148-0.312,0.223
			c-0.102,0.074-0.207,0.168-0.313,0.27c-0.183,0.172-0.371,0.352-0.554,0.387c-0.165,0.031-0.317,0.047-0.469,0.062
			c-0.168,0.02-0.332,0.035-0.489,0.07H93.98c-0.168,0-0.351-0.008-0.546-0.023c-0.219-0.012-0.446-0.027-0.668-0.027
			c-0.231,0-0.496-0.016-0.735-0.035C93.93,92.148,96.723,90.766,99.844,90.766L99.844,90.766z M99.121,107.547
			c0.031-0.594,0.043-1.094-0.094-1.672c-0.187-0.785-0.632-1.422-1.066-2.039c-0.094-0.133-0.188-0.266-0.281-0.406
			c-0.407-0.586-0.922-1.219-1.481-1.828c-0.109-0.129-0.222-0.27-0.367-0.367c-0.035-0.066-0.086-0.105-0.137-0.121
			c-0.347-0.27-0.722-0.422-1.195-0.5c-0.34-0.066-0.637-0.121-0.785-0.371c-0.297-0.531-0.309-1.254-0.313-1.836l-0.004-0.141
			c-0.007-0.617-0.003-1.328,0.168-1.949c0.172-0.621,0.504-0.875,1.211-0.941c0.219,0,0.489,0,0.743-0.156
			c0.269-0.074,0.484-0.277,0.679-0.461c0.074-0.07,0.149-0.141,0.219-0.195c0.094-0.066,0.187-0.141,0.285-0.214
			c0.293-0.22,0.598-0.45,0.867-0.583c0.164-0.042,0.352-0.082,0.539-0.125l0.364-0.082c0.757-0.137,1.542-0.207,2.281-0.273
			c0.246,0,0.504,0,0.762,0.066c0.145,0.02,0.254,0.086,0.32,0.195c0.094,0.156,0.102,0.387,0.027,0.586
			c-0.062,0.137-0.052,0.289,0.031,0.414c0.121,0.188,0.367,0.27,0.555,0.27h0.027l0.023-0.004c0.02-0.008,0.043-0.008,0.062-0.008
			c0.157,0,0.313,0.129,0.423,0.34c0.141,0.27,0.16,0.598,0.059,0.742c-0.117,0.137-0.133,0.34-0.051,0.52
			c0.074,0.164,0.211,0.27,0.363,0.289c0.359,0.121,0.594,0.344,0.691,0.664c0.074,0.266,0.055,0.57-0.07,0.719
			c-0.117,0.195-0.141,0.422-0.07,0.602c0.059,0.152,0.18,0.262,0.367,0.312c0.34,0.062,0.441,0.34,0.469,0.562
			c0.055,0.414-0.262,0.727-0.559,0.879c-0.457,0.254-1.016,0.344-1.555,0.434c-0.289,0.047-0.59,0.094-0.875,0.168
			c-0.969,0.25-1.664,1.008-1.73,1.887c-0.046,0.645,0.156,1.234,0.352,1.805c0.168,0.484,0.324,0.941,0.34,1.422
			c0.012,0.465-0.121,0.98-0.383,1.469c-0.246,0.383-0.66,0.801-0.992,0.801c-0.016,0-0.035-0.004-0.047-0.004
			c-0.207-0.027-0.199-0.418-0.176-0.777L99.121,107.547L99.121,107.547z M99.121,107.547"/>
	</g>
</g>
</svg>
