<svg xmlns="http://www.w3.org/2000/svg" width="50" height="50" viewBox="0 0 50 50">
    <path d="M 19.875 3.40625 C 16.194 3.47425 13.506 4.6 11.875 6.75 C 9.942 9.298 9.5895 13.14375 10.8125 18.21875 C 10.3615 18.76975 10.02225 19.60675 10.15625 20.71875 C 10.42125 22.92375 11.278 23.8265 12 24.1875 C 12.343 25.9165 13.29875 27.86425 14.21875 28.78125 L 14.21875 29.25 C 14.22775 30.266 14.222 31.14525 14.125 32.28125 C 13.513 33.68725 11.475 34.5135 9.125 35.4375 C 5.218 36.9745 0.364 38.8715 0 44.9375 L -0.0625 46 L 24.09375 46 L 32.75 46 L 32.03125 48.75 C 31.93825 49.095 32.02825 49.46575 32.28125 49.71875 C 32.47025 49.90775 32.738 50 33 50 C 33.087 50 33.165 49.99175 33.25 49.96875 L 37.125 48.9375 C 37.295 48.8905 37.4395 48.8115 37.5625 48.6875 L 48.625 37.59375 C 48.623969 37.594437 48.734158 37.51599 48.8125 37.4375 L 48.8125 37.40625 C 48.960596 37.25791 49.125 37.09375 49.125 37.09375 C 50.291 35.92775 50.29 34.041 49.125 32.875 C 47.958 31.709 46.07225 31.709 44.90625 32.875 C 44.90625 32.875 44.74209 33.039111 44.59375 33.1875 C 44.504746 33.276533 44.4055 33.376125 44.40625 33.375 L 38.0625 39.6875 C 37.629868 39.178759 37.112054 38.748304 36.59375 38.34375 C 36.55875 38.31775 36.535 38.30725 36.5 38.28125 C 35.624 37.61525 34.64525 37.05775 33.65625 36.59375 C 33.64725 36.60475 33.634 36.615 33.625 36.625 C 32.74 36.203 31.856 35.81575 31 35.46875 C 28.673 34.52575 26.46225 33.6385 25.90625 32.3125 C 25.80925 31.1735 25.83475 30.29725 25.84375 29.28125 L 25.84375 28.78125 C 26.73975 27.86525 27.659 25.9205 28 24.1875 C 28.722 23.8255 29.57675 22.92275 29.84375 20.71875 C 29.97475 19.62875 29.65675 18.801 29.21875 18.25 C 29.79975 16.27 30.9885 11.14175 28.9375 7.84375 C 28.0795 6.46075 26.7765 5.589 25.0625 5.25 C 24.1185 4.057 22.305 3.40625 19.875 3.40625 z M 45.8125 34.78125 L 47.21875 36.1875 L 36.34375 47.0625 L 36.3125 47.0625 L 34.9375 45.6875 L 34.9375 45.65625 L 45.8125 34.78125 z"/>
</svg>