<?xml version="1.0" encoding="utf-8"?>
<!-- Generator: Adobe Illustrator 15.0.0, SVG Export Plug-In . SVG Version: 6.00 Build 0)  -->
<!DOCTYPE svg PUBLIC "-//W3C//DTD SVG 1.1//EN" "http://www.w3.org/Graphics/SVG/1.1/DTD/svg11.dtd">
<svg version="1.1" id="Layer_1" xmlns="http://www.w3.org/2000/svg" xmlns:xlink="http://www.w3.org/1999/xlink" x="0px" y="0px"
	 width="200px" height="200px" viewBox="0 0 200 200" enable-background="new 0 0 200 200" xml:space="preserve">
<g>
	<path d="M17.883,143.731v27.864c0,3.618,2.934,6.553,6.553,6.553h151.443c3.622,0,6.557-2.935,6.557-6.553v-27.864H17.883z
		 M17.883,143.731"/>
	<path d="M182.784,134.554c1.288-11.369,5.896-36.494,9.509-54.841c4.137-1.884,7.025-6.048,7.025-10.883
		c0-6.599-5.369-11.965-11.965-11.965c-6.6,0-11.967,5.367-11.967,11.965c0,2.139,0.57,4.145,1.562,5.886L166.15,85.514
		c-3.218-7.578-4.8-19.263-5.223-28.2c3.364-2.12,5.61-5.855,5.61-10.121c0-6.595-5.367-11.962-11.966-11.962
		c-6.596,0-11.965,5.367-11.965,11.962c0,2.974,1.098,5.693,2.897,7.786c-6.986,12.034-16.742,23.619-22.797,30.335
		c-5.324-11.105-11.323-33.197-15.043-50.451c2.715-2.194,4.457-5.547,4.457-9.303c0-6.599-5.367-11.966-11.963-11.966
		c-6.599,0-11.966,5.367-11.966,11.966c0,3.756,1.745,7.108,4.461,9.303c-3.721,17.254-9.72,39.353-15.044,50.454
		c-6.051-6.706-15.803-18.28-22.8-30.338c1.803-2.093,2.898-4.812,2.898-7.786c0-6.595-5.366-11.962-11.966-11.962
		c-6.595,0-11.962,5.367-11.962,11.962c0,4.265,2.247,8.005,5.615,10.124c-0.42,8.934-1.996,20.619-5.223,28.2L23.37,74.715
		c0.988-1.741,1.559-3.747,1.559-5.886c0-6.599-5.367-11.965-11.962-11.965C6.367,56.864,1,62.231,1,68.83
		c0,4.835,2.889,8.999,7.023,10.883c3.612,18.347,8.22,43.468,9.508,54.841H182.784z M100.159,100.133"/>
</g>
</svg>
