<svg xmlns="http://www.w3.org/2000/svg" width="52" height="52" viewBox="0 0 26 26">
    <path d="M 12.53125 0.1875 L 10 3.1875 L 6.0625 1.125 L 7.0625 5.90625 C 7.0625 5.90625 7.688 6.875 12.5 6.875 C 17.312 6.875 17.96875 5.90625 17.96875 5.90625 L 18.96875 1.125 L 15 3.1875 L 12.53125 0.1875 z M 7.21875 7.40625 C 7.28075 7.69125 7.3315 7.855 7.4375 8.125 C 7.4105 8.263 7.209 7.98775 7.125 8.84375 C 7.044 9.66875 7.4085 10.85825 7.8125 11.40625 C 7.9885 11.63725 8.27175 11.789 8.46875 11.875 C 8.46875 11.875 8.69675 13.365 9.84375 14.75 C 10.10775 15.849 9.03125 16.40625 9.03125 16.40625 C 5.41825 17.10125 2.09375 19.11125 2.09375 21.28125 L 2.09375 22.96875 C 2.09375 25.32375 7.564 25.84375 12.5 25.84375 C 17.437 25.84375 22.90625 24.40975 22.90625 22.96875 L 22.90625 21.28125 C 22.90625 19.11125 19.611 17.10125 16 16.40625 C 16 16.40625 14.63125 16.119 15.28125 14.75 C 16.08425 13.672 16.55475 12.43125 16.59375 12.03125 C 16.59375 12.03125 17.83425 11.05475 17.90625 9.59375 C 17.98325 8.13675 17.65625 8.0625 17.65625 8.0625 C 17.72225 7.8605 17.7655 7.72625 17.8125 7.40625 C 16.9275 7.78925 15.351 8.125 12.5 8.125 C 9.667 8.125 8.09975 7.78925 7.21875 7.40625 z"/>
</svg>