<?xml version="1.0" encoding="utf-8"?>
<!-- Generator: Adobe Illustrator 15.0.0, SVG Export Plug-In  -->
<!DOCTYPE svg PUBLIC "-//W3C//DTD SVG 1.1//EN" "http://www.w3.org/Graphics/SVG/1.1/DTD/svg11.dtd" [
	<!ENTITY ns_flows "http://ns.adobe.com/Flows/1.0/">
]>
<svg version="1.1"
	 xmlns="http://www.w3.org/2000/svg" xmlns:xlink="http://www.w3.org/1999/xlink" xmlns:a="http://ns.adobe.com/AdobeSVGViewerExtensions/3.0/"
	 x="0px" y="0px" width="500px" height="500px" viewBox="-66.6 -65.833 500 500"
	 overflow="visible" enable-background="new -66.6 -65.833 500 500" xml:space="preserve">
<defs>
</defs>
<polygon fill="#EC202A" stroke="#333333" stroke-width="4" stroke-miterlimit="10" points="361.899,233.001 290.734,198.5 
	249.067,274.167 324.4,311.833 317.898,261.501 "/>
<polygon fill="#EC202A" stroke="#333333" stroke-width="4" stroke-miterlimit="10" points="4.067,233.001 75.232,198.5 
	116.899,274.167 41.566,311.833 48.068,261.501 "/>
<path fill="#333333" d="M318.21,76.083C233.001,27.689,232.4,28.097,183.4,0.428V0c0,0.072-0.372,0.142-0.5,0.214
	c-0.128-0.072-0.5-0.142-0.5-0.214v0.428c-49,27.669-49.764,27.262-134.973,75.656c-1,25.5,12.659,226.083,135.159,248.083
	c-0.02-0.1,0.095-0.109,0.106,0C305.192,302.167,319.21,101.584,318.21,76.083z"/>
<path fill="#0777BC" d="M304.701,84.684C228.012,41.129,227.4,41.496,183.4,16.594v-0.385c0,0.065-0.385,0.128-0.5,0.192
	c-0.115-0.064-0.5-0.127-0.5-0.192v0.385c-44,24.902-44.767,24.535-121.455,68.09c-0.9,22.951,11.404,203.475,121.654,223.275
	c-0.019-0.09,0.105-0.099,0.115,0C292.964,288.159,305.601,107.634,304.701,84.684z"/>
<path fill="#0B97DD" d="M304.817,84.75C282.65,85.042,63.495,157.085,84.911,211.894c17.688,45.268,47.569,87.108,97.438,96.064
	c-0.019-0.09-0.02-0.099-0.01,0C292.589,288.159,312.025,103.042,304.817,84.75z"/>
<path fill="#EC202A" stroke="#333333" stroke-width="4" stroke-miterlimit="10" d="M312.9,190.667c0,0-30.801-35.625-128-35.827
	c0,0,0-0.005,0-0.005c-0.139,0-0.273,0.002-0.412,0.002c-0.138,0-0.273-0.002-0.412-0.002c0,0,0,0.004,0,0.005
	c-97.2,0.202-128,35.827-128,35.827l35.66,72.217c0,0,20.122-15.179,92.752-15.465c72.63,0.286,92.752,15.465,92.752,15.465
	L312.9,190.667z"/>
<rect x="82.316" y="258.752" fill="none" width="204.5" height="55.414"/>
<text transform="matrix(1 0 0 1 174.4653 292.3521)" fill="#F2F2F2" font-family="'NBADetroitPistons'" font-size="42">X</text>
<g>
	<rect x="77.578" y="172.734" fill="none" width="219.322" height="73.433"/>
	<text transform="matrix(1 0 0 1 170.1177 227.5776)" fill="#F2F2F2" font-family="'Roboto-Regular'" font-size="72">?</text>
</g>
<g>
	<rect x="72.578" y="340.725" fill="none" width="219.322" height="73.433"/>
	<text transform="matrix(1 0 0 1 110.96 398.3247)" fill="#4D4D4D" font-family="'NBADetroitPistons'" font-size="72">2017</text>
</g>
<path fill="#F2F2F2" d="M119.492,73.77l3.971,9.392l10.158,0.868c0.703,0.062,0.992,0.947,0.453,1.407l-7.703,6.677l2.307,9.931
	c0.166,0.688-0.586,1.235-1.188,0.867l-8.734-5.27l-8.733,5.27c-0.603,0.36-1.353-0.18-1.19-0.867l2.307-9.931l-7.71-6.677
	c-0.531-0.468-0.243-1.345,0.462-1.407l10.157-0.868l3.972-9.392C118.295,73.115,119.217,73.115,119.492,73.77L119.492,73.77z
	 M119.492,73.77"/>
<path fill="#F2F2F2" d="M246.158,73.77l3.971,9.392l10.158,0.868c0.703,0.062,0.992,0.947,0.453,1.407l-7.703,6.677l2.307,9.931
	c0.166,0.688-0.586,1.235-1.188,0.867l-8.733-5.27l-8.733,5.27c-0.603,0.36-1.354-0.18-1.189-0.867l2.307-9.931l-7.71-6.677
	c-0.53-0.468-0.243-1.345,0.462-1.407l10.157-0.868l3.972-9.392C244.961,73.115,245.883,73.115,246.158,73.77L246.158,73.77z
	 M246.158,73.77"/>
<path fill="#F2F2F2" d="M92.992,105.77l3.971,9.392l10.158,0.868c0.703,0.062,0.992,0.947,0.453,1.407l-7.703,6.677l2.307,9.931
	c0.166,0.688-0.586,1.235-1.188,0.867l-8.733-5.27l-8.733,5.27c-0.603,0.36-1.354-0.18-1.189-0.867l2.307-9.931l-7.71-6.677
	c-0.53-0.468-0.243-1.345,0.462-1.407l10.157-0.868l3.972-9.392C91.796,105.115,92.718,105.115,92.992,105.77L92.992,105.77z
	 M92.992,105.77"/>
<path fill="#F2F2F2" d="M272.992,105.77l3.971,9.392l10.158,0.868c0.703,0.062,0.992,0.947,0.453,1.407l-7.703,6.677l2.307,9.931
	c0.166,0.688-0.586,1.235-1.188,0.867l-8.732-5.27l-8.734,5.27c-0.602,0.36-1.354-0.18-1.189-0.867l2.307-9.931l-7.709-6.677
	c-0.531-0.468-0.244-1.345,0.461-1.407l10.158-0.868l3.971-9.392C271.796,105.115,272.718,105.115,272.992,105.77L272.992,105.77z
	 M272.992,105.77"/>
<path fill="#F2F2F2" d="M148.993,109.27l3.971,9.392l10.158,0.868c0.703,0.062,0.992,0.947,0.453,1.407l-7.703,6.677l2.307,9.931
	c0.166,0.688-0.586,1.235-1.188,0.867l-8.733-5.27l-8.733,5.27c-0.603,0.36-1.354-0.18-1.189-0.867l2.307-9.931l-7.71-6.677
	c-0.53-0.468-0.243-1.345,0.462-1.407l10.157-0.868l3.972-9.392C147.796,108.615,148.718,108.615,148.993,109.27L148.993,109.27z
	 M148.993,109.27"/>
<path fill="#F2F2F2" d="M217.993,109.27l3.971,9.392l10.158,0.868c0.703,0.062,0.992,0.947,0.453,1.407l-7.703,6.677l2.307,9.931
	c0.166,0.688-0.586,1.235-1.188,0.867l-8.733-5.27l-8.733,5.27c-0.603,0.36-1.354-0.18-1.189-0.867l2.307-9.931l-7.71-6.677
	c-0.53-0.468-0.243-1.345,0.462-1.407l10.157-0.868l3.972-9.392C216.796,108.615,217.718,108.615,217.993,109.27L217.993,109.27z
	 M217.993,109.27"/>
<path fill="#F2F2F2" d="M183.159,86.02l3.971,9.392l10.158,0.868c0.703,0.062,0.992,0.947,0.453,1.407l-7.703,6.677l2.307,9.931
	c0.166,0.688-0.586,1.235-1.188,0.867l-8.733-5.27l-8.733,5.27c-0.603,0.36-1.354-0.18-1.189-0.867l2.307-9.931l-7.71-6.677
	c-0.53-0.468-0.243-1.345,0.462-1.407l10.157-0.868l3.972-9.392C181.962,85.365,182.884,85.365,183.159,86.02L183.159,86.02z
	 M183.159,86.02"/>
<path fill="#F2F2F2" d="M183.159,24.52l3.971,9.392l10.158,0.868c0.703,0.062,0.992,0.947,0.453,1.407l-7.703,6.677l2.307,9.931
	c0.166,0.688-0.586,1.235-1.188,0.867l-8.733-5.27l-8.733,5.27c-0.603,0.36-1.354-0.18-1.189-0.867l2.307-9.931l-7.71-6.677
	c-0.53-0.468-0.243-1.345,0.462-1.407l10.157-0.868l3.972-9.392C181.962,23.865,182.884,23.865,183.159,24.52L183.159,24.52z
	 M183.159,24.52"/>
<path fill="#F2F2F2" d="M157.159,55.52l3.971,9.392l10.158,0.868c0.703,0.062,0.992,0.947,0.453,1.407l-7.703,6.677l2.307,9.931
	c0.166,0.688-0.586,1.235-1.188,0.867l-8.733-5.27l-8.733,5.27c-0.603,0.36-1.354-0.18-1.189-0.867l2.307-9.931l-7.71-6.677
	c-0.53-0.468-0.243-1.345,0.462-1.407l10.157-0.868l3.972-9.392C155.962,54.865,156.884,54.865,157.159,55.52L157.159,55.52z
	 M157.159,55.52"/>
<path fill="#F2F2F2" d="M207.659,55.52l3.971,9.392l10.158,0.868c0.703,0.062,0.992,0.947,0.453,1.407l-7.703,6.677l2.307,9.931
	c0.166,0.688-0.586,1.235-1.188,0.867l-8.733-5.27l-8.733,5.27c-0.603,0.36-1.354-0.18-1.189-0.867l2.307-9.931l-7.71-6.677
	c-0.53-0.468-0.243-1.345,0.462-1.407l10.157-0.868l3.972-9.392C206.462,54.865,207.384,54.865,207.659,55.52L207.659,55.52z
	 M207.659,55.52"/>
</svg>
