<?xml version="1.0" encoding="utf-8"?>
<!-- Generator: Adobe Illustrator 15.0.0, SVG Export Plug-In  -->
<!DOCTYPE svg PUBLIC "-//W3C//DTD SVG 1.1//EN" "http://www.w3.org/Graphics/SVG/1.1/DTD/svg11.dtd" [
	<!ENTITY ns_flows "http://ns.adobe.com/Flows/1.0/">
]>
<svg version="1.1"
	 xmlns="http://www.w3.org/2000/svg" xmlns:xlink="http://www.w3.org/1999/xlink" xmlns:a="http://ns.adobe.com/AdobeSVGViewerExtensions/3.0/"
	 x="0px" y="0px" width="500px" height="500px" viewBox="91 115 500 500"
	 overflow="visible" enable-background="new 91 115 500 500" xml:space="preserve">
<defs>
</defs>
<rect display="none" fill="#0777BC" width="674" height="1112"/>
<polygon display="none" opacity="0.88" fill="#BDCCD4" points="209,463 346.334,545.333 470,463 470,292 209,292 "/>
<polygon display="none" fill="#BDCCD4" points="221,475 346.334,545.333 470,463 470,292 464,292 "/>
<polygon display="none" fill="#EC202A" stroke="#000000" stroke-width="4" stroke-miterlimit="10" points="461,253.5 563.5,253.5 
	538.333,297 563.5,339.5 461,339.5 "/>
<polygon display="none" fill="#EC202A" stroke="#000000" stroke-width="4" stroke-miterlimit="10" points="216.5,253.5 114,253.5 
	139.167,297 114,339.5 216.5,339.5 "/>
<rect x="204.667" y="334.577" display="none" fill="none" width="281" height="101.423"/>
<text transform="matrix(1 0 0 1 244.3188 414.5752)" display="none" fill="#EC202A" font-family="'NBADetroitPistons'" font-size="100">2018  </text>
<path display="none" stroke="#000000" stroke-miterlimit="10" d="M476.667,245.912l-274,0.144l-8.782,85.33
	c-3.068,34.975-5.994,75.794-5.994,106.5c0,46.01,52.816,70.199,95.197,89.682c16.351,7.422,50.379,29.973,55.17,33.113v-0.143
	c4.764-3.194,38.742-25.691,55.082-33.184c42.373-19.41,95.197-43.603,95.197-89.631c0-30.757-2.854-71.576-5.994-106.463
	L476.667,245.912z M383.209,505.375c-18.555,8.491-34.541,19.73-45.021,28.293l0,0c-10.507-8.582-26.422-19.657-44.958-28.134
	c-36.118-16.573-81.076-37.195-81.076-67.597c0-40.677,5.424-101.325,9.277-139.798l233.568-0.143
	c3.926,38.473,9.277,99.051,9.277,139.727C464.275,468.195,419.316,488.748,383.209,505.375L383.209,505.375z M522.148,281.806"/>
<g display="none">
	<defs>
		<rect id="SVGID_2_" x="288.7" y="416.242" width="44.72" height="44.72"/>
	</defs>
	<clipPath id="SVGID_3_" display="inline">
		<use xlink:href="#SVGID_2_"  display="none" overflow="visible"/>
	</clipPath>
	<path clip-path="url(#SVGID_3_)" d="M368.738,416.986l5.602,13.245l14.326,1.225c0.992,0.088,1.4,1.336,0.639,1.984l-10.863,9.418
		l3.254,14.007c0.232,0.97-0.826,1.742-1.676,1.224l-12.318-7.433l-12.318,7.433c-0.85,0.508-1.908-0.254-1.678-1.224l3.254-14.007
		l-10.875-9.418c-0.748-0.66-0.342-1.896,0.652-1.984l14.326-1.225l5.602-13.245C367.051,416.062,368.352,416.062,368.738,416.986
		L368.738,416.986z M368.738,416.986"/>
</g>
<path display="none" fill="#EC202A" stroke="#231F20" stroke-width="4" stroke-miterlimit="10" d="M339,222.004
	c0-0.003,0-0.007,0-0.01c0,0-0.998,0.004-1.5,0.005c-0.502,0-0.5-0.005-1.5-0.005c0,0.003,0,0.007,0,0.01
	c-119,0.431-168,26.329-168,26.329v74.333h170h3h166v-74.333C507,248.333,459,222.436,339,222.004z"/>
<path display="none" fill="#333333" d="M365.738,464.986l5.602,13.245l14.326,1.225c0.992,0.088,1.4,1.336,0.639,1.984
	l-10.863,9.418l3.254,14.007c0.232,0.97-0.826,1.742-1.676,1.224l-12.318-7.433l-12.318,7.433c-0.85,0.508-1.908-0.254-1.678-1.224
	l3.254-14.007l-10.875-9.418c-0.748-0.66-0.342-1.896,0.652-1.984l14.326-1.225l5.602-13.245
	C364.051,464.062,365.352,464.062,365.738,464.986L365.738,464.986z M365.738,464.986"/>
<path display="none" fill="#333333" d="M314.238,464.986l5.602,13.245l14.326,1.225c0.992,0.088,1.4,1.336,0.639,1.984
	l-10.863,9.418l3.254,14.007c0.232,0.97-0.826,1.742-1.676,1.224l-12.318-7.433l-12.318,7.433c-0.85,0.508-1.908-0.254-1.678-1.224
	l3.254-14.007l-10.875-9.418c-0.748-0.66-0.342-1.896,0.652-1.984l14.326-1.225l5.602-13.245
	C312.551,464.062,313.852,464.062,314.238,464.986L314.238,464.986z M314.238,464.986"/>
<path display="none" fill="#333333" d="M339.238,403.486l5.602,13.245l14.326,1.225c0.992,0.088,1.4,1.336,0.639,1.984
	l-10.863,9.418l3.254,14.007c0.232,0.97-0.826,1.742-1.676,1.224l-12.318-7.433l-12.318,7.433c-0.85,0.508-1.908-0.254-1.678-1.224
	l3.254-14.007l-10.875-9.418c-0.748-0.66-0.342-1.896,0.652-1.984l14.326-1.225l5.602-13.245
	C337.551,402.562,338.852,402.562,339.238,403.486L339.238,403.486z M339.238,403.486"/>
<path display="none" fill="#333333" d="M290.119,416.68l4.964,11.739l12.697,1.085c0.879,0.078,1.241,1.184,0.566,1.759
	l-9.627,8.347l2.884,12.414c0.206,0.859-0.732,1.544-1.485,1.084l-10.917-6.587l-10.917,6.587c-0.753,0.45-1.691-0.225-1.486-1.084
	l2.884-12.414l-9.638-8.347c-0.664-0.585-0.303-1.681,0.578-1.759l12.697-1.085l4.964-11.739
	C288.623,415.86,289.776,415.86,290.119,416.68L290.119,416.68z M290.119,416.68"/>
<path display="none" fill="#333333" d="M388.835,416.68l4.965,11.739l12.697,1.085c0.879,0.078,1.241,1.184,0.565,1.759
	l-9.628,8.347l2.884,12.414c0.206,0.859-0.731,1.544-1.484,1.084l-10.918-6.587l-10.917,6.587c-0.753,0.45-1.691-0.225-1.487-1.084
	l2.884-12.414l-9.638-8.347c-0.663-0.585-0.303-1.681,0.578-1.759l12.696-1.085l4.965-11.739
	C387.34,415.86,388.492,415.86,388.835,416.68L388.835,416.68z M388.835,416.68"/>
<path display="none" fill="#333333" d="M339.292,445.424l3.942,9.319l10.079,0.861c0.697,0.062,0.985,0.939,0.449,1.396
	l-7.644,6.626l2.289,9.854c0.164,0.683-0.58,1.226-1.178,0.86l-8.667-5.229l-8.667,5.229c-0.598,0.357-1.343-0.178-1.181-0.86
	l2.29-9.854l-7.651-6.626c-0.526-0.465-0.24-1.334,0.459-1.396l10.079-0.861l3.941-9.319
	C338.105,444.773,339.021,444.773,339.292,445.424L339.292,445.424z M339.292,445.424"/>
<path display="none" fill="#333333" d="M245.368,416.68l4.965,11.739l12.697,1.085c0.879,0.078,1.241,1.184,0.566,1.759
	l-9.628,8.347l2.884,12.414c0.206,0.859-0.732,1.544-1.485,1.084l-10.917-6.587l-10.917,6.587c-0.753,0.45-1.691-0.225-1.487-1.084
	l2.884-12.414l-9.638-8.347c-0.663-0.585-0.303-1.681,0.578-1.759l12.697-1.085l4.965-11.739
	C243.872,415.86,245.025,415.86,245.368,416.68L245.368,416.68z M245.368,416.68"/>
<path display="none" fill="#333333" d="M433.376,416.907l4.965,11.739l12.696,1.085c0.88,0.078,1.241,1.184,0.566,1.759
	l-9.628,8.347l2.884,12.414c0.206,0.859-0.732,1.544-1.485,1.084l-10.917-6.587l-10.917,6.587c-0.753,0.45-1.691-0.225-1.487-1.084
	l2.884-12.414l-9.638-8.347c-0.663-0.585-0.304-1.681,0.578-1.759l12.696-1.085l4.965-11.739
	C431.881,416.088,433.033,416.088,433.376,416.907L433.376,416.907z M433.376,416.907"/>
<path display="none" fill="#333333" d="M406.376,451.407l4.965,11.739l12.696,1.085c0.88,0.078,1.241,1.184,0.566,1.759
	l-9.628,8.347l2.884,12.414c0.206,0.859-0.732,1.544-1.485,1.084l-10.917-6.587l-10.917,6.587c-0.753,0.45-1.691-0.225-1.487-1.084
	l2.884-12.414l-9.638-8.347c-0.663-0.585-0.304-1.681,0.578-1.759l12.696-1.085l4.965-11.739
	C404.881,450.588,406.033,450.588,406.376,451.407L406.376,451.407z M406.376,451.407"/>
<path display="none" fill="#333333" d="M273.376,451.407l4.965,11.739l12.696,1.085c0.88,0.078,1.241,1.184,0.566,1.759
	l-9.628,8.347l2.884,12.414c0.206,0.859-0.732,1.544-1.485,1.084l-10.917-6.587l-10.917,6.587c-0.753,0.45-1.691-0.225-1.487-1.084
	l2.884-12.414l-9.638-8.347c-0.663-0.585-0.304-1.681,0.578-1.759l12.696-1.085l4.965-11.739
	C271.881,450.588,273.033,450.588,273.376,451.407L273.376,451.407z M273.376,451.407"/>
<rect x="235.955" y="226.576" display="none" fill="none" width="204.045" height="77.424"/>
<text transform="matrix(1 0 0 1 236.7471 284.1753)" display="none" fill="#F2F2F2" font-family="'NBADetroitPistons'" font-size="72">kristen  </text>
<g display="none">
	<defs>
		<rect id="SVGID_1_" x="146" y="181" width="391.92" height="332.992"/>
	</defs>
	<clipPath id="SVGID_4_" display="inline">
		<use xlink:href="#SVGID_1_"  display="none" overflow="visible"/>
	</clipPath>
	<path clip-path="url(#SVGID_4_)" d="M253.422,443.945c22.117,33.668,50.645,54.547,84.816,62.055
		c0.594,0.133,1.199,0.195,1.801,0.195c0.605,0,1.211-0.062,1.805-0.195c34.145-7.5,62.629-28.351,84.688-61.965l10.719,4.664
		l-15.793,21.196c-1.652,2.222-2.109,5.117-1.211,7.737c0.895,2.621,3.027,4.634,5.695,5.375
		c13.961,3.884,32.379,13.352,48.633,21.703c5.25,2.699,10.215,5.25,14.746,7.465c1.168,0.574,2.434,0.855,3.691,0.855
		c1.645,0,3.281-0.48,4.695-1.433c2.488-1.677,3.895-4.56,3.684-7.552c-1.023-14.621-2.789-29.44-5.262-44.137
		c11.34-8.531,23.277-16.566,35.539-23.918c2.641-1.586,4.203-4.488,4.07-7.562c-0.133-3.078-1.934-5.837-4.703-7.188
		c-2.941-1.441-6.473-3.207-10.344-5.14c-12.188-6.095-26.793-13.399-38.137-18.181l8.707-21.133
		c5.152-12.176-1.883-27.281-15.672-33.672c-3-1.39-6.012-2.73-9.035-4.027c8.242-40.477,8.871-72.18,8.895-73.539
		c0.051-3.004-1.508-5.809-4.086-7.348l-127.008-76.012c-2.652-1.585-5.965-1.589-8.621-0.003l-127.348,76.007
		c-2.59,1.547-4.152,4.356-4.094,7.371c0.023,1.36,0.707,33.032,9.004,73.477c-3.059,1.309-6.105,2.664-9.137,4.074
		c-13.781,6.383-20.812,21.461-15.695,33.625l8.703,21.129c-11.195,4.723-25.586,11.938-37.594,17.961
		c-4.012,2.012-7.801,3.91-10.863,5.41c-2.77,1.352-4.57,4.11-4.703,7.184c-0.133,3.078,1.43,5.98,4.07,7.562
		c12.266,7.36,24.199,15.395,35.539,23.922c-2.473,14.696-4.238,29.521-5.262,44.137c-0.207,2.996,1.195,5.875,3.688,7.552
		c1.41,0.948,3.047,1.433,4.695,1.433c1.258,0,2.52-0.281,3.688-0.855c4.535-2.215,9.492-4.766,14.746-7.465
		c16.25-8.354,34.672-17.819,48.633-21.707c2.668-0.741,4.801-2.754,5.699-5.375c0.895-2.625,0.438-5.52-1.219-7.737l-15.809-21.185
		L253.422,443.945z M221.281,270.063l118.754-70.879l118.438,70.879c-0.477,9.867-2.145,33.933-7.781,62.683
		c-35.762-13.226-72.93-19.918-110.82-19.918c-37.855,0-74.984,6.68-110.715,19.883
		C223.492,304.039,221.777,279.949,221.281,270.063L221.281,270.063z M197.492,489.771c-0.359,0.183-0.719,0.367-1.078,0.554
		c1.137-10.836,2.68-21.722,4.621-32.519c0.551-3.082-0.656-6.22-3.137-8.134c-9.086-7.016-18.574-13.733-28.32-20.062
		c10.781-5.402,24.023-11.988,33.988-16.207l9.496,23.051c1.074,2.543,2.465,4.856,4.062,6.946
		c5.402,7.065,20.777,27.265,20.777,27.265C224.871,475.695,210.512,483.074,197.492,489.771L197.492,489.771z M340.043,489.181
		c-27.855-6.614-51.504-23.824-70.379-51.192c22.781-7.425,46.293-11.195,70.207-11.195c23.992,0,47.578,3.797,70.438,11.271
		C391.48,465.388,367.871,482.57,340.043,489.181L340.043,489.181z M339.871,409.992c-35.734,0-70.621,7.785-103.676,23.137
		c-0.793,0.363-1.609,0.552-2.422,0.552c-2.281,0-4.238-1.41-5.207-3.696l-24.582-59.668c-0.012-0.023-0.02-0.05-0.031-0.074
		c-1.391-3.293,1.48-9.199,7.277-11.886c41.051-19.063,84.336-28.727,128.641-28.727c44.309,0,87.59,9.664,128.648,28.73
		c5.793,2.684,8.664,8.59,7.242,11.957l-24.555,59.598c-0.996,2.36-2.953,3.767-5.234,3.767c-0.816,0-1.629-0.185-2.41-0.548
		C410.496,417.777,375.609,409.992,339.871,409.992L339.871,409.992z M481.844,449.672c-2.477,1.914-3.688,5.052-3.133,8.134
		c1.938,10.797,3.484,21.683,4.617,32.519c-0.355-0.187-0.715-0.371-1.074-0.554c-13.023-6.696-27.387-14.075-40.418-19.11
		c0,0,14.895-20.429,20.223-26.992c1.738-2.141,3.52-4.608,4.652-7.285l9.445-22.926c9.957,4.211,23.145,10.738,34,16.16
		C500.414,435.941,490.934,442.656,481.844,449.672L481.844,449.672z M481.844,449.672"/>
</g>
<polygon fill="#EC202A" stroke="#333333" stroke-width="4" stroke-miterlimit="10" points="519.499,413.835 448.334,379.333 
	406.667,455 482,492.666 475.498,442.335 "/>
<polygon fill="#EC202A" stroke="#333333" stroke-width="4" stroke-miterlimit="10" points="161.667,413.835 232.832,379.333 
	274.499,455 199.166,492.666 205.668,442.335 "/>
<path fill="#333333" d="M475.811,256.917C390.602,208.523,390,208.931,341,181.261v-0.428c0,0.072-0.372,0.142-0.5,0.214
	c-0.128-0.072-0.5-0.142-0.5-0.214v0.428c-49,27.669-49.764,27.262-134.973,75.656c-1,25.5,12.659,226.083,135.159,248.083
	c-0.02-0.1,0.095-0.109,0.106,0C462.792,483,476.811,282.417,475.811,256.917z"/>
<path fill="#0777BC" d="M462.301,265.517C385.612,221.962,385,222.33,341,197.427v-0.385c0,0.065-0.385,0.128-0.5,0.192
	c-0.115-0.064-0.5-0.127-0.5-0.192v0.385c-44,24.902-44.767,24.535-121.455,68.09c-0.9,22.951,11.404,203.475,121.654,223.275
	c-0.019-0.09,0.105-0.099,0.115,0C450.564,468.992,463.201,288.468,462.301,265.517z"/>
<path fill="#0B97DD" d="M462.417,265.583c-22.167,0.292-241.322,72.336-219.906,127.145c17.688,45.268,47.569,87.108,97.438,96.064
	c-0.019-0.09-0.02-0.099-0.01,0C450.189,468.992,469.625,283.875,462.417,265.583z"/>
<path fill="#EC202A" stroke="#333333" stroke-width="4" stroke-miterlimit="10" d="M470.5,371.5c0,0-30.801-35.625-128-35.827
	c0,0,0-0.005,0-0.005c-0.139,0-0.273,0.002-0.412,0.002c-0.138,0-0.273-0.002-0.412-0.002c0,0,0,0.004,0,0.005
	c-97.2,0.202-128,35.827-128,35.827l35.66,72.217c0,0,20.122-15.179,92.752-15.465c72.63,0.286,92.752,15.465,92.752,15.465
	L470.5,371.5z"/>
<rect x="237.5" y="439.586" display="none" fill="none" width="204.5" height="55.414"/>
<text transform="matrix(1 0 0 1 316.3145 473.1855)" display="none" fill="#F2F2F2" font-family="'NBADetroitPistons'" font-size="42">VIII</text>
<path display="none" fill="#F2F2F2" d="M267.358,302.47l3.972,9.391l10.157,0.868c0.704,0.062,0.993,0.947,0.453,1.407l-7.702,6.678
	l2.307,9.931c0.165,0.688-0.586,1.235-1.188,0.867l-8.733-5.27l-8.734,5.27c-0.602,0.36-1.353-0.18-1.189-0.867l2.307-9.931
	l-7.71-6.678c-0.53-0.468-0.243-1.344,0.462-1.407l10.157-0.868l3.972-9.391C266.162,301.814,267.084,301.814,267.358,302.47
	L267.358,302.47z M267.358,302.47"/>
<path display="none" fill="#F2F2F2" d="M312.625,289.67l3.972,9.392l10.157,0.868c0.704,0.062,0.993,0.947,0.453,1.407l-7.703,6.677
	l2.307,9.931c0.165,0.688-0.586,1.235-1.188,0.867l-8.733-5.27l-8.733,5.27c-0.603,0.36-1.354-0.18-1.19-0.867l2.307-9.931
	l-7.71-6.677c-0.53-0.468-0.243-1.345,0.462-1.407l10.157-0.868l3.972-9.392C311.429,289.015,312.351,289.015,312.625,289.67
	L312.625,289.67z M312.625,289.67"/>
<path display="none" fill="#F2F2F2" d="M371.825,289.67l3.972,9.392l10.157,0.868c0.704,0.062,0.993,0.947,0.453,1.407l-7.702,6.677
	l2.307,9.931c0.165,0.688-0.586,1.235-1.188,0.867l-8.734-5.27l-8.733,5.27c-0.603,0.36-1.353-0.18-1.19-0.867l2.308-9.931
	l-7.71-6.677c-0.531-0.468-0.243-1.345,0.463-1.407l10.156-0.868l3.973-9.392C370.629,289.015,371.551,289.015,371.825,289.67
	L371.825,289.67z M371.825,289.67"/>
<path display="none" fill="#F2F2F2" d="M341.425,256.27l3.971,9.392l10.158,0.868c0.703,0.062,0.992,0.947,0.453,1.407l-7.703,6.677
	l2.307,9.931c0.166,0.688-0.586,1.235-1.188,0.867l-8.734-5.27l-8.733,5.27c-0.603,0.36-1.353-0.18-1.19-0.867l2.307-9.931
	l-7.71-6.677c-0.531-0.468-0.243-1.345,0.462-1.407l10.157-0.868l3.972-9.392C340.229,255.615,341.151,255.615,341.425,256.27
	L341.425,256.27z M341.425,256.27"/>
<path display="none" fill="#F2F2F2" d="M420.024,303.003l3.972,9.392l10.157,0.868c0.704,0.062,0.993,0.947,0.453,1.407
	l-7.702,6.677l2.307,9.932c0.165,0.688-0.586,1.235-1.188,0.867l-8.734-5.27l-8.733,5.27c-0.603,0.36-1.353-0.18-1.19-0.867
	l2.308-9.932l-7.71-6.677c-0.531-0.468-0.243-1.344,0.463-1.407l10.156-0.868l3.973-9.392
	C418.828,302.348,419.75,302.348,420.024,303.003L420.024,303.003z M420.024,303.003"/>
<path display="none" fill="#F2F2F2" d="M341.424,215.337l3.972,9.391l10.156,0.868c0.705,0.062,0.994,0.947,0.453,1.407
	l-7.701,6.677l2.307,9.931c0.164,0.688-0.586,1.235-1.188,0.867l-8.733-5.27l-8.734,5.27c-0.602,0.36-1.353-0.18-1.189-0.867
	l2.307-9.931l-7.71-6.677c-0.53-0.468-0.243-1.345,0.462-1.407l10.157-0.868l3.972-9.391
	C340.229,214.681,341.15,214.681,341.424,215.337L341.424,215.337z M341.424,215.337"/>
<path display="none" fill="#F2F2F2" d="M391.691,242.47l3.973,9.391l10.156,0.868c0.704,0.062,0.993,0.947,0.453,1.407l-7.702,6.678
	l2.308,9.931c0.164,0.688-0.586,1.235-1.189,0.867l-8.732-5.27l-8.734,5.27c-0.602,0.36-1.354-0.18-1.189-0.867l2.307-9.931
	l-7.71-6.678c-0.53-0.468-0.243-1.344,0.462-1.407l10.158-0.868l3.971-9.391C390.496,241.814,391.418,241.814,391.691,242.47
	L391.691,242.47z M391.691,242.47"/>
<path display="none" fill="#F2F2F2" d="M294.825,241.937l3.972,9.391l10.157,0.868c0.704,0.062,0.993,0.947,0.453,1.407
	l-7.703,6.678l2.307,9.931c0.165,0.688-0.586,1.235-1.188,0.867l-8.733-5.27l-8.733,5.27c-0.603,0.36-1.354-0.18-1.19-0.867
	l2.307-9.931l-7.71-6.678c-0.53-0.468-0.243-1.344,0.462-1.407l10.157-0.868l3.972-9.391
	C293.628,241.281,294.55,241.281,294.825,241.937L294.825,241.937z M294.825,241.937"/>
<g display="none">
	<rect x="230.178" y="355.567" fill="none" width="219.322" height="73.433"/>
	
		<text transform="matrix(1 0 0 1 277.8486 413.166)" display="inline" fill="#F2F2F2" font-family="'NBADetroitPistons'" font-size="72">RAFA</text>
</g>
<g display="none">
	<rect x="230.178" y="521.559" fill="none" width="219.322" height="73.433"/>
	
		<text transform="matrix(1 0 0 1 268.7041 579.1582)" display="inline" fill="#4D4D4D" font-family="'NBADetroitPistons'" font-size="72">2015</text>
</g>
<rect x="237.5" y="439.586" display="none" fill="none" width="204.5" height="55.414"/>
<text transform="matrix(1 0 0 1 316.3145 473.1855)" display="none" fill="#F2F2F2" font-family="'NBADetroitPistons'" font-size="42">VIII</text>
<path display="none" fill="#F2F2F2" d="M267.358,302.47l3.972,9.391l10.157,0.868c0.704,0.062,0.993,0.947,0.453,1.407l-7.702,6.678
	l2.307,9.931c0.165,0.688-0.586,1.235-1.188,0.867l-8.733-5.27l-8.734,5.27c-0.602,0.36-1.353-0.18-1.189-0.867l2.307-9.931
	l-7.71-6.678c-0.53-0.468-0.243-1.344,0.462-1.407l10.157-0.868l3.972-9.391C266.162,301.814,267.084,301.814,267.358,302.47
	L267.358,302.47z M267.358,302.47"/>
<path display="none" fill="#F2F2F2" d="M312.625,289.67l3.972,9.392l10.157,0.868c0.704,0.062,0.993,0.947,0.453,1.407l-7.703,6.677
	l2.307,9.931c0.165,0.688-0.586,1.235-1.188,0.867l-8.733-5.27l-8.733,5.27c-0.603,0.36-1.354-0.18-1.19-0.867l2.307-9.931
	l-7.71-6.677c-0.53-0.468-0.243-1.345,0.462-1.407l10.157-0.868l3.972-9.392C311.429,289.015,312.351,289.015,312.625,289.67
	L312.625,289.67z M312.625,289.67"/>
<path display="none" fill="#F2F2F2" d="M371.825,289.67l3.972,9.392l10.157,0.868c0.704,0.062,0.993,0.947,0.453,1.407l-7.702,6.677
	l2.307,9.931c0.165,0.688-0.586,1.235-1.188,0.867l-8.734-5.27l-8.733,5.27c-0.603,0.36-1.353-0.18-1.19-0.867l2.308-9.931
	l-7.71-6.677c-0.531-0.468-0.243-1.345,0.463-1.407l10.156-0.868l3.973-9.392C370.629,289.015,371.551,289.015,371.825,289.67
	L371.825,289.67z M371.825,289.67"/>
<path display="none" fill="#F2F2F2" d="M341.425,256.27l3.971,9.392l10.158,0.868c0.703,0.062,0.992,0.947,0.453,1.407l-7.703,6.677
	l2.307,9.931c0.166,0.688-0.586,1.235-1.188,0.867l-8.734-5.27l-8.733,5.27c-0.603,0.36-1.353-0.18-1.19-0.867l2.307-9.931
	l-7.71-6.677c-0.531-0.468-0.243-1.345,0.462-1.407l10.157-0.868l3.972-9.392C340.229,255.615,341.151,255.615,341.425,256.27
	L341.425,256.27z M341.425,256.27"/>
<path display="none" fill="#F2F2F2" d="M420.024,303.003l3.972,9.392l10.157,0.868c0.704,0.062,0.993,0.947,0.453,1.407
	l-7.702,6.677l2.307,9.932c0.165,0.688-0.586,1.235-1.188,0.867l-8.734-5.27l-8.733,5.27c-0.603,0.36-1.353-0.18-1.19-0.867
	l2.308-9.932l-7.71-6.677c-0.531-0.468-0.243-1.344,0.463-1.407l10.156-0.868l3.973-9.392
	C418.828,302.348,419.75,302.348,420.024,303.003L420.024,303.003z M420.024,303.003"/>
<path display="none" fill="#F2F2F2" d="M341.424,215.337l3.972,9.391l10.156,0.868c0.705,0.062,0.994,0.947,0.453,1.407
	l-7.701,6.677l2.307,9.931c0.164,0.688-0.586,1.235-1.188,0.867l-8.733-5.27l-8.734,5.27c-0.602,0.36-1.353-0.18-1.189-0.867
	l2.307-9.931l-7.71-6.677c-0.53-0.468-0.243-1.345,0.462-1.407l10.157-0.868l3.972-9.391
	C340.229,214.681,341.15,214.681,341.424,215.337L341.424,215.337z M341.424,215.337"/>
<path display="none" fill="#F2F2F2" d="M391.691,242.47l3.973,9.391l10.156,0.868c0.704,0.062,0.993,0.947,0.453,1.407l-7.702,6.678
	l2.308,9.931c0.164,0.688-0.586,1.235-1.189,0.867l-8.732-5.27l-8.734,5.27c-0.602,0.36-1.354-0.18-1.189-0.867l2.307-9.931
	l-7.71-6.678c-0.53-0.468-0.243-1.344,0.462-1.407l10.158-0.868l3.971-9.391C390.496,241.814,391.418,241.814,391.691,242.47
	L391.691,242.47z M391.691,242.47"/>
<path display="none" fill="#F2F2F2" d="M294.825,241.937l3.972,9.391l10.157,0.868c0.704,0.062,0.993,0.947,0.453,1.407
	l-7.703,6.678l2.307,9.931c0.165,0.688-0.586,1.235-1.188,0.867l-8.733-5.27l-8.733,5.27c-0.603,0.36-1.354-0.18-1.19-0.867
	l2.307-9.931l-7.71-6.678c-0.53-0.468-0.243-1.344,0.462-1.407l10.157-0.868l3.972-9.391
	C293.628,241.281,294.55,241.281,294.825,241.937L294.825,241.937z M294.825,241.937"/>
<g display="none">
	<rect x="230.178" y="355.567" fill="none" width="219.322" height="73.433"/>
	
		<text transform="matrix(1 0 0 1 277.8486 413.166)" display="inline" fill="#F2F2F2" font-family="'NBADetroitPistons'" font-size="72">RAFA</text>
</g>
<g display="none">
	<rect x="230.178" y="521.559" fill="none" width="219.322" height="73.433"/>
	
		<text transform="matrix(1 0 0 1 268.7041 579.1582)" display="inline" fill="#4D4D4D" font-family="'NBADetroitPistons'" font-size="72">2015</text>
</g>
<rect x="237.5" y="439.586" display="none" fill="none" width="204.5" height="55.414"/>
<text transform="matrix(1 0 0 1 316.3145 473.1855)" display="none" fill="#F2F2F2" font-family="'NBADetroitPistons'" font-size="42">VIII</text>
<path display="none" fill="#F2F2F2" d="M267.358,302.47l3.972,9.391l10.157,0.868c0.704,0.062,0.993,0.947,0.453,1.407l-7.702,6.678
	l2.307,9.931c0.165,0.688-0.586,1.235-1.188,0.867l-8.733-5.27l-8.734,5.27c-0.602,0.36-1.353-0.18-1.189-0.867l2.307-9.931
	l-7.71-6.678c-0.53-0.468-0.243-1.344,0.462-1.407l10.157-0.868l3.972-9.391C266.162,301.814,267.084,301.814,267.358,302.47
	L267.358,302.47z M267.358,302.47"/>
<path display="none" fill="#F2F2F2" d="M312.625,289.67l3.972,9.392l10.157,0.868c0.704,0.062,0.993,0.947,0.453,1.407l-7.703,6.677
	l2.307,9.931c0.165,0.688-0.586,1.235-1.188,0.867l-8.733-5.27l-8.733,5.27c-0.603,0.36-1.354-0.18-1.19-0.867l2.307-9.931
	l-7.71-6.677c-0.53-0.468-0.243-1.345,0.462-1.407l10.157-0.868l3.972-9.392C311.429,289.015,312.351,289.015,312.625,289.67
	L312.625,289.67z M312.625,289.67"/>
<path display="none" fill="#F2F2F2" d="M371.825,289.67l3.972,9.392l10.157,0.868c0.704,0.062,0.993,0.947,0.453,1.407l-7.702,6.677
	l2.307,9.931c0.165,0.688-0.586,1.235-1.188,0.867l-8.734-5.27l-8.733,5.27c-0.603,0.36-1.353-0.18-1.19-0.867l2.308-9.931
	l-7.71-6.677c-0.531-0.468-0.243-1.345,0.463-1.407l10.156-0.868l3.973-9.392C370.629,289.015,371.551,289.015,371.825,289.67
	L371.825,289.67z M371.825,289.67"/>
<path display="none" fill="#F2F2F2" d="M341.425,256.27l3.971,9.392l10.158,0.868c0.703,0.062,0.992,0.947,0.453,1.407l-7.703,6.677
	l2.307,9.931c0.166,0.688-0.586,1.235-1.188,0.867l-8.734-5.27l-8.733,5.27c-0.603,0.36-1.353-0.18-1.19-0.867l2.307-9.931
	l-7.71-6.677c-0.531-0.468-0.243-1.345,0.462-1.407l10.157-0.868l3.972-9.392C340.229,255.615,341.151,255.615,341.425,256.27
	L341.425,256.27z M341.425,256.27"/>
<path display="none" fill="#F2F2F2" d="M420.024,303.003l3.972,9.392l10.157,0.868c0.704,0.062,0.993,0.947,0.453,1.407
	l-7.702,6.677l2.307,9.932c0.165,0.688-0.586,1.235-1.188,0.867l-8.734-5.27l-8.733,5.27c-0.603,0.36-1.353-0.18-1.19-0.867
	l2.308-9.932l-7.71-6.677c-0.531-0.468-0.243-1.344,0.463-1.407l10.156-0.868l3.973-9.392
	C418.828,302.348,419.75,302.348,420.024,303.003L420.024,303.003z M420.024,303.003"/>
<path display="none" fill="#F2F2F2" d="M341.424,215.337l3.972,9.391l10.156,0.868c0.705,0.062,0.994,0.947,0.453,1.407
	l-7.701,6.677l2.307,9.931c0.164,0.688-0.586,1.235-1.188,0.867l-8.733-5.27l-8.734,5.27c-0.602,0.36-1.353-0.18-1.189-0.867
	l2.307-9.931l-7.71-6.677c-0.53-0.468-0.243-1.345,0.462-1.407l10.157-0.868l3.972-9.391
	C340.229,214.681,341.15,214.681,341.424,215.337L341.424,215.337z M341.424,215.337"/>
<path display="none" fill="#F2F2F2" d="M391.691,242.47l3.973,9.391l10.156,0.868c0.704,0.062,0.993,0.947,0.453,1.407l-7.702,6.678
	l2.308,9.931c0.164,0.688-0.586,1.235-1.189,0.867l-8.732-5.27l-8.734,5.27c-0.602,0.36-1.354-0.18-1.189-0.867l2.307-9.931
	l-7.71-6.678c-0.53-0.468-0.243-1.344,0.462-1.407l10.158-0.868l3.971-9.391C390.496,241.814,391.418,241.814,391.691,242.47
	L391.691,242.47z M391.691,242.47"/>
<path display="none" fill="#F2F2F2" d="M294.825,241.937l3.972,9.391l10.157,0.868c0.704,0.062,0.993,0.947,0.453,1.407
	l-7.703,6.678l2.307,9.931c0.165,0.688-0.586,1.235-1.188,0.867l-8.733-5.27l-8.733,5.27c-0.603,0.36-1.354-0.18-1.19-0.867
	l2.307-9.931l-7.71-6.678c-0.53-0.468-0.243-1.344,0.462-1.407l10.157-0.868l3.972-9.391
	C293.628,241.281,294.55,241.281,294.825,241.937L294.825,241.937z M294.825,241.937"/>
<g display="none">
	<rect x="230.178" y="355.567" fill="none" width="219.322" height="73.433"/>
	
		<text transform="matrix(1 0 0 1 277.8486 413.166)" display="inline" fill="#F2F2F2" font-family="'NBADetroitPistons'" font-size="72">RAFA</text>
</g>
<g display="none">
	<rect x="230.178" y="521.559" fill="none" width="219.322" height="73.433"/>
	
		<text transform="matrix(1 0 0 1 268.7041 579.1582)" display="inline" fill="#4D4D4D" font-family="'NBADetroitPistons'" font-size="72">2015</text>
</g>
<rect x="237.5" y="439.586" display="none" fill="none" width="204.5" height="55.414"/>
<text transform="matrix(1 0 0 1 316.3145 473.1855)" display="none" fill="#F2F2F2" font-family="'NBADetroitPistons'" font-size="42">VIII</text>
<path display="none" fill="#F2F2F2" d="M267.358,302.47l3.972,9.391l10.157,0.868c0.704,0.062,0.993,0.947,0.453,1.407l-7.702,6.678
	l2.307,9.931c0.165,0.688-0.586,1.235-1.188,0.867l-8.733-5.27l-8.734,5.27c-0.602,0.36-1.353-0.18-1.189-0.867l2.307-9.931
	l-7.71-6.678c-0.53-0.468-0.243-1.344,0.462-1.407l10.157-0.868l3.972-9.391C266.162,301.814,267.084,301.814,267.358,302.47
	L267.358,302.47z M267.358,302.47"/>
<path display="none" fill="#F2F2F2" d="M312.625,289.67l3.972,9.392l10.157,0.868c0.704,0.062,0.993,0.947,0.453,1.407l-7.703,6.677
	l2.307,9.931c0.165,0.688-0.586,1.235-1.188,0.867l-8.733-5.27l-8.733,5.27c-0.603,0.36-1.354-0.18-1.19-0.867l2.307-9.931
	l-7.71-6.677c-0.53-0.468-0.243-1.345,0.462-1.407l10.157-0.868l3.972-9.392C311.429,289.015,312.351,289.015,312.625,289.67
	L312.625,289.67z M312.625,289.67"/>
<path display="none" fill="#F2F2F2" d="M371.825,289.67l3.972,9.392l10.157,0.868c0.704,0.062,0.993,0.947,0.453,1.407l-7.702,6.677
	l2.307,9.931c0.165,0.688-0.586,1.235-1.188,0.867l-8.734-5.27l-8.733,5.27c-0.603,0.36-1.353-0.18-1.19-0.867l2.308-9.931
	l-7.71-6.677c-0.531-0.468-0.243-1.345,0.463-1.407l10.156-0.868l3.973-9.392C370.629,289.015,371.551,289.015,371.825,289.67
	L371.825,289.67z M371.825,289.67"/>
<path display="none" fill="#F2F2F2" d="M341.425,256.27l3.971,9.392l10.158,0.868c0.703,0.062,0.992,0.947,0.453,1.407l-7.703,6.677
	l2.307,9.931c0.166,0.688-0.586,1.235-1.188,0.867l-8.734-5.27l-8.733,5.27c-0.603,0.36-1.353-0.18-1.19-0.867l2.307-9.931
	l-7.71-6.677c-0.531-0.468-0.243-1.345,0.462-1.407l10.157-0.868l3.972-9.392C340.229,255.615,341.151,255.615,341.425,256.27
	L341.425,256.27z M341.425,256.27"/>
<path display="none" fill="#F2F2F2" d="M420.024,303.003l3.972,9.392l10.157,0.868c0.704,0.062,0.993,0.947,0.453,1.407
	l-7.702,6.677l2.307,9.932c0.165,0.688-0.586,1.235-1.188,0.867l-8.734-5.27l-8.733,5.27c-0.603,0.36-1.353-0.18-1.19-0.867
	l2.308-9.932l-7.71-6.677c-0.531-0.468-0.243-1.344,0.463-1.407l10.156-0.868l3.973-9.392
	C418.828,302.348,419.75,302.348,420.024,303.003L420.024,303.003z M420.024,303.003"/>
<path display="none" fill="#F2F2F2" d="M341.424,215.337l3.972,9.391l10.156,0.868c0.705,0.062,0.994,0.947,0.453,1.407
	l-7.701,6.677l2.307,9.931c0.164,0.688-0.586,1.235-1.188,0.867l-8.733-5.27l-8.734,5.27c-0.602,0.36-1.353-0.18-1.189-0.867
	l2.307-9.931l-7.71-6.677c-0.53-0.468-0.243-1.345,0.462-1.407l10.157-0.868l3.972-9.391
	C340.229,214.681,341.15,214.681,341.424,215.337L341.424,215.337z M341.424,215.337"/>
<path display="none" fill="#F2F2F2" d="M391.691,242.47l3.973,9.391l10.156,0.868c0.704,0.062,0.993,0.947,0.453,1.407l-7.702,6.678
	l2.308,9.931c0.164,0.688-0.586,1.235-1.189,0.867l-8.732-5.27l-8.734,5.27c-0.602,0.36-1.354-0.18-1.189-0.867l2.307-9.931
	l-7.71-6.678c-0.53-0.468-0.243-1.344,0.462-1.407l10.158-0.868l3.971-9.391C390.496,241.814,391.418,241.814,391.691,242.47
	L391.691,242.47z M391.691,242.47"/>
<path display="none" fill="#F2F2F2" d="M294.825,241.937l3.972,9.391l10.157,0.868c0.704,0.062,0.993,0.947,0.453,1.407
	l-7.703,6.678l2.307,9.931c0.165,0.688-0.586,1.235-1.188,0.867l-8.733-5.27l-8.733,5.27c-0.603,0.36-1.354-0.18-1.19-0.867
	l2.307-9.931l-7.71-6.678c-0.53-0.468-0.243-1.344,0.462-1.407l10.157-0.868l3.972-9.391
	C293.628,241.281,294.55,241.281,294.825,241.937L294.825,241.937z M294.825,241.937"/>
<g display="none">
	<rect x="230.178" y="355.567" fill="none" width="219.322" height="73.433"/>
	
		<text transform="matrix(1 0 0 1 277.8486 413.166)" display="inline" fill="#F2F2F2" font-family="'NBADetroitPistons'" font-size="72">RAFA</text>
</g>
<g display="none">
	<rect x="230.178" y="521.559" fill="none" width="219.322" height="73.433"/>
	
		<text transform="matrix(1 0 0 1 268.7041 579.1582)" display="inline" fill="#4D4D4D" font-family="'NBADetroitPistons'" font-size="72">2015</text>
</g>
<rect x="237.5" y="439.586" display="none" fill="none" width="204.5" height="55.414"/>
<text transform="matrix(1 0 0 1 316.3145 473.1855)" display="none" fill="#F2F2F2" font-family="'NBADetroitPistons'" font-size="42">VIII</text>
<path display="none" fill="#F2F2F2" d="M267.358,302.47l3.972,9.391l10.157,0.868c0.704,0.062,0.993,0.947,0.453,1.407l-7.702,6.678
	l2.307,9.931c0.165,0.688-0.586,1.235-1.188,0.867l-8.733-5.27l-8.734,5.27c-0.602,0.36-1.353-0.18-1.189-0.867l2.307-9.931
	l-7.71-6.678c-0.53-0.468-0.243-1.344,0.462-1.407l10.157-0.868l3.972-9.391C266.162,301.814,267.084,301.814,267.358,302.47
	L267.358,302.47z M267.358,302.47"/>
<path display="none" fill="#F2F2F2" d="M312.625,289.67l3.972,9.392l10.157,0.868c0.704,0.062,0.993,0.947,0.453,1.407l-7.703,6.677
	l2.307,9.931c0.165,0.688-0.586,1.235-1.188,0.867l-8.733-5.27l-8.733,5.27c-0.603,0.36-1.354-0.18-1.19-0.867l2.307-9.931
	l-7.71-6.677c-0.53-0.468-0.243-1.345,0.462-1.407l10.157-0.868l3.972-9.392C311.429,289.015,312.351,289.015,312.625,289.67
	L312.625,289.67z M312.625,289.67"/>
<path display="none" fill="#F2F2F2" d="M371.825,289.67l3.972,9.392l10.157,0.868c0.704,0.062,0.993,0.947,0.453,1.407l-7.702,6.677
	l2.307,9.931c0.165,0.688-0.586,1.235-1.188,0.867l-8.734-5.27l-8.733,5.27c-0.603,0.36-1.353-0.18-1.19-0.867l2.308-9.931
	l-7.71-6.677c-0.531-0.468-0.243-1.345,0.463-1.407l10.156-0.868l3.973-9.392C370.629,289.015,371.551,289.015,371.825,289.67
	L371.825,289.67z M371.825,289.67"/>
<path display="none" fill="#F2F2F2" d="M341.425,256.27l3.971,9.392l10.158,0.868c0.703,0.062,0.992,0.947,0.453,1.407l-7.703,6.677
	l2.307,9.931c0.166,0.688-0.586,1.235-1.188,0.867l-8.734-5.27l-8.733,5.27c-0.603,0.36-1.353-0.18-1.19-0.867l2.307-9.931
	l-7.71-6.677c-0.531-0.468-0.243-1.345,0.462-1.407l10.157-0.868l3.972-9.392C340.229,255.615,341.151,255.615,341.425,256.27
	L341.425,256.27z M341.425,256.27"/>
<path display="none" fill="#F2F2F2" d="M420.024,303.003l3.972,9.392l10.157,0.868c0.704,0.062,0.993,0.947,0.453,1.407
	l-7.702,6.677l2.307,9.932c0.165,0.688-0.586,1.235-1.188,0.867l-8.734-5.27l-8.733,5.27c-0.603,0.36-1.353-0.18-1.19-0.867
	l2.308-9.932l-7.71-6.677c-0.531-0.468-0.243-1.344,0.463-1.407l10.156-0.868l3.973-9.392
	C418.828,302.348,419.75,302.348,420.024,303.003L420.024,303.003z M420.024,303.003"/>
<path display="none" fill="#F2F2F2" d="M341.424,215.337l3.972,9.391l10.156,0.868c0.705,0.062,0.994,0.947,0.453,1.407
	l-7.701,6.677l2.307,9.931c0.164,0.688-0.586,1.235-1.188,0.867l-8.733-5.27l-8.734,5.27c-0.602,0.36-1.353-0.18-1.189-0.867
	l2.307-9.931l-7.71-6.677c-0.53-0.468-0.243-1.345,0.462-1.407l10.157-0.868l3.972-9.391
	C340.229,214.681,341.15,214.681,341.424,215.337L341.424,215.337z M341.424,215.337"/>
<path display="none" fill="#F2F2F2" d="M391.691,242.47l3.973,9.391l10.156,0.868c0.704,0.062,0.993,0.947,0.453,1.407l-7.702,6.678
	l2.308,9.931c0.164,0.688-0.586,1.235-1.189,0.867l-8.732-5.27l-8.734,5.27c-0.602,0.36-1.354-0.18-1.189-0.867l2.307-9.931
	l-7.71-6.678c-0.53-0.468-0.243-1.344,0.462-1.407l10.158-0.868l3.971-9.391C390.496,241.814,391.418,241.814,391.691,242.47
	L391.691,242.47z M391.691,242.47"/>
<path display="none" fill="#F2F2F2" d="M294.825,241.937l3.972,9.391l10.157,0.868c0.704,0.062,0.993,0.947,0.453,1.407
	l-7.703,6.678l2.307,9.931c0.165,0.688-0.586,1.235-1.188,0.867l-8.733-5.27l-8.733,5.27c-0.603,0.36-1.354-0.18-1.19-0.867
	l2.307-9.931l-7.71-6.678c-0.53-0.468-0.243-1.344,0.462-1.407l10.157-0.868l3.972-9.391
	C293.628,241.281,294.55,241.281,294.825,241.937L294.825,241.937z M294.825,241.937"/>
<g display="none">
	<rect x="230.178" y="355.567" fill="none" width="219.322" height="73.433"/>
	
		<text transform="matrix(1 0 0 1 277.8486 413.166)" display="inline" fill="#F2F2F2" font-family="'NBADetroitPistons'" font-size="72">RAFA</text>
</g>
<g display="none">
	<rect x="230.178" y="521.559" fill="none" width="219.322" height="73.433"/>
	
		<text transform="matrix(1 0 0 1 268.7041 579.1582)" display="inline" fill="#4D4D4D" font-family="'NBADetroitPistons'" font-size="72">2015</text>
</g>
<rect x="237.5" y="439.586" display="none" fill="none" width="204.5" height="55.414"/>
<text transform="matrix(1 0 0 1 316.3145 473.1855)" display="none" fill="#F2F2F2" font-family="'NBADetroitPistons'" font-size="42">VIII</text>
<path display="none" fill="#F2F2F2" d="M267.358,302.47l3.972,9.391l10.157,0.868c0.704,0.062,0.993,0.947,0.453,1.407l-7.702,6.678
	l2.307,9.931c0.165,0.688-0.586,1.235-1.188,0.867l-8.733-5.27l-8.734,5.27c-0.602,0.36-1.353-0.18-1.189-0.867l2.307-9.931
	l-7.71-6.678c-0.53-0.468-0.243-1.344,0.462-1.407l10.157-0.868l3.972-9.391C266.162,301.814,267.084,301.814,267.358,302.47
	L267.358,302.47z M267.358,302.47"/>
<path display="none" fill="#F2F2F2" d="M312.625,289.67l3.972,9.392l10.157,0.868c0.704,0.062,0.993,0.947,0.453,1.407l-7.703,6.677
	l2.307,9.931c0.165,0.688-0.586,1.235-1.188,0.867l-8.733-5.27l-8.733,5.27c-0.603,0.36-1.354-0.18-1.19-0.867l2.307-9.931
	l-7.71-6.677c-0.53-0.468-0.243-1.345,0.462-1.407l10.157-0.868l3.972-9.392C311.429,289.015,312.351,289.015,312.625,289.67
	L312.625,289.67z M312.625,289.67"/>
<path display="none" fill="#F2F2F2" d="M371.825,289.67l3.972,9.392l10.157,0.868c0.704,0.062,0.993,0.947,0.453,1.407l-7.702,6.677
	l2.307,9.931c0.165,0.688-0.586,1.235-1.188,0.867l-8.734-5.27l-8.733,5.27c-0.603,0.36-1.353-0.18-1.19-0.867l2.308-9.931
	l-7.71-6.677c-0.531-0.468-0.243-1.345,0.463-1.407l10.156-0.868l3.973-9.392C370.629,289.015,371.551,289.015,371.825,289.67
	L371.825,289.67z M371.825,289.67"/>
<path display="none" fill="#F2F2F2" d="M341.425,256.27l3.971,9.392l10.158,0.868c0.703,0.062,0.992,0.947,0.453,1.407l-7.703,6.677
	l2.307,9.931c0.166,0.688-0.586,1.235-1.188,0.867l-8.734-5.27l-8.733,5.27c-0.603,0.36-1.353-0.18-1.19-0.867l2.307-9.931
	l-7.71-6.677c-0.531-0.468-0.243-1.345,0.462-1.407l10.157-0.868l3.972-9.392C340.229,255.615,341.151,255.615,341.425,256.27
	L341.425,256.27z M341.425,256.27"/>
<path display="none" fill="#F2F2F2" d="M420.024,303.003l3.972,9.392l10.157,0.868c0.704,0.062,0.993,0.947,0.453,1.407
	l-7.702,6.677l2.307,9.932c0.165,0.688-0.586,1.235-1.188,0.867l-8.734-5.27l-8.733,5.27c-0.603,0.36-1.353-0.18-1.19-0.867
	l2.308-9.932l-7.71-6.677c-0.531-0.468-0.243-1.344,0.463-1.407l10.156-0.868l3.973-9.392
	C418.828,302.348,419.75,302.348,420.024,303.003L420.024,303.003z M420.024,303.003"/>
<path display="none" fill="#F2F2F2" d="M341.424,215.337l3.972,9.391l10.156,0.868c0.705,0.062,0.994,0.947,0.453,1.407
	l-7.701,6.677l2.307,9.931c0.164,0.688-0.586,1.235-1.188,0.867l-8.733-5.27l-8.734,5.27c-0.602,0.36-1.353-0.18-1.189-0.867
	l2.307-9.931l-7.71-6.677c-0.53-0.468-0.243-1.345,0.462-1.407l10.157-0.868l3.972-9.391
	C340.229,214.681,341.15,214.681,341.424,215.337L341.424,215.337z M341.424,215.337"/>
<path display="none" fill="#F2F2F2" d="M391.691,242.47l3.973,9.391l10.156,0.868c0.704,0.062,0.993,0.947,0.453,1.407l-7.702,6.678
	l2.308,9.931c0.164,0.688-0.586,1.235-1.189,0.867l-8.732-5.27l-8.734,5.27c-0.602,0.36-1.354-0.18-1.189-0.867l2.307-9.931
	l-7.71-6.678c-0.53-0.468-0.243-1.344,0.462-1.407l10.158-0.868l3.971-9.391C390.496,241.814,391.418,241.814,391.691,242.47
	L391.691,242.47z M391.691,242.47"/>
<path display="none" fill="#F2F2F2" d="M294.825,241.937l3.972,9.391l10.157,0.868c0.704,0.062,0.993,0.947,0.453,1.407
	l-7.703,6.678l2.307,9.931c0.165,0.688-0.586,1.235-1.188,0.867l-8.733-5.27l-8.733,5.27c-0.603,0.36-1.354-0.18-1.19-0.867
	l2.307-9.931l-7.71-6.678c-0.53-0.468-0.243-1.344,0.462-1.407l10.157-0.868l3.972-9.391
	C293.628,241.281,294.55,241.281,294.825,241.937L294.825,241.937z M294.825,241.937"/>
<g display="none">
	<rect x="230.178" y="355.567" fill="none" width="219.322" height="73.433"/>
	
		<text transform="matrix(1 0 0 1 277.8486 413.166)" display="inline" fill="#F2F2F2" font-family="'NBADetroitPistons'" font-size="72">RAFA</text>
</g>
<g display="none">
	<rect x="230.178" y="521.559" fill="none" width="219.322" height="73.433"/>
	
		<text transform="matrix(1 0 0 1 268.7041 579.1582)" display="inline" fill="#4D4D4D" font-family="'NBADetroitPistons'" font-size="72">2015</text>
</g>
<rect x="237.5" y="439.586" display="none" fill="none" width="204.5" height="55.414"/>
<text transform="matrix(1 0 0 1 316.3145 473.1855)" display="none" fill="#F2F2F2" font-family="'NBADetroitPistons'" font-size="42">VIII</text>
<path display="none" fill="#F2F2F2" d="M267.358,302.47l3.972,9.391l10.157,0.868c0.704,0.062,0.993,0.947,0.453,1.407l-7.702,6.678
	l2.307,9.931c0.165,0.688-0.586,1.235-1.188,0.867l-8.733-5.27l-8.734,5.27c-0.602,0.36-1.353-0.18-1.189-0.867l2.307-9.931
	l-7.71-6.678c-0.53-0.468-0.243-1.344,0.462-1.407l10.157-0.868l3.972-9.391C266.162,301.814,267.084,301.814,267.358,302.47
	L267.358,302.47z M267.358,302.47"/>
<path display="none" fill="#F2F2F2" d="M312.625,289.67l3.972,9.392l10.157,0.868c0.704,0.062,0.993,0.947,0.453,1.407l-7.703,6.677
	l2.307,9.931c0.165,0.688-0.586,1.235-1.188,0.867l-8.733-5.27l-8.733,5.27c-0.603,0.36-1.354-0.18-1.19-0.867l2.307-9.931
	l-7.71-6.677c-0.53-0.468-0.243-1.345,0.462-1.407l10.157-0.868l3.972-9.392C311.429,289.015,312.351,289.015,312.625,289.67
	L312.625,289.67z M312.625,289.67"/>
<path display="none" fill="#F2F2F2" d="M371.825,289.67l3.972,9.392l10.157,0.868c0.704,0.062,0.993,0.947,0.453,1.407l-7.702,6.677
	l2.307,9.931c0.165,0.688-0.586,1.235-1.188,0.867l-8.734-5.27l-8.733,5.27c-0.603,0.36-1.353-0.18-1.19-0.867l2.308-9.931
	l-7.71-6.677c-0.531-0.468-0.243-1.345,0.463-1.407l10.156-0.868l3.973-9.392C370.629,289.015,371.551,289.015,371.825,289.67
	L371.825,289.67z M371.825,289.67"/>
<path display="none" fill="#F2F2F2" d="M341.425,256.27l3.971,9.392l10.158,0.868c0.703,0.062,0.992,0.947,0.453,1.407l-7.703,6.677
	l2.307,9.931c0.166,0.688-0.586,1.235-1.188,0.867l-8.734-5.27l-8.733,5.27c-0.603,0.36-1.353-0.18-1.19-0.867l2.307-9.931
	l-7.71-6.677c-0.531-0.468-0.243-1.345,0.462-1.407l10.157-0.868l3.972-9.392C340.229,255.615,341.151,255.615,341.425,256.27
	L341.425,256.27z M341.425,256.27"/>
<path display="none" fill="#F2F2F2" d="M420.024,303.003l3.972,9.392l10.157,0.868c0.704,0.062,0.993,0.947,0.453,1.407
	l-7.702,6.677l2.307,9.932c0.165,0.688-0.586,1.235-1.188,0.867l-8.734-5.27l-8.733,5.27c-0.603,0.36-1.353-0.18-1.19-0.867
	l2.308-9.932l-7.71-6.677c-0.531-0.468-0.243-1.344,0.463-1.407l10.156-0.868l3.973-9.392
	C418.828,302.348,419.75,302.348,420.024,303.003L420.024,303.003z M420.024,303.003"/>
<path display="none" fill="#F2F2F2" d="M341.424,215.337l3.972,9.391l10.156,0.868c0.705,0.062,0.994,0.947,0.453,1.407
	l-7.701,6.677l2.307,9.931c0.164,0.688-0.586,1.235-1.188,0.867l-8.733-5.27l-8.734,5.27c-0.602,0.36-1.353-0.18-1.189-0.867
	l2.307-9.931l-7.71-6.677c-0.53-0.468-0.243-1.345,0.462-1.407l10.157-0.868l3.972-9.391
	C340.229,214.681,341.15,214.681,341.424,215.337L341.424,215.337z M341.424,215.337"/>
<path display="none" fill="#F2F2F2" d="M391.691,242.47l3.973,9.391l10.156,0.868c0.704,0.062,0.993,0.947,0.453,1.407l-7.702,6.678
	l2.308,9.931c0.164,0.688-0.586,1.235-1.189,0.867l-8.732-5.27l-8.734,5.27c-0.602,0.36-1.354-0.18-1.189-0.867l2.307-9.931
	l-7.71-6.678c-0.53-0.468-0.243-1.344,0.462-1.407l10.158-0.868l3.971-9.391C390.496,241.814,391.418,241.814,391.691,242.47
	L391.691,242.47z M391.691,242.47"/>
<path display="none" fill="#F2F2F2" d="M294.825,241.937l3.972,9.391l10.157,0.868c0.704,0.062,0.993,0.947,0.453,1.407
	l-7.703,6.678l2.307,9.931c0.165,0.688-0.586,1.235-1.188,0.867l-8.733-5.27l-8.733,5.27c-0.603,0.36-1.354-0.18-1.19-0.867
	l2.307-9.931l-7.71-6.678c-0.53-0.468-0.243-1.344,0.462-1.407l10.157-0.868l3.972-9.391
	C293.628,241.281,294.55,241.281,294.825,241.937L294.825,241.937z M294.825,241.937"/>
<g display="none">
	<rect x="230.178" y="355.567" fill="none" width="219.322" height="73.433"/>
	
		<text transform="matrix(1 0 0 1 277.8486 413.166)" display="inline" fill="#F2F2F2" font-family="'NBADetroitPistons'" font-size="72">RAFA</text>
</g>
<g display="none">
	<rect x="230.178" y="521.559" fill="none" width="219.322" height="73.433"/>
	
		<text transform="matrix(1 0 0 1 268.7041 579.1582)" display="inline" fill="#4D4D4D" font-family="'NBADetroitPistons'" font-size="72">2015</text>
</g>
<rect x="237.5" y="439.586" display="none" fill="none" width="204.5" height="55.414"/>
<text transform="matrix(1 0 0 1 316.3145 473.1855)" display="none" fill="#F2F2F2" font-family="'NBADetroitPistons'" font-size="42">VIII</text>
<path display="none" fill="#F2F2F2" d="M267.358,302.47l3.972,9.391l10.157,0.868c0.704,0.062,0.993,0.947,0.453,1.407l-7.702,6.678
	l2.307,9.931c0.165,0.688-0.586,1.235-1.188,0.867l-8.733-5.27l-8.734,5.27c-0.602,0.36-1.353-0.18-1.189-0.867l2.307-9.931
	l-7.71-6.678c-0.53-0.468-0.243-1.344,0.462-1.407l10.157-0.868l3.972-9.391C266.162,301.814,267.084,301.814,267.358,302.47
	L267.358,302.47z M267.358,302.47"/>
<path display="none" fill="#F2F2F2" d="M312.625,289.67l3.972,9.392l10.157,0.868c0.704,0.062,0.993,0.947,0.453,1.407l-7.703,6.677
	l2.307,9.931c0.165,0.688-0.586,1.235-1.188,0.867l-8.733-5.27l-8.733,5.27c-0.603,0.36-1.354-0.18-1.19-0.867l2.307-9.931
	l-7.71-6.677c-0.53-0.468-0.243-1.345,0.462-1.407l10.157-0.868l3.972-9.392C311.429,289.015,312.351,289.015,312.625,289.67
	L312.625,289.67z M312.625,289.67"/>
<path display="none" fill="#F2F2F2" d="M371.825,289.67l3.972,9.392l10.157,0.868c0.704,0.062,0.993,0.947,0.453,1.407l-7.702,6.677
	l2.307,9.931c0.165,0.688-0.586,1.235-1.188,0.867l-8.734-5.27l-8.733,5.27c-0.603,0.36-1.353-0.18-1.19-0.867l2.308-9.931
	l-7.71-6.677c-0.531-0.468-0.243-1.345,0.463-1.407l10.156-0.868l3.973-9.392C370.629,289.015,371.551,289.015,371.825,289.67
	L371.825,289.67z M371.825,289.67"/>
<path display="none" fill="#F2F2F2" d="M341.425,256.27l3.971,9.392l10.158,0.868c0.703,0.062,0.992,0.947,0.453,1.407l-7.703,6.677
	l2.307,9.931c0.166,0.688-0.586,1.235-1.188,0.867l-8.734-5.27l-8.733,5.27c-0.603,0.36-1.353-0.18-1.19-0.867l2.307-9.931
	l-7.71-6.677c-0.531-0.468-0.243-1.345,0.462-1.407l10.157-0.868l3.972-9.392C340.229,255.615,341.151,255.615,341.425,256.27
	L341.425,256.27z M341.425,256.27"/>
<path display="none" fill="#F2F2F2" d="M420.024,303.003l3.972,9.392l10.157,0.868c0.704,0.062,0.993,0.947,0.453,1.407
	l-7.702,6.677l2.307,9.932c0.165,0.688-0.586,1.235-1.188,0.867l-8.734-5.27l-8.733,5.27c-0.603,0.36-1.353-0.18-1.19-0.867
	l2.308-9.932l-7.71-6.677c-0.531-0.468-0.243-1.344,0.463-1.407l10.156-0.868l3.973-9.392
	C418.828,302.348,419.75,302.348,420.024,303.003L420.024,303.003z M420.024,303.003"/>
<path display="none" fill="#F2F2F2" d="M341.424,215.337l3.972,9.391l10.156,0.868c0.705,0.062,0.994,0.947,0.453,1.407
	l-7.701,6.677l2.307,9.931c0.164,0.688-0.586,1.235-1.188,0.867l-8.733-5.27l-8.734,5.27c-0.602,0.36-1.353-0.18-1.189-0.867
	l2.307-9.931l-7.71-6.677c-0.53-0.468-0.243-1.345,0.462-1.407l10.157-0.868l3.972-9.391
	C340.229,214.681,341.15,214.681,341.424,215.337L341.424,215.337z M341.424,215.337"/>
<path display="none" fill="#F2F2F2" d="M391.691,242.47l3.973,9.391l10.156,0.868c0.704,0.062,0.993,0.947,0.453,1.407l-7.702,6.678
	l2.308,9.931c0.164,0.688-0.586,1.235-1.189,0.867l-8.732-5.27l-8.734,5.27c-0.602,0.36-1.354-0.18-1.189-0.867l2.307-9.931
	l-7.71-6.678c-0.53-0.468-0.243-1.344,0.462-1.407l10.158-0.868l3.971-9.391C390.496,241.814,391.418,241.814,391.691,242.47
	L391.691,242.47z M391.691,242.47"/>
<path display="none" fill="#F2F2F2" d="M294.825,241.937l3.972,9.391l10.157,0.868c0.704,0.062,0.993,0.947,0.453,1.407
	l-7.703,6.678l2.307,9.931c0.165,0.688-0.586,1.235-1.188,0.867l-8.733-5.27l-8.733,5.27c-0.603,0.36-1.354-0.18-1.19-0.867
	l2.307-9.931l-7.71-6.678c-0.53-0.468-0.243-1.344,0.462-1.407l10.157-0.868l3.972-9.391
	C293.628,241.281,294.55,241.281,294.825,241.937L294.825,241.937z M294.825,241.937"/>
<g display="none">
	<rect x="230.178" y="355.567" fill="none" width="219.322" height="73.433"/>
	
		<text transform="matrix(1 0 0 1 277.8486 413.166)" display="inline" fill="#F2F2F2" font-family="'NBADetroitPistons'" font-size="72">RAFA</text>
</g>
<g display="none">
	<rect x="230.178" y="521.559" fill="none" width="219.322" height="73.433"/>
	
		<text transform="matrix(1 0 0 1 268.7041 579.1582)" display="inline" fill="#4D4D4D" font-family="'NBADetroitPistons'" font-size="72">2015</text>
</g>
<rect x="239.953" y="439.586" fill="none" width="204.5" height="55.414"/>
<text transform="matrix(1 0 0 1 337.6045 473.1855)" fill="#F2F2F2" font-family="'NBADetroitPistons'" font-size="42">i</text>
<path fill="#F2F2F2" d="M341.425,226.604l3.971,9.392l10.158,0.868c0.703,0.062,0.992,0.947,0.453,1.407l-7.703,6.677l2.307,9.931
	c0.166,0.688-0.586,1.235-1.188,0.867l-8.734-5.27l-8.733,5.27c-0.603,0.36-1.353-0.18-1.19-0.867l2.307-9.931l-7.71-6.677
	c-0.531-0.468-0.243-1.345,0.462-1.407l10.157-0.868l3.972-9.392C340.229,225.948,341.151,225.948,341.425,226.604L341.425,226.604z
	 M341.425,226.604"/>
<g>
	<rect x="230.178" y="355.567" fill="none" width="219.322" height="73.433"/>
	<text transform="matrix(1 0 0 1 290.4478 413.166)" fill="#F2F2F2" font-family="'NBADetroitPistons'" font-size="72">jon</text>
</g>
<g>
	<rect x="230.178" y="521.559" fill="none" width="219.322" height="73.433"/>
	<text transform="matrix(1 0 0 1 256.2119 579.1582)" fill="#4D4D4D" font-family="'NBADetroitPistons'" font-size="72">2008</text>
</g>
</svg>
