<?xml version="1.0" encoding="utf-8"?>
<!-- Generator: Adobe Illustrator 15.0.0, SVG Export Plug-In  -->
<!DOCTYPE svg PUBLIC "-//W3C//DTD SVG 1.1//EN" "http://www.w3.org/Graphics/SVG/1.1/DTD/svg11.dtd" [
	<!ENTITY ns_flows "http://ns.adobe.com/Flows/1.0/">
]>
<svg version="1.1"
	 xmlns="http://www.w3.org/2000/svg" xmlns:xlink="http://www.w3.org/1999/xlink" xmlns:a="http://ns.adobe.com/AdobeSVGViewerExtensions/3.0/"
	 x="0px" y="0px" width="500px" height="500px" viewBox="-70.667 -65.833 500 500"
	 overflow="visible" enable-background="new -70.667 -65.833 500 500" xml:space="preserve">
<defs>
</defs>
<polygon fill="#C91F2F" points="357.832,233.001 286.667,198.5 245,274.167 320.333,311.833 313.831,261.501 "/>
<polygon fill="#C91F2F" points="0,233.001 71.165,198.5 112.832,274.167 37.499,311.833 44.001,261.501 "/>
<path fill="#333333" d="M314.144,76.083c-85.209-48.394-85.811-47.986-134.811-75.656V0c0,0.072-0.372,0.142-0.5,0.214
	c-0.128-0.072-0.5-0.142-0.5-0.214v0.428c-49,27.669-49.764,27.262-134.973,75.656c-1,25.5,12.659,226.083,135.159,248.083
	c-0.02-0.1,0.095-0.109,0.106,0C301.125,302.167,315.144,101.584,314.144,76.083z"/>
<path fill="#0777BC" d="M300.634,84.684c-76.688-43.555-77.301-43.188-121.301-68.09v-0.385c0,0.065-0.385,0.128-0.5,0.192
	c-0.115-0.064-0.5-0.127-0.5-0.192v0.385c-44,24.902-44.767,24.535-121.455,68.09c-0.9,22.951,11.404,203.475,121.654,223.275
	c-0.019-0.09,0.105-0.099,0.115,0C288.897,288.159,301.534,107.634,300.634,84.684z"/>
<path fill="#0B97DD" d="M300.75,84.75c-22.167,0.292-241.322,72.336-219.906,127.145c17.688,45.268,47.569,87.108,97.438,96.064
	c-0.019-0.09-0.02-0.099-0.01,0C288.522,288.159,307.958,103.042,300.75,84.75z"/>
<path fill="#EC202A" d="M308.833,190.667c0,0-30.801-35.625-128-35.827v-0.005c-0.139,0-0.273,0.002-0.412,0.002
	c-0.138,0-0.273-0.002-0.412-0.002v0.005c-97.2,0.202-128,35.827-128,35.827l35.66,72.217c0,0,20.122-15.179,92.752-15.465
	c72.63,0.286,92.752,15.465,92.752,15.465L308.833,190.667z"/>
<rect x="78.249" y="258.752" fill="none" width="204.5" height="55.414"/>
<text transform="matrix(1 0 0 1 170.3984 292.3521)" fill="#F2F2F2" font-family="'NBADetroitPistons'" font-size="42">X</text>
<g>
	<rect x="73.511" y="172.734" fill="none" width="219.322" height="73.433"/>
	<text transform="matrix(1 0 0 1 166.0508 227.5776)" fill="#F2F2F2" font-family="'Roboto-Regular'" font-size="72">?</text>
</g>
<g>
	<rect x="68.511" y="345.725" fill="none" width="219.322" height="73.433"/>
	<text transform="matrix(1 0 0 1 106.8931 403.3247)" fill="#4D4D4D" font-family="'NBADetroitPistons'" font-size="72">2017</text>
</g>
<path fill="#F2F2F2" d="M115.425,76.77l3.971,9.392l10.158,0.868c0.703,0.062,0.992,0.947,0.453,1.407l-7.703,6.677l2.307,9.931
	c0.166,0.688-0.586,1.235-1.188,0.867l-8.734-5.27l-8.733,5.27c-0.603,0.36-1.353-0.18-1.19-0.867l2.307-9.931l-7.71-6.677
	c-0.531-0.468-0.243-1.345,0.462-1.407l10.157-0.868l3.972-9.392C114.229,76.115,115.15,76.115,115.425,76.77L115.425,76.77z
	 M115.425,76.77"/>
<path fill="#F2F2F2" d="M242.091,76.77l3.971,9.392l10.158,0.868c0.703,0.062,0.992,0.947,0.453,1.407l-7.703,6.677l2.307,9.931
	c0.166,0.688-0.586,1.235-1.188,0.867l-8.733-5.27l-8.733,5.27c-0.603,0.36-1.354-0.18-1.189-0.867l2.307-9.931l-7.71-6.677
	c-0.53-0.468-0.243-1.345,0.462-1.407l10.157-0.868l3.972-9.392C240.895,76.115,241.816,76.115,242.091,76.77L242.091,76.77z
	 M242.091,76.77"/>
<path fill="#F2F2F2" d="M83.925,102.77l3.971,9.392l10.158,0.868c0.703,0.062,0.992,0.947,0.453,1.407l-7.703,6.677l2.307,9.931
	c0.166,0.688-0.586,1.235-1.188,0.867l-8.733-5.27l-8.733,5.27c-0.603,0.36-1.354-0.18-1.189-0.867l2.307-9.931l-7.71-6.677
	c-0.53-0.468-0.243-1.345,0.462-1.407l10.157-0.868l3.972-9.392C82.729,102.115,83.651,102.115,83.925,102.77L83.925,102.77z
	 M83.925,102.77"/>
<path fill="#F2F2F2" d="M273.925,102.77l3.971,9.392l10.158,0.868c0.703,0.062,0.992,0.947,0.453,1.407l-7.703,6.677l2.307,9.931
	c0.166,0.688-0.586,1.235-1.188,0.867l-8.732-5.27l-8.734,5.27c-0.602,0.36-1.354-0.18-1.189-0.867l2.307-9.931l-7.709-6.677
	c-0.531-0.468-0.244-1.345,0.461-1.407l10.158-0.868l3.971-9.392C272.729,102.115,273.651,102.115,273.925,102.77L273.925,102.77z
	 M273.925,102.77"/>
<path fill="#F2F2F2" d="M144.926,108.27l3.971,9.392l10.158,0.868c0.703,0.062,0.992,0.947,0.453,1.407l-7.703,6.677l2.307,9.931
	c0.166,0.688-0.586,1.235-1.188,0.867l-8.733-5.27l-8.733,5.27c-0.603,0.36-1.354-0.18-1.189-0.867l2.307-9.931l-7.71-6.677
	c-0.53-0.468-0.243-1.345,0.462-1.407l10.157-0.868l3.972-9.392C143.729,107.615,144.651,107.615,144.926,108.27L144.926,108.27z
	 M144.926,108.27"/>
<path fill="#F2F2F2" d="M213.926,108.27l3.971,9.392l10.158,0.868c0.703,0.062,0.992,0.947,0.453,1.407l-7.703,6.677l2.307,9.931
	c0.166,0.688-0.586,1.235-1.188,0.867l-8.733-5.27l-8.733,5.27c-0.603,0.36-1.354-0.18-1.189-0.867l2.307-9.931l-7.71-6.677
	c-0.53-0.468-0.243-1.345,0.462-1.407l10.157-0.868l3.972-9.392C212.729,107.615,213.651,107.615,213.926,108.27L213.926,108.27z
	 M213.926,108.27"/>
<path fill="#F2F2F2" d="M179.092,81.02l3.971,9.392l10.158,0.868c0.703,0.062,0.992,0.947,0.453,1.407l-7.703,6.677l2.307,9.931
	c0.166,0.688-0.586,1.235-1.188,0.867l-8.733-5.27l-8.733,5.27c-0.603,0.36-1.354-0.18-1.189-0.867l2.307-9.931l-7.71-6.677
	c-0.53-0.468-0.243-1.345,0.462-1.407l10.157-0.868l3.972-9.392C177.896,80.365,178.817,80.365,179.092,81.02L179.092,81.02z
	 M179.092,81.02"/>
<path fill="#F2F2F2" d="M179.092,27.52l3.971,9.392l10.158,0.868c0.703,0.062,0.992,0.947,0.453,1.407l-7.703,6.677l2.307,9.931
	c0.166,0.688-0.586,1.235-1.188,0.867l-8.733-5.27l-8.733,5.27c-0.603,0.36-1.354-0.18-1.189-0.867l2.307-9.931l-7.71-6.677
	c-0.53-0.468-0.243-1.345,0.462-1.407l10.157-0.868l3.972-9.392C177.896,26.865,178.817,26.865,179.092,27.52L179.092,27.52z
	 M179.092,27.52"/>
<path fill="#F2F2F2" d="M148.092,54.52l3.971,9.392l10.158,0.868c0.703,0.062,0.992,0.947,0.453,1.407l-7.703,6.677l2.307,9.931
	c0.166,0.688-0.586,1.235-1.188,0.867l-8.733-5.27l-8.733,5.27c-0.603,0.36-1.354-0.18-1.189-0.867l2.307-9.931l-7.71-6.677
	c-0.53-0.468-0.243-1.345,0.462-1.407l10.157-0.868l3.972-9.392C146.896,53.865,147.817,53.865,148.092,54.52L148.092,54.52z
	 M148.092,54.52"/>
<path fill="#F2F2F2" d="M208.592,54.52l3.971,9.392l10.158,0.868c0.703,0.062,0.992,0.947,0.453,1.407l-7.703,6.677l2.307,9.931
	c0.166,0.688-0.586,1.235-1.188,0.867l-8.733-5.27l-8.733,5.27c-0.603,0.36-1.354-0.18-1.189-0.867l2.307-9.931l-7.71-6.677
	c-0.53-0.468-0.243-1.345,0.462-1.407l10.157-0.868l3.972-9.392C207.396,53.865,208.317,53.865,208.592,54.52L208.592,54.52z
	 M208.592,54.52"/>
</svg>
