<?xml version="1.0" encoding="utf-8"?>
<!-- Generator: Adobe Illustrator 15.0.0, SVG Export Plug-In . SVG Version: 6.00 Build 0)  -->
<!DOCTYPE svg PUBLIC "-//W3C//DTD SVG 1.1//EN" "http://www.w3.org/Graphics/SVG/1.1/DTD/svg11.dtd">
<svg version="1.1" id="Layer_1" xmlns="http://www.w3.org/2000/svg" xmlns:xlink="http://www.w3.org/1999/xlink" x="0px" y="0px"
	 width="32px" height="32px" viewBox="0 0 32 32" enable-background="new 0 0 32 32" xml:space="preserve">
<g>
	<g>
		<defs>
			<rect id="SVGID_1_" x="0.011" width="31.901" height="32"/>
		</defs>
		<clipPath id="SVGID_2_">
			<use xlink:href="#SVGID_1_"  overflow="visible"/>
		</clipPath>
		<path clip-path="url(#SVGID_2_)" d="M30.938,15.606c-0.769-0.399-0.851-1.173-0.183-1.721c0.673-0.554,0.533-1.193-0.303-1.418
			c-0.837-0.227-1.077-0.972-0.533-1.649c0.543-0.678,0.278-1.27-0.592-1.322c-0.865-0.048-1.255-0.721-0.865-1.5
			c0.389-0.774,0.01-1.303-0.852-1.169c-0.86,0.125-1.379-0.452-1.158-1.289c0.221-0.841-0.265-1.278-1.077-0.971
			s-1.442-0.149-1.403-1.02c0.043-0.865-0.52-1.192-1.25-0.721c-0.731,0.467-1.442,0.149-1.587-0.707
			c-0.14-0.856-0.754-1.058-1.375-0.447c-0.615,0.61-1.379,0.452-1.691-0.36c-0.317-0.808-0.963-0.875-1.438-0.149
			c-0.482,0.726-1.261,0.726-1.736,0c-0.476-0.726-1.125-0.658-1.442,0.149c-0.312,0.812-1.078,0.971-1.693,0.36
			s-1.236-0.409-1.375,0.447c-0.141,0.855-0.852,1.173-1.582,0.707C8.073,2.356,7.506,2.683,7.549,3.548
			c0.038,0.871-0.591,1.327-1.405,1.02C5.333,4.26,4.853,4.697,5.068,5.538C5.294,6.375,4.77,6.957,3.915,6.827
			c-0.86-0.134-1.246,0.395-0.851,1.169c0.39,0.779,0,1.452-0.866,1.5c-0.87,0.052-1.134,0.644-0.591,1.322
			c0.543,0.678,0.304,1.418-0.534,1.649c-0.841,0.226-0.976,0.865-0.303,1.413c0.673,0.553,0.592,1.327-0.176,1.726
			c-0.775,0.399-0.775,1.048,0,1.447c0.769,0.398,0.85,1.173,0.176,1.722c-0.673,0.552-0.538,1.192,0.303,1.417
			c0.837,0.232,1.077,0.972,0.534,1.65c-0.543,0.678-0.278,1.27,0.591,1.321c0.866,0.049,1.256,0.721,0.866,1.5
			c-0.395,0.774-0.009,1.304,0.851,1.169c0.855-0.131,1.379,0.447,1.158,1.289c-0.22,0.84,0.265,1.277,1.077,0.971
			c0.812-0.308,1.443,0.148,1.4,1.02c-0.039,0.864,0.524,1.191,1.255,0.721c0.729-0.467,1.44-0.154,1.587,0.706
			c0.139,0.856,0.754,1.059,1.375,0.448c0.615-0.611,1.379-0.448,1.692,0.36c0.317,0.807,0.966,0.875,1.438,0.153
			c0.48-0.73,1.259-0.73,1.736,0c0.475,0.722,1.125,0.653,1.438-0.153c0.316-0.809,1.076-0.972,1.696-0.36
			c0.616,0.61,1.236,0.408,1.375-0.448c0.14-0.86,0.851-1.173,1.582-0.706c0.73,0.471,1.298,0.144,1.254-0.721
			c-0.043-0.871,0.593-1.327,1.405-1.02c0.812,0.307,1.297-0.131,1.071-0.967c-0.217-0.846,0.304-1.424,1.163-1.289
			c0.86,0.131,1.241-0.395,0.852-1.173c-0.395-0.779-0.005-1.451,0.865-1.5c0.865-0.052,1.13-0.644,0.587-1.321
			c-0.544-0.679-0.304-1.418,0.538-1.65c0.837-0.225,0.971-0.865,0.298-1.412c-0.668-0.554-0.586-1.328,0.183-1.727
			C31.713,16.654,31.713,16.005,30.938,15.606L30.938,15.606z M15.818,3.404c7.024,0,12.745,5.682,12.745,12.663
			c0,6.981-5.721,12.663-12.745,12.663c-6.774,0-12.317-5.289-12.706-11.928c1.438,0.014,3.951,0.039,4.475,0.039
			c0.385,0,0.756-0.029,1.107-0.054c0.028,0,0.076,0.015,0.124,0.033c0.073,0.021,0.159,0.049,0.26,0.054
			c0.354,0.076,0.629,0.149,0.889,0.355c0.529,0.466,0.991,1.054,1.443,1.62l0.317,0.403c0.585,0.708,1.307,1.65,1.663,2.659
			c0.191,0.505,0.269,1.038,0.239,1.688c-0.005,0.121-0.008,0.241-0.019,0.356c-0.024,0.471-0.048,0.914,0.101,1.369
			c0.221,0.678,0.755,1.068,1.471,1.068c0.477,0,0.986-0.178,1.371-0.485c0.962-0.669,1.578-1.942,1.654-3.4
			c0.038-0.817-0.206-1.522-0.451-2.2c-0.208-0.592-0.409-1.149-0.405-1.756c0-0.919,0.794-1.169,1.914-1.433
			c0.12-0.023,0.245-0.054,0.336-0.082c0.13-0.018,0.26-0.043,0.39-0.066c0.842-0.139,1.794-0.298,2.485-0.953
			c0.52-0.519,0.77-1.37,0.631-2.177c-0.101-0.578-0.385-1.054-0.799-1.337c0.261-0.986-0.221-2.134-1.158-2.75
			c0.086-0.442,0.005-0.947-0.245-1.418c-0.278-0.529-0.716-0.938-1.211-1.135c0-0.904-0.616-1.692-1.588-1.966
			c-0.269-0.052-0.562-0.077-0.894-0.077c-0.49,0-0.981,0.054-1.457,0.106c-0.158,0.019-0.317,0.039-0.5,0.058
			c-0.283,0.058-0.572,0.096-0.869,0.134c-0.606,0.077-1.231,0.159-1.799,0.399c-0.461,0.207-0.864,0.5-1.254,0.788
			c-0.129,0.091-0.254,0.183-0.384,0.274c-0.125,0.091-0.254,0.207-0.385,0.332c-0.226,0.212-0.457,0.433-0.682,0.476
			c-0.203,0.039-0.39,0.058-0.578,0.077C9.097,7.827,8.896,7.846,8.703,7.889H8.602c-0.207,0-0.432-0.009-0.672-0.029
			C7.66,7.846,7.381,7.827,7.108,7.827c-0.285,0-0.611-0.019-0.904-0.043C8.541,5.106,11.978,3.404,15.818,3.404L15.818,3.404z
			 M14.929,24.059c0.038-0.732,0.052-1.347-0.116-2.059c-0.23-0.966-0.777-1.75-1.312-2.51c-0.115-0.164-0.231-0.327-0.345-0.5
			c-0.501-0.72-1.135-1.5-1.823-2.25c-0.135-0.158-0.273-0.331-0.452-0.452c-0.044-0.082-0.106-0.129-0.169-0.149
			c-0.427-0.332-0.888-0.519-1.47-0.615c-0.418-0.082-0.785-0.149-0.967-0.457c-0.365-0.654-0.38-1.543-0.385-2.26l-0.005-0.172
			c-0.009-0.76-0.003-1.635,0.207-2.4c0.211-0.764,0.62-1.077,1.49-1.159c0.27,0,0.603,0,0.915-0.192
			c0.332-0.091,0.596-0.341,0.836-0.567c0.091-0.086,0.184-0.173,0.269-0.241c0.116-0.081,0.23-0.172,0.352-0.263
			c0.36-0.27,0.735-0.554,1.066-0.717c0.202-0.052,0.434-0.101,0.663-0.154l0.448-0.101c0.932-0.169,1.898-0.255,2.808-0.337
			c0.302,0,0.619,0,0.938,0.082c0.177,0.023,0.312,0.105,0.394,0.24c0.115,0.192,0.125,0.476,0.033,0.721
			c-0.077,0.169-0.064,0.356,0.039,0.51c0.148,0.23,0.451,0.331,0.683,0.331h0.033l0.029-0.004c0.023-0.01,0.053-0.01,0.075-0.01
			c0.193,0,0.386,0.159,0.521,0.418c0.173,0.332,0.198,0.736,0.073,0.913c-0.146,0.168-0.164,0.418-0.062,0.64
			c0.091,0.202,0.259,0.331,0.446,0.355c0.442,0.149,0.73,0.423,0.851,0.817c0.092,0.327,0.067,0.702-0.086,0.885
			c-0.145,0.24-0.174,0.519-0.086,0.74c0.071,0.188,0.22,0.323,0.451,0.385c0.419,0.077,0.544,0.418,0.577,0.692
			c0.066,0.51-0.322,0.894-0.688,1.081c-0.562,0.312-1.25,0.423-1.914,0.535c-0.355,0.057-0.726,0.115-1.077,0.207
			c-1.192,0.307-2.048,1.241-2.13,2.322c-0.056,0.794,0.192,1.519,0.434,2.222c0.206,0.597,0.399,1.159,0.418,1.75
			c0.015,0.572-0.149,1.206-0.471,1.808c-0.303,0.471-0.813,0.984-1.221,0.984c-0.019,0-0.042-0.004-0.057-0.004
			c-0.256-0.033-0.246-0.514-0.217-0.957L14.929,24.059L14.929,24.059z M14.929,24.059"/>
	</g>
</g>
</svg>
