<svg xmlns="http://www.w3.org/2000/svg" width="52" height="52" viewBox="0 0 26 26">
    <path d="M 2 0 L 2 1 C 2 1.551 2.449 2 3 2 L 4 2 L 4 3 C 4 3.551 4.449 4 5 4 L 5.3125 4 C 5.4219282 8.9713438 7.4796787 10.700538 8.84375 11.84375 C 9.67375 12.54075 9.71875 12.662 9.71875 13 C 9.71875 13.364 9.6195 13.5015 8.8125 14.1875 C 7.4542664 15.342388 5.4214117 17.08401 5.3125 22 L 5 22 C 4.449 22 4 22.449 4 23 L 4 24 L 3 24 C 2.449 24 2 24.449 2 25 L 2 26 L 24 26 L 24 25 C 24 24.449 23.551 24 23 24 L 22 24 L 22 23 C 22 22.449 21.551 22 21 22 L 20.6875 22 C 20.576729 17.050245 18.503666 15.335577 17.125 14.1875 C 16.275 13.4805 16.21875 13.337 16.21875 13 C 16.21875 12.672 16.291 12.56 17.125 11.875 C 18.511716 10.736607 20.579734 9.0154031 20.6875 4 L 21 4 C 21.551 4 22 3.551 22 3 L 22 2 L 23 2 C 23.551 2 24 1.551 24 1 L 24 0 L 2 0 z M 6.9375 4 L 19.0625 4 C 18.895824 11.000823 14.59375 10.069771 14.59375 13 C 14.59375 15.928822 18.89189 15.076963 19.0625 22 L 16.96875 22 C 16.96975 18.031 13.34375 17.00425 13.34375 14.65625 C 13.34375 11.04725 16 10.587 16 9 L 10.0625 9 C 10.0625 10.353 12.65625 10.92525 12.65625 14.65625 C 12.65625 17.04225 9.03125 18 9.03125 22 L 6.9375 22 C 7.1057886 15.111265 11.34375 15.927842 11.34375 13 C 11.34375 10.072158 7.1057505 10.95557 6.9375 4 z"/>
</svg>