<?xml version="1.0" encoding="iso-8859-1"?>
<!-- Generator: Adobe Illustrator 18.0.0, SVG Export Plug-In . SVG Version: 6.00 Build 0)  -->
<!DOCTYPE svg PUBLIC "-//W3C//DTD SVG 1.1//EN" "http://www.w3.org/Graphics/SVG/1.1/DTD/svg11.dtd">
<svg version="1.1" id="Capa_1" xmlns="http://www.w3.org/2000/svg" xmlns:xlink="http://www.w3.org/1999/xlink" x="0px" y="0px"
	 viewBox="0 0 282.619 282.619" style="enable-background:new 0 0 282.619 282.619;" xml:space="preserve">
<g>
	<g>
		<path d="M76.946,170.77C76.657,170.77,77.239,170.789,76.946,170.77L76.946,170.77z"/>
		<path d="M203.449,140.37l-16.076-85.833c-1.152-6.154-6.629-10.39-12.704-10.178h-12.851c-6.126,11.305-18.097,19-31.833,19
			c-13.736,0-25.707-7.695-31.832-19H84.739c-6.671-0.192-12.375,4.897-12.839,11.619l-7,101.446
			c-0.475,6.887,5.147,13.108,12.047,13.346c6.508,0.224,12.439-5.031,12.895-11.626l4.747-68.795l0.25,176.846
			c0,8.077,6.207,15.027,14.275,15.406c8.614,0.406,15.725-6.458,15.725-14.983v-94.5c0-2.761,2.239-5,5-5c2.762,0,5,2.239,5,5
			v94.076c0,8.077,6.207,15.027,14.275,15.406c8.614,0.406,15.725-6.458,15.725-14.983l0.25-187.308l13.794,64.685
			c-4.413,4.197-7.173,10.117-7.173,16.673v112.073c0,4.04,3.113,7.564,7.152,7.685c4.179,0.126,7.606-3.225,7.606-7.375V168.179
			c2.14,1.647,4.797,2.607,7.607,2.607c0.763,0,1.537-0.07,2.314-0.216c2.61-0.489,4.872-1.76,6.602-3.52v4.192
			c0,4.04,3.113,7.564,7.152,7.685c4.179,0.126,7.606-3.225,7.606-7.375v-9.883C217.748,152.061,211.83,143.814,203.449,140.37z"/>
	</g>
	<circle cx="129.986" cy="27.179" r="27.179"/>
</g>
<g>
</g>
<g>
</g>
<g>
</g>
<g>
</g>
<g>
</g>
<g>
</g>
<g>
</g>
<g>
</g>
<g>
</g>
<g>
</g>
<g>
</g>
<g>
</g>
<g>
</g>
<g>
</g>
<g>
</g>
</svg>
