<svg xmlns="http://www.w3.org/2000/svg" width="50" height="50" viewBox="0 0 50 50">
    <path d="M 45 2 C 43.895431 2 43 2.8954305 43 4 C 43 4.2910928 43.075684 4.5630179 43.1875 4.8125 L 35.1875 16 C 35.125655 15.994239 35.06335 16 35 16 C 34.600737 16 34.21845 16.110924 33.90625 16.3125 L 27 12.875 C 26.935109 11.829011 26.062335 11 25 11 C 23.895431 11 23 11.895431 23 13 C 23 13.106396 23.015247 13.210598 23.03125 13.3125 L 15.71875 19.125 C 15.496685 19.039949 15.25198 19 15 19 C 14.001827 19 13.181382 19.73149 13.03125 20.6875 L 6.21875 23.4375 C 5.8798659 23.173618 5.4627765 23 5 23 C 3.8954305 23 3 23.895431 3 25 C 3 26.104569 3.8954305 27 5 27 C 6.0087319 27 6.8315665 26.25212 6.96875 25.28125 L 13.78125 22.5625 C 14.120134 22.826382 14.537224 23 15 23 C 16.104569 23 17 22.104569 17 21 C 17 20.893604 16.984753 20.789402 16.96875 20.6875 L 24.28125 14.875 C 24.503315 14.960051 24.74802 15 25 15 C 25.399263 15 25.78155 14.889076 26.09375 14.6875 L 33 18.125 C 33.064891 19.170989 33.937665 20 35 20 C 36.104569 20 37 19.104569 37 18 C 37 17.708907 36.924316 17.436982 36.8125 17.1875 L 44.8125 6 C 44.874345 6.0057613 44.93665 6 45 6 C 46.104569 6 47 5.1045695 47 4 C 47 2.8954305 46.104569 2 45 2 z M 41 15 L 41 50 L 49 50 L 49 15 L 41 15 z M 21 24 L 21 50 L 29 50 L 29 24 L 21 24 z M 31 29 L 31 50 L 39 50 L 39 29 L 31 29 z M 11 32 L 11 50 L 19 50 L 19 32 L 11 32 z M 1 36 L 1 50 L 9 50 L 9 36 L 1 36 z"/>
</svg>