<?xml version="1.0" encoding="iso-8859-1"?>
<!-- Generator: Adobe Illustrator 18.0.0, SVG Export Plug-In . SVG Version: 6.00 Build 0)  -->
<!DOCTYPE svg PUBLIC "-//W3C//DTD SVG 1.1//EN" "http://www.w3.org/Graphics/SVG/1.1/DTD/svg11.dtd">
<svg xmlns="http://www.w3.org/2000/svg" xmlns:xlink="http://www.w3.org/1999/xlink" version="1.1" id="Capa_1" x="0px" y="0px" viewBox="0 0 335.928 335.928" style="enable-background:new 0 0 335.928 335.928;" xml:space="preserve" width="32px" height="32px">
<g>
	<g>
		<g>
			<path d="M219.926,179.986H116.004c-4.143,0-7.5-3.357-7.5-7.5V96.766c0-4.143,3.357-7.5,7.5-7.5h103.922     c4.143,0,7.5,3.357,7.5,7.5v75.721C227.426,176.629,224.068,179.986,219.926,179.986z M123.504,164.986h88.922v-60.721h-88.922     V164.986z" fill="#000000"/>
		</g>
		<path d="M317.932,0H17.996c-4.143,0-7.5,3.357-7.5,7.5v215.129c0,4.143,3.357,7.5,7.5,7.5h89.703    c5.943,20.729,11.549,52.432,11.549,98.299c0,4.143,3.357,7.5,7.5,7.5c4.143,0,7.5-3.357,7.5-7.5c0-2.957-0.023-5.854-0.068-8.701    h11.434l0.309,8.959c0.139,4.052,3.467,7.242,7.49,7.242c0.086,0,0.174-0.001,0.262-0.005c4.141-0.142,7.381-3.613,7.238-7.753    l-0.291-8.443h15.559l-0.232,8.495c-0.115,4.141,3.15,7.59,7.291,7.703c0.07,0.002,0.139,0.003,0.209,0.003    c4.047,0,7.383-3.224,7.494-7.294l0.244-8.907h10.564c-0.045,2.848-0.07,5.744-0.07,8.701c0,4.143,3.357,7.5,7.5,7.5    c4.143,0,7.5-3.357,7.5-7.5c0-45.684,5.682-77.473,11.666-98.299h89.586c4.143,0,7.5-3.357,7.5-7.5V7.5    C325.432,3.357,322.074,0,317.932,0z M209.221,244.994H193.24l0.408-14.865h19.068    C211.506,234.662,210.328,239.615,209.221,244.994z M204.523,274.861h-12.105l0.408-14.867h13.693    C205.789,264.684,205.117,269.637,204.523,274.861z M129.41,259.994h14.15l0.512,14.867h-12.668    C130.811,269.637,130.141,264.684,129.41,259.994z M158.568,259.994h19.254l-0.408,14.867H159.08L158.568,259.994z     M179.055,215.129h-22.027l-0.51-14.865h22.945L179.055,215.129z M157.543,230.129h21.1l-0.408,14.865h-20.18L157.543,230.129z     M126.709,244.994c-1.107-5.379-2.285-10.332-3.496-14.865h19.322l0.512,14.865H126.709z M118.631,215.129    c-2.105-6.041-4.17-10.963-6.012-14.865h28.891l0.512,14.865H118.631z M133.732,304.727c-0.232-5.154-0.537-10.104-0.902-14.865    h11.758l0.51,14.865H133.732z M160.105,304.727l-0.51-14.865h17.406l-0.41,14.865H160.105z M191.598,304.727l0.408-14.865H203.1    c-0.367,4.761-0.672,9.711-0.902,14.865H191.598z M217.299,215.129h-23.238l0.408-14.865h28.842    C221.469,204.166,219.404,209.088,217.299,215.129z M310.432,215.129h-77.098c4.727-12.279,8.637-17.665,8.725-17.781    c1.748-2.264,2.057-5.324,0.795-7.891c-1.26-2.567-3.871-4.193-6.73-4.193H99.807c-2.859,0-5.471,1.626-6.73,4.193    c-1.262,2.566-0.953,5.627,0.795,7.891c0.1,0.129,4.066,5.445,8.834,17.781H25.496V15h284.936V215.129z" fill="#000000"/>
	</g>
</g>
<g>
</g>
<g>
</g>
<g>
</g>
<g>
</g>
<g>
</g>
<g>
</g>
<g>
</g>
<g>
</g>
<g>
</g>
<g>
</g>
<g>
</g>
<g>
</g>
<g>
</g>
<g>
</g>
<g>
</g>
</svg>
