<?xml version="1.0" encoding="utf-8"?>
<!-- Generator: Adobe Illustrator 15.0.0, SVG Export Plug-In  -->
<!DOCTYPE svg PUBLIC "-//W3C//DTD SVG 1.1//EN" "http://www.w3.org/Graphics/SVG/1.1/DTD/svg11.dtd" [
	<!ENTITY ns_flows "http://ns.adobe.com/Flows/1.0/">
]>
<svg version="1.1"
	 xmlns="http://www.w3.org/2000/svg" xmlns:xlink="http://www.w3.org/1999/xlink" xmlns:a="http://ns.adobe.com/AdobeSVGViewerExtensions/3.0/"
	 x="0px" y="0px" width="500px" height="500px" viewBox="-46.879 -9.615 500 500"
	 overflow="visible" enable-background="new -46.879 -9.615 500 500" xml:space="preserve">
<defs>
</defs>
<path fill="#EA242C" d="M215.018,5.508c-7.419-7.412-13.343-7.277-22.249,0c0,0-44.484,33.365-77.852,51.903
	C85.263,68.529,37.066,68.529,22.241,68.529h-3.713c-3.705,0-11.118,0-14.822,3.706C0,75.948,0,83.36,0,87.065v207.606
	c0,51.901,144.578,185.356,203.892,185.356c55.61,0,203.901-133.455,203.901-185.356V87.065c0-3.706-3.706-11.117-7.419-14.831
	c-3.706-3.706-7.411-3.706-14.823-3.706c0,0-48.197,3.706-92.682-14.825C244.672,31.457,215.018,5.508,215.018,5.508L215.018,5.508z
	 M370.721,294.671"/>
<path fill="#0877BB" d="M213.684,33.648c-6.529-6.52-11.742-6.401-19.579,0c0,0-39.146,29.363-68.51,45.677
	c-26.096,9.783-68.509,9.783-81.555,9.783h-3.268c-3.26,0-9.783,0-13.043,3.262c-3.262,3.265-3.262,9.789-3.262,13.051v182.693
	c0,45.673,127.229,163.112,179.425,163.112c48.937,0,179.434-117.439,179.434-163.112V105.42c0-3.262-3.262-9.786-6.53-13.051
	c-3.26-3.262-6.521-3.262-13.043-3.262c0,0-42.413,3.262-81.561-13.047C239.779,56.483,213.684,33.648,213.684,33.648
	L213.684,33.648z M350.702,288.114"/>
<path opacity="0.5" fill="#2395D2" d="M192.24,31.784c0,0-39.146,29.363-68.51,45.677c-26.094,9.783-68.507,9.783-81.554,9.783
	h-3.269c-3.258,0-9.781,0-13.043,3.262c-3.262,3.265-3.262,9.789-3.262,13.05V286.25c0,45.673,358.86,45.673,358.86,0V103.556
	c0-3.262-3.262-9.785-6.531-13.05c-3.26-3.262-6.521-3.262-13.043-3.262c0,0-42.413,3.262-81.561-13.047
	c-42.413-19.578-68.509-42.413-68.509-42.413S200.078,25.383,192.24,31.784z M348.839,286.25"/>
</svg>
