<?xml version="1.0" encoding="utf-8"?>
<!-- Generator: Adobe Illustrator 15.0.0, SVG Export Plug-In  -->
<!DOCTYPE svg PUBLIC "-//W3C//DTD SVG 1.1//EN" "http://www.w3.org/Graphics/SVG/1.1/DTD/svg11.dtd" [
	<!ENTITY ns_flows "http://ns.adobe.com/Flows/1.0/">
]>
<svg version="1.1"
	 xmlns="http://www.w3.org/2000/svg" xmlns:xlink="http://www.w3.org/1999/xlink" xmlns:a="http://ns.adobe.com/AdobeSVGViewerExtensions/3.0/"
	 x="0px" y="0px" width="500px" height="500px" viewBox="-14 -11 500 500"
	 overflow="visible" enable-background="new -14 -11 500 500" xml:space="preserve">
<defs>
</defs>
<polygon fill="#A3213B" points="67.615,116.399 0.044,141.919 67.615,141.919 "/>
<polygon fill="#A3213B" points="401.404,116.399 468.976,141.919 401.404,141.919 "/>
<path fill="#E85D63" d="M244.021,14.912c-6.926-6.919-12.455-6.793-20.771,0c0,0-41.529,31.148-72.679,48.455
	c-27.684,10.379-72.679,10.379-86.518,10.379h-3.466c-3.459,0-10.379,0-13.838,3.459c-3.46,3.466-3.46,10.386-3.46,13.845v193.813
	c0,48.453,134.973,173.041,190.347,173.041c51.915,0,190.354-124.588,190.354-173.041V91.051c0-3.459-3.46-10.379-6.926-13.845
	c-3.46-3.459-6.92-3.459-13.839-3.459c0,0-44.995,3.459-86.524-13.84C271.705,39.136,244.021,14.912,244.021,14.912L244.021,14.912z
	 M389.379,284.864"/>
<path fill="#0877BB" d="M244.021,14.912c-6.926-6.919-12.455-6.793-20.771,0c0,0-41.529,31.148-72.679,48.455
	c-27.684,10.379-72.679,10.379-86.518,10.379h-3.466c-3.459,0-10.379,0-13.838,3.459c-3.46,3.466-3.46,10.386-3.46,13.845v193.813
	c0,48.453,134.973,173.041,190.347,173.041c51.915,0,190.354-124.588,190.354-173.041V91.051c0-3.459-3.46-10.379-6.926-13.845
	c-3.46-3.459-6.92-3.459-13.839-3.459c0,0-44.995,3.459-86.524-13.84C271.705,39.136,244.021,14.912,244.021,14.912L244.021,14.912z
	 M389.379,284.864"/>
<rect y="141.81" fill="#C8202F" width="469.8" height="88.74"/>
<rect x="27.84" y="186.18" fill="#EA242C" width="411.51" height="88.74"/>
<polygon fill="#D62534" points="67.498,171.462 27.767,186.251 67.498,186.251 "/>
<polygon fill="#D62534" points="401.521,171.462 441.253,186.251 401.521,186.251 "/>
<path fill="#EAEAE9" stroke="#333333" stroke-width="5" stroke-miterlimit="10" d="M242.775,41.182
	c-6.095-6.086-10.961-5.976-18.277,0c0,0-36.546,27.412-63.959,42.642c-24.36,9.133-63.955,9.133-76.135,9.133h-3.052
	c-3.042,0-9.131,0-12.176,3.045c-3.045,3.048-3.045,9.138-3.045,12.184v170.555c0,42.639,118.777,152.275,167.505,152.275
	c45.685,0,167.513-109.637,167.513-152.275V108.186c0-3.045-3.045-9.135-6.097-12.184c-3.044-3.045-6.089-3.045-12.177-3.045
	c0,0-39.596,3.045-76.143-12.18C267.138,62.5,242.775,41.182,242.775,41.182L242.775,41.182z M370.691,278.741"/>
<polyline fill="none" points="474,231.28 478.5,0 92.94,102.52 "/>
</svg>
