<svg xmlns="http://www.w3.org/2000/svg" version="1" width="48" height="48" viewBox="0 0 24 24">
    <path d="M20.9,9.9c-3.1,3.1-5.5,4-7.8,6.4c-1.7,1.7-1,2.4-3.3,4.8C7.5,23.3,6.4,23,6.4,23s-1.8-0.9-2.2-2.6c0,0,1,0.3,3.1-1.8 c0.8-0.8,2.2-1,3-1.6c1-0.8,1.8-1.6,1.9-1.8c0.4-0.4,2.7-1.7,4.9-3.3c0.6-0.4,0.2-1.5,0.9-2.2c0.7-0.7,2.3-0.4,2.8-0.9 c4.5-4.5,2-7.5,2-7.5S26.5,4.4,20.9,9.9z M6.6,17.8c0.7-0.6,2-0.9,2.8-1.5c0.7-0.6,1.2-0.9,2-1.8c1.1-1.1,2.9-2.1,4.8-3.4 c0.5-0.4,0.5-2,1.1-2.4c0.6-0.5,2.6-0.6,3.1-1.2C24,3.9,22,0.9,22,0.9s-1.8-1-4.4,1.6c-0.2,0.2-0.4,0.4-0.7,0.5l0.3,1.1 c0.1,0.2-0.1,0.5-0.3,0.6c-0.2,0.1-0.5-0.1-0.5-0.3l-0.2-0.9c-0.2,0.1-0.5,0.2-0.7,0.3l0.3,1c0.1,0.2-0.1,0.5-0.3,0.6 c-0.2,0.1-0.5-0.1-0.5-0.3l-0.2-1c-0.2,0.1-0.5,0.2-0.7,0.2l0.3,1C14.2,5.7,14,5.9,13.8,6c-0.2,0.1-0.5-0.1-0.5-0.3l-0.3-1 c-0.3,0.1-0.5,0.1-0.8,0.2l0.3,1c0.1,0.2-0.1,0.5-0.3,0.6c-0.2,0.1-0.5-0.1-0.5-0.3L11.4,5c-0.3,0-0.5,0.1-0.8,0.1l0.2,1 c0.1,0.2-0.1,0.5-0.3,0.6c-0.2,0.1-0.5-0.1-0.5-0.3L9.7,5.3c-0.3,0-0.5,0.1-0.8,0.1l0.2,1c0.1,0.2-0.1,0.5-0.3,0.6 C8.6,7,8.4,6.8,8.3,6.6L8.1,5.5C6.8,5.6,5.8,5.7,5.6,5.7C3.6,5.7,4,8.3,6,8.3c0,1-0.1,2.3-0.9,3.1c-2.9,2.9-4.5,0.5-4.9,1.8 c-0.4,1.4-0.1,1.9,1.1,3.2c0.7,0.8,2.1,3,2.1,3S4.2,20.1,6.6,17.8z"/>
</svg>