<?xml version="1.0" encoding="utf-8"?>
<!-- Generator: Adobe Illustrator 15.0.0, SVG Export Plug-In  -->
<!DOCTYPE svg PUBLIC "-//W3C//DTD SVG 1.1//EN" "http://www.w3.org/Graphics/SVG/1.1/DTD/svg11.dtd" [
	<!ENTITY ns_flows "http://ns.adobe.com/Flows/1.0/">
]>
<svg version="1.1"
	 xmlns="http://www.w3.org/2000/svg" xmlns:xlink="http://www.w3.org/1999/xlink" xmlns:a="http://ns.adobe.com/AdobeSVGViewerExtensions/3.0/"
	 x="0px" y="0px" width="200px" height="200px" viewBox="-12 -6 200 200"
	 overflow="visible" enable-background="new -12 -6 200 200" xml:space="preserve">
<defs>
</defs>
<path fill="#AAAAAA" d="M157.311,5.693c0,16.64,0,33.281,0,49.921c3.547,0,7.094,0,10.644,0c0,3.161,0,6.321,0,9.481
	c2.201,0.442,5.217,0.071,7.737,0.193c-0.607,33.271-10.741,58.445-25.732,77.59c-15.08,19.258-35.777,33.285-62.11,41.215
	c-26.163-8.029-47.202-21.785-62.306-41.021C10.544,123.974,0.648,98.542,0,65.29c2.386,0,4.772,0,7.159,0
	c0.451-2.838,0.065-6.514,0.193-9.675c3.418,0,6.837,0,10.255,0C18.058,39.361,17.671,22.27,17.8,5.693
	c23.094-1.67,45.898-3.936,68.69-5.611c5.17-0.38,12.484,0.649,18.382,1.161C122.13,2.742,139.73,4.444,157.311,5.693z
	 M101.391,7.242C96.273,6.76,91.07,5.566,86.493,5.888c-20.728,1.452-40.875,5.195-62.498,5.805c0,14.641,0,29.282,0,43.923
	c2.386,0,4.772,0,7.159,0c0-12.319,0-24.638,0-36.957c14.113-1.366,28.317-2.936,42.375-4.257c4.799-0.451,9.615-1.389,14.318-1.354
	c4.592,0.034,9.323,0.921,13.932,1.354c14.181,1.333,27.934,2.81,41.795,4.257c0,12.319,0,24.638,0,36.957c2.451,0,4.902,0,7.354,0
	c0-14.641,0-29.282,0-43.923C133.855,10.981,117.584,8.763,101.391,7.242z M24.187,78.447c-0.226,0.032-0.21,0.306-0.193,0.581
	c-1.798,24.787,4.382,42.147,15.286,54.953c10.49,12.318,26.475,22.06,48.375,22.06c21.992,0,37.717-10.046,48.18-22.252
	c11.045-12.886,16.63-30.579,15.093-55.339c-2.449,0-4.9,0-7.354,0c-0.031,4.096,0.045,9.114,0,12.577
	c-9.619-1.733-15.992-6.71-21.479-12.577c-2.387,0-4.771,0-7.16,0c6.133,9.734,15.467,16.268,28.639,18.962
	c-1.219,14.196-6.834,25.026-14.125,32.507c-7.219-14.52-18.945-24.523-38.506-26.702c-3.506-0.122-2.818-0.153-6.19,0.194
	c-20.072,1.984-31.61,12.507-38.699,27.476c-7.652-8.473-13.488-18.761-14.706-33.668c12.991-2.616,22.009-9.208,28.057-18.769
	c-2.451,0-4.902,0-7.353,0c-4.986,5.978-12.031,10.93-20.897,12.383c0-4.128,0-8.255,0-12.383
	C28.83,78.447,26.508,78.447,24.187,78.447z"/>
<path fill="#FFFFFF" d="M150.925,11.691c0,14.641,0,29.282,0,43.923c-2.45,0-4.901,0-7.354,0c0-12.319,0-24.638,0-36.957
	c-13.859-1.447-27.612-2.924-41.793-4.257c-4.607-0.433-9.342-1.32-13.931-1.354c-4.704-0.035-9.521,0.904-14.319,1.354
	c-14.058,1.321-28.262,2.891-42.375,4.257c0,12.319,0,24.638,0,36.957c-2.387,0-4.773,0-7.159,0c0-14.641,0-29.282,0-43.923
	c21.623-0.609,41.771-4.353,62.498-5.805c4.577-0.321,9.78,0.874,14.899,1.354C117.584,8.763,133.855,10.981,150.925,11.691z"/>
<path fill="#AAAAAA" d="M91.135,110.373c17.413,1.809,27.375,11.066,33.475,24.188c-1.424,2.275-4.016,3.854-6.385,5.418
	c-7.029,4.644-16.109,8.265-27.283,8.9c0-12.706,0-25.412,0-38.118C90.859,110.388,91.074,110.062,91.135,110.373z"/>
<path fill="#AAAAAA" d="M84.75,110.373c0,12.9,0,25.8,0,38.699c-14.744-1.059-25.354-6.252-33.861-13.545
	C56.842,121.81,66.967,112.263,84.75,110.373z"/>
<path fill="#555555" d="M83.793,21.774H82.35v-1.066h-1.014v8.532h0.687v1.134h-2.8V29.24h0.67v-8.532h-1.048v1.066h-1.443v-2.201
	h6.391V21.774z"/>
<path fill="#555555" d="M89.358,30.374h-3.401l-1.083-0.85v-9.1l1.083-0.851h3.401l1.082,0.851v9.1L89.358,30.374z M88.998,29.24
	v-8.532h-2.662v8.532H88.998z"/>
<path fill="#555555" d="M93.912,26.067v3.172h0.721v1.134h-2.817V29.24h0.67v-8.532h-0.67v-1.134h5.119l1.083,0.851v4.874h-0.017
	l-0.967,0.77H93.912z M96.574,20.708h-2.662v4.225h2.662V20.708z"/>
<path fill="#555555" d="M78.094,33.134v34.548h1.688v6.899H68.887v-6.899h1.943V41.797h-1.893v-4.721l4.553-3.942H78.094z
	 M78.094,33.134v34.548h1.688v6.899H68.887v-6.899h1.943V41.797h-1.893v-4.721l4.553-3.942H78.094z"/>
<path fill="#555555" d="M107.713,33.238v6.899H91.752v8.197l9.976,0.051l5.985,6.017v14.11l-5.985,6.069H90.832l-5.935-6.069v-4.306
	h6.752v1.556l1.842,1.919h5.576l1.841-1.919v-8.559l-1.841-1.919l-14.119-0.052V33.238H107.713z M107.713,33.238v6.899H91.752v8.197
	l9.976,0.051l5.985,6.017v14.11l-5.985,6.069H90.832l-5.935-6.069v-4.306h6.752v1.556l1.842,1.919h5.576l1.841-1.919v-8.559
	l-1.841-1.919l-14.119-0.052V33.238H107.713z"/>
</svg>
