<?xml version="1.0" encoding="utf-8"?>
<!-- Generator: Adobe Illustrator 15.0.0, SVG Export Plug-In  -->
<!DOCTYPE svg PUBLIC "-//W3C//DTD SVG 1.1//EN" "http://www.w3.org/Graphics/SVG/1.1/DTD/svg11.dtd" [
	<!ENTITY ns_flows "http://ns.adobe.com/Flows/1.0/">
]>
<svg version="1.1"
	 xmlns="http://www.w3.org/2000/svg" xmlns:xlink="http://www.w3.org/1999/xlink" xmlns:a="http://ns.adobe.com/AdobeSVGViewerExtensions/3.0/"
	 x="0px" y="0px" width="800px" height="800px" viewBox="-108.375 -73.349 800 800"
	 overflow="visible" enable-background="new -108.375 -73.349 800 800" xml:space="preserve">
<defs>
</defs>
<polygon display="none" opacity="0.14" fill="#414042" points="477.69,462.491 477.69,104.252 100.499,104.252 100.5,462.491 
	285.625,573.651 "/>
<line display="none" fill="none" x1="0" y1="462.49" x2="600.625" y2="124.151"/>
<path opacity="0.14" fill="#414042" d="M538.97,448.333l-11.125-212.249c0,0-0.099-50.651-0.099-52.964
	c-3.219-2.484-30.233-20.411-37.983-22.432c-4.202-1.096-96.378-61.697-199.626-64.771c-105.587-3.144-222.25,51.25-222.25,51.25
	l5.625,246.625l0.188,52.891l38.938,22.234l185,120.75L538.97,448.333z"/>
<path display="none" fill-rule="evenodd" clip-rule="evenodd" fill="#FFFFFF" d="M540.292,266.981
	c-1.799,2.838,16.96,5.654,15.334,8.5l-528.579,0.055c1.292-2.835,3.729-5.678,5.185-8.527L540.292,266.981z"/>
<path display="none" fill-rule="evenodd" clip-rule="evenodd" fill="#FFFFFF" d="M552.958,304.359l-527.641,0.047
	c-1.943-4.887-2.122-5.822-3.693-9.662c1.133-3.681,2.323-5.839,3.769-9.558l531.565-0.044
	C551.703,294.467,547.674,295.045,552.958,304.359z"/>
<path display="none" fill-rule="evenodd" clip-rule="evenodd" fill="#FFFFFF" d="M26.924,314.102l530.702-0.11
	c1.782,3.163,0.834,6.44,2.666,9.694l-527.944,0.048C30.525,320.497,28.719,317.288,26.924,314.102z"/>
<path fill="#1F2D5C" stroke="#FFDE17" stroke-width="4" stroke-miterlimit="10" d="M309.118,372.019V262.855h35.406v109.164
	c0,14.125,4.978,26.168,14.943,36.129c9.961,9.965,22.003,14.945,36.13,14.945h50.108l-26.331,35.404h-23.777
	c-23.797,0-44.16-8.463-61.086-25.393C317.583,416.179,309.118,395.814,309.118,372.019z"/>
<path fill="#D1D3D4" d="M354.368,372.019V262.855l35.406-36.678c0,0,0,168.501,0,184.167
	C374.477,410.344,354.368,395.814,354.368,372.019z"/>
<rect x="287.644" y="261.344" fill="#D1D3D4" width="10" height="106.667"/>
<path fill="#A7A9AC" d="M308.119,422.464c-4.027,0.416-8.139,0.629-12.336,0.629c-30.181,0-56.008-10.688-77.482-32.066
	c-21.475-21.375-32.211-47.35-32.211-77.917c0-30.18,10.736-55.958,32.211-77.337c21.204-21.107,48.065-31.774,77.757-32.041
	c90.086,0,84.923-0.017,87.712-0.017c0.002-0.509-30.375-34.411-30.375-34.914c-22.427,0-22.397-0.486-57.255-0.486
	c-0.181-0.001-0.176-0.013-0.356-0.013c-40.047,0-74.242,14.22-102.584,42.658c-28.344,28.439-42.513,62.587-42.513,102.438
	c0,40.046,14.169,74.244,42.513,102.583c28.342,28.342,62.537,42.514,102.584,42.514c13.751,0,29.3-2.062,41.68-5.412
	C331.193,448.501,313.513,433.173,308.119,422.464z"/>
<path fill="#1F2D5C" stroke="#6AABDD" stroke-width="4" stroke-miterlimit="10" d="M356.275,215.594
	c-55.138-0.011-62.127-0.245-62.228-0.244c-26.145,0.409-48.594,10.008-67.331,28.839c-19.152,19.25-28.729,42.32-28.729,69.211
	c0,27.084,9.577,50.205,28.729,69.357c19.152,19.15,42.174,28.727,69.066,28.727c2.132,0,4.237-0.061,6.321-0.182
	c-4.395-10.951-5.507-23.045-5.756-35.232c-0.19,0.002-0.376,0.012-0.565,0.012c-17.219,0-31.972-6.141-44.255-18.428
	c-12.285-12.282-18.427-27.132-18.427-44.543c0-17.216,6.142-31.969,18.427-44.254c11.48-11.479,25.117-17.595,40.909-18.346
	c0.062-0.004,26.727-0.007,41.782-0.009l10.193,0.018l34.63-34.756l0.207-0.168L356.275,215.594z"/>
<path fill="#BCBEC0" d="M298.829,501.086v2.141h-4.975v4.812h2.874v2.201h-2.874v4.953h4.995v2.202h-7.218v-16.29L298.829,501.086z"
	/>
<path fill="#BCBEC0" d="M299.888,502.452l1.346-1.365h4.833l1.161,1.201v1.673h-2.12v-0.714h-2.956v4.771h3.772l1.304,1.283v6.729
	l-1.366,1.366l-4.709-0.021l-1.265-1.284v-1.672h2.12v0.714h2.956v-4.994h-3.873l-1.203-1.123V502.452z"/>
<path fill="#BCBEC0" d="M315.914,503.329h-2.61v14.067h-2.181v-14.067h-2.529v-2.242h7.32V503.329z"/>
<path fill="#6D6E71" d="M284.506,518.603h5.95c1.001,0.074,1.501,0.557,1.501,1.444v6.451l-6.338,11.982h6.783v2.364h-9.814v-2.504
	l6.589-12.261v-5.086h-3.308v4.809h-3.031v-5.365C282.931,519.215,283.487,518.603,284.506,518.603z"/>
<path fill="#6D6E71" d="M294.265,539.455v-19.378c0-0.908,0.621-1.399,1.862-1.474h5.895c0.927,0,1.408,0.603,1.445,1.808v18.933
	c0,0.89-0.519,1.391-1.557,1.502h-6.033C294.876,540.937,294.339,540.473,294.265,539.455z M300.576,520.715h-3.559v17.933h3.559
	V520.715z"/>
<path fill="#6D6E71" d="M310.751,520.411v20.435h-3.03v-19.963h-1.863v-2.279h3.17C310.289,518.715,310.863,519.316,310.751,520.411
	z"/>
<path fill="#6D6E71" d="M322.512,527.917v11.148c-0.075,1.187-0.64,1.78-1.696,1.78h-5.422c-1.501-0.093-2.251-0.566-2.251-1.418
	v-5.144h3.029v4.477h3.504v-10.342h-5.838v-9.815h7.95v2.558h-5.338v4.949h4.448C321.973,526.203,322.512,526.803,322.512,527.917z"
	/>
<path fill-rule="evenodd" clip-rule="evenodd" fill="#FFDE17" d="M73.691,446.661c0-5.656,0-11.482,0-17.425l-53.589,30.039
	c0,5.501,0,10.948,0,16.309c0.014-0.005,0.027-0.01,0.041-0.015c0.177,0.387,2.11,1.543,6.952,4.303l52.864-29.633
	C77.87,449.046,75.766,447.846,73.691,446.661z M20.524,475.427c0.015-0.006,0.03-0.011,0.044-0.017
	c0.102,0.005,0.203,0.01,0.339,0.026C20.939,475.441,20.669,475.477,20.524,475.427z"/>
<path fill-rule="evenodd" clip-rule="evenodd" fill="#6AABDD" d="M501.254,166.48c3.283,1.764,6.483,3.581,9.604,5.446
	l51.519-28.878c-2.791-2.038-5.661-4.04-8.618-5.998L501.254,166.48z"/>
<path fill-rule="evenodd" clip-rule="evenodd" fill="#ED1C24" d="M20.102,447.017l53.589-30.039c0-3.571,0-7.183,0-10.829
	l-53.589,30.039C20.102,439.82,20.102,443.433,20.102,447.017z"/>
<path fill-rule="evenodd" clip-rule="evenodd" fill="#FFDE17" d="M527.765,183.128c0,5.208,0,10.588,0,16.094l53.589-30.039
	c0-3.499,0-6.976,0-10.414c-3.098-2.939-6.37-5.809-9.79-8.616l-50.466,28.288C523.369,179.978,525.605,181.533,527.765,183.128z"/>
<path fill-rule="evenodd" clip-rule="evenodd" fill="#ED1C24" d="M581.354,181.442l-53.589,30.039c0,4.025,0,8.116,0,12.257
	l53.589-30.039C581.354,189.58,581.354,185.496,581.354,181.442z"/>
<path fill-rule="evenodd" clip-rule="evenodd" fill="#1F2D5C" d="M101.633,462.604c-3.633-2.07-7.238-4.127-10.84-6.181
	l-52.731,29.558c3.659,2.035,7.318,4.07,10.978,6.104L101.633,462.604z"/>
<path fill-rule="evenodd" clip-rule="evenodd" fill="#414042" d="M112.482,468.781l-52.464,29.408
	c81.115,45.1,162.139,90.289,240.639,138.004c0-21.651-0.071-45.027-0.071-61.858C240.15,541.086,174.474,504.063,112.482,468.781z"
	/>
<path fill-rule="evenodd" clip-rule="evenodd" fill="#414042" d="M581.354,205.958l-53.589,30.039c0,68.259,0,148.708,0,210.632
	c-73.625,42.078-152.522,86.713-227.037,127.706c0,16.831-0.071,40.207-0.071,61.858c88.879-54.023,180.993-104.81,272.812-155.894
	c6.637-3.361-0.581,0.323,7.981-4.05c-0.029-0.731-0.062-1.454-0.097-2.166C581.354,392.24,581.354,293.034,581.354,205.958z"/>
<path fill="#414042" d="M513.873,115.161l-0.235-61.494C444.124,12.25,301.007,0,300.966,0c0,0.001-143.315,12.5-212.829,53.917
	l0.06,60.948c-26.989,12.28-50.287,27.004-68.095,43.906c0,80.849,0,178.564,0,265.159l53.589-30.038c0-70.228,0-150.994,0-210.763
	c53.254-39.337,140.654-60.533,227.036-60.608c0-18.044,0.001-25.108,0.001-32.604c0,7.496,0.001,14.56,0.001,32.604
	c68.134,0.06,136.886,13.269,189.031,38.145l53.686-30.093C534.219,125.075,524.318,119.938,513.873,115.161z"/>
<path fill-rule="evenodd" clip-rule="evenodd" fill="#FFDE17" d="M222.515,68.535c0.017,0.002,0.034,0.007,0.05,0.008
	c0.091,0.057,0.184,0.115,0.3,0.201C222.893,68.765,222.622,68.655,222.515,68.535z"/>
</svg>
