<?xml version="1.0" encoding="utf-8"?>
<!-- Generator: Adobe Illustrator 15.0.0, SVG Export Plug-In  -->
<!DOCTYPE svg PUBLIC "-//W3C//DTD SVG 1.1//EN" "http://www.w3.org/Graphics/SVG/1.1/DTD/svg11.dtd" [
	<!ENTITY ns_flows "http://ns.adobe.com/Flows/1.0/">
]>
<svg version="1.1"
	 xmlns="http://www.w3.org/2000/svg" xmlns:xlink="http://www.w3.org/1999/xlink" xmlns:a="http://ns.adobe.com/AdobeSVGViewerExtensions/3.0/"
	 x="0px" y="0px" width="1000px" height="1000px" viewBox="-138.998 -29.5 1000 1000"
	 overflow="visible" enable-background="new -138.998 -29.5 1000 1000" xml:space="preserve">
<defs>
</defs>
<path fill="#CDA248" d="M361.002,121.613C203.002,121.613,0,143.5,0,143.5s1.381,244.086,1.381,482.086
	c5.248,77.985,19.904,124.491,101.048,196.491c81.143,72,258.574,106.495,258.574,106.495s177.434-34.495,258.576-106.495
	c81.144-72,95.8-118.506,101.048-196.491c0-238,1.381-482.086,1.381-482.086S519.405,121.613,361.002,121.613z"/>
<path fill="#2B2B2B" d="M361.005,161.96c142.201,0,324.902,19.699,324.902,19.699s-1.242,219.678-1.242,433.878
	c-4.724,70.187-17.914,112.041-90.943,176.842c-73.028,64.8-232.716,95.846-232.716,95.846s-159.69-31.046-232.718-95.846
	c-73.029-64.801-86.22-106.655-90.943-176.842c0-214.2-1.243-433.878-1.243-433.878S218.443,161.96,361.005,161.96z"/>
<path fill="#1C75BB" d="M361.003,198.273c-127.981,0-292.412,17.729-292.412,17.729s1.118,197.709,1.118,390.49
	c4.251,63.168,16.123,100.836,81.849,159.157c65.726,58.319,209.445,86.261,209.445,86.261s143.72-27.941,209.447-86.261
	c65.727-58.321,77.598-95.989,81.849-159.157c0-192.781,1.118-390.49,1.118-390.49S489.309,198.273,361.003,198.273z"/>
<path display="none" fill="#065E9B" d="M361.003,118.273c-127.981,0-292.412,17.729-292.412,17.729s0.527,93.187,0.857,213.99
	c0.151,55.157,582.951,60.292,583.091,7.007c0.33-124.188,0.877-220.997,0.877-220.997S489.309,118.273,361.003,118.273z"/>
<path fill="#1C75BB" d="M376.899,411.965c-127.981,0-308.308,56.997-308.308,56.997s1.118-55.251,1.118,137.53
	c4.251,63.168,16.123,100.836,81.849,159.157c65.726,58.319,209.445,86.261,209.445,86.261s143.72-27.941,209.447-86.261
	c65.727-58.321,77.598-95.989,81.849-159.157c0-192.781,1.118-166.029,1.118-166.029S505.206,411.965,376.899,411.965z"/>
<path fill="#2B2B2B" d="M675.002,241.5h-627v333l114-39c0,0,23.333-27.999,46-56.666s30.5-30.834,54-44.334s65.5-28,100.5-28
	s63,6.5,90.5,20.5s44.75,33.5,49.5,42s20.833,21.833,34.166,37.834s26.667,36.666,26.667,36.666l111.667,31V241.5z"/>
<path fill="#AC8030" d="M159.927,702.884c-27.488-18.188-49.562-41.908-63.823-69.145c9.934,50.199,38.739,93.682,78.681,122.742
	c2.204,0.255,5.828,0.59,10.218,0.689C177.919,747.268,165.252,723.85,159.927,702.884z M232.958,734.376"/>
<path fill="#AC8030" d="M420.633,770.287c2.223,5.342,5.393,9.752,9.514,13.17c14.251,11.817,40.701,9.854,48.659,8.936
	c39.941-29.061,68.747-72.543,78.681-122.742C532.107,718.121,481.984,755.458,420.633,770.287L420.633,770.287z M420.633,770.287"
	/>
<path fill="#065E9B" d="M370.395,830.338c28.387-1.247,55.25-8.443,79.376-20.374c-10.248-1.477-21.527-5.065-30.938-12.867
	c-7.289-6.043-12.564-13.819-15.838-23.229c-10.604,1.76-21.496,2.848-32.593,3.23v53.239H370.395z M370.395,830.338"/>
<path fill="#065E9B" d="M265.272,455.794c-2.14,1.032-53.957,34.082-34.272,110.833c5.59,21.803,21.66,40.945,38.3,61.306
	c25.315,30.97,54.015,66.081,54.737,118.633c0.045,3.447-0.093,6.747-0.374,9.935c9.448,1.529,19.133,2.5,29.008,2.866V431.221
	C321.098,432.614,292.135,442.77,265.272,455.794L265.272,455.794z M265.272,455.794"/>
<path fill="#065E9B" d="M352.672,830.338v-53.239c-11.102-0.383-21.994-1.471-32.598-3.23c-3.274,9.409-8.551,17.186-15.84,23.229
	c-9.409,7.802-20.689,11.391-30.938,12.867C297.424,821.895,324.288,829.091,352.672,830.338L352.672,830.338z M352.672,830.338"/>
<path fill="#CDA248" d="M558.111,595.132c-3.248-36.17-22.468-68.196-45.269-94.632c4.089,17.879,4.436,41.16-3.674,70.804
	c-6.937,25.335-23.812,45.984-41.674,67.843c-24.632,30.137-50.097,61.291-50.734,107.656c-0.033,2.125,0.014,4.179,0.138,6.162
	C498.236,733.18,564.68,668.332,558.111,595.132L558.111,595.132z M558.111,595.132"/>
<path fill="#AC8030" d="M244.484,792.556c9.685,0.959,34.914,2.166,48.497-9.151c4.095-3.413,7.245-7.804,9.456-13.118
	c-61.351-14.836-111.476-52.166-136.855-100.637C175.535,719.939,204.425,763.496,244.484,792.556L244.484,792.556z
	 M244.484,792.556"/>
<path fill="#CDA248" d="M164.958,595.132c-6.562,73.199,59.875,138.041,141.213,157.833c0.118-1.983,0.171-4.037,0.138-6.162
	c-0.637-46.365-26.102-77.52-50.735-107.656c-17.861-21.858-34.737-42.508-41.673-67.843c-8.109-29.644-7.762-52.925-3.674-70.804
	C187.425,526.936,168.206,558.962,164.958,595.132L164.958,595.132z M164.958,595.132"/>
<path fill="#065E9B" d="M459.279,455.794c-26.942-12.867-57.308-23.18-88.884-24.573v328.146c9.875-0.366,19.568-1.337,29.01-2.866
	c-0.281-3.188-0.42-6.487-0.367-9.935c0.715-52.552,29.416-87.657,54.73-118.633c16.64-20.36,32.611-39.527,38.307-61.306
	C512.893,486.925,459.811,456.045,459.279,455.794L459.279,455.794z M459.279,455.794"/>
<path fill="#CDA248" d="M95.892,526.529c-5.707,49.09,21.691,95.271,64.818,126.921c-22.053-59.354,4.318-107.315,3.292-108.949
	c-7.123-11.354-15.394-27.628-18.56-40.509c-7.33-29.845-6.373-53.11-1.816-70.875C120.14,458.945,100.087,490.457,95.892,526.529
	L95.892,526.529z M95.892,526.529"/>
<path fill="#AC8030" d="M538.725,757.171c4.391-0.1,8.014-0.435,10.219-0.689c39.941-29.061,68.746-72.543,78.68-122.742
	c-14.261,27.236-36.335,50.957-63.822,69.145C558.475,723.85,545.809,747.268,538.725,757.171z M490.77,734.376"/>
<path fill="#CDA248" d="M628.616,526.529c-4.195-36.072-24.248-67.584-47.733-93.412c4.556,17.765,5.513,41.03-1.816,70.875
	c-3.166,12.881-11.438,29.155-18.56,40.509c-1.026,1.634,25.344,49.596,3.291,108.949
	C606.924,621.8,634.323,575.619,628.616,526.529L628.616,526.529z M628.616,526.529"/>
<path fill="#CDA248" d="M299.973,1.856l10.833,33.624l35.354-0.035c1.474,0,2.682,1.161,2.682,2.635c0,0.871-0.453,1.66-1.091,2.16
	l-28.643,20.716l10.983,33.632c0.453,1.394-0.302,2.868-1.695,3.321c-0.905,0.302-1.893,0.073-2.566-0.499l-28.388-20.713
	L268.87,97.526c-1.208,0.872-2.868,0.604-3.695-0.568c-0.531-0.72-0.647-1.626-0.383-2.369h-0.032l11.019-33.632l-28.645-20.727
	c-1.208-0.86-1.475-2.52-0.604-3.692c0.567-0.79,1.426-1.173,2.333-1.092l35.18,0.035l10.867-33.636
	c0.454-1.393,1.929-2.147,3.321-1.729C299.102,0.417,299.703,1.055,299.973,1.856L299.973,1.856z M306.347,38.952"/>
<path fill="#CDA248" d="M427.368,1.856l10.833,33.624l35.354-0.035c1.474,0,2.682,1.161,2.682,2.635c0,0.871-0.453,1.66-1.092,2.16
	l-28.643,20.716l10.983,33.632c0.452,1.394-0.302,2.868-1.695,3.321c-0.905,0.302-1.893,0.073-2.565-0.499l-28.389-20.713
	l-28.571,20.829c-1.208,0.872-2.868,0.604-3.694-0.568c-0.531-0.72-0.647-1.626-0.383-2.369h-0.033l11.02-33.632L374.53,40.229
	c-1.208-0.86-1.475-2.52-0.604-3.692c0.566-0.79,1.426-1.173,2.333-1.092l35.18,0.035l10.867-33.636
	c0.454-1.393,1.929-2.147,3.321-1.729C426.498,0.417,427.098,1.055,427.368,1.856L427.368,1.856z M433.743,38.952"/>
</svg>
