<?xml version="1.0" encoding="utf-8"?>
<!-- Generator: Adobe Illustrator 15.0.0, SVG Export Plug-In  -->
<!DOCTYPE svg PUBLIC "-//W3C//DTD SVG 1.1//EN" "http://www.w3.org/Graphics/SVG/1.1/DTD/svg11.dtd" [
	<!ENTITY ns_flows "http://ns.adobe.com/Flows/1.0/">
]>
<svg version="1.1"
	 xmlns="http://www.w3.org/2000/svg" xmlns:xlink="http://www.w3.org/1999/xlink" xmlns:a="http://ns.adobe.com/AdobeSVGViewerExtensions/3.0/"
	 x="0px" y="0px" width="432px" height="432px" viewBox="35.316 19.451 432 432"
	 overflow="visible" enable-background="new 35.316 19.451 432 432" xml:space="preserve">
<defs>
</defs>
<rect display="none" fill="#231F20" width="504.145" height="484.974"/>
<polygon display="none" fill="#6D6E70" stroke="#404041" stroke-width="10" stroke-miterlimit="10" points="251.534,41.553 
	52.591,240.496 153.428,341.333 369.085,321.887 450.477,240.496 "/>
<circle display="none" fill="#404041" stroke="#F9B622" stroke-width="16" stroke-miterlimit="10" cx="251.416" cy="239.534" r="159.42"/>
<path display="none" fill="#A6A8AB" d="M227.065,134.658c6.376-3.349,14.271-5.023,23.683-5.023c9.409,0,17.379,1.675,23.919,5.023
	c10.047,5.105,15.07,13.635,15.07,25.597v130.128c0,11.96-5.023,20.493-15.07,25.595c-6.54,3.349-14.511,5.023-23.919,5.023
	c-9.412,0-17.306-1.675-23.683-5.023c-10.047-5.102-15.07-13.635-15.07-25.595V160.254
	C211.996,148.292,217.019,139.763,227.065,134.658z M250.748,301.385c7.333,0,11.002-5.74,11.002-17.223v-117.69
	c0-11.482-3.67-17.225-11.002-17.225c-7.175,0-10.765,5.742-10.765,17.225v117.69C239.983,295.645,243.573,301.385,250.748,301.385z
	"/>
<path display="none" fill="#4F8ECB" d="M216.761,129.634c0,0-4.561,2.238-6.541,3.454c-1.984,1.216-3.823,4.696-3.823,4.696
	l-28.928,70.07l28.356,97.188c0,0,2.432,5.688,4.955,8.21c4.135,4.136,12.696,7.747,12.696,7.747h-41.7L153.79,221.49V321h-29.184
	V124.583c0,0,12.127,5.051,29.184,5.051c0,4.784,0,83.483,0,83.483l27.986-83.483H216.761z"/>
<path display="none" fill="#29B473" d="M354.684,219.337c8.45,0.799,14.59,4.389,18.417,10.764c4.146,7.019,6.22,18.023,6.22,33.011
	v17.463c0,14.673-3.071,25.079-9.209,31.217c-6.14,6.142-16.546,9.209-31.217,9.209h-54.579c0,0,7.353-3.927,9.86-7.298
	c2.891-3.887,4.294-9.113,4.294-10.669s0-155.181,0-155.181s-2.726-9.355-6.337-12.934c-2.975-2.947-5.645-5.285-5.645-5.285h52.406
	c26.948,0,40.426,11.96,40.426,35.88v15.312c0,10.523-1.518,18.657-4.544,24.397c-3.828,7.178-10.687,11.806-20.573,13.873
	L354.684,219.337z M327.891,213.118h8.993c8.835,0,13.254-5.818,13.254-17.461v-29.185c0-11.639-4.419-17.462-13.254-17.462h-8.993
	V213.118z M327.891,301.625h8.993c8.835,0,13.254-4.785,13.254-14.353v-44.493c0-9.568-4.419-14.353-13.254-14.353h-8.993V301.625z"
	/>
<path display="none" fill="#29B473" d="M218.763,129.634c0,0-4.561,2.238-6.541,3.454c-1.984,1.216-3.823,4.696-3.823,4.696
	l-28.928,70.07l15.936,54.619c0,0-13.997,12.377-21.772,26.627c-1.13-4.192-17.843-67.611-17.843-67.611s0,91.894,0,99.511
	c-4.623,10.737-29.184-7.307-29.184,9.874c0-5.531,0-213.799,0-213.799s12.127,12.559,29.184,12.559c0,4.784,0,83.483,0,83.483
	l27.986-83.483H218.763z"/>
<circle display="none" fill-rule="evenodd" clip-rule="evenodd" fill="#F9B622" stroke="#404041" stroke-width="10" stroke-miterlimit="10" cx="250.704" cy="281.864" r="41.884"/>
<path display="none" fill="#F9B622" d="M316.625,327.14v2.157h-3.7v6.149h3.54v2.157h-3.54v8.679h3.7v2.156h-6.947V327.14H316.625z"
	/>
<path display="none" fill="#F9B622" d="M319.802,327.7c0.71-0.373,1.588-0.56,2.637-0.56c1.295,0,2.324,0.268,3.088,0.799
	c0.834,0.586,1.251,1.456,1.251,2.609v3.674h-3.115v-2.981c0-1.278-0.409-1.917-1.224-1.917c-0.817,0-1.217,0.648-1.199,1.943
	c0.018,1.33,0.311,2.449,0.879,3.355c0.355,0.55,0.977,1.215,1.863,1.996c0.977,0.835,1.643,1.58,1.996,2.236
	c0.623,1.102,0.934,2.539,0.934,4.313v1.862c0,1.154-0.418,2.023-1.252,2.61c-0.746,0.532-1.767,0.798-3.062,0.798
	c-1.047,0-1.934-0.186-2.661-0.559c-1.118-0.567-1.679-1.518-1.679-2.85v-4.445h3.116v3.754c0,1.277,0.408,1.917,1.224,1.917
	c0.817,0,1.216-0.647,1.198-1.942c-0.017-1.741-0.39-3.214-1.118-4.42c-0.426-0.711-1.18-1.553-2.262-2.531
	c-0.799-0.727-1.341-1.303-1.625-1.729c-0.443-0.676-0.665-1.475-0.665-2.396v-2.689C318.125,329.217,318.685,328.268,319.802,327.7
	z"/>
<path display="none" fill="#F9B622" d="M336.648,327.14v2.157h-2.876v19.142h-3.221v-19.142h-2.876v-2.157H336.648z"/>
<path display="none" fill="#A6A8AB" d="M345.248,326.922c1.936,0,2.903,1.03,2.903,3.091v10.416c0,2.062-0.968,3.091-2.903,3.091
	h-1.474c-1.937,0-2.904-1.029-2.904-3.091v-10.416c0-2.061,0.968-3.091,2.904-3.091H345.248z M345.309,330.138
	c0-0.374-0.193-0.561-0.581-0.561h-0.54c-0.317,0-0.477,0.187-0.477,0.561v10.167c0,0.372,0.201,0.56,0.602,0.56h0.52
	c0.317,0,0.477-0.188,0.477-0.56V330.138z"/>
<path display="none" fill="#A6A8AB" d="M355.214,326.922c1.938,0,2.906,1.052,2.906,3.153v10.249c0,2.132-0.969,3.195-2.906,3.195
	h-1.265c-1.938,0-2.905-1.063-2.905-3.195v-1.244h2.864v0.995c0,0.526,0.192,0.789,0.58,0.789h0.312c0.317,0,0.478-0.188,0.478-0.56
	v-3.175l-0.853,0.581h-0.601c-1.936,0-2.904-1.066-2.904-3.196v-4.439c0-2.102,0.969-3.153,2.904-3.153H355.214z M355.278,330.159
	c0-0.386-0.229-0.581-0.686-0.581h-0.228c-0.401,0-0.602,0.195-0.602,0.581v4.107c0,0.526,0.2,0.789,0.602,0.789h0.913V330.159z"/>
<polygon display="none" fill="#A6A8AB" points="256.966,327.119 244.302,327.119 220.649,327.119 201.896,351.962 219.374,425.94 
	244.302,425.94 256.966,425.94 281.894,425.94 305.244,327.119 "/>
<path display="none" fill="#29B473" d="M257.007,288.412c0,0-26.906-44.211-55.484-22.722
	c-28.579,21.491-64.541,115.094-56.536,154.048c4.162-27.287,36.833-70.414,53.423-108.27
	C202.017,277.289,257.007,288.412,257.007,288.412z"/>
<path display="none" fill="#A6A8AB" d="M255.639,295.453c0,0-20.18-33.158-41.613-17.041
	c-21.434,16.117-55.69,102.292-46.81,114.311c14.517-35.449,41.98-56.352,44.475-79.978
	C214.397,287.11,255.639,295.453,255.639,295.453z"/>
<path display="none" fill="#6D6E70" d="M247.59,299.464c0,0-13.453-22.105-27.742-11.361
	c-14.289,10.746-37.126,68.195-31.206,76.207c9.678-23.633,29.011-36.732,30.674-52.484
	C221.12,294.736,247.59,299.464,247.59,299.464z"/>
<path fill="#00264D" stroke="#FFFFFF" stroke-miterlimit="10" d="M194.911,108.601l0.038-0.027
	c-16.73,11.615-39.291,15.14-48.211,16.116l-14.198,1.555l6.779,12.834c5.941,11.252,18.432,40.58,6.066,69.823
	c-9.99,23.933-13.953,44.56-12.131,63.08c1.879,19.051,10.073,35.53,24.373,48.98c13.054,12.117,27.936,16.134,39.905,19.358
	c-0.009-0.001,6.817,1.919,6.817,1.919c-0.03-0.011,1.984,0.564,2.438,0.692v0.003c7.922,2.256,22.668,6.452,34.842,21.411
	l7.374,9.055l7.377-9.055c12.196-14.976,26.944-19.16,34.861-21.411c0,0-0.078-0.05-0.08-0.058c0.427-0.063,0.875-0.171,1.312-0.297
	l1.207-0.352c0,0-0.104,0.015-0.197,0.027c0.489-0.105,1.879-0.493,6.987-1.926c11.966-3.236,26.883-7.272,39.831-19.283
	c14.349-13.501,22.571-30.004,24.453-49.055c0.286-2.921,0.438-5.892,0.438-8.925c0-16.177-4.137-33.971-12.532-54.093
	c-3.824-9.063-5.282-18.13-5.282-26.673c0-19.051,7.226-35.453,11.327-43.228l6.771-12.829l-14.189-1.555
	c-8.925-0.977-31.502-4.505-48.236-16.147c-27.355-19.181-43.229-21.681-53.998-21.713
	C238.228,86.862,222.31,89.367,194.911,108.601z M249.051,90.749c10.206,0.03,25.335,2.449,51.838,21.028
	c17.451,12.145,40.773,15.802,49.993,16.81c0,0,5.317,0.583,8.512,0.934c-1.523,2.886-4.062,7.698-4.062,7.698
	c-4.275,8.101-11.787,25.176-11.787,45.107c0,9.006,1.528,18.592,5.59,28.194c8.185,19.619,12.212,36.913,12.212,52.548
	c0,2.903-0.143,5.741-0.411,8.532c-1.788,18.065-9.601,33.734-23.225,46.561c-12.247,11.357-26.661,15.256-38.242,18.386
	c-0.015,0.008-6.809,1.906-6.809,1.906c-0.027,0.008-2.45,0.71-2.45,0.71c-8.318,2.364-23.813,6.765-36.783,22.682
	c0,0-2.766,3.397-4.425,5.432c-1.658-2.04-4.422-5.433-4.422-5.433c-12.895-15.845-28.321-20.28-36.67-22.656l0,0l-2.52-0.716
	c-0.022-0.008-6.88-1.934-6.88-1.934c-11.56-3.115-25.943-6.996-38.291-18.466c-13.581-12.77-21.371-28.414-23.15-46.482
	c-0.277-2.778-0.413-5.606-0.413-8.493c0-15.652,4.039-32.974,12.25-52.646c4.051-9.583,5.584-19.149,5.584-28.135
	c0-19.917-7.518-36.996-11.795-45.097c0,0-2.542-4.812-4.067-7.698c3.194-0.351,8.519-0.934,8.519-0.934
	c9.207-1.008,32.511-4.664,49.959-16.776v-0.001l-0.027,0.021C223.621,93.203,238.795,90.778,249.051,90.749z"/>
<path fill="#00264D" d="M343.833,212.812c-12.216-28.907-3.925-58.777,6.433-78.384c-15.392-1.686-36.527-6.599-52.612-17.793
	c-25.208-17.672-39.249-19.985-48.633-20.012c-9.411,0.027-23.451,2.34-48.681,20.05c-16.079,11.165-37.188,16.07-52.578,17.756
	c10.351,19.594,18.643,49.478,6.423,78.359c-18.475,44.27-15.217,77.309,9.938,100.97c11.244,10.44,24.305,13.981,35.857,17.097
	c2.48,0.655,4.815,1.297,7.1,1.997c0.667,0.2,1.438,0.422,2.279,0.65c8.771,2.495,25.559,7.281,39.646,24.582
	c14.098-17.301,30.879-22.087,39.668-24.582c0.821-0.229,1.591-0.45,2.29-0.662c2.259-0.688,4.594-1.33,7.083-1.985
	c11.525-3.115,24.596-6.656,35.807-17.057C359.033,290.096,362.296,257.057,343.833,212.812z"/>
<path fill-rule="evenodd" clip-rule="evenodd" fill="#EC1C24" d="M299.126,274.024c-1.108,3.869-2.354,7.683-3.703,11.454
	c1.243-0.059,2.488-0.136,3.731-0.254c0.167-0.014,0.332-0.037,0.499-0.052c0.188-0.05,0.512-0.122,0.98-0.219
	c0.943-0.261,1.878-0.544,2.802-0.865c0.817-0.362,2.002-0.882,2.469-1.103c1.061-0.506,2.117-1.019,3.189-1.502
	c4.274-1.929,18.09-12.148,21.78-14.933c23.812-12.888,61.771-24.387,62.455-58.55c0.35-9.778-2.178-18.289-6.438-26.227
	c-1.146,1.148-1.146,3.341-2.187,4.717c-15.067,22.654-40.723,24.959-59.584,41.758c-2.871,2.871-4.595,6.443-6.897,9.659
	c-1.959-9.314,3.219-17.713,11.045-23.005c5.171-3.338,11.27-5.291,16.218-8.748c18.396-7.932,41.289-24.147,41.979-46.695
	c3.338-20.248-7.475-38.074-24.039-49.92c0.92,3.45,2.763,7.709,2.763,12.077c1.721,15.186-4.255,28.987-17.024,37.271
	c-19.896,13.684-43.135,19.091-62.113,34.853c-5.18,4.832-8.518,10.81-7.48,17.944C294.99,228.705,306.607,250.565,299.126,274.024z
	"/>
<path fill-rule="evenodd" clip-rule="evenodd" fill="#F6EB0F" d="M170.442,278.221c0.985,0.843,1.938,1.726,2.856,2.646
	c0.143-0.022,0.289-0.033,0.432-0.054C172.671,279.895,171.576,279.029,170.442,278.221z"/>
<path fill-rule="evenodd" clip-rule="evenodd" fill="#EC1C24" d="M166.107,221.533c-18.978-11.16-43.245-15.648-54.059-38.072
	h-0.575c-8.048,16.904-6.212,40.372,6.9,54.29c15.182,16.333,36.35,19.552,53.835,31.283c4.689,2.909,8.158,6.961,10.332,11.536
	c27.148-0.348,54.504-4.128,81.598-1.326c10.097,1.045,20.294,2.705,30.489,2.937c3.662-10.312,5.914-21.158,5.373-33.042
	c-2.875-25.306-27.608-40.714-37.845-62.919c-2.416-7.823-0.915-16.794,4.719-22.661c5.405-5.291,11.963-7.709,19.092-8.857
	c-0.919-3.105-3.336-6.326-6.443-7.704c-6.213-3.109-13.567-0.346-19.317,1.954c-9.663-4.604-21.166-0.23-30.022,3.793
	c-8.636,3.8-15.644,11.618-26.001,11.391c0.232,2.641,3.336,4.486,5.527,5.521c8.163,1.147,15.18-2.88,22.078-4.718
	c-8.276,13.228-4.941,31.054-0.226,44.973c-0.12,0.114-0.233,0.231-0.349,0.231c-9.083-12.534-22.889-21.044-35.886-27.836
	c-13.571-6.555-27.262-12.766-40.83-19.553c-12.771-7.822-23.584-21.279-23.122-37.037c0.34-5.638,1.152-11.158,3.57-15.993
	c-17.026,11.504-26.004,29.106-23.815,49.349c1.723,19.095,17.022,37.844,35.08,43.945c13.804,8.852,37.958,13.799,38.647,34.733
	C180.488,230.85,173.478,224.752,166.107,221.533z"/>
<path fill="#EC1C24" d="M249.751,360.365c-39.068,0.457-71.12-30.842-71.581-69.913c-0.461-39.066,30.848-71.115,69.923-71.578
	c39.069-0.458,71.11,30.846,71.569,69.913C320.119,327.859,288.824,359.909,249.751,360.365z"/>
<path fill="#00264D" d="M266.128,329.469c9.197-5.844,18.658-12.146,29.883-15.854c0.104-0.519,0.202-1.106,0.274-1.746
	c0.448-3.529,0.534-8.385,0.529-11.11c-8.707,1.792-18.508,3.273-28.455,4.188c-16.897,1.552-32.349,0.771-45.263-0.809
	c-24.73-3.014-38.229-9.018-39.149-10.213c3.379,0.845,17.632,3.299,18.884,3.517c3.292,0.562,6.672,1.057,10.141,1.497
	c26.016,3.255,56.45,2.753,83.94-3.465c-0.206-5.265-0.663-9.585-1.409-13.459c-3.881,0.406-7.495,0.343-10.87-0.077
	c-13.216-1.653-22.505-9.072-30.26-14.214c-30.296-20.042-53.747-20.491-56.5-21.021c3.87-1.629,29.519-0.013,55.228,15.079
	c10.916,6.41,18.177,13.129,30.054,14.611c3.303,0.418,6.957,0.464,11.121,0.054c-2.82-10.839-6.663-21.376-12.438-30.483
	c-5.971-9.407-18.269-21.027-26.988-24.041c8.227,0.983,19.003,8.549,26.727,17.98c7.545,9.228,14.052,21.412,17.317,35.793
	c2.68-0.656,4.623-2.014,6.059-3.88c1.59-2.074,2.54-4.816,2.927-7.894c0.269-2.126,0.25-11.366-2.752-17.349
	c1.385,2.021,4.516,5.403,5.005,7.328c1.127,4.443,1.907,8.97,1.744,12.127c-0.026,0.304-0.055,0.606-0.087,0.908
	c-0.423,3.365-1.617,6.5-3.713,9.029c-1.924,2.321-4.608,4.104-8.048,5.06c0.871,4.171,1.487,8.621,1.639,13.19
	c4.927-1.358,16.147-5.448,18.609-8.256c-0.027,1.876,0.997,3.767,0.808,5.662c-3.369,2.698-15.182,6.776-19.277,7.877
	c0.081,3.035-0.003,8.632-0.496,13.245c1.047-0.074,2.211-0.015,3.358,0.128c2.062,0.262,4.062,0.776,5.395,1.448
	c0.103,0.065,4.223,2.209,4.32,2.276c-0.551,1.294-1.219,2.366-1.845,3.617c-0.021-0.009-3.968-1.894-3.981-1.904
	c-0.309-0.135-1.123-0.335-2.057-0.44c-1.078-0.134-2.357-0.205-3.536-0.181c-0.877,0.018-1.698,0.094-2.309,0.213
	c-1.267,7.072-3.508,17.938-19.312,28.269c6.264-6.201,13.191-16.726,14.158-26.982c-9.437,2.801-17.461,8.226-25.923,13.616
	c-8.883,5.652-18.262,11.244-30.276,13.445c-6.057,1.104-19.406,0.755-23.01-1.073c5.61,0.139,15.576-1.245,21.094-2.312
	C247.723,340.882,256.789,335.418,266.128,329.469z"/>
<polygon fill="#EFEFEF" points="244.935,159.172 251.443,152.915 244.935,152.915 "/>
<polygon fill="#EC1C24" points="223.198,35.79 228.763,52.915 246.769,52.915 232.202,63.499 237.766,80.625 223.198,70.041 
	208.631,80.625 214.194,63.499 199.627,52.915 217.633,52.915 "/>
<polygon fill="#EC1C24" points="276.648,35.79 282.212,52.915 300.218,52.915 285.652,63.499 291.216,80.625 276.648,70.041 
	262.081,80.625 267.645,63.499 253.077,52.915 271.083,52.915 "/>
<rect x="88.507" y="382.174" fill="none" width="323.617" height="50.308"/>
<text transform="matrix(1 0 0 1 200.4854 414.6118)" fill="#00264D" font-family="'NBALosAngelesLakers'" font-size="40.5461" letter-spacing="8">PNDB</text>
<rect x="88.507" y="421.469" fill="none" width="323.617" height="50.308"/>
<text transform="matrix(1 0 0 1 200.8433 434.6841)" fill="#00264D" font-family="'NBALosAngelesLakers'" font-size="16.5188" letter-spacing="3">BASKETBALL</text>
<circle fill="#EC1C24" cx="300.436" cy="412.898" r="1.564"/>
<circle fill="#EC1C24" cx="273.656" cy="412.898" r="1.564"/>
<circle fill="#EC1C24" cx="247.125" cy="412.898" r="1.564"/>
<circle fill="#EC1C24" cx="218.843" cy="412.898" r="1.564"/>
</svg>
