<?xml version="1.0" encoding="utf-8"?>
<!-- Generator: Adobe Illustrator 15.0.0, SVG Export Plug-In  -->
<!DOCTYPE svg PUBLIC "-//W3C//DTD SVG 1.1//EN" "http://www.w3.org/Graphics/SVG/1.1/DTD/svg11.dtd" [
	<!ENTITY ns_flows "http://ns.adobe.com/Flows/1.0/">
]>
<svg version="1.1"
	 xmlns="http://www.w3.org/2000/svg" xmlns:xlink="http://www.w3.org/1999/xlink" xmlns:a="http://ns.adobe.com/AdobeSVGViewerExtensions/3.0/"
	 x="0px" y="0px" width="1000px" height="1000px" viewBox="-50.551 -6.286 1000 1000"
	 overflow="visible" enable-background="new -50.551 -6.286 1000 1000" xml:space="preserve">
<defs>
</defs>
<path display="none" fill="#11284D" d="M285.989,162.823l0.118-0.093c-50.226,34.875-117.924,45.458-144.697,48.362l-42.628,4.705
	l20.358,38.498c17.826,33.791,55.317,121.809,18.201,209.562c-29.983,71.834-41.87,133.721-36.403,189.31
	c5.647,57.189,30.234,106.656,73.131,147.013c39.198,36.385,83.87,48.426,119.78,58.11c-0.048,0,20.462,5.751,20.462,5.751
	c-0.121-0.021,5.944,1.689,7.308,2.067v0.033c23.774,6.738,68.057,19.348,104.579,64.232l22.138,27.193l22.127-27.193
	c36.596-44.933,80.88-57.516,104.62-64.232c0,0-0.237-0.16-0.237-0.202c1.312-0.171,2.615-0.5,3.94-0.879l3.607-1.041
	c0,0-0.296,0.041-0.58,0.061c1.474-0.305,5.65-1.467,20.981-5.79c35.904-9.705,80.674-21.815,119.544-57.873
	c43.061-40.506,67.753-90.054,73.368-147.216c0.865-8.765,1.339-17.672,1.339-26.781c0-48.538-12.422-101.946-37.622-162.352
	c-11.474-27.207-15.838-54.394-15.838-80.046c0-57.19,21.657-106.393,33.983-129.748l20.307-38.478l-42.58-4.705
	c-26.78-2.903-94.539-13.506-144.762-48.417c-82.093-57.575-129.748-65.083-162.063-65.19
	C415.976,97.591,368.217,105.1,285.989,162.823z M448.471,109.263c30.626,0.08,76.037,7.339,155.575,63.102
	c52.372,36.425,122.361,47.404,150.046,50.44c0,0,15.955,1.744,25.559,2.798c-4.596,8.676-12.204,23.103-12.204,23.103
	c-12.819,24.315-35.362,75.572-35.362,135.397c0,27.017,4.581,55.791,16.759,84.606c24.577,58.88,36.659,110.778,36.659,157.71
	c0,8.712-0.432,17.245-1.235,25.605c-5.366,54.202-28.829,101.251-69.699,139.769c-36.749,34.06-80.03,45.75-114.771,55.156
	c-0.041,0.027-20.429,5.71-20.429,5.71c-0.095,0.022-7.36,2.155-7.36,2.155c-24.948,7.088-71.481,20.28-110.416,68.05
	c0,0-8.274,10.197-13.255,16.3c-4.995-6.116-13.286-16.3-13.286-16.3c-38.688-47.56-85.005-60.858-110.059-67.988l0,0l-7.558-2.148
	c-0.063-0.028-20.655-5.819-20.655-5.819c-34.697-9.326-77.865-20.969-114.917-55.411c-40.759-38.316-64.134-85.271-69.456-139.515
	c-0.862-8.318-1.265-16.832-1.265-25.468c0-46.975,12.114-98.947,36.783-158.016c12.147-28.752,16.759-57.473,16.759-84.436
	c0-59.765-22.59-111.042-35.414-135.357c0,0-7.62-14.427-12.201-23.103c9.573-1.055,25.564-2.798,25.564-2.798
	c27.632-3.036,97.577-13.997,149.935-50.333l0,0l-0.071,0.049C372.143,116.609,417.696,109.343,448.471,109.263z"/>
<path display="none" fill="#FFFFFF" d="M448.336,969.614l-28.039-34.443c-35.055-43.073-77.784-55.203-100.759-61.704l-3.342-0.961
	c-1.304-0.376-2.659-0.775-3.926-1.276l-0.024,0.13c-10.106-2.846-16.404-4.603-20.283-6.069l-0.087,0.339
	c-36.705-9.894-82.367-22.188-122.977-59.867c-44.293-41.675-69.701-92.763-75.544-151.853
	c-5.588-56.877,6.494-120.002,36.972-192.978c35.84-84.753-0.594-170.253-17.921-203.082L86.82,209.458l53.758-5.925
	c26.186-2.852,92.333-13.13,141.191-47.055v0.021c83.85-58.845,133.12-66.516,166.671-66.623
	c33.496,0.107,82.63,7.777,166.466,66.576c48.824,33.951,115.022,44.229,141.201,47.081l53.716,5.925l-25.529,48.373
	c-12.353,23.435-33.105,70.988-33.105,126.192c0,27.158,5.13,53.107,15.252,77.091c25.72,61.644,38.215,115.72,38.215,165.307
	c0,9.009-0.46,18.267-1.366,27.525c-5.811,59.054-31.294,110.202-75.739,152.014c-25.882,24.016-53.994,37.7-80.552,47.046
	l0.845-0.047l-4.393,1.27c-13.522,4.622-26.584,8.137-38.668,11.408c-5.147,1.453-9.074,2.555-12.075,3.393l0.047,0.025
	l-15.603,4.413c-22.942,6.479-65.651,18.556-100.791,61.704L448.336,969.614z M129.019,231.942l6.984,13.209
	c13.549,25.702,36.285,77.918,36.285,138.913c0,30.733-5.839,60.137-17.356,87.396c-24.338,58.285-36.182,109.002-36.182,155.056
	c0,8.533,0.417,16.846,1.22,24.697c5.139,52.399,27.71,97.71,67.1,134.741c35.711,33.167,77.835,44.516,111.684,53.615l28.314,7.989
	c25.713,7.318,73.555,20.942,113.884,70.51l7.384,9.054l7.355-9.054c40.421-49.596,88.395-63.232,114.181-70.55
	c0.008-0.015,8.137-2.34,8.245-2.367l19.597-5.506c34.133-9.244,76.342-20.679,111.684-53.433
	c39.458-37.195,62.124-82.601,67.294-134.939c0.796-8.27,1.202-16.645,1.202-24.854c0-46.014-11.799-96.636-36.059-154.785
	c-11.523-27.205-17.36-56.669-17.36-87.532c0-61.124,22.705-113.292,36.241-138.952l6.98-13.209l-14.427-1.568
	c-28.241-3.097-99.744-14.327-153.562-51.777c-77.835-54.554-121.713-61.644-151.255-61.726
	c-29.639,0.082-73.681,7.183-151.587,61.872l0,0c-53.774,37.304-125.189,48.534-153.403,51.63L129.019,231.942z"/>
<path display="none" fill="#11284D" d="M732.928,475.588c-36.653-86.747-11.778-176.402,19.32-235.242
	c-46.202-5.061-109.643-19.813-157.92-53.399c-75.652-53.052-117.789-60.001-145.945-60.069
	c-28.25,0.068-70.391,7.017-146.094,60.166c-48.277,33.525-111.621,48.242-157.819,53.302
	c31.085,58.8,55.957,148.495,19.259,235.168c-55.423,132.876-45.648,232.031,29.849,303.041
	c33.745,31.343,72.945,41.946,107.625,51.29c7.431,2.001,14.444,3.9,21.293,5.995c2.007,0.614,4.322,1.297,6.849,1.967
	c26.314,7.48,76.703,21.861,118.989,73.772c42.315-51.911,92.661-66.292,119.05-73.772c2.473-0.67,4.784-1.353,6.865-1.981
	c6.793-2.08,13.793-3.979,21.272-5.98c34.6-9.344,73.815-19.947,107.469-51.163C778.542,707.546,788.368,608.391,732.928,475.588z"
	/>
<path display="none" fill-rule="evenodd" clip-rule="evenodd" fill="#EB2227" d="M598.769,659.302
	c-3.332,11.632-7.069,23.066-11.111,34.379c3.724-0.169,7.454-0.405,11.199-0.771c0.507-0.041,0.986-0.107,1.485-0.148
	c0.562-0.148,1.548-0.358,2.927-0.669c2.838-0.771,5.663-1.628,8.428-2.582c2.452-1.076,6.021-2.649,7.413-3.311
	c3.168-1.508,6.365-3.049,9.567-4.521c12.84-5.771,54.299-36.443,65.368-44.811c71.476-38.64,185.384-73.185,187.443-175.725
	c1.055-29.323-6.555-54.888-19.319-78.707c-3.426,3.446-3.426,10.014-6.562,14.148c-45.217,68.004-122.219,74.917-178.829,125.343
	c-8.603,8.621-13.786,19.32-20.698,28.977c-5.9-27.942,9.677-53.148,33.152-69.022c15.509-10.036,33.816-15.894,48.662-26.281
	c55.217-23.78,123.923-72.456,125.983-140.133c10.035-60.779-22.422-114.266-72.151-149.825c2.765,10.366,8.318,23.139,8.318,36.229
	c5.143,45.606-12.779,87.011-51.114,111.874c-59.698,41.065-129.45,57.311-186.418,104.587
	c-15.543,14.516-25.558,32.478-22.448,53.893C586.348,523.305,621.203,588.889,598.769,659.302z"/>
<path display="none" fill-rule="evenodd" clip-rule="evenodd" fill="#EB2227" d="M199.538,501.769
	c-56.954-33.491-129.787-46.965-162.241-114.279H35.57c-24.161,50.73-18.644,121.18,20.702,162.934
	c45.571,49.034,109.09,58.697,161.572,93.913c14.083,8.73,24.487,20.886,31.029,34.604c81.453-1.032,163.566-12.366,244.874-3.973
	c30.302,3.136,60.921,8.123,91.513,8.807c10.98-30.918,17.746-63.489,16.124-99.149c-8.631-75.955-82.856-122.212-113.583-188.843
	c-7.251-23.489-2.764-50.406,14.177-68.009c16.212-15.875,35.87-23.146,57.298-26.6c-2.763-9.324-10.014-18.989-19.347-23.103
	c-18.665-9.324-40.741-1.048-57.981,5.853c-29.007-13.82-63.535-0.689-90.106,11.379c-25.916,11.414-46.956,34.877-78.037,34.193
	c0.716,7.941,10.015,13.455,16.58,16.577c24.503,3.439,45.577-8.636,66.276-14.171c-24.845,39.721-14.83,93.209-0.683,134.985
	c-0.361,0.338-0.686,0.696-1.041,0.696c-27.254-37.613-68.682-63.152-107.714-83.559c-40.729-19.658-81.812-38.303-122.54-58.676
	c-38.339-23.471-70.793-63.861-69.391-111.158c1.024-16.907,3.46-33.477,10.693-47.993c-51.067,34.524-78.037,87.357-71.438,148.106
	c5.17,57.319,51.068,113.564,105.261,131.899c41.441,26.562,113.938,41.41,116.001,104.222
	C242.686,529.725,221.653,511.426,199.538,501.769z"/>
<path display="none" fill="#EB2227" d="M450.582,918.447c-117.256,1.378-213.468-92.574-214.847-209.833
	c-1.364-117.246,92.584-213.456,209.866-214.827c117.236-1.364,213.403,92.573,214.803,209.806
	C661.77,820.878,567.831,917.075,450.582,918.447z"/>
<path display="none" fill="#11284D" d="M499.715,825.711c27.611-17.544,55.993-36.45,89.694-47.594
	c0.296-1.55,0.628-3.307,0.831-5.218c1.337-10.61,1.588-25.165,1.574-33.363c-26.119,5.386-55.541,9.839-85.383,12.571
	c-50.74,4.66-97.115,2.337-135.85-2.421c-74.223-9.028-114.725-27.057-117.506-30.652c10.149,2.535,52.912,9.899,56.687,10.549
	c9.863,1.695,20.016,3.17,30.429,4.494c78.068,9.758,169.429,8.265,251.919-10.386c-0.595-15.802-1.98-28.789-4.223-40.391
	c-11.644,1.2-22.49,1.025-32.627-0.245c-39.661-4.973-67.529-27.214-90.819-42.654c-90.921-60.15-161.292-61.494-169.566-63.076
	c11.62-4.905,88.585-0.054,165.766,45.243c32.747,19.232,54.541,39.412,90.188,43.837c9.913,1.264,20.868,1.412,33.376,0.176
	c-8.453-32.525-20.002-64.143-37.322-91.486c-17.935-28.225-54.832-63.124-81.014-72.138c24.709,2.926,57.043,25.641,80.236,53.941
	c22.618,27.691,42.175,64.264,51.96,107.412c8.041-1.954,13.866-6.021,18.205-11.617c4.757-6.229,7.609-14.468,8.764-23.687
	c0.806-6.393,0.751-34.125-8.256-52.086c4.162,6.062,13.548,16.211,15.021,21.996c3.394,13.324,5.726,26.928,5.23,36.403
	c-0.073,0.912-0.162,1.83-0.249,2.715c-1.284,10.09-4.88,19.505-11.144,27.108c-5.771,6.974-13.82,12.306-24.166,15.189
	c2.622,12.516,4.474,25.861,4.906,39.571c14.799-4.079,48.486-16.332,55.872-24.779c-0.095,5.637,2.981,11.312,2.406,17.022
	c-10.096,8.084-45.546,20.3-57.839,23.625c0.243,9.117-0.006,25.89-1.494,39.741c3.15-0.208,6.644-0.039,10.09,0.406
	c6.184,0.777,12.184,2.326,16.178,4.332c0.311,0.195,12.678,6.629,12.976,6.839c-1.663,3.886-3.669,7.109-5.528,10.854
	c-0.089-0.037-11.92-5.685-11.961-5.712c-0.926-0.398-3.358-1.008-6.17-1.338c-3.236-0.398-7.069-0.628-10.623-0.534
	c-2.63,0.054-5.095,0.259-6.939,0.635c-3.785,21.233-10.489,53.832-57.934,84.844c18.793-18.619,39.586-50.204,42.479-80.972
	c-28.315,8.38-52.386,24.673-77.801,40.858c-26.653,16.956-54.812,33.761-90.875,40.354c-18.188,3.307-58.247,2.279-69.046-3.241
	c16.833,0.418,46.743-3.712,63.309-6.92C444.487,859.979,471.696,843.557,499.715,825.711z"/>
<polygon display="none" fill="#F0EFEF" points="436.125,314.601 455.646,295.821 436.125,295.821 "/>
<polygon display="none" fill="#EB2227" points="399.274,9.771 408.526,38.32 438.561,38.32 414.276,55.938 423.552,84.482 
	399.274,66.853 374.992,84.482 384.283,55.938 360,38.32 390,38.32 "/>
<polygon display="none" fill="#EB2227" points="488.307,9.771 497.613,38.32 527.597,38.32 503.329,55.938 512.588,84.482 
	488.307,66.853 464.061,84.482 473.329,55.938 449.053,38.32 479.035,38.32 "/>
<path display="none" fill="#CEA248" d="M448.823,102.397c-172.707,0-394.626,23.923-394.626,23.923s1.511,266.828,1.511,527.001
	c5.739,85.252,21.759,136.08,110.457,214.78c88.698,78.723,282.658,116.433,282.658,116.433s193.974-37.71,282.665-116.433
	c88.698-78.7,104.73-129.528,110.456-214.78c0-260.174,1.512-527.001,1.512-527.001S621.98,102.397,448.823,102.397z"/>
<path display="none" fill="#2B2C2B" d="M448.823,146.492c155.447,0,355.179,21.515,355.179,21.515s-1.362,240.166-1.362,474.322
	c-5.172,76.712-19.577,122.468-99.415,193.302c-79.833,70.855-254.401,104.772-254.401,104.772s-174.569-33.917-254.392-104.772
	c-79.82-70.834-94.256-116.59-99.412-193.302c0-234.157-1.365-474.322-1.365-474.322S292.985,146.492,448.823,146.492z"/>
<path display="none" fill="#1D76BB" d="M448.823,186.184c-139.904,0-319.641,19.387-319.641,19.387s1.218,216.131,1.218,426.848
	c4.646,69.071,17.632,110.243,89.469,173.997c71.85,63.751,228.954,94.29,228.954,94.29s157.107-30.539,228.96-94.29
	c71.848-63.754,84.829-104.926,89.474-173.997c0-210.717,1.22-426.848,1.22-426.848S589.086,186.184,448.823,186.184z"/>
<path display="none" fill="#1D76BB" d="M466.201,419.79c-139.897,0-337.019,62.314-337.019,62.314s1.218-60.401,1.218,150.315
	c4.646,69.071,17.632,110.243,89.469,173.997c71.85,63.751,228.954,94.29,228.954,94.29s157.107-30.539,228.96-94.29
	c71.848-63.754,84.829-104.926,89.474-173.997c0-210.717,1.22-181.492,1.22-181.492S606.457,419.79,466.201,419.79z"/>
<path display="none" fill="#2B2C2B" d="M794.449,329.714l-697-1v268.761l129.237-42.656c0,0,27.815-30.593,52.587-61.921
	c24.77-31.345,34.487-33.732,60.177-48.476c25.686-14.748,72.181-30.6,110.431-30.6c38.264,0,69.163,7.095,99.231,22.418
	c30.05,15.292,49.052,36.613,54.25,45.899c5.189,9.289,22.852,23.861,37.427,41.35c14.572,17.488,30.371,40.09,30.371,40.09
	l123.289,33.896V329.714z"/>
<path display="none" fill="#AC8030" d="M229.016,737.81c-30.032-19.896-54.183-45.823-69.765-75.59
	c10.861,54.873,42.348,102.405,86.008,134.175c2.413,0.268,6.37,0.632,11.177,0.743C248.69,786.312,234.849,760.751,229.016,737.81z
	 M308.854,772.251"/>
<path display="none" fill="#AC8030" d="M514.004,811.466c2.441,5.851,5.895,10.689,10.412,14.407
	c15.571,12.938,44.479,10.791,53.188,9.772c43.66-31.757,75.151-79.288,86.007-134.167
	C635.862,754.466,581.082,795.266,514.004,811.466L514.004,811.466z M514.004,811.466"/>
<path display="none" fill="#025F9C" d="M459.092,877.147c31.03-1.392,60.395-9.231,86.769-22.287
	c-11.195-1.596-23.528-5.555-33.814-14.062c-7.967-6.612-13.737-15.1-17.313-25.403c-11.603,1.921-23.496,3.141-35.634,3.554v58.198
	H459.092z M459.092,877.147"/>
<path display="none" fill="#025F9C" d="M344.181,467.706c-2.343,1.136-58.982,37.261-37.46,121.159
	c6.101,23.827,23.672,44.729,41.866,67.016c27.667,33.842,59.039,72.239,59.827,129.665c0.051,3.787-0.094,7.373-0.411,10.867
	c10.328,1.688,20.919,2.714,31.719,3.134V440.831C405.215,442.357,373.549,453.474,344.181,467.706L344.181,467.706z
	 M344.181,467.706"/>
<path display="none" fill="#025F9C" d="M439.722,877.147v-58.198c-12.131-0.413-24.045-1.633-35.628-3.554
	c-3.587,10.304-9.357,18.791-17.316,25.403c-10.293,8.507-22.63,12.466-33.827,14.062
	C379.319,867.916,408.698,875.756,439.722,877.147L439.722,877.147z M439.722,877.147"/>
<path display="none" fill="#CEA248" d="M664.297,620.002c-3.555-39.541-24.561-74.536-49.482-103.43
	c4.457,19.538,4.848,44.991-4.019,77.4c-7.592,27.688-26.04,50.284-45.563,74.166c-26.923,32.947-54.756,66.995-55.465,117.671
	c-0.035,2.311,0.031,4.582,0.166,6.73C598.837,770.901,671.482,700.033,664.297,620.002L664.297,620.002z M664.297,620.002"/>
<path display="none" fill="#AC8030" d="M321.451,835.846c10.594,1.052,38.168,2.353,53.01-10.022
	c4.478-3.745,7.922-8.527,10.341-14.357c-67.052-16.2-121.868-57-149.601-109.987C246.088,756.449,277.666,804.061,321.451,835.846
	L321.451,835.846z M321.451,835.846"/>
<path display="none" fill="#CEA248" d="M234.522,620.002c-7.179,80.031,65.45,150.899,154.358,172.538
	c0.141-2.148,0.189-4.42,0.162-6.73c-0.702-50.676-28.532-84.724-55.457-117.671c-19.525-23.882-37.979-46.479-45.565-74.166
	c-8.854-32.409-8.49-57.862-4.02-77.4C259.069,545.466,238.07,580.461,234.522,620.002L234.522,620.002z M234.522,620.002"/>
<path display="none" fill="#025F9C" d="M556.253,467.706c-29.451-14.068-62.643-25.349-97.161-26.875v358.716
	c10.801-0.42,21.387-1.446,31.722-3.134c-0.308-3.494-0.465-7.08-0.409-10.867c0.785-57.426,32.154-95.823,59.829-129.665
	c18.191-22.286,35.651-43.215,41.873-67.016C614.864,501.726,556.837,467.981,556.253,467.706L556.253,467.706z M556.253,467.706"/>
<path display="none" fill="#CEA248" d="M159.014,545.031c-6.222,53.648,23.71,104.139,70.866,138.745
	c-24.119-64.903,4.719-117.327,3.59-119.096c-7.781-12.409-16.817-30.2-20.283-44.31c-8.015-32.597-6.972-58.04-1.992-77.447
	C185.532,471.141,163.601,505.58,159.014,545.031L159.014,545.031z M159.014,545.031"/>
<path display="none" fill="#AC8030" d="M643.109,797.138c4.796-0.111,8.759-0.476,11.163-0.743
	c43.667-31.77,75.164-79.302,86.012-134.175c-15.599,29.767-39.728,55.694-69.764,75.59
	C664.701,760.751,650.85,786.312,643.109,797.138z M590.679,772.251"/>
<path display="none" fill="#CEA248" d="M741.364,545.031c-4.577-39.451-26.499-73.891-52.182-102.107
	c4.987,19.407,6.021,44.85-1.976,77.447c-3.473,14.109-12.511,31.9-20.297,44.31c-1.124,1.769,27.705,54.192,3.596,119.096
	C717.651,649.17,747.606,598.68,741.364,545.031L741.364,545.031z M741.364,545.031"/>
<path display="none" fill="#CEA248" d="M399.208,1.505l8.8,27.304l28.708-0.016c1.199,0,2.188,0.946,2.188,2.143
	c0,0.7-0.372,1.333-0.89,1.738l-23.263,16.834l8.919,27.317c0.368,1.125-0.249,2.331-1.381,2.695
	c-0.731,0.235-1.531,0.062-2.073-0.405l-23.056-16.823l-23.21,16.932c-0.987,0.705-2.337,0.486-3-0.467
	c-0.431-0.608-0.529-1.325-0.322-1.932h-0.017l8.946-27.317l-23.26-16.834c-0.983-0.69-1.202-2.041-0.495-3.002
	c0.459-0.643,1.153-0.946,1.896-0.879l28.569,0.016l8.833-27.304c0.363-1.128,1.56-1.747,2.695-1.416
	C398.501,0.339,398.985,0.852,399.208,1.505L399.208,1.505z M404.38,31.636"/>
<path display="none" fill="#CEA248" d="M502.685,1.505l8.796,27.304l28.71-0.016c1.208,0,2.182,0.946,2.182,2.143
	c0,0.7-0.368,1.333-0.888,1.738l-23.261,16.834l8.916,27.317c0.368,1.125-0.245,2.331-1.369,2.695
	c-0.742,0.235-1.542,0.062-2.091-0.405l-23.058-16.823l-23.207,16.932c-0.972,0.705-2.33,0.486-2.999-0.467
	c-0.432-0.608-0.524-1.325-0.306-1.932h-0.038l8.96-27.317l-23.268-16.834c-0.986-0.69-1.195-2.041-0.495-3.002
	c0.468-0.643,1.166-0.946,1.904-0.879l28.571,0.016l8.823-27.304c0.377-1.128,1.567-1.747,2.7-1.416
	C501.972,0.339,502.465,0.852,502.685,1.505L502.685,1.505z M507.855,31.636"/>
<path display="none" fill="#A7A9AC" d="M257.159,388.389c0,5.425-0.744,8.856-2.231,10.296c-1.008,0.912-2.809,1.44-5.4,1.584
	c-0.097,0-0.528,0-1.296,0c-0.961,0.048-1.776,0.072-2.448,0.072h-14.472v-57.6h12.384c6.144,0,9.888,0.529,11.232,1.584
	c1.439,1.249,2.16,3.577,2.16,6.984v7.992c0,4.705-1.465,7.537-4.393,8.496l-3.456,1.152l3.168,1.152
	c1.729,0.625,2.928,1.681,3.601,3.168c0.767,1.681,1.151,4.536,1.151,8.568V388.389z M242.976,365.565
	c1.823,0,3.119-0.384,3.888-1.152c0.815-0.815,1.225-2.351,1.225-4.608v-4.176c0-3.024-0.385-4.943-1.152-5.76
	c-0.72-0.671-1.969-1.008-3.744-1.008l0.072-0.072c-0.385-0.047-0.696-0.072-0.937-0.072h-1.943v16.848H242.976z M243.336,394.005
	c1.631,0,2.831-0.407,3.6-1.224c0.768-0.767,1.152-1.991,1.152-3.672v-10.944c-0.097-3.503-1.584-5.256-4.465-5.256h-3.239v21.096
	H243.336z"/>
<path display="none" fill="#A7A9AC" d="M298.487,342.741l7.129,57.6h-8.208l-1.009-12.168h-8.64l-0.936,12.168h-8.064l7.272-57.6
	H298.487z M288.191,381.981h7.849l-3.528-27.576l-0.936-0.072L288.191,381.981z"/>
<path display="none" fill="#A7A9AC" d="M351.263,397.821c-0.72,1.008-1.728,1.656-3.023,1.944c-1.537,0.385-4.562,0.576-9.072,0.576
	c-5.616,0-9.024-0.695-10.225-2.088c-0.816-0.864-1.344-2.184-1.584-3.96c-0.097-0.72-0.144-2.855-0.144-6.408v-8.496h8.568v9.288
	c0,2.113,0.479,3.6,1.439,4.464c0.72,0.673,1.632,1.008,2.736,1.008c1.055,0,1.944-0.335,2.664-1.008
	c0.959-0.864,1.439-2.111,1.439-3.744v-8.28l-0.144-1.44c-0.097-2.351-1.368-4.2-3.816-5.544c-0.336-0.144-0.72-0.335-1.151-0.576
	c-0.049,0-0.097-0.023-0.145-0.072l-5.616-3.168c-2.64-1.487-4.296-2.855-4.968-4.104c-0.673-1.248-1.008-3.6-1.008-7.056v-7.128
	c0-3.888,0.6-6.383,1.8-7.488c1.296-1.199,5.28-1.8,11.952-1.8c3.647,0,6.167,0.169,7.56,0.504c1.104,0.288,1.992,0.889,2.664,1.8
	c1.009,1.344,1.513,4.152,1.513,8.424v6.048h-8.641v-4.68c0-1.824-0.168-3.071-0.504-3.744l-0.144-0.288
	c-0.864-1.343-2.017-2.016-3.456-2.016c-1.729,0-2.952,0.745-3.672,2.232v0.072l-0.072,0.072c-0.288,0.768-0.432,1.992-0.432,3.672
	v4.464c0,2.448,1.439,4.392,4.319,5.832l0.072-0.072c0,0.048,0.239,0.216,0.72,0.504l4.608,2.52c3.312,1.825,5.352,3.384,6.12,4.68
	c0.72,1.249,1.08,3.744,1.08,7.488v9.792c0,3.936,0,5.904,0,5.904S352.223,396.573,351.263,397.821z"/>
<path display="none" fill="#A7A9AC" d="M399.719,342.741l-6.48,26.928l7.776,30.672h-8.712l-7.92-27.648h-1.008v27.648h-9.072v-57.6
	h9.072v24.984h0.792l6.983-24.984H399.719z"/>
<path display="none" fill="#A7A9AC" d="M438.886,342.741v5.904h-7.2v16.704h7.2v6.12h-7.2v22.608h7.2v6.264h-16.272v-57.6H438.886z"
	/>
<path display="none" fill="#A7A9AC" d="M482.444,342.741v5.976h-6.336v51.624h-9.072v-51.624h-6.552v-5.976H482.444z"/>
<path display="none" fill="#A7A9AC" d="M529.893,388.389c0,5.425-0.744,8.856-2.231,10.296c-1.008,0.912-2.809,1.44-5.4,1.584
	c-0.097,0-0.528,0-1.296,0c-0.961,0.048-1.776,0.072-2.448,0.072h-14.472v-57.6h12.384c6.144,0,9.888,0.529,11.232,1.584
	c1.439,1.249,2.16,3.577,2.16,6.984v7.992c0,4.705-1.465,7.537-4.393,8.496l-3.456,1.152l3.168,1.152
	c1.729,0.625,2.928,1.681,3.601,3.168c0.767,1.681,1.151,4.536,1.151,8.568V388.389z M515.709,365.565
	c1.823,0,3.119-0.384,3.888-1.152c0.815-0.815,1.225-2.351,1.225-4.608v-4.176c0-3.024-0.385-4.943-1.152-5.76
	c-0.72-0.671-1.969-1.008-3.744-1.008l0.072-0.072c-0.385-0.047-0.696-0.072-0.937-0.072h-1.943v16.848H515.709z M516.069,394.005
	c1.631,0,2.831-0.407,3.6-1.224c0.768-0.767,1.152-1.991,1.152-3.672v-10.944c-0.097-3.503-1.584-5.256-4.465-5.256h-3.239v21.096
	H516.069z"/>
<path display="none" fill="#A7A9AC" d="M571.22,342.741l7.129,57.6h-8.208l-1.009-12.168h-8.64l-0.936,12.168h-8.064l7.272-57.6
	H571.22z M560.924,381.981h7.849l-3.528-27.576l-0.936-0.072L560.924,381.981z"/>
<path display="none" fill="#A7A9AC" d="M608.948,342.741v51.264h7.92v6.336h-16.92v-57.6H608.948z"/>
<path display="none" fill="#A7A9AC" d="M647.467,342.741v51.264h7.92v6.336h-16.92v-57.6H647.467z"/>
<path display="none" fill="#A7A9AC" d="M443.847,908.754v1.318h-1.607v3.727h1.607v1.367h-1.607v5.046h1.607v1.397h-3.632v-12.855
	H443.847z"/>
<path display="none" fill="#A7A9AC" d="M450.82,921.048c-0.161,0.225-0.386,0.369-0.675,0.434c-0.343,0.086-1.019,0.128-2.025,0.128
	c-1.253,0-2.015-0.155-2.281-0.466c-0.182-0.192-0.301-0.487-0.354-0.883c-0.022-0.161-0.033-0.639-0.033-1.431v-1.896h1.913v2.072
	c0,0.471,0.106,0.803,0.321,0.996c0.16,0.149,0.364,0.225,0.61,0.225c0.235,0,0.434-0.075,0.595-0.225
	c0.214-0.193,0.321-0.472,0.321-0.836v-1.848l-0.031-0.321c-0.022-0.525-0.306-0.938-0.853-1.237
	c-0.074-0.032-0.161-0.075-0.257-0.13c-0.011,0-0.021-0.004-0.032-0.015l-1.253-0.707c-0.589-0.332-0.958-0.637-1.108-0.916
	c-0.15-0.278-0.226-0.804-0.226-1.574v-1.592c0-0.867,0.134-1.425,0.402-1.671c0.289-0.269,1.178-0.402,2.667-0.402
	c0.813,0,1.376,0.038,1.687,0.112c0.247,0.063,0.445,0.199,0.595,0.402c0.226,0.3,0.337,0.927,0.337,1.881v1.35h-1.928v-1.045
	c0-0.408-0.037-0.686-0.112-0.836l-0.032-0.063c-0.192-0.3-0.45-0.451-0.771-0.451c-0.385,0-0.659,0.166-0.819,0.498v0.017
	l-0.016,0.017c-0.064,0.17-0.096,0.444-0.096,0.819v0.996c0,0.547,0.321,0.979,0.963,1.302l0.017-0.017
	c0,0.011,0.053,0.048,0.16,0.112l1.029,0.562c0.738,0.408,1.194,0.756,1.365,1.045c0.16,0.279,0.24,0.836,0.24,1.672v2.186
	c0,0.878,0,1.316,0,1.316S451.034,920.769,450.82,921.048z"/>
<path display="none" fill="#A7A9AC" d="M457.649,908.754v1.333h-1.414v11.522h-2.024v-11.522h-1.463v-1.333H457.649z"/>
<path display="none" fill="#E6E7E8" d="M267.255,289c0,9.719-1.334,15.867-3.999,18.447c-1.806,1.634-5.03,2.58-9.675,2.838
	c-0.173,0-0.947,0-2.321,0c-1.722,0.086-3.183,0.129-4.387,0.129h-25.929v-103.2h22.188c11.007,0,17.715,0.948,20.123,2.838
	c2.58,2.237,3.87,6.408,3.87,12.513v14.319c0,8.429-2.624,13.502-7.868,15.222l-6.192,2.064l5.676,2.064
	c3.096,1.119,5.245,3.012,6.45,5.676c1.375,3.011,2.063,8.127,2.063,15.351V289z M241.843,248.107c3.267,0,5.589-0.687,6.966-2.064
	c1.461-1.461,2.192-4.212,2.192-8.256v-7.482c0-5.418-0.689-8.857-2.063-10.32c-1.29-1.203-3.527-1.806-6.708-1.806l0.129-0.129
	c-0.689-0.085-1.248-0.129-1.677-0.129h-3.483v30.186H241.843z M242.487,299.062c2.923,0,5.073-0.729,6.45-2.193
	c1.374-1.375,2.063-3.568,2.063-6.579v-19.608c-0.173-6.277-2.838-9.417-7.998-9.417h-5.805v37.797H242.487z"/>
<path display="none" fill="#E6E7E8" d="M341.301,207.214l12.771,103.2h-14.706l-1.806-21.801h-15.48l-1.677,21.801h-14.448
	l13.029-103.2H341.301z M322.854,277.52h14.061l-6.321-49.407l-1.677-0.129L322.854,277.52z"/>
<path display="none" fill="#E6E7E8" d="M438.823,310.415h-15.479v-29.541c0-5.934-0.388-9.631-1.161-11.094
	c-1.205-2.149-4.043-3.268-8.514-3.354h-5.16v43.989h-15.738v-103.2h20.382c0.343,0,0.601,0,0.774,0l8.256,0.258
	c7.138,0.086,11.694,1.205,13.674,3.354c1.978,2.15,2.967,6.923,2.967,14.319v11.61c0,7.482-0.773,12.729-2.321,15.738
	c-1.119,2.15-3.097,3.612-5.935,4.386l-5.547,1.419v2.193l5.418,1.806c2.923,1.032,5.073,2.753,6.45,5.16
	c1.29,2.409,1.935,8.385,1.935,17.931V310.415z M423.344,229.661l-0.129-2.838c0-3.181-0.774-5.46-2.322-6.837
	c-1.377-1.203-3.354-1.806-5.934-1.806h-6.45v35.217h5.547c3.096,0,5.373-0.645,6.837-1.935c1.633-1.548,2.451-4.773,2.451-9.675
	V229.661z"/>
<path display="none" fill="#E6E7E8" d="M493.647,207.214v91.848h14.19v11.352h-30.315v-103.2H493.647z"/>
<path display="none" fill="#E6E7E8" d="M575.69,207.214v10.578h-12.9v29.928h12.9v10.965h-12.9v40.506h12.9v11.223h-29.154v-103.2
	H575.69z"/>
<path display="none" fill="#E6E7E8" d="M657.475,305.899c-1.29,1.806-3.096,2.967-5.418,3.483
	c-2.753,0.689-8.171,1.032-16.254,1.032c-10.062,0-16.169-1.246-18.318-3.741c-1.463-1.548-2.408-3.912-2.838-7.095
	c-0.173-1.29-0.258-5.116-0.258-11.481v-15.222h15.351v16.641c0,3.785,0.859,6.45,2.58,7.998c1.29,1.205,2.923,1.806,4.902,1.806
	c1.891,0,3.483-0.601,4.773-1.806c1.719-1.548,2.579-3.783,2.579-6.708v-14.835l-0.258-2.58c-0.173-4.213-2.451-7.524-6.837-9.933
	c-0.603-0.258-1.29-0.601-2.063-1.032c-0.087,0-0.174-0.042-0.259-0.129l-10.062-5.676c-4.73-2.665-7.697-5.116-8.901-7.353
	c-1.205-2.235-1.806-6.45-1.806-12.642v-12.771c0-6.966,1.074-11.437,3.225-13.416c2.322-2.148,9.46-3.225,21.414-3.225
	c6.535,0,11.05,0.303,13.545,0.903c1.978,0.516,3.568,1.592,4.773,3.225c1.806,2.409,2.709,7.439,2.709,15.093v10.836h-15.48v-8.385
	c0-3.268-0.302-5.503-0.902-6.708l-0.258-0.516c-1.549-2.407-3.612-3.612-6.192-3.612c-3.096,0-5.289,1.334-6.579,3.999v0.129
	l-0.129,0.129c-0.516,1.376-0.774,3.57-0.774,6.579v7.998c0,4.386,2.58,7.869,7.74,10.449l0.129-0.129
	c0,0.086,0.43,0.387,1.29,0.903l8.256,4.515c5.935,3.27,9.589,6.063,10.966,8.385c1.29,2.238,1.935,6.708,1.935,13.416v17.544
	c0,7.052,0,10.578,0,10.578S659.194,303.664,657.475,305.899z"/>
<rect x="217.449" y="178.714" display="none" fill="none" width="522" height="43"/>
<g display="none">
</g>
<path display="none" fill="#D1D3D4" d="M440.253,923.772c0.331-0.14,0.771-0.213,1.323-0.213c0.275-0.014,0.546,0.053,0.815,0.203
	c0.536,0.28,0.804,0.808,0.804,1.575c-0.013,0.445-0.066,0.821-0.158,1.125l-1.525,4.456h1.091l0.52-0.361v1.473h-3.018l2.002-6.203
	c0.069-0.197,0.084-0.396,0.041-0.593c-0.091-0.397-0.445-0.593-1.059-0.593c-0.311,0.014-0.59,0.188-0.835,0.518V923.772z"/>
<path display="none" fill="#D1D3D4" d="M446.192,923.56c0.755,0,1.277,0.371,1.566,1.112c0.24,0.622,0.36,1.662,0.36,3.123
	c0,1.404-0.099,2.402-0.296,2.985c-0.282,0.834-0.826,1.25-1.63,1.25c-0.762,0-1.288-0.37-1.579-1.111
	c-0.238-0.622-0.358-1.662-0.358-3.124c0-1.439,0.12-2.475,0.358-3.103C444.911,923.94,445.437,923.56,446.192,923.56z
	 M446.192,931.099c0.338,0,0.568-0.318,0.688-0.953c0.085-0.446,0.127-1.228,0.127-2.351c0-1.072-0.042-1.842-0.127-2.308
	c-0.12-0.664-0.35-0.994-0.688-0.994c-0.325,0-0.547,0.29-0.666,0.867c-0.1,0.48-0.149,1.292-0.149,2.435
	c0,1.102,0.039,1.879,0.116,2.33C445.613,930.774,445.846,931.099,446.192,931.099z"/>
<path display="none" fill="#D1D3D4" d="M451.114,923.56c0.756,0,1.277,0.371,1.567,1.112c0.239,0.622,0.36,1.662,0.36,3.123
	c0,1.404-0.099,2.402-0.298,2.985c-0.281,0.834-0.824,1.25-1.63,1.25c-0.762,0-1.288-0.37-1.577-1.111
	c-0.24-0.622-0.36-1.662-0.36-3.124c0-1.439,0.12-2.475,0.36-3.103C449.834,923.94,450.359,923.56,451.114,923.56z M451.114,931.099
	c0.338,0,0.568-0.318,0.688-0.953c0.087-0.446,0.128-1.228,0.128-2.351c0-1.072-0.041-1.842-0.128-2.308
	c-0.119-0.664-0.35-0.994-0.688-0.994c-0.324,0-0.546,0.29-0.666,0.867c-0.1,0.48-0.149,1.292-0.149,2.435
	c0,1.102,0.039,1.879,0.116,2.33C450.535,930.774,450.77,931.099,451.114,931.099z"/>
<path display="none" fill="#D1D3D4" d="M457.838,929.648c0.007,0.396-0.065,0.789-0.211,1.186c-0.304,0.798-0.859,1.196-1.663,1.196
	c-0.303,0.013-0.613-0.071-0.921-0.255c-0.622-0.38-0.933-1.09-0.933-2.127c-0.007-0.247,0.033-0.527,0.115-0.836
	c0.171-0.607,0.493-1.049,0.965-1.324c-0.164-0.07-0.323-0.204-0.487-0.402c-0.332-0.388-0.496-0.889-0.496-1.502
	c0.006-0.339,0.084-0.678,0.233-1.018c0.295-0.671,0.805-1.007,1.523-1.007c0.294-0.014,0.59,0.061,0.878,0.224
	c0.58,0.323,0.869,0.925,0.869,1.801c0.004,0.225-0.03,0.477-0.106,0.75c-0.155,0.543-0.435,0.92-0.837,1.133
	c0.178,0.112,0.354,0.287,0.528,0.519C457.656,928.465,457.838,929.021,457.838,929.648z M455.232,926.229
	c0,0.438,0.123,0.737,0.37,0.901c0.129,0.075,0.252,0.112,0.37,0.104c0.298,0,0.505-0.173,0.626-0.518
	c0.057-0.17,0.084-0.344,0.084-0.519v-0.892c0-0.416-0.115-0.708-0.349-0.875c-0.122-0.087-0.238-0.125-0.361-0.118
	c-0.287,0-0.496,0.152-0.624,0.455c-0.07,0.155-0.108,0.311-0.116,0.467V926.229z M456.768,929.034c0-0.452-0.134-0.763-0.402-0.934
	c-0.125-0.082-0.256-0.12-0.393-0.115c-0.283,0-0.488,0.148-0.624,0.444c-0.063,0.148-0.1,0.293-0.116,0.436v1.566
	c0,0.331,0.123,0.574,0.37,0.731c0.129,0.068,0.252,0.112,0.37,0.126c0.318,0,0.546-0.179,0.68-0.541
	c0.069-0.175,0.107-0.353,0.115-0.528V929.034z"/>
<path display="none" fill="#414142" d="M873.429,548.254c0,214.78-189.758,423.896-423.891,423.896
	c-234.084,0-423.84-189.755-423.84-423.896c0-234.077,189.756-423.827,423.84-423.827
	C683.671,124.427,873.429,314.177,873.429,548.254z"/>
<path display="none" fill="#FEDD10" d="M449.538,978.7c-58.067,0-114.45-11.373-167.52-33.826
	c-51.266-21.705-97.289-52.722-136.796-92.249c-39.52-39.525-70.584-85.558-92.242-136.81
	c-22.447-53.057-33.819-109.438-33.819-167.562c0-58.062,11.372-114.443,33.819-167.5c21.658-51.267,52.723-97.283,92.242-136.81
	c39.507-39.52,85.53-70.536,136.796-92.249c53.069-22.445,109.452-33.819,167.52-33.819c58.117,0,114.479,11.374,167.563,33.819
	c51.253,21.712,97.282,52.729,136.801,92.249c39.521,39.527,70.565,85.543,92.236,136.81c22.447,53.057,33.82,109.438,33.82,167.5
	c0,106.192-45.922,214.477-125.988,297.062c-39.995,41.232-85.971,73.787-136.728,96.757
	C563.582,966.382,507.172,978.7,449.538,978.7z M449.538,130.936c-230.111,0-417.324,187.24-417.324,417.318
	c0,230.146,187.213,417.366,417.324,417.366c222.323,0,417.354-194.992,417.354-417.366
	C866.892,318.176,679.68,130.936,449.538,130.936z"/>
<path display="none" fill="#0B8D80" d="M375.562,331.059c-135.729,25.814-236.609,115.539-240.909,223.419
	c-0.395-6.633-0.633-13.249-0.633-19.973c0-133.216,82.285-247.177,198.802-293.915c12.027,12.617,42.786,40.494,42.786,86.096
	C375.608,328.155,375.581,329.609,375.562,331.059z"/>
<path display="none" fill="#0B8D80" d="M644.567,694.034c6.096-45.927,10.823-59.231-3.692-99.09
	c-14.484-39.881-70.082-103.922-79.422-118.39c-9.326-14.502-20.869-35.06-28.283-53.051c-7.291-17.67-15.265-47.47-15.508-94.371
	c141.571,22.862,246.478,114.314,249.415,225.984c-7.439,115.832-73.441,219.877-176.055,263.496
	C620.448,794.707,639.397,732.822,644.567,694.034z"/>
<path display="none" fill="#FEDD10" d="M124.47,561.581c-0.476-7.226-0.714-14.301-0.714-21.035
	c0-43.594,8.549-85.914,25.412-125.769c16.264-38.458,39.567-73.032,69.238-102.697c29.671-29.691,64.238-52.968,102.691-69.245
	c39.866-16.855,82.182-25.372,125.782-25.372c41.528,0,81.959,7.763,120.2,23.095l8.958,3.598l-6.654,6.958
	c-0.909,0.971-1.918,2.019-3.039,3.142c-13.25,13.625-37.928,38.916-37.928,78.462c0,1.476,0,2.903,0.028,4.298l0.079,8l-7.85-1.51
	c-23.005-4.367-46.811-6.794-70.774-7.292l-2.843-0.047l-1.156,0.021c-21.801,0.189-43.486,2.019-64.457,5.428l-0.211,0.041
	C240.52,364.45,140.298,454.76,137.496,561.321L124.47,561.581z M333.674,251.896c-99.337,39.117-173.799,128.089-192.361,235.928
	c34.928-77.971,121.239-138.693,232.534-158.193c-1.259-37.759-24.984-62.109-37.874-75.375
	C335.157,253.414,334.387,252.631,333.674,251.896z M456.559,323.319c19.868,0.685,39.609,2.707,58.852,5.983
	c1.252-39.002,23.73-65.481,37.67-80.107c-30.955-11.311-63.354-17.535-96.521-18.527V323.319z M347.108,247.006
	c13.461,13.868,37.772,40.5,39.704,80.564c17.963-2.566,36.323-4.042,54.776-4.382v-0.108c0.626,0,1.257,0,1.911,0.02v-92.568
	C409.809,230.879,377.41,236.653,347.108,247.006z"/>
<path display="none" fill="#0B8D80" d="M253.491,700.055c-6.115-45.914-10.816-59.219,3.693-99.085
	c14.488-39.865,70.075-103.894,79.42-118.389c9.326-14.476,20.855-35.05,28.282-53.028c7.293-17.667,15.264-47.478,15.537-94.4
	C238.86,358.042,133.918,449.482,130.979,561.15c7.442,115.832,73.456,219.856,176.064,263.519
	C277.611,800.726,258.634,738.882,253.491,700.055z"/>
<path display="none" fill="#FEDD10" d="M347.108,848.761l-42.635-18.112c-50.92-21.659-94.746-58.695-126.613-107.092
	c-31.161-47.307-49.614-103.31-53.389-161.976l-0.042-0.308v-0.285c2.974-112.996,107.819-208.504,254.934-232.283l7.618-1.238
	l-0.047,7.74c-0.258,48.668-8.835,79.523-16.012,96.821c-7.952,19.256-20.1,40.566-28.84,54.109
	c-2.524,3.904-7.769,10.654-15.026,19.963c-19.943,25.577-53.287,68.376-63.755,97.114c-12.142,33.439-10.339,46.218-5.497,80.347
	c0.666,4.659,1.4,9.956,2.163,15.623c5.693,42.826,25.576,99.568,51.206,120.396L347.108,848.761z M137.496,561.021
	c6.925,105.778,61.422,196.543,144.604,243.982c-19.44-31.119-31.29-75.583-35.093-104.079c-0.727-5.604-1.455-10.666-2.148-15.527
	c-4.87-34.419-7.074-50.138,6.169-86.646c11.17-30.681,45.322-74.501,65.701-100.669c6.802-8.705,12.169-15.61,14.38-19.059
	c8.407-13.004,20.127-33.532,27.751-51.96c6.347-15.324,13.876-42.104,14.884-84.148
	C237.099,367.66,140.428,456.509,137.496,561.021z"/>
<path display="none" fill="#FEDD10" d="M456.559,336.283l-6.659-0.069c-0.931,0-1.871-0.015-2.801-0.015l-1.32-0.012v-6.482h-2.279
	v-0.096h2.279v-6.482h1.408c0.952-0.027,1.883-0.047,2.843-0.047h6.529V336.283z"/>
<path display="none" fill="#0B8D80" d="M521.933,337.091c135.695,25.816,236.595,115.567,240.894,223.446
	c0.41-6.637,0.646-13.274,0.646-19.991c0-133.222-82.296-247.177-198.808-293.928c-12.019,12.618-42.777,40.499-42.777,86.101
	C521.887,334.214,521.906,335.664,521.933,337.091z"/>
<path display="none" fill="#FEDD10" d="M769.337,560.905l-13.025-0.123c-4.081-102.301-100.949-191.646-235.638-217.276
	l-5.249-1.007l-0.05-5.339c0-1.469,0-2.945,0-4.44c0-44.867,28.127-73.693,41.61-87.563c1.061-1.102,2.031-2.114,2.911-3.035
	l3.08-3.203l4.103,1.64c59.212,23.766,109.73,64.163,146.066,116.884c37.193,53.989,56.838,117.303,56.838,183.103
	C769.983,547.146,769.78,553.811,769.337,560.905z M528.416,331.717c65.374,13.347,124.716,42.167,167.67,81.517
	c22.202,20.332,39.766,43.084,52.191,67.537c1.661,3.266,3.198,6.532,4.675,9.856c-16.863-104.995-86.304-194.416-186.678-236.282
	C553.12,267.847,528.838,292.844,528.416,331.717z"/>
<path display="none" fill="#FEDD10" d="M446.879,863.69c-50.042,0-98.091-11.187-142.699-33.178l-0.68-0.342l-0.571-0.468
	c-31.896-25.903-50.9-91.21-55.921-128.778c-0.727-5.604-1.455-10.666-2.148-15.527c-4.87-34.419-7.074-50.138,6.169-86.646
	c11.17-30.681,45.322-74.501,65.701-100.669c6.802-8.705,12.169-15.61,14.38-19.059c8.407-13.011,20.127-33.532,27.751-51.96
	c6.714-16.23,14.774-45.383,15.012-91.942l0.042-5.511l5.448-0.904c20.876-3.354,42.452-5.246,64.136-5.557v-0.117l6.638,0.156
	c0.008,0,0.021,0,0.062,0l6.359,0.102v0.029c19.834,0.685,39.526,2.665,58.736,5.965v-0.104l7.85,1.498
	c0.095,0.022,0.164,0.04,0.265,0.047l4.985,0.992c65.354,13.327,124.715,42.154,167.691,81.517
	c22.202,20.332,39.766,43.084,52.191,67.537c12.896,25.4,19.978,52.133,21.06,79.481l0.027,0.308l-0.027,0.354
	c-5.088,81.964-40.908,158.229-100.819,214.753C608.36,832.404,529.626,863.69,446.879,863.69z M310.601,819.112
	c42.656,20.9,88.496,31.515,136.278,31.515c44.132,0,86.21-9.313,124.361-26.108l-0.216-0.924
	c15.602-3.756,32.038-20.782,46.294-47.929c12.271-23.425,21.867-52.722,25.033-76.481c0.754-5.667,1.493-10.964,2.168-15.623
	c2.122-15.008,3.687-25.884,3.687-36.337c0-13.312-2.671-26.087-9.183-44.01c-10.488-28.738-43.817-71.524-63.748-97.114
	c-7.245-9.31-12.516-16.059-15.033-19.963c-8.72-13.52-20.901-34.817-28.867-54.109c-6.75-16.367-14.862-44.989-15.909-89.46
	c-19.229-3.402-38.996-5.477-58.907-6.191V558.09h-13.06V336.214c-19.121,0.28-38.132,1.823-56.633,4.53
	c-0.857,45.515-9.047,74.654-15.945,91.285c-7.952,19.256-20.1,40.566-28.84,54.109c-2.524,3.904-7.769,10.654-15.026,19.963
	c-19.943,25.577-53.287,68.376-63.755,97.114c-12.142,33.439-10.339,46.218-5.497,80.347c0.666,4.659,1.4,9.956,2.163,15.623
	C265.633,741.704,285.236,797.951,310.601,819.112z M661.267,647.225c0,11.365-1.627,22.622-3.814,38.173
	c-0.69,4.861-1.402,9.924-2.165,15.527c-3.324,25.146-13.462,56.097-26.398,80.796c-2.761,5.292-5.959,10.834-9.579,16.393
	c77.57-52.063,130.697-138.306,136.966-237.685c-4.154-100.144-97.281-187.782-227.677-215.336
	c1.278,40.859,8.658,66.978,14.863,81.97c7.626,18.447,19.317,38.957,27.739,51.96c2.238,3.449,7.598,10.354,14.387,19.059
	c20.398,26.188,54.551,69.988,65.692,100.669C658.354,618.228,661.267,632.266,661.267,647.225z"/>
<polygon display="none" fill="#FEDD10" points="456.24,639.129 450.029,647.135 443.649,639.129 443.649,527.875 456.24,527.875 "/>
<path display="none" fill="#F2F2F2" d="M221.127,213.371c3.149,0.664,6.067,1.285,8.72,1.862l10.762,16.631l-0.089,0.15l0.068,0.056
	l-0.844,3.822l3.81,0.781l10.932,16.673l-1.858,8.726l-18.324,11.841l-3.693-5.706l3.578-2.333l-24.086-37.254l-3.571,2.32
	l-3.72-5.713L221.127,213.371z M225.964,240.721l8.652-5.591l-10.204-15.747l-8.653,5.577L225.964,240.721z M239.832,262.202
	l8.66-5.58l-10.183-15.764l-8.659,5.583L239.832,262.202z"/>
<path display="none" fill="#F2F2F2" d="M266.844,188.316l29.745,42.521l3.734-1.775l2.917,6.163l-13.086,6.226l-2.925-6.157
	l3.183-1.516l-5.945-8.477l-6.414,3.061l2.858,9.923l3.231-1.496l2.918,6.136l-13.088,6.238l-2.911-6.157l3.713-1.775
	c-9.4-32.771-14.148-49.416-14.284-49.893L266.844,188.316z M276.094,221.737l4.449-2.116l-8.462-12.204L276.094,221.737z"/>
<path display="none" fill="#F2F2F2" d="M317.682,168.117c4.816,2.407,7.488,3.747,7.966,4.006l1.51,4.537l-6.462,2.149l-1.367-4.055
	l-9.748,3.259l5.931,17.821l10.224-3.407c2.885,1.408,5.55,2.754,8.006,3.97l6.251,18.789l-3.979,7.951l-10.672,3.584l-7.986-3.999
	l-1.503-4.551l6.387-2.115l1.368,4.061l9.767-3.277l-5.931-17.815l-10.203,3.4c-2.857-1.427-5.523-2.775-7.966-3.992l-6.265-18.752
	c1.449-2.906,2.796-5.551,4.006-8.001L317.682,168.117z"/>
<path display="none" fill="#F2F2F2" d="M388.158,203.302l3.905-0.762l1.34,6.681l-15.087,2.972l-1.299-6.686l4.599-0.925
	l-13.122-19.802l-2.931,6.464l3.122,15.908l4.177-0.837l1.319,6.702l-15.066,2.951l-1.32-6.666l4.204-0.843l-8.57-43.532
	l-4.183,0.85l-1.313-6.715l15.067-2.97l1.285,6.691l-4.177,0.844l3.545,17.97l9.401-20.541l-4.606,0.896l-1.353-6.671l15.093-2.965
	l1.326,6.691l-3.523,0.668l-8.501,18.576L388.158,203.302z"/>
<path display="none" fill="#F2F2F2" d="M435.098,147.303l0.667,11.073l-6.789,0.422l-0.237-4.267l-10.312,0.646l1.19,18.727
	l12.788-0.783l0.434,6.796l-12.821,0.781l1.19,18.748l10.258-0.628l-0.259-4.277l6.802-0.429l0.674,11.094l-28.072,1.734
	l-0.409-6.815l4.251-0.264l-2.749-44.289l-4.277,0.28l-0.401-6.811L435.098,147.303z"/>
<path display="none" fill="#F2F2F2" d="M491.985,149.104l-0.716,11.067l-6.795-0.449l0.265-4.245l-6.013-0.435l-2.918,44.282
	l4.267,0.285l-0.464,6.809l-15.277-1.02l0.441-6.818l4.075,0.288l2.945-44.275l-5.789-0.375l-0.285,4.246l-6.823-0.449l0.764-11.06
	L491.985,149.104z"/>
<path display="none" fill="#F2F2F2" d="M537.94,156.409c1.767,2.674,3.421,5.143,4.938,7.402l-3.845,19.426l-0.143,0.049v0.059
	l-3.257,2.156l2.19,3.245l-3.758,19.59l-7.42,4.944l-21.398-4.23l1.319-6.673l4.231,0.829l8.589-43.533l-4.182-0.822l1.307-6.708
	L537.94,156.409z M517.382,204.514l10.088,2.02l3.674-18.456l-10.094-1.992L517.382,204.514z M522.362,179.388l10.096,2.012
	l3.651-18.406l-10.082-1.993L522.362,179.388z"/>
<path display="none" fill="#F2F2F2" d="M588.132,170.156l-8.178,51.268l3.92,1.299l-2.185,6.462l-13.747-4.611l2.177-6.457
	l3.381,1.129l1.611-10.242l-6.747-2.267l-4.821,9.149l3.345,1.149l-2.156,6.428l-13.752-4.585l2.162-6.482l3.918,1.333
	c16.033-30.119,24.175-45.382,24.414-45.79L588.132,170.156z M571.567,200.609l4.667,1.565l2.387-14.631L571.567,200.609z"/>
<path display="none" fill="#F2F2F2" d="M636.929,190.168l-2.966,6.108l-3.919-1.898L610.7,234.312l9.263,4.49l1.872-3.849
	l6.128,2.978l-4.802,9.972l-25.35-12.249l2.956-6.157l3.864,1.884l19.332-39.927l-3.815-1.877l2.938-6.122L636.929,190.168z"/>
<path display="none" fill="#F2F2F2" d="M681.78,215.255l-3.685,5.746l-3.667-2.366l-24.004,37.329l8.68,5.556l2.292-3.577
	l5.739,3.667l-5.999,9.338l-23.658-15.223l3.681-5.748l3.599,2.298l24.012-37.289l-3.598-2.326l3.68-5.721L681.78,215.255z"/>
<path display="none" fill="#FFFFFF" d="M325.518,866.175l20.543,7.919l-2.489,6.48l-13.673-5.244l-5.441,14.135l11.909,4.55
	l-2.502,6.53l-11.91-4.578l-5.441,14.129l13.671,5.249l-2.652,6.913l-20.556-7.884L325.518,866.175z"/>
<path display="none" fill="#FFFFFF" d="M381.744,899.205l-7.183-1.769l0.401-1.599c0.408-1.654,0.367-3.203-0.11-4.564
	c-0.475-1.4-1.632-2.312-3.475-2.768c-0.973-0.219-1.823-0.258-2.545-0.035c-0.735,0.23-1.347,0.578-1.85,1.076
	c-0.497,0.503-0.905,1.148-1.224,1.862c-0.354,0.743-0.606,1.538-0.83,2.381c-0.224,0.986-0.409,1.852-0.518,2.53
	c-0.088,0.688-0.046,1.326,0.109,1.877c0.185,0.573,0.477,1.091,0.925,1.613c0.436,0.517,1.089,1.082,1.939,1.686l4.945,3.52
	c1.421,1.007,2.537,2.039,3.339,3.107c0.81,1.061,1.286,2.21,1.585,3.448c0.272,1.259,0.327,2.611,0.156,4.081
	c-0.189,1.463-0.496,3.109-0.931,4.953c-0.518,2.102-1.217,4.024-2.061,5.726c-0.919,1.689-1.973,3.067-3.237,4.129
	c-1.286,1.061-2.803,1.774-4.599,2.129c-1.783,0.328-3.802,0.26-6.143-0.325c-1.721-0.437-3.252-1.128-4.618-2.122
	c-1.334-0.968-2.395-2.121-3.245-3.442c-0.817-1.332-1.387-2.769-1.645-4.406c-0.279-1.581-0.191-3.253,0.196-4.953l0.674-2.659
	l7.19,1.754l-0.571,2.279c-0.306,1.319-0.225,2.591,0.285,3.816c0.525,1.245,1.701,2.1,3.531,2.55
	c1.211,0.287,2.231,0.366,2.973,0.189c0.782-0.189,1.395-0.562,1.917-1.1c0.498-0.56,0.913-1.284,1.253-2.199
	c0.346-0.931,0.605-1.938,0.911-3.06c0.306-1.332,0.544-2.408,0.639-3.277c0.123-0.846,0.082-1.599-0.094-2.191
	c-0.171-0.585-0.477-1.109-0.953-1.578c-0.449-0.462-1.081-1.001-1.897-1.604l-4.612-3.353c-2.78-2.044-4.427-4.227-4.958-6.572
	c-0.571-2.346-0.449-5.095,0.333-8.243c0.449-1.871,1.144-3.606,2.088-5.178c0.953-1.53,2.062-2.795,3.361-3.775
	c1.32-0.974,2.816-1.642,4.55-1.973c1.742-0.325,3.633-0.272,5.701,0.218c1.775,0.45,3.333,1.197,4.653,2.211
	c1.307,1.02,2.367,2.197,3.155,3.544c0.783,1.332,1.299,2.734,1.538,4.218c0.226,1.466,0.171,2.925-0.169,4.325L381.744,899.205z"/>
<path display="none" fill="#FFFFFF" d="M406.584,895.185l-8.468-1.054l0.837-6.884l24.317,2.946l-0.823,6.91l-8.51-1.048
	l-5.366,44.342l-7.353-0.87L406.584,895.185z"/>
<path display="none" fill="#FFFFFF" d="M430.446,934.793l7.393,0.313l-0.312,7.38l-7.394-0.304L430.446,934.793z"/>
<path display="none" fill="#FFFFFF" d="M460.301,935.746l11.849-25.89c0.631-1.319,0.931-2.434,0.972-3.359
	c0.028-0.957,0.028-2.149-0.066-3.55c-0.021-0.621-0.104-1.286-0.172-1.967c-0.103-0.693-0.278-1.299-0.529-1.838
	c-0.227-0.493-0.627-0.938-1.123-1.284c-0.476-0.326-1.211-0.454-2.127-0.408c-1.122,0.067-1.968,0.436-2.581,1.102
	c-0.625,0.668-0.884,1.592-0.823,2.817l0.254,4.189l-7.389,0.435l-0.238-4.039c-0.087-1.573,0.123-3.026,0.621-4.422
	c0.496-1.381,1.209-2.612,2.134-3.687c0.926-1.062,2.081-1.939,3.402-2.626c1.285-0.674,2.729-1.049,4.271-1.15
	c1.911-0.088,3.587,0.151,5.033,0.784c1.376,0.597,2.605,1.476,3.544,2.624c0.98,1.149,1.683,2.512,2.191,4.033
	c0.517,1.518,0.824,3.13,0.892,4.864c0.093,1.281,0.115,2.318,0.115,3.184c0,0.822-0.022,1.64-0.137,2.421
	c-0.094,0.79-0.284,1.592-0.592,2.361c-0.278,0.802-0.679,1.761-1.189,2.91l-9.638,21.542l13.325-0.774l0.434,7.38l-22.005,1.277
	L460.301,935.746z"/>
<path display="none" fill="#FFFFFF" d="M498.467,898.335c-0.314-1.692-0.272-3.271,0.069-4.734c0.331-1.409,0.938-2.716,1.761-3.844
	c0.802-1.163,1.849-2.081,3.06-2.808c1.212-0.723,2.537-1.245,3.967-1.484c1.441-0.258,2.843-0.258,4.237,0
	c1.414,0.261,2.699,0.783,3.85,1.56c1.178,0.76,2.203,1.739,3.021,2.978c0.828,1.218,1.401,2.688,1.72,4.421l5.402,29.808
	c0.326,1.692,0.326,3.271-0.055,4.714c-0.334,1.428-0.939,2.739-1.762,3.844c-0.831,1.155-1.85,2.079-3.062,2.814
	c-1.209,0.736-2.543,1.238-3.945,1.498c-1.439,0.25-2.868,0.25-4.251,0c-1.421-0.26-2.679-0.762-3.85-1.559
	c-1.211-0.749-2.21-1.755-3.012-2.979c-0.83-1.22-1.451-2.709-1.763-4.422L498.467,898.335z M511.146,926.836
	c0.217,1.062,0.692,1.854,1.476,2.408c0.796,0.578,1.714,0.782,2.753,0.578c1.049-0.187,1.846-0.68,2.395-1.511
	c0.526-0.81,0.716-1.735,0.505-2.782l-5.387-29.8c-0.218-1.069-0.715-1.858-1.456-2.429c-0.816-0.563-1.735-0.782-2.783-0.563
	c-1.041,0.177-1.843,0.692-2.386,1.502c-0.537,0.824-0.707,1.728-0.537,2.77L511.146,926.836z"/>
<path display="none" fill="#FFFFFF" d="M537.891,890.05c-0.51-1.66-0.673-3.231-0.51-4.674c0.176-1.476,0.612-2.833,1.284-4.061
	c0.676-1.23,1.586-2.285,2.696-3.163c1.114-0.883,2.386-1.544,3.754-1.973c1.395-0.429,2.801-0.592,4.229-0.504
	c1.41,0.091,2.735,0.443,4.015,1.084c1.237,0.609,2.348,1.461,3.347,2.604c0.974,1.089,1.734,2.471,2.253,4.156l8.984,28.95
	c0.531,1.639,0.68,3.21,0.531,4.686c-0.205,1.448-0.634,2.801-1.328,4.039c-0.657,1.226-1.584,2.274-2.693,3.15
	c-1.107,0.877-2.36,1.553-3.746,1.974c-1.376,0.427-2.769,0.578-4.198,0.518c-1.448-0.114-2.775-0.457-4.034-1.09
	c-1.257-0.612-2.366-1.478-3.346-2.585c-0.974-1.122-1.714-2.489-2.261-4.182L537.891,890.05z M553.964,916.817
	c0.292,0.993,0.892,1.746,1.729,2.208c0.877,0.477,1.809,0.544,2.814,0.239c1.001-0.333,1.755-0.926,2.163-1.809
	c0.464-0.853,0.512-1.804,0.219-2.797l-9.007-28.955c-0.318-1.007-0.902-1.756-1.774-2.23c-0.842-0.431-1.788-0.539-2.803-0.239
	c-0.992,0.326-1.714,0.924-2.155,1.796c-0.471,0.87-0.512,1.816-0.189,2.816L553.964,916.817z"/>
<path display="none" fill="#FFFFFF" d="M577.173,879.609c-0.565-1.288-1.006-2.396-1.354-3.334c-0.298-0.945-0.495-1.79-0.583-2.544
	c-0.11-0.729-0.124-1.469-0.082-2.114c0.101-0.668,0.238-1.395,0.408-2.185c0.367-1.545,1.046-2.92,2.087-4.171
	c1.021-1.218,2.327-2.169,3.842-2.855c1.567-0.714,3.145-1.047,4.758-0.991c1.599,0.038,3.101,0.439,4.502,1.175
	c0.688,0.361,1.312,0.755,1.871,1.15c0.563,0.372,1.047,0.872,1.57,1.45c0.51,0.542,0.985,1.276,1.49,2.152
	c0.484,0.852,1.027,1.929,1.584,3.185c0.653,1.436,1.177,2.613,1.546,3.592c0.406,1.013,0.672,1.947,0.78,2.774
	c0.123,0.853,0.089,1.675-0.108,2.47c-0.196,0.81-0.55,1.715-1.041,2.756c1.061,0.237,1.986,0.584,2.749,0.984
	c0.7,0.416,1.372,0.988,1.979,1.715c0.591,0.742,1.176,1.715,1.795,2.891c0.572,1.207,1.287,2.687,2.088,4.443
	c0.639,1.448,1.137,2.672,1.524,3.646c0.346,0.972,0.612,1.849,0.802,2.612c0.189,0.788,0.279,1.44,0.238,2.048
	c-0.041,0.591-0.096,1.257-0.197,1.917c-0.259,1.476-0.843,2.926-1.87,4.372c-0.975,1.402-2.456,2.6-4.44,3.476
	c-1.994,0.891-3.845,1.24-5.579,1.049c-1.734-0.204-3.232-0.72-4.502-1.503c-0.6-0.361-1.123-0.768-1.592-1.107
	c-0.449-0.368-0.92-0.921-1.368-1.559c-0.437-0.618-0.898-1.428-1.395-2.326c-0.497-0.926-1.088-2.116-1.742-3.559
	c-0.795-1.775-1.422-3.258-1.945-4.467c-0.501-1.261-0.823-2.328-0.972-3.273c-0.164-0.959-0.156-1.809,0.026-2.624
	c0.185-0.852,0.53-1.75,1.041-2.721c-1.067-0.301-1.987-0.646-2.721-1.055c-0.721-0.354-1.366-0.878-1.933-1.546
	c-0.549-0.631-1.095-1.435-1.57-2.394C578.404,882.188,577.839,881.022,577.173,879.609z M589.349,870.949
	c-0.415-0.938-1.087-1.562-2.04-1.892c-0.96-0.346-1.872-0.331-2.776,0.068c-0.87,0.381-1.475,1.097-1.87,1.992
	c-0.367,0.953-0.334,1.906,0.096,2.805l3.087,6.855c0.415,0.958,1.088,1.578,2.056,1.91c0.938,0.354,1.854,0.329,2.721-0.068
	c0.89-0.385,1.523-1.086,1.896-2.012c0.359-0.939,0.359-1.891-0.068-2.802L589.349,870.949z M597.695,889.438
	c-0.43-0.893-1.103-1.543-2.056-1.892c-0.938-0.346-1.85-0.327-2.732,0.081c-0.871,0.401-1.519,1.073-1.885,2
	c-0.396,0.938-0.334,1.885,0.068,2.803l4.161,9.23c0.43,0.932,1.102,1.598,2.062,1.91c0.951,0.348,1.884,0.3,2.755-0.073
	c0.885-0.41,1.496-1.073,1.864-2.002c0.393-0.951,0.361-1.883-0.083-2.793L597.695,889.438z"/>
<polygon display="none" fill="#FEDD10" points="449.236,3.347 462.022,29.079 490.511,33.271 469.897,53.38 474.735,81.801 
	449.236,68.377 423.737,81.801 428.644,53.38 407.982,33.271 436.501,29.079 "/>
<polygon display="none" fill="#FEDD10" points="557.681,23.733 570.397,49.58 599.003,53.748 578.299,73.878 583.133,102.28 
	557.681,88.897 532.229,102.28 537.021,73.878 516.402,53.748 544.896,49.58 "/>
<polygon display="none" fill="#FEDD10" points="344.873,23.733 357.655,49.58 386.176,53.748 365.531,73.878 370.348,102.28 
	344.873,88.897 319.375,102.28 324.262,73.878 303.567,53.748 332.153,49.58 "/>
<path display="none" fill="#FFFFFF" d="M402.367,680.071l-9.686,109.225H380.39l-8.871-45.598l-10.496,45.598h-11.638
	l-9.264-109.225h14.719l5.075,49.953l11.033-47.504l12.448,47.504l3.81-49.953H402.367z"/>
<path display="none" fill="#FFFFFF" d="M472.012,687.744v12.394h-13.541v-5.597h-20.332v80.008h19.378V764.03h14.494v17.085
	l-7.678,8.181h-32.731l-8.34-8.473v-92.012l9.271-8.74h32.105L472.012,687.744z"/>
<path display="none" fill="#FFFFFF" d="M538.231,687.744v12.394h-13.522v-5.597h-20.338v80.008h19.378V764.03h14.482v17.085
	l-7.634,8.181h-32.799l-8.312-8.473v-92.012l9.265-8.74h32.1L538.231,687.744z"/>
<path display="none" fill="#FDB917" d="M450.972,217.023c-58.704,0-106.46-47.75-106.46-106.492
	c0-58.695,47.757-106.471,106.46-106.471c58.727,0,106.483,47.776,106.483,106.471C557.455,169.273,509.698,217.023,450.972,217.023
	z M450.972,36.413c-40.881,0-74.126,33.238-74.126,74.118c0,40.893,33.245,74.157,74.126,74.157
	c40.888,0,74.152-33.265,74.152-74.157C525.124,69.651,491.859,36.413,450.972,36.413z"/>
<path display="none" fill="#FDB917" d="M451.806,72.764c-132.486,0-362.732,59.035-362.732,59.035s0,512.694,0,586.837
	c38.029,85.67,95.973,126.606,174.257,165.618c50.694,25.28,102.056,53.343,188.661,79.929
	c86.593-26.586,137.782-54.648,188.486-79.929c78.254-39.012,136.347-79.948,174.064-165.618c0-74.143,0-586.837,0-586.837
	S584.294,72.764,451.806,72.764z"/>
<path display="none" fill="#2E334B" d="M451.806,95.044c-125.856,0-345.475,56.105-345.475,56.105s0,487.041,0,557.509
	c36.661,81.353,91.624,120.266,165.99,157.313c48.176,23.997,97.172,50.658,179.439,75.947
	c82.291-25.289,131.44-51.95,179.617-75.947c74.354-37.048,129.288-75.961,165.927-157.313c0-70.468,0-557.509,0-557.509
	S577.676,95.044,451.806,95.044z"/>
<path display="none" fill="#F1F1F2" d="M452.337,116.203c-119.554,0-327.679,53.286-327.679,53.286s0,462.704,0,529.638
	c33.422,77.308,86.52,114.265,157.156,149.479c45.779,22.791,92.053,48.117,170.219,72.13
	c78.154-24.013,124.753-49.339,170.52-72.13c70.636-35.215,123.004-72.172,157.505-149.479c0-66.935,0-529.638,0-529.638
	S571.924,116.203,452.337,116.203z"/>
<path display="none" fill="#FDB917" d="M452.337,136.312c-113.593,0-311.514,50.643-311.514,50.643s0,439.562,0,503.159
	c32.354,73.418,82.289,108.538,149.416,141.987c43.469,21.657,87.503,45.695,161.753,68.528
	c74.253-22.833,118.655-46.871,162.108-68.528c67.119-33.449,117.436-68.569,149.796-141.987c0-63.598,0-503.159,0-503.159
	S565.938,136.312,452.337,136.312z"/>
<rect x="138.677" y="215.01" display="none" fill="#F1F1F2" width="631.663" height="16.169"/>
<rect x="138.677" y="459.694" display="none" fill="#F1F1F2" width="631.663" height="16.189"/>
<path display="none" fill="#F1F1F2" d="M251.311,731.31c23.119,22.555,89.421,71.089,137.017,113.472
	c4.928,4.398,20.974,8.433,27.89,7.774c1.735-0.19,6.398-1.129,10.804-5.584c6.158-6.266,2.552-22.935-0.861-28.658
	c-14.664-24.62-38.694-65.319-46.544-80.107l45.035,0.069c0,0,1.84,0.462,6.403-4.117c3.472-3.486,1.277-8.538,1.277-8.538
	l-49.837-82.525c-3.86-6.234-5.037-11.16,3.621-11.16h43.3c8.643,0,14.325-7.318,10.463-13.561l-93.932-152.907
	c-1.936-3.209-6.018-5.211-10.474-5.211H143.362c-9.643,0-15.118,8.832-9.369,15.019l113.344,121.271c0,0,3.142,2.913-1.191,2.913
	l-47.818-0.216c-8.317,4.062-10.791,17.481-4.713,23.606l74.352,76.774c0,0-4.893,2.615-12.285,2.615
	c-9.119,0-9.464,5.219-10.807,10.179C243.619,717.032,244.35,724.516,251.311,731.31z"/>
<path display="none" fill="#F1F1F2" d="M655.704,712.418c-1.336-4.96-1.693-10.179-10.779-10.179
	c-7.434,0-12.313-2.615-12.313-2.615l74.369-76.774c6.068-6.125,3.602-19.544-4.72-23.592l-47.851,0.231
	c-4.349,0-1.161-2.943-1.161-2.943l113.317-121.271c5.782-6.188,0.301-15.019-9.344-15.019H565.104
	c-4.463,0-8.523,2.002-10.475,5.211l-93.927,152.907c-3.848,6.258,1.823,13.561,10.475,13.561h43.296
	c8.653,0,7.48,4.926,3.617,11.16l-49.869,82.525c0,0-2.167,5.078,1.308,8.538c4.576,4.579,6.415,4.148,6.415,4.148l45.001-0.101
	c-7.833,14.811-31.856,55.487-46.524,80.107c-3.413,5.724-7.061,22.393-0.847,28.658c4.405,4.455,9.058,5.394,10.821,5.584
	c6.876,0.658,22.933-3.376,27.843-7.774c47.603-42.383,113.916-90.917,137.035-113.472
	C656.219,724.516,656.965,717.032,655.704,712.418z"/>
<path display="none" fill="#2E334B" d="M496.707,839.464l143.512-115.999c5.869-4.741,1.678-12.798-6.659-12.798h-11.437
	c-7.793,0-12.171-7.276-7.334-12.171l76.104-77.225c4.836-4.922,0.499-12.16-7.334-12.16h-38.26c-7.72,0-12.098-7.084-7.461-12.044
	l97.183-104.027c4.621-4.96,0.23-12.012-7.477-12.012H573.846c-3.557,0-6.833,1.614-8.379,4.171l-75.143,122.319
	c-3.087,5,1.463,10.855,8.365,10.855h34.674c6.887,0,11.436,5.877,8.35,10.862l-51.389,83.674
	c-3.087,4.986,1.463,10.842,8.365,10.842h32.634c6.919,0,11.425,5.8,8.424,10.795l-58.008,96.337
	C477.118,838.517,489.304,845.437,496.707,839.464L496.707,839.464z"/>
<path display="none" fill="#2E334B" d="M405.204,839.464c7.435,5.973,19.62-0.947,14.988-8.58l-58.007-96.337
	c-2.974-4.995,1.486-10.795,8.405-10.795h32.657c6.915,0,11.42-5.855,8.373-10.842l-51.378-83.674
	c-3.093-4.985,1.42-10.862,8.346-10.862h34.659c6.915,0,11.42-5.855,8.373-10.855l-75.166-122.319
	c-1.528-2.557-4.813-4.171-8.35-4.171H174.398c-7.722,0-12.106,7.052-7.477,12.012l97.19,104.027
	c4.608,4.96,0.232,12.044-7.481,12.044h-38.254c-7.829,0-12.19,7.238-7.319,12.16l76.097,77.225
	c4.836,4.895,0.451,12.171-7.356,12.171h-11.443c-8.296,0-12.508,8.057-6.625,12.798L405.204,839.464L405.204,839.464z"/>
<rect x="110.636" y="231.179" display="none" fill="#2E334B" width="675.904" height="228.515"/>
<path display="none" fill="#2E334B" d="M450.972,24.539c47.487,0,86.004,38.494,86.004,85.992c0,47.491-38.517,86.009-86.004,86.009
	c-47.503,0-86.008-38.518-86.008-86.009C364.964,63.032,403.469,24.539,450.972,24.539z"/>
<path display="none" fill="#2E334B" d="M450.972,201.938c-50.37,0-91.403-40.988-91.403-91.407
	c0-50.365,41.033-91.395,91.403-91.395c50.399,0,91.403,41.03,91.403,91.395C542.375,160.95,501.371,201.938,450.972,201.938z
	 M450.972,29.922c-44.447,0-80.618,36.169-80.618,80.609c0,44.468,36.17,80.63,80.618,80.63c44.458,0,80.624-36.162,80.624-80.63
	C531.596,66.091,495.43,29.922,450.972,29.922z"/>
<path display="none" fill="#F1F1F2" d="M534.195,114.067h-77.987v12.429c7.665,0.531,15.127,2.281,22.203,5.295
	c8.223,3.458,15.631,8.465,21.956,14.81c5.326,5.294,9.646,11.293,12.959,17.924C525.41,150.934,533.133,133.392,534.195,114.067
	L534.195,114.067z"/>
<path display="none" fill="#F1F1F2" d="M506.324,47.307c-13.475-11.971-30.911-19.548-50.116-20.66v56.471
	c14.181-1.096,27.37-7.152,37.519-17.315C499.136,60.408,503.384,54.121,506.324,47.307L506.324,47.307z"/>
<path display="none" fill="#F1F1F2" d="M446.796,104.652V92.585c-7.649-0.52-15.125-2.29-22.186-5.295
	c-8.242-3.474-15.654-8.454-21.976-14.799c-5.368-5.345-9.724-11.444-13.036-18.124c-12.034,13.518-19.698,31.041-20.794,50.285
	H446.796z"/>
<path display="none" fill="#F1F1F2" d="M389.682,164.495c3.328-6.6,7.63-12.629,12.952-17.893
	c6.322-6.345,13.734-11.352,21.976-14.81c7.061-3.014,14.536-4.795,22.186-5.295v-12.429h-77.992
	C369.9,133.392,377.6,150.934,389.682,164.495L389.682,164.495z"/>
<path display="none" fill="#F1F1F2" d="M456.208,104.652h77.987c-1.062-19.244-8.729-36.767-20.768-50.3
	c-3.302,6.696-7.692,12.794-13.03,18.112c-6.345,6.357-13.732,11.329-21.971,14.81c-7.076,2.998-14.554,4.78-22.188,5.288v12.09
	H456.208z"/>
<path display="none" fill="#F1F1F2" d="M493.727,153.243c-10.179-10.174-23.338-16.215-37.519-17.305v56.11
	c19.133-1.062,36.54-8.646,50.031-20.536C503.28,164.799,499.105,158.611,493.727,153.243L493.727,153.243z"/>
<path display="none" fill="#F1F1F2" d="M409.272,65.803c10.181,10.163,23.345,16.219,37.523,17.315V26.677
	c-19.173,1.082-36.604,8.658-50.118,20.629C399.629,54.121,403.862,60.408,409.272,65.803L409.272,65.803z"/>
<path display="none" fill="#F1F1F2" d="M446.796,135.942c-14.179,1.086-27.362,7.127-37.523,17.301
	c-5.338,5.341-9.559,11.556-12.514,18.27c13.51,11.913,30.895,19.475,50.037,20.536V135.942z"/>
<polygon display="none" fill="#595A5C" points="450.94,409.85 118.192,409.85 40.541,320.504 450.94,320.504 "/>
<polygon display="none" fill="#595A5C" points="451.222,410.191 783.969,410.191 861.617,320.852 451.222,320.852 "/>
<path display="none" fill="#E7E7E7" d="M792.096,89.122H454.271h-3.538H112.907c0,0-90.082,439.234,36.034,608.554
	C267.745,857.18,433.663,851.745,452.502,850.579c18.839,1.166,184.757,6.601,303.56-152.903
	C882.178,528.356,792.096,89.122,792.096,89.122z"/>
<path display="none" fill="#0E62AF" d="M772.255,110.992H454.25h-3.497H132.748c0,0-84.846,414.013,33.933,573.611
	c111.725,150.122,267.682,145.243,285.821,144.133c18.139,1.11,174.096,5.989,285.82-144.133
	C857.101,525.005,772.255,110.992,772.255,110.992z"/>
<polygon display="none" fill="#D1D3D4" points="451.404,359.938 861.617,320.925 849.835,192.472 451.404,192.472 450.659,192.472 
	52.241,192.472 40.446,320.925 450.659,359.938 450.659,360.009 451.031,359.973 451.404,360.009 "/>
<path display="none" fill="#2B3C90" d="M450.659,524.68c114.719,0,207.714,92.996,207.714,207.713
	c0,114.718-92.995,207.721-207.714,207.721c-114.713,0-207.713-93.003-207.713-207.721
	C242.946,617.676,335.946,524.68,450.659,524.68z"/>
<path display="none" fill="#F2F2F2" d="M450.659,948.482c-119.149,0-216.085-96.934-216.085-216.09
	c0-119.148,96.937-216.089,216.085-216.089c119.155,0,216.09,96.94,216.09,216.089C666.749,851.549,569.814,948.482,450.659,948.482
	z M450.659,533.056c-109.916,0-199.334,89.425-199.334,199.337c0,109.913,89.418,199.339,199.334,199.339
	c109.92,0,199.338-89.426,199.338-199.339C649.997,622.48,560.579,533.056,450.659,533.056z"/>
<path display="none" fill="#2BACE2" d="M649.521,719.079v-0.037l-0.018-0.318c-2.333-36.372-13.786-71.103-33.113-100.455
	c-19.768-30-46.915-52.979-78.528-66.459c-27.643-13.614-57.386-20.512-88.38-20.512c-105.627,0-193.504,82.507-200.055,187.836
	l-0.018,0.354v0.024c-0.253,4.212-0.388,8.327-0.388,12.247c0,40.823,12.201,80.107,35.281,113.605
	c20.598,29.885,48.552,53.37,81.244,68.442l-0.208,0.227l9.515,3.814c0.019,0.012,0.037,0.019,0.055,0.026l4.401,1.764l0.037-0.043
	c22.414,8.376,45.985,12.624,70.13,12.624c110.535,0,200.46-89.925,200.46-200.46C649.936,727.687,649.796,723.425,649.521,719.079z
	 M635.529,719.273c-0.012,0.482-0.038,0.965-0.067,1.446c-0.019,0.46-0.031,0.917-0.056,1.368c-0.024,0.537-0.067,1.068-0.109,1.6
	c-0.031,0.44-0.055,0.879-0.092,1.313c-0.055,0.628-0.121,1.244-0.183,1.867c-0.067,0.629-0.135,1.252-0.214,1.874
	c-0.079,0.672-0.165,1.338-0.251,2.01c-0.066,0.414-0.134,0.829-0.2,1.244c-0.08,0.543-0.166,1.075-0.252,1.612
	c-0.079,0.438-0.164,0.885-0.244,1.325c-0.091,0.512-0.183,1.019-0.286,1.525c-0.085,0.445-0.184,0.886-0.274,1.324
	c-0.11,0.507-0.214,1.008-0.323,1.509c-0.104,0.445-0.209,0.892-0.324,1.33c-0.116,0.494-0.238,0.996-0.361,1.484
	c-0.114,0.445-0.236,0.885-0.359,1.331c-0.134,0.488-0.256,0.97-0.396,1.453c-0.128,0.445-0.263,0.891-0.396,1.336
	c-0.146,0.483-0.287,0.965-0.447,1.448c-0.126,0.433-0.273,0.872-0.42,1.306c-0.158,0.481-0.318,0.965-0.488,1.447
	c-0.146,0.439-0.306,0.861-0.458,1.293c-0.178,0.482-0.348,0.966-0.525,1.441c-0.158,0.428-0.329,0.861-0.5,1.282
	c-0.184,0.476-0.366,0.958-0.562,1.428c-0.171,0.427-0.349,0.849-0.525,1.271c-0.208,0.481-0.403,0.952-0.611,1.429
	c-0.183,0.415-0.366,0.831-0.554,1.245c-0.214,0.477-0.429,0.953-0.66,1.429c-0.189,0.403-0.379,0.812-0.573,1.221
	c-0.232,0.476-0.466,0.947-0.703,1.416c-0.201,0.409-0.402,0.812-0.615,1.222c-0.24,0.47-0.489,0.939-0.733,1.409
	c-0.214,0.392-0.428,0.794-0.642,1.186c-0.263,0.476-0.524,0.946-0.781,1.417c-0.22,0.39-0.445,0.774-0.666,1.153
	c-0.274,0.481-0.556,0.953-0.835,1.422c-0.228,0.385-0.453,0.758-0.685,1.136c-0.293,0.477-0.587,0.946-0.879,1.416
	c-0.238,0.373-0.464,0.738-0.709,1.105c-0.305,0.476-0.615,0.953-0.927,1.423c-0.239,0.359-0.483,0.726-0.721,1.079
	c-0.324,0.482-0.653,0.953-0.989,1.429c-0.244,0.349-0.482,0.697-0.732,1.044c-0.343,0.477-0.689,0.952-1.044,1.435
	c-0.245,0.331-0.494,0.679-0.744,1.008c-0.361,0.489-0.739,0.966-1.106,1.447c-0.243,0.323-0.493,0.647-0.745,0.964
	c-0.384,0.495-0.786,0.978-1.178,1.473c-0.25,0.305-0.488,0.609-0.744,0.909c-0.409,0.507-0.837,1.007-1.265,1.508
	c-0.237,0.281-0.47,0.567-0.707,0.843c-0.457,0.524-0.917,1.044-1.38,1.562c-0.22,0.256-0.44,0.507-0.665,0.763
	c-0.507,0.55-1.014,1.104-1.532,1.655c-0.196,0.213-0.379,0.421-0.574,0.629c-0.587,0.616-1.185,1.232-1.771,1.844
	c-0.135,0.141-0.269,0.281-0.403,0.402c-2.961,3.022-6.093,5.958-9.39,8.784c-0.066,0.068-0.146,0.13-0.214,0.189
	c-0.738,0.642-1.495,1.276-2.259,1.898c-0.152,0.129-0.312,0.257-0.47,0.385c-0.677,0.556-1.367,1.117-2.062,1.668
	c-0.202,0.164-0.416,0.322-0.624,0.487c-0.653,0.513-1.307,1.025-1.966,1.52c-0.243,0.19-0.488,0.366-0.732,0.557
	c-0.635,0.47-1.269,0.952-1.916,1.416c-0.263,0.195-0.538,0.397-0.812,0.592c-0.63,0.453-1.253,0.904-1.888,1.344
	c-0.293,0.208-0.58,0.408-0.878,0.609c-0.624,0.435-1.24,0.868-1.875,1.284c-0.311,0.219-0.623,0.419-0.94,0.627
	c-0.616,0.416-1.239,0.819-1.861,1.233c-0.33,0.208-0.666,0.421-0.995,0.63c-0.624,0.39-1.24,0.793-1.869,1.178
	c-0.348,0.22-0.689,0.428-1.031,0.635c-0.629,0.385-1.251,0.763-1.887,1.141c-0.354,0.214-0.707,0.422-1.062,0.624
	c-0.629,0.378-1.265,0.744-1.904,1.104c-0.36,0.207-0.733,0.422-1.094,0.623c-0.641,0.354-1.275,0.72-1.923,1.068
	c-0.372,0.201-0.744,0.403-1.123,0.61c-0.647,0.348-1.294,0.695-1.948,1.038c-0.384,0.201-0.762,0.396-1.147,0.599
	c-0.653,0.336-1.312,0.671-1.972,1.001c-0.385,0.188-0.782,0.39-1.173,0.586c-0.664,0.329-1.33,0.646-1.995,0.97
	c-0.397,0.19-0.794,0.379-1.185,0.562c-0.684,0.316-1.355,0.635-2.039,0.952c-0.403,0.183-0.8,0.372-1.196,0.55
	c-0.69,0.305-1.38,0.616-2.075,0.915c-0.397,0.177-0.795,0.354-1.204,0.531c-0.701,0.306-1.409,0.599-2.111,0.885
	c-0.409,0.172-0.807,0.349-1.215,0.515c-0.715,0.285-1.435,0.578-2.148,0.865c-0.409,0.159-0.819,0.324-1.229,0.482
	c-0.726,0.287-1.459,0.567-2.197,0.843c-0.402,0.152-0.807,0.306-1.208,0.458c-0.752,0.28-1.503,0.555-2.253,0.824
	c-0.409,0.141-0.812,0.293-1.21,0.434c-0.774,0.269-1.55,0.53-2.326,0.8c-0.39,0.134-0.773,0.268-1.178,0.402
	c-0.8,0.269-1.6,0.525-2.405,0.787c-0.378,0.116-0.756,0.245-1.137,0.366c-0.841,0.257-1.69,0.526-2.531,0.782
	c-0.349,0.097-0.703,0.214-1.052,0.317c-0.908,0.269-1.837,0.53-2.766,0.801c-0.286,0.079-0.561,0.164-0.847,0.243
	c-1.063,0.3-2.138,0.592-3.199,0.873c-0.158,0.042-0.312,0.086-0.465,0.129c-2.484,0.651-4.987,1.269-7.521,1.844
	c-0.036,0.006-0.073,0.018-0.109,0.023c-1.215,0.274-2.431,0.544-3.657,0.806c-0.335,0.073-0.672,0.134-1.007,0.208
	c-0.854,0.177-1.71,0.354-2.563,0.519c0.012-0.281,0.018-0.573,0.03-0.843c0.023-0.641,0.061-1.264,0.091-1.886
	c0.056-0.879,0.104-1.734,0.158-2.583c0.043-0.616,0.087-1.228,0.129-1.837c0.067-0.818,0.128-1.624,0.208-2.424
	c0.048-0.586,0.097-1.172,0.158-1.752c0.073-0.787,0.158-1.563,0.239-2.325c0.06-0.544,0.121-1.088,0.182-1.625
	c0.098-0.787,0.195-1.551,0.3-2.307c0.062-0.478,0.122-0.959,0.19-1.423c0.12-0.886,0.255-1.728,0.396-2.577
	c0.043-0.317,0.091-0.647,0.146-0.952c0.184-1.129,0.378-2.234,0.58-3.302c0.067-0.343,0.135-0.672,0.201-1.002
	c0.141-0.727,0.281-1.447,0.434-2.136c0.092-0.416,0.177-0.812,0.269-1.216c0.134-0.586,0.263-1.172,0.397-1.733
	c0.097-0.415,0.2-0.818,0.299-1.227c0.135-0.521,0.263-1.039,0.396-1.54c0.105-0.401,0.208-0.786,0.318-1.179
	c0.135-0.48,0.262-0.952,0.396-1.415c0.11-0.366,0.214-0.732,0.324-1.099c0.135-0.439,0.268-0.873,0.408-1.307
	c0.105-0.342,0.214-0.69,0.324-1.025c0.141-0.41,0.268-0.812,0.408-1.21c0.111-0.316,0.22-0.634,0.325-0.94
	c0.141-0.39,0.28-0.762,0.421-1.141c0.109-0.281,0.206-0.562,0.312-0.837c0.152-0.396,0.305-0.763,0.451-1.129
	c0.079-0.22,0.17-0.439,0.249-0.635c3.151-7.632,7.468-15.842,11.508-22.79c0.366-0.634,0.733-1.257,1.093-1.867
	c0.728-1.216,1.43-2.387,2.12-3.499c0.689-1.111,1.349-2.161,1.984-3.138c1.286-1.997,4.694-6.355,8.626-11.416
	c12.575-16.135,33.631-43.145,40.609-62.338c8.364-23.016,6.886-33.498,3.926-54.394c-0.41-2.9-0.855-6.032-1.312-9.47
	c-0.099-0.739-0.208-1.521-0.331-2.313c-0.03-0.231-0.072-0.476-0.109-0.708c-0.091-0.599-0.195-1.209-0.298-1.844
	c-0.043-0.256-0.086-0.52-0.129-0.781c-0.129-0.72-0.263-1.466-0.403-2.223c-0.03-0.158-0.055-0.311-0.092-0.476
	c-0.17-0.928-0.359-1.88-0.555-2.852c-0.037-0.201-0.086-0.396-0.128-0.604c-0.165-0.781-0.331-1.574-0.507-2.381
	c-0.062-0.28-0.129-0.573-0.196-0.879c-0.177-0.775-0.354-1.568-0.555-2.375c-0.056-0.257-0.117-0.506-0.178-0.764
	c-0.256-1.062-0.519-2.136-0.806-3.234c-0.012-0.05-0.024-0.1-0.036-0.147c-0.263-1.025-0.538-2.057-0.824-3.102
	c-0.086-0.299-0.165-0.598-0.257-0.902c-0.226-0.832-0.47-1.661-0.714-2.504c-0.091-0.317-0.19-0.635-0.281-0.952
	c-0.299-1.013-0.61-2.026-0.934-3.046c-0.03-0.116-0.062-0.226-0.104-0.336c-0.361-1.143-0.733-2.289-1.13-3.438
	c-0.085-0.274-0.184-0.538-0.269-0.812c-0.306-0.879-0.611-1.758-0.928-2.637c-0.129-0.343-0.251-0.679-0.378-1.027
	c-0.324-0.879-0.66-1.77-1.002-2.648c-0.104-0.27-0.196-0.531-0.3-0.794c-0.451-1.142-0.903-2.283-1.379-3.406
	c-0.073-0.178-0.141-0.342-0.221-0.514c-0.397-0.952-0.812-1.898-1.232-2.832c-0.141-0.336-0.293-0.672-0.445-0.995
	c-0.379-0.812-0.757-1.624-1.137-2.424c-0.104-0.207-0.2-0.415-0.293-0.623C602.849,608.524,631.615,659.965,635.529,719.273z
	 M454.555,545.351c26.782,0.708,52.489,6.983,76.507,18.693c0.146,0.123,0.293,0.25,0.439,0.378
	c0.243,0.215,0.477,0.428,0.715,0.647c0.226,0.208,0.445,0.428,0.671,0.642c0.231,0.226,0.457,0.457,0.696,0.701
	c0.22,0.232,0.445,0.465,0.666,0.709c0.231,0.244,0.451,0.488,0.677,0.744c0.227,0.251,0.439,0.513,0.665,0.77
	c0.221,0.262,0.439,0.525,0.659,0.794c0.221,0.268,0.439,0.549,0.659,0.83c0.214,0.274,0.428,0.55,0.642,0.831
	c0.214,0.293,0.439,0.598,0.66,0.896c0.207,0.287,0.408,0.568,0.616,0.861c0.213,0.312,0.438,0.641,0.652,0.964
	c0.202,0.293,0.397,0.586,0.599,0.886c0.214,0.336,0.434,0.677,0.653,1.025c0.188,0.299,0.379,0.604,0.568,0.91
	c0.226,0.36,0.433,0.72,0.647,1.086c0.188,0.306,0.372,0.623,0.555,0.935c0.214,0.372,0.434,0.751,0.642,1.136
	c0.177,0.323,0.354,0.635,0.53,0.958c0.208,0.391,0.422,0.788,0.629,1.184c0.171,0.331,0.349,0.653,0.513,0.983
	c0.214,0.409,0.415,0.824,0.629,1.24c0.159,0.323,0.324,0.653,0.488,0.988c0.214,0.428,0.409,0.854,0.617,1.288
	c0.158,0.336,0.317,0.665,0.47,1.001c0.208,0.446,0.409,0.886,0.605,1.331c0.152,0.336,0.305,0.672,0.45,1.014
	c0.202,0.445,0.391,0.909,0.592,1.367c0.141,0.342,0.288,0.684,0.435,1.032c0.189,0.457,0.384,0.929,0.573,1.392
	c0.141,0.354,0.281,0.695,0.422,1.044c0.183,0.47,0.366,0.952,0.549,1.422c0.135,0.355,0.275,0.708,0.403,1.057
	c0.183,0.477,0.354,0.958,0.531,1.435c0.134,0.361,0.263,0.721,0.391,1.081c0.171,0.481,0.341,0.971,0.52,1.459
	c0.115,0.359,0.243,0.714,0.372,1.074c0.165,0.494,0.329,0.989,0.494,1.49c0.116,0.354,0.232,0.714,0.354,1.074
	c0.16,0.494,0.318,0.994,0.472,1.495c0.114,0.36,0.225,0.721,0.341,1.081c0.153,0.494,0.3,0.989,0.446,1.483
	c0.109,0.372,0.22,0.738,0.329,1.117c0.146,0.482,0.281,0.977,0.422,1.466c0.103,0.372,0.213,0.744,0.316,1.123
	c0.129,0.487,0.257,0.963,0.392,1.452c0.104,0.379,0.2,0.77,0.306,1.148c0.122,0.476,0.236,0.952,0.354,1.429
	c0.104,0.39,0.201,0.77,0.299,1.16c0.116,0.481,0.231,0.964,0.343,1.439c0.091,0.386,0.176,0.764,0.268,1.137
	c0.11,0.482,0.214,0.958,0.323,1.441c0.08,0.377,0.166,0.756,0.25,1.134c0.099,0.477,0.196,0.959,0.294,1.441
	c0.079,0.366,0.152,0.732,0.231,1.093c0.099,0.494,0.184,0.982,0.281,1.471c0.062,0.349,0.128,0.708,0.195,1.051
	c0.092,0.488,0.171,0.982,0.256,1.478c0.062,0.335,0.122,0.671,0.184,1.007c0.086,0.537,0.171,1.068,0.25,1.605
	c0.043,0.281,0.093,0.561,0.134,0.842c0.123,0.812,0.239,1.612,0.343,2.406c0.464,3.479,0.909,6.654,1.325,9.591
	c2.88,20.317,3.949,27.925-3.223,47.655c-6.223,17.124-26.424,43.033-38.492,58.521c-4.488,5.751-7.723,9.902-9.347,12.425
	c-0.342,0.53-0.685,1.062-1.039,1.618c-0.572,0.908-1.159,1.866-1.758,2.85c-5,8.199-10.951,19.065-15.079,29.066
	c-0.396,0.946-0.768,1.911-1.142,2.888c-0.116,0.311-0.226,0.628-0.342,0.945c-0.244,0.678-0.488,1.355-0.72,2.045
	c-0.141,0.392-0.263,0.788-0.397,1.179c-0.207,0.623-0.409,1.258-0.61,1.911c-0.134,0.421-0.256,0.859-0.39,1.294
	c-0.184,0.629-0.366,1.258-0.551,1.886c-0.121,0.452-0.243,0.91-0.366,1.375c-0.165,0.635-0.335,1.269-0.494,1.91
	c-0.121,0.477-0.231,0.946-0.348,1.43c-0.152,0.646-0.306,1.294-0.452,1.953c-0.109,0.481-0.214,0.976-0.317,1.478
	c-0.146,0.665-0.28,1.33-0.415,2.008c-0.098,0.5-0.195,0.995-0.287,1.496c-0.128,0.696-0.256,1.398-0.379,2.105
	c-0.085,0.495-0.177,1.002-0.256,1.503c-0.116,0.739-0.231,1.477-0.348,2.228c-0.068,0.488-0.141,0.971-0.214,1.459
	c-0.116,0.83-0.22,1.68-0.33,2.516c-0.049,0.427-0.115,0.836-0.165,1.271c-0.146,1.257-0.286,2.527-0.414,3.809
	c-0.013,0.098-0.025,0.202-0.031,0.305c-0.116,1.216-0.226,2.449-0.323,3.694c-0.037,0.47-0.067,0.939-0.098,1.409
	c-0.067,0.873-0.129,1.753-0.184,2.638c-0.036,0.556-0.061,1.118-0.091,1.68c-0.044,0.817-0.092,1.636-0.123,2.465
	c-0.024,0.594-0.042,1.191-0.066,1.79c-0.02,0.549-0.049,1.086-0.062,1.641c-0.306,0.044-0.61,0.081-0.915,0.117
	c-1.734,0.232-3.479,0.445-5.227,0.641c-0.507,0.062-1.014,0.123-1.514,0.171c-2.088,0.232-4.177,0.428-6.276,0.599
	c-0.379,0.031-0.763,0.055-1.135,0.092c-1.801,0.141-3.609,0.251-5.408,0.354c-0.539,0.036-1.081,0.067-1.619,0.098
	c-2.124,0.104-4.249,0.195-6.379,0.255c-0.062,0-0.122,0-0.179,0V545.351H454.555z M374.189,561.188
	c20.503-9.085,42.912-14.579,66.378-15.69v289.354v14.158v4.371c-0.377-0.019-0.763-0.043-1.141-0.056
	c-1.777-0.092-3.553-0.208-5.33-0.329c-0.568-0.043-1.142-0.079-1.703-0.116c-2.241-0.177-4.475-0.379-6.703-0.61
	c-0.385-0.037-0.769-0.086-1.157-0.135c-1.877-0.207-3.746-0.427-5.61-0.678c-0.635-0.072-1.276-0.165-1.911-0.256
	c-1.947-0.27-3.891-0.562-5.821-0.873c-0.229-0.036-0.464-0.079-0.699-0.116c-0.696-21.172-4.011-39.078-9.875-53.283
	c-4.958-11.979-12.488-25.171-17.882-33.528c-1.627-2.516-4.862-6.673-9.347-12.431c-12.066-15.48-32.271-41.396-38.497-58.521
	c-3.91-10.745-5.434-18.005-5.434-25.873c0-6.172,0.934-12.723,2.216-21.788c0.413-2.937,0.861-6.105,1.325-9.58
	c3.562-26.775,21.425-68.723,41.317-73.502L374.189,561.188z M334.563,585.008c-8.418,16.789-13.73,35.616-15.424,48.357
	c-0.458,3.432-0.904,6.562-1.31,9.457c-1.312,9.268-2.348,16.593-2.348,23.754c0,9.518,1.816,18.4,6.27,30.658
	c6.979,19.188,28.034,46.197,40.613,62.338c3.938,5.055,7.338,9.413,8.621,11.41c5.066,7.845,12.111,20.184,16.702,31.294
	c3.49,8.443,7.622,22.862,8.697,45.158c-0.529-0.122-1.051-0.244-1.575-0.373c-0.495-0.109-0.993-0.226-1.481-0.342
	c-0.735-0.177-1.459-0.359-2.188-0.543c-0.47-0.123-0.946-0.238-1.41-0.354c-0.748-0.188-1.49-0.396-2.234-0.598
	c-0.443-0.116-0.894-0.238-1.34-0.354c-0.771-0.22-1.535-0.434-2.302-0.653c-0.415-0.115-0.821-0.231-1.227-0.354
	c-0.818-0.232-1.624-0.481-2.43-0.72c-0.357-0.115-0.718-0.214-1.074-0.33c-0.901-0.28-1.801-0.567-2.699-0.854
	c-0.253-0.085-0.507-0.159-0.754-0.244c-2.316-0.757-4.603-1.544-6.868-2.369c-0.076-0.023-0.159-0.061-0.235-0.085
	c-1.041-0.384-2.075-0.764-3.098-1.16c-0.312-0.11-0.617-0.237-0.925-0.36c-0.794-0.306-1.587-0.616-2.375-0.928
	c-0.394-0.159-0.787-0.323-1.181-0.487c-0.692-0.281-1.382-0.557-2.076-0.85c-0.43-0.178-0.864-0.366-1.295-0.555
	c-0.64-0.27-1.281-0.545-1.916-0.825c-0.458-0.195-0.91-0.396-1.359-0.61c-0.61-0.269-1.212-0.537-1.81-0.817
	c-0.471-0.208-0.928-0.429-1.389-0.647c-0.586-0.263-1.169-0.544-1.747-0.818c-0.47-0.22-0.934-0.453-1.398-0.678
	c-0.565-0.274-1.13-0.549-1.688-0.823c-0.476-0.244-0.946-0.483-1.417-0.727c-0.537-0.281-1.077-0.55-1.618-0.831
	c-0.482-0.251-0.958-0.5-1.429-0.758c-0.524-0.279-1.047-0.555-1.565-0.835c-0.476-0.258-0.952-0.52-1.423-0.788
	c-0.516-0.281-1.022-0.556-1.529-0.85c-0.47-0.268-0.946-0.542-1.416-0.812c-0.495-0.281-0.992-0.573-1.487-0.867
	c-0.471-0.279-0.94-0.555-1.408-0.835c-0.485-0.293-0.967-0.586-1.443-0.88c-0.466-0.281-0.937-0.567-1.401-0.86
	c-0.47-0.293-0.933-0.593-1.404-0.88c-0.461-0.298-0.932-0.598-1.395-0.902c-0.452-0.3-0.904-0.593-1.353-0.893
	c-0.463-0.312-0.934-0.616-1.392-0.921c-0.442-0.299-0.882-0.605-1.319-0.898c-0.457-0.323-0.921-0.64-1.377-0.964
	c-0.426-0.293-0.845-0.598-1.269-0.903c-0.458-0.331-0.922-0.653-1.37-0.989c-0.416-0.299-0.822-0.599-1.228-0.903
	c-0.455-0.343-0.913-0.678-1.365-1.02c-0.399-0.299-0.793-0.604-1.187-0.91c-0.449-0.348-0.907-0.695-1.358-1.05
	c-0.381-0.305-0.754-0.604-1.13-0.902c-0.452-0.367-0.9-0.733-1.352-1.101c-0.36-0.299-0.717-0.598-1.078-0.897
	c-0.451-0.378-0.91-0.744-1.352-1.135c-0.345-0.28-0.674-0.573-1.01-0.866c-0.458-0.404-0.917-0.794-1.365-1.197
	c-0.317-0.274-0.623-0.556-0.934-0.837c-0.471-0.415-0.932-0.836-1.396-1.257c-0.275-0.251-0.541-0.507-0.806-0.758
	c-0.491-0.457-0.98-0.909-1.456-1.373c-0.202-0.188-0.4-0.385-0.601-0.58c-2.585-2.503-5.061-5.067-7.409-7.698
	c-0.128-0.141-0.253-0.281-0.381-0.428c-0.47-0.524-0.925-1.056-1.389-1.593c-0.192-0.227-0.394-0.445-0.592-0.678
	c-0.424-0.501-0.836-0.995-1.249-1.502c-0.223-0.27-0.445-0.537-0.668-0.8c-0.394-0.481-0.778-0.977-1.166-1.459
	c-0.229-0.293-0.464-0.586-0.687-0.867c-0.375-0.482-0.741-0.964-1.111-1.446c-0.228-0.306-0.458-0.61-0.684-0.916
	c-0.358-0.477-0.705-0.958-1.057-1.435c-0.226-0.317-0.454-0.636-0.677-0.952c-0.336-0.464-0.666-0.953-0.999-1.416
	c-0.225-0.336-0.454-0.666-0.677-0.996c-0.323-0.47-0.635-0.939-0.946-1.415c-0.223-0.336-0.443-0.679-0.666-1.008
	c-0.305-0.477-0.604-0.952-0.904-1.43c-0.213-0.34-0.43-0.683-0.641-1.031c-0.291-0.47-0.577-0.952-0.861-1.429
	c-0.21-0.347-0.415-0.702-0.622-1.049c-0.275-0.482-0.547-0.959-0.821-1.441c-0.195-0.348-0.397-0.702-0.589-1.068
	c-0.266-0.477-0.528-0.952-0.782-1.44c-0.189-0.361-0.381-0.721-0.571-1.081c-0.247-0.482-0.494-0.959-0.741-1.447
	c-0.177-0.372-0.363-0.738-0.546-1.104c-0.229-0.481-0.464-0.965-0.693-1.452c-0.177-0.373-0.349-0.746-0.52-1.118
	c-0.223-0.481-0.445-0.964-0.653-1.459c-0.173-0.372-0.333-0.751-0.498-1.136c-0.206-0.488-0.411-0.976-0.613-1.459
	c-0.158-0.378-0.305-0.77-0.463-1.146c-0.193-0.489-0.388-0.983-0.578-1.473c-0.146-0.391-0.286-0.769-0.433-1.166
	c-0.177-0.481-0.36-0.977-0.532-1.472c-0.14-0.39-0.274-0.781-0.409-1.172c-0.171-0.488-0.335-0.982-0.494-1.477
	c-0.126-0.397-0.248-0.794-0.373-1.198c-0.152-0.486-0.305-0.976-0.458-1.47c-0.116-0.409-0.229-0.812-0.342-1.215
	c-0.14-0.488-0.281-0.983-0.415-1.478c-0.107-0.409-0.208-0.812-0.312-1.229c-0.125-0.486-0.253-0.981-0.366-1.477
	c-0.101-0.414-0.192-0.823-0.286-1.245c-0.107-0.495-0.22-0.982-0.324-1.471c-0.095-0.435-0.17-0.85-0.253-1.283
	c-0.095-0.48-0.196-0.97-0.287-1.459c-0.082-0.439-0.149-0.879-0.22-1.318c-0.083-0.47-0.166-0.952-0.241-1.428
	c-0.104-0.636-0.18-1.276-0.269-1.905c-0.089-0.652-0.165-1.3-0.242-1.953c-0.064-0.556-0.13-1.099-0.183-1.654
	c-0.046-0.404-0.07-0.818-0.106-1.228c-0.046-0.52-0.091-1.043-0.128-1.568c-0.031-0.416-0.052-0.838-0.07-1.245
	c-0.031-0.477-0.059-0.953-0.077-1.424C266.933,664.837,294.097,616.73,334.563,585.008z M269.891,782.332
	c0.052,0.078,0.115,0.165,0.167,0.244c0.754,1.154,1.523,2.283,2.314,3.418c0.186,0.257,0.37,0.514,0.552,0.775
	c0.65,0.903,1.304,1.807,1.969,2.71c0.247,0.324,0.495,0.66,0.742,0.984c0.822,1.075,1.646,2.136,2.497,3.205
	c0.037,0.048,0.083,0.109,0.125,0.158c0.888,1.105,1.805,2.203,2.729,3.278c0.274,0.317,0.546,0.635,0.821,0.952
	c0.742,0.867,1.499,1.716,2.266,2.57c0.234,0.251,0.463,0.513,0.699,0.769c0.977,1.068,1.969,2.125,2.976,3.162
	c0.241,0.252,0.483,0.489,0.723,0.738c0.828,0.838,1.658,1.674,2.503,2.498c0.302,0.3,0.608,0.599,0.913,0.892
	c1.081,1.043,2.164,2.075,3.281,3.095c1.633,1.503,3.303,2.967,5.009,4.408c13.635,11.55,29.606,21.495,47.158,29.462
	c0.006,0.006,0.012,0.006,0.025,0.006c2.109,0.959,4.239,1.881,6.392,2.784c0.089,0.031,0.18,0.079,0.269,0.117
	c1.986,0.823,3.998,1.616,6.022,2.393c0.259,0.104,0.516,0.213,0.774,0.312c1.917,0.726,3.853,1.422,5.797,2.1
	c0.378,0.141,0.754,0.28,1.135,0.415c1.802,0.617,3.624,1.209,5.446,1.789c0.541,0.17,1.072,0.359,1.612,0.524
	c1.676,0.52,3.37,1.008,5.067,1.496c0.705,0.207,1.396,0.421,2.1,0.623c1.563,0.433,3.142,0.83,4.716,1.232
	c0.858,0.214,1.7,0.458,2.558,0.672c1.469,0.354,2.952,0.684,4.433,1.019c0.958,0.214,1.911,0.459,2.869,0.666
	c0,0.099-0.006,0.208-0.021,0.312c-0.061,1.086-0.159,2.147-0.29,3.199c-0.013,0.141-0.04,0.285-0.059,0.432
	c-0.146,1.088-0.311,2.161-0.519,3.213c0,0.012-0.009,0.035-0.015,0.047c-0.202,1.038-0.443,2.064-0.703,3.065
	c-0.034,0.123-0.064,0.257-0.104,0.384c-0.253,0.96-0.537,1.895-0.842,2.809c-0.052,0.165-0.11,0.331-0.159,0.495
	c-0.312,0.903-0.635,1.782-0.98,2.649c-0.062,0.158-0.125,0.311-0.189,0.465c-0.354,0.866-0.723,1.727-1.117,2.563
	c-0.051,0.098-0.101,0.201-0.152,0.306c-0.4,0.848-0.818,1.684-1.251,2.496c-0.019,0.03-0.031,0.067-0.042,0.091
	c-0.446,0.826-0.901,1.625-1.371,2.412c-0.065,0.109-0.122,0.214-0.193,0.324c-0.442,0.751-0.906,1.477-1.371,2.191
	c-0.082,0.128-0.165,0.244-0.241,0.366c-0.469,0.702-0.94,1.392-1.422,2.057c-0.077,0.11-0.152,0.209-0.22,0.318
	c-0.497,0.672-0.992,1.343-1.486,1.99c-0.04,0.049-0.076,0.092-0.113,0.141c-0.516,0.671-1.035,1.312-1.55,1.935
	c-0.019,0.024-0.031,0.049-0.052,0.062c-0.513,0.635-1.025,1.233-1.542,1.825c-0.051,0.067-0.106,0.122-0.165,0.189
	c-0.495,0.562-0.983,1.123-1.471,1.653c-0.052,0.056-0.11,0.117-0.165,0.179c-0.492,0.53-0.974,1.062-1.45,1.562
	c-0.019,0.024-0.043,0.043-0.062,0.062c-0.49,0.519-0.973,1.031-1.434,1.508C323.061,880.443,284.802,835.817,269.891,782.332z
	 M440.568,918.02c-17.347-0.812-34.328-3.999-50.68-9.523c0.013-0.013,0.034-0.031,0.046-0.05c0.43-0.481,0.87-0.976,1.313-1.488
	c0.141-0.165,0.287-0.336,0.434-0.502c0.394-0.463,0.8-0.939,1.199-1.429c0.077-0.097,0.152-0.183,0.234-0.279
	c0.456-0.567,0.919-1.143,1.377-1.734c0.147-0.178,0.284-0.36,0.425-0.544c0.412-0.536,0.827-1.081,1.232-1.636
	c0.077-0.104,0.153-0.208,0.236-0.305c0.461-0.636,0.925-1.301,1.383-1.973c0.14-0.188,0.271-0.391,0.406-0.579
	c0.406-0.605,0.805-1.216,1.206-1.845c0.077-0.115,0.152-0.226,0.229-0.342c0.452-0.714,0.895-1.446,1.334-2.197
	c0.119-0.208,0.247-0.428,0.372-0.641c0.381-0.666,0.757-1.338,1.124-2.034c0.07-0.134,0.141-0.25,0.211-0.384
	c0.417-0.787,0.823-1.6,1.217-2.425c0.116-0.231,0.223-0.463,0.333-0.701c0.342-0.727,0.672-1.472,1.002-2.223
	c0.058-0.152,0.128-0.286,0.183-0.427c0.369-0.88,0.711-1.765,1.049-2.667c0.095-0.245,0.183-0.495,0.266-0.739
	c0.293-0.8,0.564-1.611,0.824-2.437c0.052-0.158,0.11-0.311,0.152-0.469c0.3-0.953,0.564-1.925,0.824-2.907
	c0.065-0.257,0.128-0.518,0.192-0.775c0.217-0.873,0.413-1.753,0.596-2.655c0.039-0.165,0.076-0.336,0.109-0.507
	c0.202-1.025,0.373-2.081,0.531-3.144c0.041-0.27,0.07-0.551,0.11-0.817c0.126-0.935,0.236-1.894,0.318-2.87
	c0.012-0.086,0.024-0.178,0.031-0.275l0.323,0.062l-0.006-0.141c1.505,0.238,3.016,0.433,4.521,0.642
	c0.913,0.128,1.822,0.274,2.735,0.392c1.712,0.219,3.44,0.401,5.167,0.584c0.772,0.087,1.547,0.189,2.32,0.263
	c1.85,0.19,3.706,0.337,5.555,0.482c0.666,0.05,1.332,0.13,1.997,0.171c2.521,0.185,5.043,0.324,7.57,0.439v0.098V918.02
	L440.568,918.02z M454.555,918.16v-50.415v-0.189c2.167-0.048,4.341-0.14,6.509-0.244c0.469-0.024,0.933-0.049,1.403-0.073
	c2.137-0.116,4.261-0.243,6.379-0.408c0.281-0.025,0.557-0.05,0.837-0.074c1.929-0.146,3.847-0.323,5.757-0.519
	c0.439-0.043,0.88-0.085,1.318-0.128c2.07-0.221,4.128-0.464,6.185-0.727c0.037-0.007,0.073-0.012,0.116-0.019v0.134l0.372-0.055
	c2.058,20.763,13.346,35.397,21.581,44.353C489.011,914.789,472.076,917.689,454.555,918.16z M519.413,904.626
	c0,0-0.006-0.007-0.006-0.014c-7.295-7.484-20.464-20.994-22.148-41.477c0.311-0.061,0.623-0.128,0.939-0.189
	c1.173-0.214,2.333-0.445,3.487-0.684c0.507-0.104,1.025-0.207,1.532-0.305c1.617-0.342,3.229-0.696,4.834-1.069
	c0.104-0.018,0.202-0.042,0.312-0.065c1.502-0.355,3.01-0.722,4.493-1.088c0.507-0.128,1.002-0.263,1.503-0.391
	c1.135-0.281,2.258-0.586,3.375-0.892c0.513-0.14,1.025-0.28,1.538-0.421c1.276-0.354,2.54-0.72,3.798-1.099
	c0.298-0.079,0.598-0.172,0.897-0.257c1.533-0.463,3.064-0.94,4.577-1.435c0.416-0.128,0.838-0.269,1.247-0.409
	c1.123-0.366,2.24-0.75,3.352-1.13c0.494-0.17,0.995-0.341,1.502-0.519c1.104-0.396,2.191-0.787,3.284-1.196
	c0.409-0.152,0.817-0.286,1.227-0.445c1.466-0.556,2.918-1.111,4.359-1.691c0.28-0.109,0.549-0.226,0.824-0.336
	c1.184-0.481,2.35-0.964,3.511-1.453c0.469-0.207,0.934-0.402,1.402-0.604c1.002-0.439,2.004-0.873,2.998-1.318
	c0.446-0.208,0.898-0.409,1.338-0.61c1.295-0.593,2.594-1.197,3.87-1.809c0.092-0.048,0.188-0.097,0.281-0.14
	c1.366-0.653,2.71-1.331,4.053-2.015c0.415-0.214,0.837-0.434,1.259-0.646c0.938-0.495,1.879-0.99,2.819-1.49
	c0.445-0.244,0.892-0.482,1.338-0.72c1.007-0.556,2.008-1.118,3.009-1.685c0.306-0.172,0.61-0.349,0.916-0.526
	c1.276-0.732,2.534-1.471,3.779-2.228c0.342-0.208,0.679-0.421,1.019-0.63c0.929-0.567,1.852-1.141,2.76-1.721
	c0.422-0.269,0.843-0.537,1.258-0.812c0.879-0.562,1.746-1.135,2.606-1.715c0.361-0.244,0.727-0.482,1.093-0.727
	c1.185-0.812,2.356-1.624,3.518-2.448c0.195-0.141,0.391-0.294,0.599-0.435c0.964-0.694,1.928-1.403,2.869-2.117
	c0.39-0.281,0.762-0.574,1.142-0.854c0.793-0.604,1.568-1.215,2.344-1.825c0.378-0.293,0.745-0.586,1.111-0.874
	c0.945-0.757,1.88-1.525,2.808-2.295c0.153-0.135,0.312-0.257,0.471-0.384c1.062-0.905,2.105-1.802,3.137-2.717
	c0.318-0.281,0.636-0.568,0.953-0.855c0.738-0.659,1.472-1.325,2.191-1.989c0.349-0.319,0.69-0.642,1.037-0.967
	c0.752-0.707,1.497-1.433,2.235-2.153c0.25-0.245,0.507-0.489,0.763-0.738c0.965-0.959,1.918-1.931,2.846-2.9
	c0.232-0.238,0.445-0.477,0.671-0.721c0.722-0.757,1.429-1.52,2.131-2.282c0.306-0.343,0.61-0.673,0.909-1.008
	c0.647-0.727,1.289-1.459,1.918-2.191c0.262-0.305,0.525-0.611,0.78-0.917c0.873-1.019,1.729-2.057,2.564-3.089
	c0.061-0.085,0.122-0.164,0.195-0.25c0.77-0.965,1.521-1.935,2.265-2.918c0.252-0.317,0.488-0.647,0.728-0.965
	c0.579-0.774,1.147-1.551,1.703-2.338c0.238-0.329,0.476-0.659,0.714-0.996c0.653-0.933,1.294-1.867,1.923-2.813
	c0.086-0.128,0.178-0.25,0.257-0.378C612.342,839.003,571.757,883.373,519.413,904.626z"/>
<path display="none" fill="#F2F2F2" d="M727.701,78.606c0,0-166.861-63.608-280.208-63.608c0,198.995,0,608.313,0,965.375
	c425.05-141.391,449.94-736.579,449.94-736.579c-1.47,0.04-2.939,0.113-4.424,0.113C801.719,243.907,727.701,169.898,727.701,78.606
	z"/>
<path display="none" fill="#F2F2F2" d="M169.729,78.606c0,0,166.869-63.608,280.223-63.608c0,198.995,0,608.313,0,965.375
	C24.895,838.982,0,243.794,0,243.794c1.478,0.04,2.943,0.113,4.431,0.113C95.722,243.907,169.729,169.898,169.729,78.606z"/>
<path display="none" fill="#414142" d="M715.516,96.921c0,0-159.568-60.825-267.979-60.825c0,190.293,0,581.727,0,923.179
	C854.014,824.065,877.82,254.89,877.82,254.89c-1.406,0.035-2.808,0.108-4.236,0.108C786.29,254.998,715.516,184.227,715.516,96.921
	z"/>
<path display="none" fill="#414142" d="M181.923,96.921c0,0,159.574-60.825,267.974-60.825c0,190.293,0,581.727,0,923.179
	C43.417,824.065,19.61,254.89,19.61,254.89c1.411,0.035,2.817,0.108,4.235,0.108C111.147,254.998,181.923,184.227,181.923,96.921z"
	/>
<path display="none" fill="#415867" d="M689.265,137.754c0,0-143.306-54.637-240.666-54.637c0,170.915,0,522.471,0,829.133
	c365.062-121.433,386.453-632.624,386.453-632.624c-1.274,0.032-2.59,0.47-3.81,0.092
	C757.718,257.518,704.267,211.238,689.265,137.754z"/>
<path display="none" fill="#415867" d="M209.099,137.754c0,0,143.322-54.637,240.679-54.637c0,170.915,0,522.471,0,829.133
	C84.708,790.817,63.328,279.626,63.328,279.626c1.267,0.032,2.582,0.47,3.801,0.092
	C140.658,257.518,194.109,211.238,209.099,137.754z"/>
<polygon display="none" fill="#414142" points="117.514,567.173 134.138,624.865 273.969,831.192 449.001,924.086 635.767,821.421 
	774.629,622.913 783.428,570.105 "/>
<path display="none" fill="#808184" d="M449.573,937.856c35.991,0,128.263-63.153,134.618-73.905
	c0-4.402-10.123,27.874-134.618,27.874C449.573,971.273,449.573,910.85,449.573,937.856z"/>
<path display="none" fill="#D1D2D3" d="M449.249,937.856c-35.994,0-128.261-63.153-134.621-73.905
	c0-4.402,10.133,27.874,134.621,27.874C449.249,971.273,449.249,910.85,449.249,937.856z"/>
<path display="none" fill="#D1D2D3" d="M446.438,95.85l91.624,128.772l132.24-47.546c0,0-43.481,75.144-75.038,132.861
	c-0.756,1.365-9.113,16.915-9.855,18.258c-23.449-36.64-66.449-79.066-138.978-79.199C446.432,122.226,446.438,95.85,446.438,95.85z
	"/>
<path display="none" fill="#F8C96A" d="M538.656,510.691c-5.97-4.161-11.625-8.873-16.883-14.125
	c-21.846-21.847-34.431-50.48-35.797-81.146h-33.854v130.882C485.424,544.97,515.65,531.715,538.656,510.691L538.656,510.691z"/>
<path display="none" fill="#F8C96A" d="M497.142,415.42c1.793,36.353,21.098,68.171,49.614,87.217
	c21.392-23.1,34.902-53.59,36.26-87.217H497.142z"/>
<path display="none" fill="#F06548" d="M452.122,404.269h33.861c1.359-30.669,13.944-59.306,35.79-81.152
	c5.258-5.253,10.913-9.965,16.891-14.126c-23.014-21.024-53.24-34.271-86.542-35.612V404.269L452.122,404.269z"/>
<path display="none" fill="#F06548" d="M497.142,404.269h85.874c-1.357-33.633-14.868-64.125-36.26-87.218
	C518.239,336.091,498.935,367.916,497.142,404.269L497.142,404.269z"/>
<path display="none" fill="#F06548" d="M354.448,308.998c5.97,4.155,11.622,8.866,16.879,14.12
	c21.846,21.854,34.431,50.486,35.793,81.152h33.857V273.386C407.681,274.72,377.451,287.974,354.448,308.998L354.448,308.998z"/>
<path display="none" fill="#F8C96A" d="M440.975,415.42h-33.854c-1.365,30.666-13.951,59.299-35.793,81.146
	c-5.258,5.252-10.909,9.964-16.885,14.125c23.009,21.023,53.238,34.278,86.532,35.611V415.42z"/>
<path display="none" fill="#F06548" d="M395.959,404.269c-1.799-36.353-21.097-68.178-49.614-87.218
	c-21.395,23.093-34.901,53.591-36.252,87.218H395.959z"/>
<path display="none" fill="#F8C96A" d="M395.959,415.42h-85.867c1.351,33.627,14.858,64.118,36.252,87.217
	C374.865,483.591,394.16,451.766,395.959,415.42L395.959,415.42z"/>
<path display="none" fill="#808184" d="M445.329,95.85l-91.63,128.772l-132.241-47.546c0,0,43.479,75.144,75.042,132.861
	c0.744,1.365,9.117,16.915,9.855,18.258c23.452-36.64,66.446-79.066,138.974-79.199C445.329,122.226,445.329,95.85,445.329,95.85z"
	/>
<path display="none" opacity="0.14" fill="#424143" enable-background="new    " d="M783.504,694.479l-15.697-308.785
	c0,0-0.13-73.694-0.13-77.051c-4.548-3.614-42.641-29.696-53.574-32.633c-5.918-1.591-135.912-89.758-281.515-94.231
	c-148.91-4.577-313.423,74.561-313.423,74.561l7.926,358.793l0.268,76.946l54.91,32.347l260.893,175.664L783.504,694.479z"/>
<path display="none" fill="#FFDE11" d="M127.343,692.041c0-8.229,0-16.706,0-25.342L51.77,710.401c0,8,0,15.921,0,23.716
	c0.022-0.008,0.029-0.012,0.059-0.012c0.252,0.554,2.98,2.239,9.807,6.253l74.542-43.108
	C133.232,695.514,130.273,693.768,127.343,692.041z M52.371,733.893c0.02-0.007,0.035-0.019,0.056-0.024
	c0.145,0.006,0.29,0.013,0.484,0.038C52.947,733.913,52.564,733.97,52.371,733.893z"/>
<path display="none" fill="#6AABDD" d="M730.312,284.438c4.626,2.558,9.145,5.206,13.538,7.919l72.658-42.009
	c-3.934-2.964-7.981-5.875-12.146-8.732L730.312,284.438z"/>
<path display="none" fill="#EC2227" d="M51.77,692.564l75.573-43.71c0-5.19,0-10.438,0-15.745L51.77,676.812
	C51.77,682.09,51.77,687.342,51.77,692.564z"/>
<path display="none" fill="#FFDE11" d="M767.699,308.656c0,7.576,0,15.407,0,23.408l75.574-43.701c0-5.09,0-10.146,0-15.149
	c-4.369-4.278-8.98-8.447-13.808-12.529l-71.172,41.148C761.49,304.074,764.66,306.328,767.699,308.656z"/>
<path display="none" fill="#EC2227" d="M843.273,306.199L767.699,349.9c0,5.855,0,11.812,0,17.836l75.574-43.701
	C843.273,318.038,843.273,312.095,843.273,306.199z"/>
<path display="none" fill="#1F2E5C" d="M166.75,715.237c-5.123-3.013-10.213-6.005-15.292-8.995l-74.354,43.005
	c5.152,2.956,10.313,5.924,15.475,8.879L166.75,715.237z"/>
<path display="none" fill="#424143" d="M447.42,967.78c0-31.497-0.101-65.503-0.101-89.998
	c-85.232-48.364-177.85-102.227-265.267-153.562l-73.994,42.782C222.454,832.621,336.719,898.365,447.42,967.78"/>
<path display="none" fill="#424143" d="M447.42,967.78c125.338-78.597,255.241-152.482,384.73-226.8
	c9.36-4.887-0.817,0.473,11.258-5.89c-0.035-1.068-0.087-2.118-0.135-3.151c0-119.067,0-263.398,0-390.074l-75.574,43.701
	c0,99.303,0,216.338,0,306.435c-103.83,61.213-215.092,126.149-320.179,185.781C447.521,902.277,447.42,936.283,447.42,967.78"/>
<path display="none" fill="#424143" d="M748.103,209.774l-0.331-89.463c-98.034-60.251-299.86-78.074-299.913-78.074
	c0,0-202.113,18.185-300.139,78.439l0.078,88.665c-38.058,17.87-70.916,39.286-96.028,63.872c0,117.625,0,259.782,0,385.761
	l75.573-43.7c0-102.166,0-219.669,0-306.619c75.105-57.232,198.362-88.064,320.178-88.173c0-26.25,0-36.525,0-47.438
	c0,10.912,0,21.188,0,47.438c96.085,0.082,193.045,19.299,266.582,55.492l75.702-43.782
	C776.799,224.199,762.842,216.726,748.103,209.774z"/>
<path display="none" fill="#FFDE11" d="M337.224,141.941c0.03,0.007,0.044,0.007,0.072,0.014c0.131,0.082,0.253,0.169,0.427,0.291
	C337.752,142.274,337.377,142.118,337.224,141.941z"/>
<polygon display="none" fill="#424143" points="451.365,963.422 447.434,967.745 442.782,963.422 442.782,877.792 451.365,877.792 
	"/>
<rect x="728.257" y="670.05" display="none" fill="#E7E7E7" width="160.07" height="21.659"/>
<rect x="803.156" y="521.978" display="none" fill="#E7E7E7" width="85.171" height="21.659"/>
<rect x="9.993" y="670.05" display="none" fill="#E7E7E7" width="192.542" height="21.659"/>
<rect x="9.993" y="521.978" display="none" fill="#E7E7E7" width="85.17" height="21.659"/>
<polygon display="none" fill="#69539C" points="124.916,670.05 9.993,670.05 67.453,603.976 9.993,543.637 124.916,543.637 "/>
<polygon display="none" fill="#69539C" points="773.404,670.05 888.327,670.05 830.867,603.976 888.327,543.637 773.404,543.637 "/>
<polygon display="none" fill="#E7E7E7" points="778.708,737.167 450.081,921.169 119.545,737.167 119.545,342.385 450.081,156.115 
	778.708,342.385 "/>
<path display="none" fill="#595A5C" d="M450.091,928.964L112.735,741.17V338.416l337.356-190.124l335.422,190.13v402.74
	L450.091,928.964z M126.355,733.165l323.719,180.202l321.823-180.188V346.354L450.074,163.937l-323.719,182.43V733.165z"/>
<path display="none" fill="#3E2A6D" d="M780.144,81.254c-10.729,0-19.435,8.703-19.435,19.438c0,7.525,4.287,14.033,10.542,17.27
	L659.108,358.909L629.122,90.621c9.58-1.842,16.823-10.261,16.823-20.373c0-11.466-9.292-20.751-20.755-20.751
	c-11.46,0-20.752,9.286-20.752,20.751c0,8.717,5.381,16.167,13,19.242l-94.493,264.333L459.753,88.406
	c9.034-3.007,15.56-11.527,15.56-21.564c0-12.557-10.179-22.729-22.726-22.729c-12.55,0-22.722,10.173-22.722,22.729
	c0,9.604,5.96,17.812,14.378,21.131L383.81,358.421L287.116,87.925c5.943-3.651,9.919-10.193,9.919-17.677
	c0-11.466-9.292-20.751-20.752-20.751c-11.463,0-20.751,9.286-20.751,20.751c0,10.606,7.958,19.336,18.226,20.583l-29.438,263.365
	L133.382,115.822c5.594-3.414,9.339-9.55,9.339-16.587c0-10.734-8.703-19.438-19.438-19.438s-19.435,8.703-19.435,19.438
	c0,10.735,8.7,19.438,19.435,19.438c1.253,0,2.475-0.129,3.664-0.359l37.49,236.206c-0.352-0.027-0.701-0.055-1.053-0.082
	c0,0-14.202,13.573,0.447,26.278c-0.264,19.492-0.579,49.617-0.39,71.249c-0.017,0-0.037-0.081-0.058-0.081
	c0,0-8.076,24.633,2.269,38.245c12.834,0,555.384,0,573.864,0c14.202-14.662-0.055-38.164-0.055-38.164v-70.978
	c13.62-14.196,1.924-24.91,0.237-26.373l37.277-234.77c1.025,0.176,2.082,0.283,3.159,0.283c10.741,0,19.441-8.709,19.441-19.437
	C799.578,89.95,790.885,81.254,780.144,81.254z"/>
<polygon display="none" fill="#3E2A6D" points="446.888,896.272 175.355,745.233 165.116,738.048 696.387,722.651 739.449,738.089 
	724.793,745.233 "/>
<rect x="165.449" y="489.714" display="none" fill="#3E2A6D" width="574" height="68.584"/>
<rect x="82.332" y="513.959" display="none" fill="#564381" width="734.404" height="143.379"/>
<rect x="82.332" y="492.3" display="none" fill="#E7E7E7" width="734.404" height="21.659"/>
<rect x="82.332" y="657.3" display="none" fill="#E7E7E7" width="734.404" height="21.659"/>
<rect x="165.105" y="679.714" display="none" fill="#3E2A6D" width="574.406" height="58.344"/>
<path fill="#F68B41" d="M170.907,505.841c-20.474,36.446,12.611,74.151,28.19,79.316c21.952-33.485,32.291-67.741,24.93-93.26
	c-3.46-11.982-7.309-22.145-12.611-30.848c74.197-21.05,147.412-47.127,222.438-64.34c1.05,5.138,2.035,10.584,2.981,16.416
	c7.344,45.163,3.216,82.855-29.289,143.029c9.251-0.316,82.562-0.138,60.013,37.361c-16.932,28.46,83.154-117.524,83.154,89.115
	l-64.518,43.779c-240.446,69.909-322.722-60.291-340.501-95.725C130.829,601.076,115.26,535.807,170.907,505.841z"/>
<path fill="#F68B41" d="M25.099,238.353c-10.046,51.587,94.771,16.403,74.272-18.646c-29.756-50.899-35.43-103.967,33.444-167.762
	c-27.009,63.857-4.854,132.08,12.432,150.658c37.757,40.144,73.012,56.744,92.375,117.883c3.853,12.125,10.814,33.065,9.589,59.285
	c15.486-17.194,32.049-43.091,23.149-85.066c-4.252-20.051-13.403-36.928-26.245-51.945
	c-22.502-27.055-90.233-59.452-67.438-120.914c-0.083,6.707,38.416,42.76,57.857,35.599c18.137-6.672,17.889-55.472,2.692-79.006
	c43.019-3.442,151.992,212.989,169.619,232.481c25.819,28.804,36.511,49.329,43.786,83.737
	c-75.381,17.325-148.682,43.393-223.227,64.463c-5.54-8.503-12.622-15.562-22.385-21.463
	c-28.824-17.427-58.677-15.947-86.663-23.954c-34.921-9.957-68.1-34.277-86.853-55.437C5.398,328.83-5.268,280.893,25.099,238.353z"
	/>
<path fill="#F68B41" d="M744.366,505.841c20.472,36.446-12.606,74.151-28.188,79.316c-21.953-33.485-32.288-67.741-24.935-93.26
	c3.465-11.982,7.313-22.145,12.615-30.848c-74.199-21.05-147.412-47.127-222.438-64.34c-1.05,5.138-2.035,10.584-2.98,16.416
	c-7.344,45.163-3.217,82.855,29.288,143.029c-9.251-0.316-82.563-0.138-60.017,37.361c16.936,28.46-83.151-117.524-83.151,89.115
	l64.52,43.779c240.435,69.909,322.718-60.291,340.497-95.725C784.448,601.076,800.01,535.807,744.366,505.841z"/>
<path fill="#F68B41" d="M889.179,238.353c10.038,51.587-94.775,16.403-74.276-18.646c29.753-50.899,35.428-103.967-33.443-167.762
	c27.006,63.857,4.854,132.08-12.436,150.658c-37.754,40.144-73.01,56.744-92.371,117.883c-3.851,12.125-10.818,33.065-9.592,59.285
	c-15.486-17.194-32.046-43.091-23.15-85.066c4.256-20.051,13.405-36.928,26.248-51.945c22.502-27.055,90.23-59.452,67.438-120.914
	c0.083,6.707-38.415,42.76-57.854,35.599c-18.136-6.672-17.889-55.472-2.699-79.006c-43.016-3.442-151.987,212.989-169.614,232.481
	c-25.818,28.804-36.513,49.329-43.786,83.737c75.384,17.325,148.688,43.393,223.227,64.463c5.542-8.503,12.622-15.562,22.386-21.463
	c28.822-17.427,58.679-15.947,86.67-23.954c34.91-9.957,68.092-34.277,86.848-55.437
	C908.871,328.83,919.544,280.893,889.179,238.353z"/>
<path fill="#939598" d="M103.82,135.164c0,377.48,158.484,683.486,353.976,683.486c195.494,0,353.976-306.006,353.976-683.486
	C811.771,36.444,103.82,36.444,103.82,135.164z"/>
<path fill="#EFEEEA" d="M137.157,145.065c0,339.733,142.636,615.146,318.583,615.146c175.942,0,318.572-275.413,318.572-615.146
	C774.312,56.219,137.157,56.219,137.157,145.065z"/>
<path fill="#414042" d="M178.839,248.847c34.05,277.835,110.099,342.37,151.963,353.497
	c56.548-45.832,124.136-50.878,124.136-50.878l0,0c0.31-0.007,0.505-11.203,0.626-29.23c0.127,18.027,0.319,29.224,0.63,29.23l0,0
	c0,0,67.589,5.046,124.135,50.878c41.865-11.127,117.91-75.661,151.968-353.497C718.222,248.847,192.91,248.847,178.839,248.847z"/>
<path fill="#58595B" d="M457.187,101.521c0,0.124,0,0.923,0,2.273C457.187,102.691,457.187,101.906,457.187,101.521
	c-148.569-0.042-297.028,32.226-297.028,45.569c0,47.236,21.459,50.08,21.459,91.154c47.986,0,187.666-0.153,275.64-0.153
	c0.049,0,0.148,0,0.148,0c87.975,0,227.861,0.153,275.854,0.153c0-41.074,21.401-43.979,21.401-91.216
	C754.661,133.677,606.75,101.479,457.187,101.521z"/>
<path fill="#F68B41" d="M753.38,511.426c-2.774-1.977-5.77-3.844-9.014-5.585c2.858,5.082,4.669,10.184,5.634,15.231
	C750.013,521.162,751.549,516.7,753.38,511.426z"/>
<path fill="#F68B41" d="M161.632,511.426c2.771-1.977,5.77-3.844,9.013-5.585c-2.861,5.082-4.668,10.184-5.636,15.231
	C164.996,521.162,163.46,516.7,161.632,511.426z"/>
<path fill="#EFEEEA" d="M262.631,738.693c0,103.272,83.706,186.975,186.964,186.975c103.261,0,186.963-83.702,186.963-186.975
	c0-103.25-83.702-186.96-186.963-186.96C346.337,551.733,262.631,635.443,262.631,738.693z"/>
<path fill="#F68B41" d="M449.595,925.668c127.65,0,203.709-118.256,184.278-218.717c6.245,38.271-43.628,40.06-65.979,55.85
	c-28.93,19.728-26.302,51.938-10.521,76.912c-25.859-7.223-40.096-28.265-44.049-41.409
	c-18.405-69.698,109.724-116.721,64.788-223.008c2.135,49.123-46.365,93.963-95.116,112.953
	c14.895-13.543,29.228-33.34,37.332-47.689c17.096-30.242,20.615-53.289,15.352-87.47c-5.255-36.817-30.238-66.404-60.48-90.732
	c13.147,14.467,19.72,42.071,5.264,57.853c3.939-35.501-24.984-57.853-49.962-78.881c-30.246-24.982-55.223-84.156-25.646-120.308
	c-30.896,31.551-35.503,68.362-31.55,90.713c2.624,18.413,15.121,36.163,25.638,51.938c11.833,17.099,27.605,32.872,38.126,51.278
	c19.724,38.133,24.466,80.866-13.719,101.895c3.939-17.09,3.646-37.286,0.575-54.562c-5.261-29.573-23.012-54.562-54.573-67.053
	c27.496,16.801,32.869,51.946,30.248,76.914c-2.636,21.041-15.781,41.423-30.248,57.198c-24.984,27.618-57.189,60.478-44.044,99.933
	c6.583,22.351,31.554,46.678,51.274,59.822c-80.672,0-111.847-107.581-92.974-136.516c-46.017,86.112-14.915,203.928,77.86,251.555
	C384.518,915.973,404.542,924.049,449.595,925.668L449.595,925.668z"/>
</svg>
